<svg xmlns="http://www.w3.org/2000/svg" xmlns:xlink="http://www.w3.org/1999/xlink" width="600" height="600"><defs><linearGradient id="A" gradientUnits="userSpaceOnUse"><stop offset="0" stop-color="#5938ff"/><stop offset="1" stop-color="#5938ff" stop-opacity="0"/></linearGradient><linearGradient id="B" x1="101.237" y1="189.173" x2="542.831" y2="184.485" gradientUnits="userSpaceOnUse"><stop offset="0" stop-color="#5938ff"/><stop offset="1" stop-color="#5938ff" stop-opacity="0"/></linearGradient><linearGradient xlink:href="#A" id="C" x1="61.768" y1="471.284" x2="536.27" y2="471.284"/><linearGradient xlink:href="#A" id="D" x1="60.955" y1="471.289" x2="535.457" y2="471.289"/><linearGradient id="E" x1="60.955" y1="471.289" x2="535.457" y2="471.289" gradientUnits="userSpaceOnUse"><stop offset="0" stop-color="#5938ff"/><stop offset="1" stop-color="#5938ff" stop-opacity="0"/></linearGradient></defs><g fill-rule="evenodd"><path d="M105.628 207.702s31.25-33.594 47.656-49.219 26.563-20.312 47.656-29.687c22.166-9.852 50.018-20.091 77.344-21.875 27.386-1.788 75.04-2.841 94.531 3.906 20.313 7.031 36.766 14.783 57.031 28.906 26.028 18.139 50.781 41.406 63.281 60.156 7.581 11.371 17.969 27.344 25 44.531 9.354 22.866 13.281 46.875 16.406 60.156s6.25 33.594 6.25 33.594l-35.156-55.469c-7.031-10.156-23.003-33.859-35.938-47.656-11.719-12.5-27.414-26.054-39.062-33.594-16.926-10.955-36.719-20.312-59.375-23.437s-58.426 4.082-74.219 8.594c-16.406 4.688-42.969 18.75-56.25 27.344-8.921 5.773-28.906 26.563-35.937 33.594s-20.312 23.437-20.312 23.437l-78.906-63.281z" fill="#fff" stroke="#000" stroke-linejoin="round"/><path d="M91.768 443.744H506.27" fill="url(#C)" stroke="#fff" stroke-width="65" stroke-linecap="square"/></g><g stroke-linejoin="round" stroke="#000"><path d="M366.281 437.365l-38.986-70.976-46.09-66.582 80.96 1.725 80.707-6.624-41.974 69.25-34.616 73.206z" transform="matrix(-1.081352 -.818115 -.583533 .771291 713.01501 307.30566)" fill="#5938ff" stroke-width="6.986"/><path d="M103.674 208.594s31.25-33.594 47.656-49.219 26.563-20.312 47.656-29.687c22.166-9.852 50.018-20.091 77.344-21.875 27.386-1.788 75.04-2.841 94.531 3.906 20.313 7.031 36.766 14.783 57.031 28.906 26.028 18.139 50.781 41.406 63.281 60.156 7.581 11.371 17.969 27.344 25 44.531 9.354 22.866 13.281 46.875 16.406 60.156s6.25 33.594 6.25 33.594l-35.156-55.469c-7.031-10.156-23.003-33.859-35.937-47.656-11.719-12.5-27.414-26.054-39.062-33.594-16.926-10.955-36.719-20.312-59.375-23.437s-58.426 4.082-74.219 8.594c-16.406 4.688-42.969 18.75-56.25 27.344-8.921 5.773-28.906 26.563-35.937 33.594s-20.312 23.438-20.312 23.438l-78.906-63.281z" fill="url(#B)" stroke-width="8" fill-rule="evenodd"/></g><path d="M90.954 443.75h414.503" fill="url(#D)" fill-rule="evenodd" stroke="url(#E)" stroke-width="65" stroke-linecap="square"/></svg>