<svg xmlns="http://www.w3.org/2000/svg" width="600" height="600"><defs><linearGradient id="A" x1="418.97" y1="465.768" x2="407.481" y2="373.504" gradientUnits="userSpaceOnUse"><stop offset="0" stop-color="red"/><stop offset="1" stop-color="red" stop-opacity="0"/></linearGradient><linearGradient id="B" x1="211.003" y1="214.569" x2="137.08" y2="54.695" gradientUnits="userSpaceOnUse"><stop offset="0" stop-color="red"/><stop offset="1" stop-color="red" stop-opacity="0"/></linearGradient><linearGradient id="C" x1="-135.567" y1="533.12" x2="366.235" y2="59.084" gradientUnits="userSpaceOnUse"><stop offset="0" stop-color="red"/><stop offset="1" stop-color="red" stop-opacity="0"/></linearGradient></defs><rect width="610.39" height="30.402" x="-324.384" y="407.98" rx="20.163" ry="24.322" transform="matrix(.699409 -.714722 .740377 .672192 0 0)" fill="url(#C)" stroke="#000" stroke-width="7.872" stroke-linejoin="round"/><g fill="#fff"><rect ry="30.16" rx="30.276" y="143.164" x="59.919" height="60.319" width="228.96"/><rect transform="rotate(270)" width="224.573" height="61.498" x="-281.231" y="141.812" rx="29.696" ry="30.749"/></g><path d="M171.261 57.275l-7.466 1.303c-1.825.489-4.479 1.792-5.972 2.443s-5.143 3.421-6.138 4.072-1.825 1.303-3.816 4.072-2.654 4.235-3.65 7.167-2.489 5.375-2.489 8.47v18.244 39.745l-52.591.163s-5.143.652-6.47.977-2.654.489-4.977 1.792-3.484 1.629-5.309 3.258-3.65 2.932-4.811 4.561-1.659 2.443-2.82 4.235-2.323 4.561-2.82 5.864-1.161 5.05-1.327 7.819.166 6.353.664 8.633 2.323 6.027 2.986 7.33 3.65 5.375 4.811 6.516 3.982 3.746 5.309 4.398 2.489 1.792 5.309 2.606 5.641 1.466 6.968 1.792 55.079.163 55.079.163l.332 52.776.995 4.561c.332 1.629 1.327 3.584 2.323 4.887s2.323 3.258 3.65 4.887 5.309 5.05 6.47 5.701 7.797 3.095 9.291 3.746 7.466 1.303 8.959 1.14 4.811 0 7.3-.977 3.65-.652 5.807-2.28 3.318-2.118 5.309-3.909 3.318-3.258 4.479-4.724 3.816-6.027 4.479-7.656.83-2.932 1.161-5.212.498-53.102.498-53.102h58.066l4.645-.977c1.327-.326 4.313-.977 5.475-1.792s4.313-2.118 5.972-3.746 2.82-2.606 4.479-4.887 4.645-7.982 4.977-8.959 1.493-6.353 1.327-7.819-.332-7.33-.829-8.633-1.493-5.375-2.986-7.819-4.313-5.701-5.641-6.841-4.645-3.909-6.138-4.724-5.143-2.28-7.631-2.932-6.47-.814-6.47-.814h-55.245l-.332-58.803s-.166-2.769-1.161-5.701-3.65-7.656-4.977-9.448-5.807-5.538-6.802-6.19-4.313-2.443-5.641-2.932-1.825-1.303-4.811-1.629l-7.797-.814z" fill="url(#B)" fill-rule="evenodd" stroke="#000" stroke-width="6"/><rect ry="30.266" rx="30.22" y="403.668" x="300.055" height="60.532" width="228.537" fill="#fff"/><rect width="226.663" height="59.163" x="300.831" y="403.996" rx="29.972" ry="29.582" fill="url(#A)" stroke="#000" stroke-width="6" stroke-linejoin="round"/></svg>