<svg xmlns="http://www.w3.org/2000/svg" width="600" height="600"><defs><linearGradient y2="-164.882" x2="93.662" y1="-114.488" x1="-13.971" id="A" gradientUnits="userSpaceOnUse"><stop offset="0" stop-color="red"/><stop offset="1" stop-color="red" stop-opacity="0"/></linearGradient><marker id="B" refX="0.0" refY="0.0" orient="auto" overflow="visible"><path transform="matrix(-.8 0 0 -.8 -10 0)" d="M0 0l5-5-17.5 5L5 5 0 0z" fill-rule="evenodd" stroke="#000" stroke-width="1pt"/></marker><linearGradient gradientTransform="matrix(0.4886094,-3.0688775,0.4738435,3.1645097,205.26578,110.21985)" y2="118.414" x2="134.685" y1="129.249" x1="124.059" id="C" gradientUnits="userSpaceOnUse"><stop offset="0" stop-color="#e60000"/><stop offset="1" stop-color="#e60000" stop-opacity="0"/></linearGradient></defs><path d="M233.661 114.734a40 40 0 0 1-60.003 34.65 40 40 0 0 1 0-69.3 40 40 0 0 1 60.003 34.65z" fill="red"/><path transform="matrix(.430706 -.94827 .919925 .397382 565.21362 156.53262)" d="M24.076-195.877l-10.504 72.956-1.034 59.745-57.93-45.574-51.224-30.768 68.433-27.381 52.258-28.977z" fill="url(#A)" stroke="#000"/><path d="M380.58 123.186l-96.266-.658" fill="#e60000" stroke="url(#C)" stroke-width="34.643" stroke-linecap="square"/><path d="M300.458 528.584l-97.897-339.333" fill="none" stroke="#000" stroke-width="19.792" stroke-linecap="round" marker-end="url(#B)"/></svg>