<svg xmlns="http://www.w3.org/2000/svg" width="72" height="82" fill="none"><path d="M38.352 5h-5.523c-11.413 0-20.354 9.301-20.354 21.175v29.647C12.475 67.698 21.416 77 32.829 77h5.523c11.675 0 21.173-9.5 21.173-21.178V26.175C59.525 14.499 50.027 5 38.352 5zm-2.565 11.097h.427c.668 0 1.212.543 1.212 1.211v8.624c0 .668-.544 1.212-1.212 1.212h-.427c-.668 0-1.212-.544-1.212-1.212v-8.624c0-.668.544-1.211 1.212-1.211zm20.97 39.725c0 10.151-8.256 18.409-18.404 18.409h-5.523c-9.861 0-17.585-8.086-17.585-18.409V26.175c0-10.321 7.724-18.406 17.585-18.406h1.77v5.74c-1.616.507-2.792 2.018-2.792 3.799v8.624c0 1.781 1.176 3.293 2.792 3.799v7.124c0 .765.62 1.385 1.385 1.385s1.385-.62 1.385-1.385v-7.114c1.634-.496 2.827-2.016 2.827-3.809v-8.625c0-1.794-1.193-3.313-2.827-3.809v-5.73h.984c10.148 0 18.404 8.257 18.404 18.406v29.647z" fill="#000"/></svg>