<svg xmlns="http://www.w3.org/2000/svg" height="438.667" viewBox="0 0 329.269 329" width="438.667" xmlns:v="https://vecta.io/nano"><path d="M194.801 164.77L323.012 36.555c8.344-8.34 8.344-21.824 0-30.164s-21.824-8.34-30.164 0L164.633 134.605 36.422 6.391c-8.344-8.34-21.824-8.34-30.164 0s-8.344 21.824 0 30.164L134.469 164.77 6.258 292.984c-8.344 8.34-8.344 21.824 0 30.164 4.156 4.16 9.621 6.25 15.082 6.25s10.922-2.09 15.082-6.25l128.211-128.215 128.215 128.215c4.16 4.16 9.621 6.25 15.082 6.25s10.922-2.09 15.082-6.25c8.344-8.34 8.344-21.824 0-30.164zm0 0"/></svg>