<svg xmlns="http://www.w3.org/2000/svg" width="512" height="512" xmlns:v="https://vecta.io/nano"><path d="M392 40V16a8 8 0 0 0-8-8H128a8 8 0 0 0-8 8v24a8 8 0 0 0 8 8h47.2l-14.53 152.56A48.073 48.073 0 0 0 120 248v24a8 8 0 0 0 8 8h104v192a8.066 8.066 0 0 0 1.34 4.44l16 24a8.01 8.01 0 0 0 13.32 0l16-24A8.066 8.066 0 0 0 280 472V280h104a8 8 0 0 0 8-8v-24a48.073 48.073 0 0 0-40.67-47.44L336.8 48H384a8 8 0 0 0 8-8zM264 469.58l-8 12-8-12V280h16zM344 216a32.036 32.036 0 0 1 32 32v16H136v-16a32.036 32.036 0 0 1 32-32zm-167.2-16l14.47-152h129.46l14.47 152zM376 32H136v-8h240z"/></svg>