<svg xmlns="http://www.w3.org/2000/svg" xmlns:xlink="http://www.w3.org/1999/xlink" width="600" height="600"><defs><linearGradient id="A" gradientUnits="userSpaceOnUse"><stop offset="0" stop-color="red"/><stop offset="1" stop-color="red" stop-opacity="0"/></linearGradient><linearGradient id="B" gradientUnits="userSpaceOnUse"><stop offset="0" stop-color="red"/><stop offset="1" stop-color="red" stop-opacity="0"/></linearGradient><linearGradient xlink:href="#B" id="C" x1="-94.91" y1="-80.527" x2="94.737" y2="-161.731"/><linearGradient xlink:href="#A" id="D" x1="113.347" y1="143.255" x2="133.592" y2="121.877"/><linearGradient xlink:href="#B" id="E" x1="-66.814" y1="-187.614" x2="71.209" y2="-91.409"/><linearGradient xlink:href="#A" id="F" x1="455.789" y1="478.625" x2="476.034" y2="457.247"/><path id="G" d="M24.076-195.877l-10.504 72.956-1.034 59.745-57.93-45.574-51.224-30.768 68.433-27.381 52.258-28.977z"/></defs><path d="M97.143 510l410-424.286" fill="none" stroke="#000" stroke-width="30" stroke-linecap="round"/><path d="M337.127 299.819c0 20.603-16.702 37.305-37.305 37.305s-37.305-16.702-37.305-37.305 16.702-37.305 37.305-37.305 37.305 16.702 37.305 37.305z" fill="#fff" stroke="red" stroke-width="15.02"/><path d="M178.817 187.49L77.388 88.918" fill="red" fill-rule="evenodd" stroke="url(#D)" stroke-width="20"/><g stroke="#000"><use xlink:href="#G" transform="matrix(.965111 -.391515 .393887 .921427 276.84396 325.99097)" fill="url(#C)"/><use xlink:href="#G" transform="matrix(.201158 -1.02189 .986643 .175243 529.95084 402.85301)" fill="url(#E)"/></g><path d="M521.258 522.86L419.83 424.289" fill="red" fill-rule="evenodd" stroke="url(#F)" stroke-width="20"/></svg>