<svg xmlns="http://www.w3.org/2000/svg" xmlns:xlink="http://www.w3.org/1999/xlink" width="600" height="600"><defs><linearGradient id="A" gradientUnits="userSpaceOnUse"><stop offset="0" stop-color="red"/><stop offset="1" stop-color="red" stop-opacity="0"/></linearGradient><linearGradient id="B" x1="-74.741" y1="-86.036" x2="91.101" y2="-163.683" gradientUnits="userSpaceOnUse"><stop offset="0" stop-color="red"/><stop offset="1" stop-color="red" stop-opacity="0"/></linearGradient><linearGradient xlink:href="#A" id="C" gradientTransform="matrix(4.9810849,0.3788437,-5.1235048,0.5090201,259.47826,252.87199)" x1="123.157" y1="130.179" x2="131.752" y2="121.438"/><linearGradient xlink:href="#A" id="D" gradientTransform="matrix(-4.9799791,-0.393113,5.1249421,-0.4943392,220.36251,344.76217)" x1="123.157" y1="130.179" x2="131.752" y2="121.438"/><path id="E" d="M24.076-195.877l-10.504 72.956-1.034 59.745-57.93-45.574-51.224-30.768 68.433-27.381 52.258-28.977z"/><path id="F" d="M443.217 507.561c0 20.603-16.702 37.305-37.305 37.305s-37.305-16.702-37.305-37.305 16.702-37.305 37.305-37.305 37.305 16.702 37.305 37.305z"/></defs><path d="M405.912 79.786v422.693" fill="none" stroke="#000" stroke-width="30" stroke-linecap="round"/><g transform="translate(-.97 -10)"><use xlink:href="#E" transform="matrix(-.952937 -.362432 .388503 -.801643 270.74786 17.689399)" fill="url(#B)" stroke="#000"/><path d="M239.549 183.191l-.061 88.601" fill="red" fill-rule="evenodd" stroke="url(#D)" stroke-width="42.315" stroke-linecap="square"/></g><g transform="translate(-2 12)"><use xlink:href="#E" transform="matrix(.953971 .3597 -.386205 .802753 210.03018 580.08777)" fill="url(#B)" stroke="#000"/><path d="M240.755 414.497l-.193-88.6" fill="red" fill-rule="evenodd" stroke="url(#C)" stroke-width="42.315" stroke-linecap="square"/></g><g fill="#fff" stroke="red" stroke-width="15.02"><use xlink:href="#F"/><use xlink:href="#F" x="0.174" y="-416.969"/></g></svg>