<svg xmlns="http://www.w3.org/2000/svg" xmlns:xlink="http://www.w3.org/1999/xlink" width="600" height="600" xmlns:v="https://vecta.io/nano"><defs><linearGradient id="A" x1="-74.741" y1="-86.036" x2="60.712" y2="-149.455" gradientUnits="userSpaceOnUse"><stop offset="0" stop-color="red"/><stop offset="1" stop-color="red" stop-opacity="0"/></linearGradient><linearGradient id="B" x1="123.157" y1="130.179" x2="131.752" y2="121.438" gradientTransform="matrix(0.4886094,-3.0688775,0.4738435,3.1645097,130.33121,216.9853)" gradientUnits="userSpaceOnUse"><stop offset="0" stop-color="red"/><stop offset="1" stop-color="red" stop-opacity="0"/></linearGradient><path id="C" d="M71.721 531.31c10.102-73.741 22.223-93.944 35.355-117.178s29.294-44.447 46.467-58.589 10.102-9.091 38.386-30.305 37.376-30.305 42.426-33.335"/><path id="D" d="M486.502 345.885c0 20.603-16.702 37.305-37.305 37.305s-37.305-16.702-37.305-37.305 16.702-37.305 37.305-37.305 37.305 16.702 37.305 37.305z"/></defs><g fill="none" stroke="#000" stroke-width="30" stroke-linecap="round"><path d="M162.635 62.268v472.403M446.487 61.258v472.403"/><use xlink:href="#C"/><path d="M80.918 140.181l164.443-.61"/><use xlink:href="#C" x="283.853" y="-1.011"/></g><use xlink:href="#D" fill="#fff" stroke="red" stroke-width="15.02"/><path d="M364.771 139.171l164.443-.61" fill="none" stroke="#000" stroke-width="30" stroke-linecap="round"/><use xlink:href="#D" x="-4.041" y="-206.072" fill="#fff" stroke="red" stroke-width="15.02"/><path d="M305.646 229.952l-96.266-.658" fill="red" fill-rule="evenodd" stroke="url(#B)" stroke-width="34.643"/><path d="M24.076-195.877l-10.504 72.956-1.034 59.745-57.93-45.574-51.224-30.768 68.433-27.381 52.258-28.977z" transform="matrix(.430706 -.94827 .919925 .397382 470.99848 267.95869)" fill="url(#A)" stroke="#000"/></svg>