<svg xmlns="http://www.w3.org/2000/svg" xmlns:xlink="http://www.w3.org/1999/xlink" width="600" height="600"><defs><linearGradient id="A" x1="40.9" y1="-131.851" x2="-221.253" y2="5.274" xlink:href="#G"><stop offset="0" stop-color="red"/><stop offset="1" stop-color="#060000" stop-opacity="0"/></linearGradient><radialGradient id="B" cx="291.682" cy="262.174" fx="291.682" fy="262.174" r="85.074" gradientTransform="matrix(-1.448435,1.2351902e-2,-1.400983e-2,-1.7841549,717.83804,724.92059)" xlink:href="#G"><stop offset="0" stop-color="#4db7e8"/><stop offset="1" stop-color="#4db7e8" stop-opacity="0"/></radialGradient><linearGradient id="C" x1="439.135" y1="478.638" x2="516.644" y2="405.165" xlink:href="#G"><stop offset="0"/><stop offset="1" stop-opacity="0"/></linearGradient><linearGradient id="D" x1="198.905" y1="287.279" x2="263.87" y2="891.522" xlink:href="#G"><stop offset="0" stop-color="red"/><stop offset="1" stop-color="red" stop-opacity="0"/></linearGradient><linearGradient id="E" x1="157.926" y1="316.161" x2="318.286" y2="151.538" xlink:href="#G"><stop offset="0" stop-color="#96391a"/><stop offset="1" stop-color="#96391a" stop-opacity="0"/></linearGradient><path id="F" d="M263.37 499.922s-29.268 1.794-48.929-2.143c-19.747-3.954-30.158-7.403-45.873-25.974s-16.306-19.473-22.699-42.597c-3.882-14.042-11.429-141.429-11.429-141.429s18.571 55.714 37.143 95.714 24.448 41.851 27.569 46.464c3.363 4.972 15.004 15.666 18.122 17.912 8.099 5.834 8.648 6.076 20.024 8.481 21.108 4.463 25.714 2.5 25.714 2.5l.357 41.071z"/><linearGradient id="G" gradientUnits="userSpaceOnUse"/></defs><path d="M438.707 242.062c0 101.562-82.332 183.895-183.895 183.895S70.918 343.625 70.918 242.062 153.25 58.168 254.813 58.168 438.707 140.5 438.707 242.062z" fill="#fff" stroke="#000"/><path d="M 399.95727,298.37476 A 85.073784,88.388351 0 1 1 229.8097,298.37476 A 85.073784,88.388351 0 1 1 399.95727,298.37476 z" transform="matrix(2.145197 0 0 2.064752 -422.12893 -370.74627)" opacity=".813" fill="url(#B)"/><path d="M198.084 124.45h0c-10.751 7.107-21.25 15.589-29.375 24.801s-21.25 20.549-28.125 32.596-15 25.51-15.625 33.304-2.576 10.092 3.049 15.761 7.652 4.702 14.451 3.371c8.377-1.64 12.5-8.088 14.375-12.046 2.252-4.754.625-8.503 5-17.715s3.75-12.755 11.875-25.51 6.572-9.455 14.697-17.25 2.879-3.922 17.178-13.22c14.808-9.629 15.266-9.029 21.875-14.881 5.076-4.495 1.712-11.146-2.5-15.589-2.598-2.74-7.393-3.249-13.125-.709-7.567 3.354-11.982 5.998-13.75 7.086z" fill="#fff" fill-rule="evenodd"/><g fill="none"><path d="M433.99 245.819A183.99 183.99 0 0 1 157.996 405.2a183.99 183.99 0 0 1 0-318.762A183.99 183.99 0 0 1 433.99 245.819z" stroke="#000" stroke-width="30"/><path d="M402.844 402.164l107.554 115.383" stroke="url(#C)" stroke-width="60" stroke-linecap="round"/></g><g fill="#fff"><path d="M258.628 386.91l77.594 51.869 67.585 32.921-82.907 49.034-62.441 48.402 5.313-100.904-5.143-81.323z"/><g fill-rule="evenodd"><use xlink:href="#F"/><path d="M134.271 290.541s7.718-32.214 19.141-48.828c8.594-12.5 21.094-19.531 31.25-24.219 19.1-8.815 21.875-6.25 21.875-6.25l3.516 69.531s-2.43 1.094-12.109 10.156c-7.673 7.183-16.406 19.531-21.094 32.031-7.031 18.75-7.812 33.594-6.25 48.438s1.563 17.969 1.563 17.969v3.125l-18.945-50.977-18.945-50.977z"/></g></g><g stroke="#000"><path d="M24.076-195.877l-10.504 72.956-1.034 59.745-57.93-45.574-51.224-30.768 68.433-27.381 52.258-28.977z" transform="matrix(.527051 -1.25727 1.125704 .526871 467.40293 520.40206)" fill="url(#A)"/><use xlink:href="#F" x="0.563" y="0.008" fill="url(#D)"/><path d="M135.224 287.424s7.328-29.089 18.75-45.703c8.594-12.5 21.094-19.531 31.25-24.219 19.1-8.815 21.875-6.25 21.875-6.25l3.516 69.531s-2.43 1.094-12.109 10.156c-7.673 7.184-16.406 19.531-21.094 32.031-7.031 18.75-7.812 33.594-6.25 48.438s3.22 17.416 3.22 17.416l.114 1.657c-15.891-33.886-27.72-68.449-39.272-103.058z" fill="url(#E)" fill-rule="evenodd"/></g></svg>