<svg xmlns="http://www.w3.org/2000/svg" width="600" height="600" fill="none"><path d="M438.707 242.062c0 48.772-19.374 95.547-53.861 130.034s-81.262 53.861-130.033 53.861-95.547-19.374-130.034-53.861a183.9 183.9 0 0 1 0-260.067 183.9 183.9 0 0 1 260.067 0c34.487 34.487 53.861 81.262 53.861 130.033h0z" fill="#fff" stroke="#000"/><path opacity=".813" d="M435.858 245.324a182.49 182.49 0 0 1-13.892 69.839 182.48 182.48 0 0 1-39.561 59.207c-16.947 16.947-37.065 30.39-59.207 39.562a182.51 182.51 0 0 1-139.68 0c-22.142-9.172-42.26-22.615-59.207-39.562s-30.39-37.065-39.561-59.207-13.892-45.873-13.892-69.839a182.5 182.5 0 0 1 13.892-69.84c9.171-22.142 22.614-42.261 39.561-59.207s37.065-30.39 59.207-39.561a182.5 182.5 0 0 1 139.68 0c22.142 9.171 42.26 22.614 59.207 39.561a182.48 182.48 0 0 1 39.561 59.207 182.49 182.49 0 0 1 13.892 69.84h0z" fill="url(#A)"/><path fill-rule="evenodd" d="M198.084 124.45c-10.75 7.107-21.25 15.589-29.375 24.801s-21.249 20.55-28.124 32.596-15 25.509-15.625 33.304-2.576 10.092 3.049 15.761 7.651 4.702 14.451 3.371c8.376-1.64 12.5-8.088 14.375-12.046 2.252-4.754.625-8.503 5-17.715s3.75-12.755 11.874-25.51 6.572-9.455 14.697-17.249 2.879-3.923 17.178-13.22c14.808-9.629 15.267-9.029 21.875-14.881 5.076-4.495 1.712-11.146-2.5-15.589-2.598-2.741-7.393-3.25-13.125-.709-7.567 3.354-11.982 5.998-13.75 7.086z" fill="#fff"/><path d="M433.99 245.819a183.99 183.99 0 0 1-13.989 70.425c-9.244 22.328-22.795 42.617-39.88 59.707a183.97 183.97 0 0 1-59.696 39.897 183.98 183.98 0 0 1-140.842 0 183.98 183.98 0 0 1-59.696-39.897 183.99 183.99 0 0 1-53.869-130.132c-.007-24.166 4.747-48.097 13.99-70.425a183.99 183.99 0 0 1 39.88-59.707c17.086-17.091 37.371-30.648 59.696-39.897a183.99 183.99 0 0 1 140.842 0c22.326 9.249 42.61 22.807 59.696 39.897s30.636 37.379 39.88 59.707 13.996 46.259 13.989 70.425h0z" stroke="#000" stroke-width="30"/><path d="M402.844 402.164L510.398 517.547" stroke="url(#B)" stroke-width="60" stroke-linecap="round"/><path d="M175.836 316h-31.685v-86.748l.308-14.253.513-15.586c-5.264 5.264-8.921 8.716-10.972 10.357l-17.227 13.842-15.278-19.072 48.296-38.452h26.045V316zm45.22-14.663c0-5.742 1.538-10.083 4.614-13.023s7.554-4.409 13.433-4.409c5.673 0 10.048 1.504 13.125 4.512 3.144 3.008 4.716 7.314 4.716 12.92 0 5.4-1.572 9.673-4.716 12.817-3.145 3.076-7.52 4.615-13.125 4.615-5.743 0-10.186-1.504-13.331-4.512-3.144-3.076-4.716-7.383-4.716-12.92zm0-84.697c0-5.743 1.538-10.083 4.614-13.023s7.554-4.409 13.433-4.409c5.673 0 10.048 1.504 13.125 4.512 3.144 3.008 4.716 7.314 4.716 12.92 0 5.537-1.606 9.843-4.819 12.92-3.145 3.007-7.485 4.511-13.022 4.511-5.743 0-10.186-1.504-13.331-4.511s-4.716-7.315-4.716-12.92zM382.145 316H277.35v-22.046l37.631-38.042c11.143-11.416 18.423-19.311 21.841-23.686 3.418-4.444 5.879-8.545 7.383-12.305s2.256-7.656 2.256-11.69c0-6.015-1.675-10.493-5.024-13.432-3.282-2.94-7.691-4.409-13.228-4.409-5.811 0-11.45 1.333-16.919 3.999s-11.177 6.46-17.124 11.382l-17.227-20.406c7.383-6.289 13.501-10.732 18.355-13.33s10.151-4.58 15.894-5.947c5.742-1.436 12.167-2.153 19.277-2.153 9.365 0 17.637 1.709 24.814 5.127s12.749 8.203 16.714 14.355 5.947 13.193 5.947 21.123c0 6.904-1.23 13.398-3.691 19.482-2.393 6.016-6.152 12.203-11.279 18.56-5.059 6.357-14.014 15.415-26.866 27.173l-19.277 18.149v1.436h65.318V316z" fill="#000"/><defs><radialGradient id="A" cx="0" cy="0" r="1" gradientUnits="userSpaceOnUse" gradientTransform="translate(203.587 167.666) rotate(179.53) scale(264.348 313.408)"><stop stop-color="#4db7e8"/><stop offset="1" stop-color="#4db7e8" stop-opacity="0"/></radialGradient><linearGradient id="B" x1="439.135" y1="478.638" x2="516.644" y2="405.165" gradientUnits="userSpaceOnUse"><stop/><stop offset="1" stop-opacity="0"/></linearGradient></defs></svg>