<svg xmlns="http://www.w3.org/2000/svg" xmlns:xlink="http://www.w3.org/1999/xlink" width="600" height="600"><defs><linearGradient id="A" gradientUnits="userSpaceOnUse"><stop offset="0" stop-color="#3a7eff"/><stop offset="1" stop-color="#3a7eff" stop-opacity="0"/></linearGradient><radialGradient id="B" cx="158.571" cy="521.429" fx="158.571" fy="521.429" r="82.429" gradientTransform="matrix(1.6858895,-4.434802e-8,2.7433083e-8,1.105673,-108.76248,-55.100927)" gradientUnits="userSpaceOnUse"><stop offset="0" stop-color="#3a13ff"/><stop offset="1" stop-color="#3a13ff" stop-opacity="0"/></radialGradient><linearGradient id="C" x1="153.684" y1="319.174" x2="100.249" y2="319.174" gradientUnits="userSpaceOnUse"><stop offset="0" stop-color="#3a13ff"/><stop offset="1" stop-color="#3a13ff" stop-opacity="0"/></linearGradient><linearGradient xlink:href="#A" id="D" x1="-75.801" y1="294.633" x2="138.331" y2="294.633"/><linearGradient xlink:href="#A" id="E" x1="-85.596" y1="481.823" x2="154.8" y2="481.823"/><path id="F" d="M162.756 230.676s-12.143 36.429-12.143 55.714-7.857 180.714-7.857 180.714h-16.429l-6.429-200s1.039-20.689 3.059-28.579c1.97-7.691 4.966-12.644 11.342-24.877 6.291-12.071 13.537-18.416 21.847-25.571 18.323-15.777 53.263-18.619 53.263-18.619l-46.654 61.218z"/></defs><g fill="#fff"><path d="M215.613 470.676c.003 10.719-15.516 20.624-40.712 25.984s-56.238 5.36-81.434 0-40.715-15.265-40.712-25.984c-.003-10.719 15.516-20.624 40.712-25.984s56.238-5.36 81.434 0 40.715 15.265 40.712 25.984z"/><g transform="matrix(.669438 -.742868 .742868 .669438 0 0)"><rect width="238.416" height="331.35" x="-84.987" y="316.051" ry="90.029" rx="77.274"/><rect width="212.373" height="43.678" x="-75.303" y="272.697" rx="18.555" ry="43.678"/></g><path d="M241.497 329.143l155.747-174.164 59.568 54.209-155.747 174.164z"/></g><g transform="matrix(.669438 -.742868 .742868 .669438 0 0)" stroke="#000" stroke-width="8" stroke-linejoin="round"><rect width="238.416" height="331.35" x="-84.606" y="316.148" ry="90.029" rx="77.274" fill="url(#E)"/><rect width="212.374" height="43.678" x="-74.921" y="272.794" rx="18.555" ry="43.678" fill="url(#D)"/></g><path d="M 240,521.42859 A 81.428574,30 0 1 1 77.142853,521.42859 A 81.428574,30 0 1 1 240,521.42859 z" transform="translate(-24.387 -51.467)" fill="url(#B)" stroke="#000" stroke-linejoin="round"/><g fill-rule="evenodd"><use xlink:href="#F" fill="#fff"/><use xlink:href="#F" fill="url(#C)" stroke="#000"/></g><path transform="matrix(.666595 -.74542 .739592 .673055 0 0)" d="M-80.512 399.535h233.646v80.542H-80.512z" fill="#3a13ff" stroke="#000" stroke-width="5.889" stroke-linejoin="round"/></svg>