<svg xmlns="http://www.w3.org/2000/svg" xmlns:xlink="http://www.w3.org/1999/xlink" width="600" height="600"><defs><linearGradient id="A" x1="123.157" y1="130.179" x2="131.752" y2="121.438" gradientTransform="matrix(0.4886094,-3.0688775,0.4738435,3.1645097,142.81868,283.077)" gradientUnits="userSpaceOnUse"><stop offset="0" stop-color="red"/><stop offset="1" stop-color="red" stop-opacity="0"/></linearGradient><linearGradient id="B" x1="-74.741" y1="-86.036" x2="60.712" y2="-149.455" gradientUnits="userSpaceOnUse"><stop offset="0" stop-color="red"/><stop offset="1" stop-color="red" stop-opacity="0"/></linearGradient><path id="C" d="M523.019 508.571c0 20.603-16.702 37.305-37.305 37.305s-37.305-16.702-37.305-37.305 16.702-37.305 37.305-37.305 37.305 16.702 37.305 37.305z"/></defs><g fill="none" stroke-width="30" stroke-linecap="round"><path d="M485.714 80.796v422.693" stroke="#000"/><path d="M212.132 91.893L86.873 302.005l123.239 200.01" stroke="#7653ec" stroke-linejoin="round"/></g><path d="M24.076-195.877l-10.504 72.956-1.034 59.745-57.93-45.574-51.224-30.768 68.433-27.381 52.258-28.977z" transform="matrix(.430706 -.94827 .919925 .397382 502.76652 329.38977)" fill="url(#B)" stroke="#000"/><path d="M318.133 296.044l-96.266-.658" fill="red" fill-rule="evenodd" stroke="url(#A)" stroke-width="34.643" stroke-linecap="square"/><g fill="#fff"><g stroke="red" stroke-width="15.02"><use xlink:href="#C"/><use xlink:href="#C" x="0.174" y="-416.969"/><use xlink:href="#C" x="-271.557" y="-416.969"/><use xlink:href="#C" x="-269.537" y="2.244"/></g><use xlink:href="#C" x="-391.766" y="-205.847" stroke="#ff8900" stroke-width="15.02"/></g></svg>