<svg xmlns="http://www.w3.org/2000/svg" xmlns:xlink="http://www.w3.org/1999/xlink" width="600" height="600"><defs><linearGradient id="A" x1="-74.741" y1="-86.036" x2="78.514" y2="-157.789" gradientUnits="userSpaceOnUse"><stop offset="0" stop-color="red"/><stop offset="1" stop-color="red" stop-opacity="0"/></linearGradient><linearGradient id="B" x1="261.607" y1="400.5" x2="261.607" y2="76.89" gradientUnits="userSpaceOnUse"><stop offset="0" stop-color="red"/><stop offset="1" stop-color="red" stop-opacity="0"/></linearGradient><path id="C" d="M523.019 508.571c0 20.603-16.702 37.305-37.305 37.305s-37.305-16.702-37.305-37.305 16.702-37.305 37.305-37.305 37.305 16.702 37.305 37.305z"/></defs><g fill="none" stroke="#000"><path d="M485.714 80.796v422.693M120 80.796v422.693" stroke-width="30" stroke-linecap="round"/><path d="M78.117 437.143h82.338m-82.338-60h82.338M78.117 271.429h82.338m281.947-108.572h82.338m-82.338 64.286h82.338m-79.481 104.286h82.338" stroke-width="20" stroke-linecap="square"/></g><path d="M24.076-195.877l-10.504 72.956-1.034 59.745-57.93-45.574-51.224-30.768 68.433-27.381 52.258-28.977z" transform="matrix(.373236 -.948757 .797177 .397586 470.05328 243.69206)" fill="url(#A)" stroke="#000"/><path d="M326.071 187.857s-29.268-1.794-48.929 2.143c-19.747 3.954-30.158 7.403-45.873 25.974s-16.306 19.473-22.699 42.597C204.69 272.613 197.143 400 197.143 400s18.571-55.714 37.143-95.714 24.448-41.851 27.569-46.464c3.363-4.972 15.004-15.666 18.122-17.912 8.099-5.834 8.648-6.076 20.024-8.481 21.108-4.463 25.714-2.5 25.714-2.5l.357-41.071z" fill="url(#B)" fill-rule="evenodd" stroke="#000"/><g fill="#fff" stroke="red" stroke-width="15.02"><use xlink:href="#C"/><use xlink:href="#C" x="0.174" y="-416.969"/><path d="M157.305 508.571c0 20.603-16.702 37.305-37.305 37.305s-37.305-16.702-37.305-37.305S99.397 471.266 120 471.266s37.305 16.702 37.305 37.305z"/><use xlink:href="#C" x="-365.541" y="-416.969"/></g></svg>