<svg xmlns="http://www.w3.org/2000/svg" width="600" height="600"><defs><radialGradient id="A" cx="331.675" cy="453.25" fx="331.675" fy="453.25" r="109.594" gradientTransform="matrix(2.668377,0.3560931,-0.1829153,1.3706722,-430.10902,-260.0676)" gradientUnits="userSpaceOnUse"><stop offset="0" stop-color="#adaeb1"/><stop offset="1" stop-color="#adaeb1" stop-opacity="0"/></radialGradient><linearGradient id="B" x1="112.145" y1="451.042" x2="557.645" y2="-75.52" gradientUnits="userSpaceOnUse"><stop offset="0" stop-color="#389ce5"/><stop offset="1" stop-color="#389ce5" stop-opacity="0"/></linearGradient><linearGradient id="C" x1="178.71" y1="756.199" x2="178.71" y2="713.379" gradientTransform="matrix(0.3568923,-0.6404992,0.6341337,0.3575984,-274.82195,244.88236)" gradientUnits="userSpaceOnUse"><stop offset="0" stop-color="#ffb657"/><stop offset="1" stop-color="#ffb657" stop-opacity="0"/></linearGradient><linearGradient id="D" x1="413.544" y1="765.123" x2="413.163" y2="705.014" gradientTransform="matrix(0.3568923,-0.6404992,0.6341337,0.3575984,-274.82195,244.88236)" gradientUnits="userSpaceOnUse"><stop offset="0" stop-color="#ff7600"/><stop offset="1" stop-color="#ff7600" stop-opacity="0"/></linearGradient></defs><path d="M81.77 79.558v386.719l50 53.125 387.5-1.562-.781-435.938L81.77 79.558z" fill="url(#B)" fill-rule="evenodd" stroke="#000" stroke-width="8"/><path d="M195.952 400.4h216.87v120.777h-216.87z" fill="#fff"/><g stroke="#000"><path d="M156.25 95.313h296.875v162.5H156.25z" fill="#ebedec" stroke-width="8"/><path d="M195.471 400.159h216.87v120.777h-216.87z" fill="url(#A)" stroke-width="2"/><path d="M211.643 413.206h54.838v95.463h-54.838z" stroke-width="1.849" fill="#389cff"/></g><g fill-rule="evenodd"><g stroke="#a4a2a2" stroke-width="20" stroke-linecap="round"><path d="M189.999 126.57h229.329m-229.329 95.017h229.329" fill="#389cff"/><path d="M189.999 171.869h229.329" fill="#389cff"/></g><g fill="#fff"><path d="M250.798 357.81l37.079 20.212L431.78 120.179l-37.483-21.138L250.798 357.81zm-15.516 57.504l-10.398 38.526 25.292-30.785-14.894-7.741z"/><path d="M250.721 357.534l-15.385 57.355 14.735 7.844 37.805-44.712-37.155-20.487z"/></g><g stroke="#000" stroke-width="2.922"><path d="M250.675 358.237l37.079 20.212 143.903-257.843-37.483-21.138-143.498 258.768z" fill="url(#D)"/><path d="M235.159 415.741l-10.398 38.526 25.292-30.785-14.894-7.741z"/><path d="M250.598 357.962l-15.385 57.355 14.735 7.844 37.805-44.712-37.155-20.487z" fill="url(#C)"/></g></g></svg>