<svg xmlns="http://www.w3.org/2000/svg" width="234" height="234" fill="none"><path fill="#e6e6e6" d="M0 0h234v234H0z"/><g stroke="#000"><path d="M101 5l120 224V5H101z" fill="red"/><path d="M221 61v168L131 61h90z" fill="#0f0"/><path d="M161 117l60 112V117h-60z" fill="#00ab00"/><path d="M191 173l30 56v-56h-30z" fill="#1010dc"/><path d="M133 229L13 5v224h120z" fill="red"/><path d="M13 173V5l90 168H13z" fill="#0f0"/><path d="M73 117L13 5v112h60z" fill="#00ab00"/><path d="M43 61L13 5v56h30z" fill="#1010dc"/></g><path d="M110.828 51.828a4 4 0 0 0 0-5.657L85.373 20.716a4 4 0 0 0-5.657 5.657L102.343 49 79.716 71.627a4 4 0 1 0 5.657 5.657l25.455-25.456zM46 53h62v-8H46v8zm77.172 129.172a4 4 0 0 0 0 5.656l25.455 25.456a4 4 0 1 0 5.657-5.657L131.657 185l22.627-22.627a4 4 0 1 0-5.657-5.657l-25.455 25.456zM188 181h-62v8h62v-8z" fill="#000"/></svg>