<svg xmlns="http://www.w3.org/2000/svg" width="600" height="600"><defs><linearGradient id="A" x1="480.977" y1="320.226" x2="420.665" y2="320.226" gradientUnits="userSpaceOnUse"><stop offset="0" stop-color="#7f8eb7"/><stop offset="1" stop-color="#7f8eb7" stop-opacity="0"/></linearGradient><linearGradient id="B" x1="234.105" y1="93.739" x2="128.518" y2="95.882" gradientUnits="userSpaceOnUse"><stop offset="0" stop-color="#ff002d"/><stop offset="1" stop-color="#ff002d" stop-opacity="0"/></linearGradient><linearGradient id="C" x1="234.105" y1="103.472" x2="128.396" y2="104.186" gradientUnits="userSpaceOnUse"><stop offset="0" stop-color="#00b1ff"/><stop offset="1" stop-color="#00b1ff" stop-opacity="0"/></linearGradient></defs><g fill="none" stroke="#000"><path d="M222.857 230.245l-30.928 349.552 85.863-2.02-32.325-347.492 32.325-47.477-44.447-48.487-41.416 49.497 30.928 46.428z" stroke-width="10"/><path d="M252.538 155.533l275.772 3.03 31.315 13.132-27.274 12.122L266.175 202l10.607-19.193-24.244-27.274z" stroke-width="8"/></g><path d="M213.142 158.563H69.701l1.01 88.893 93.944-1.01-1.01-56.569 26.264-5.556 23.234-25.759z" fill="#7f8eb7" fill-rule="evenodd" stroke="#000" stroke-width="8" fill-opacity=".483"/><g fill="none" stroke-linejoin="bevel"><path d="M245.467 237.355l-26.264 41.921 32.325 34.345-38.891 52.528 48.992 31.82-57.579 50.508 66.67 41.416-74.751 48.487 80.812 35.355" stroke="#000" stroke-width="10"/><path d="M276.782 180.787l19.193-24.244 38.386 40.406 28.284-40.406 37.376 35.355 22.223-33.335 32.325 29.294 22.223-28.284 22.223 25.254 23.234-26.264m-327.29 25.254l-24.244-25.254-9.091 31.315h2.02" stroke="#000" stroke-width="8"/></g><g fill-rule="evenodd"><path d="M233.248 134.623l-2.742-94.446-.242 3.666-62.624.733s-1.728-.179-6.084 2.2c-4.85 2.649-1.014 2.2-6.084 3.666s-5.07 1.467-17.237 1.467h-9.126l-.599 13.199 26.548-.733s2.597-.477 7.933-3.6c3.405-1.993 7.576-3.788 11.396-4.024 5.516-.34 10.491-.076 15.56-.443s41.573-.367 41.573-.367l1.728 78.68z" fill="#fff" stroke="#000"/><path d="M233.605 134.623L231.22 52.32l.115 3.845-60.659.555-7.155 3.45c-4.879 2.596-1.907 1.664-6.977 3.131s-5.606 2.002-17.773 2.002-9.661.714-9.661.714l.115 11.235 28.155-1.269s1.646-1.852 7.576-3.6c5.548-1.636 5.255-3.252 10.86-3.488 5.522-.232 9.776-.076 14.846-.443s41.573-.367 41.573-.367l1.371 66.537z" fill="url(#C)" stroke="#000"/><path d="M233.605 134.444l-2.028-69.981.472 3.309-59.231 1.269-8.762 3.807c-5.07 2.2-2.085 1.307-7.155 2.774s-3.106.574-17.416 1.288c-12.152.607-10.376.893-10.376.893l.472 11.592 27.976-.733s2.028 0 8.112-1.1 5.612-3.252 10.682-5.452 9.598-1.147 14.668-1.514 41.573-.367 41.573-.367l1.014 54.216z" fill="url(#B)" stroke="#000"/></g><path d="M457.143 362.857l-26.54-43.738-23.4-40.286 51.148-1.115 46.589-.122-24.608 44.853-23.189 40.408z" transform="matrix(1.442871 0 0 .905328 -188.66488 95.616628)" fill="url(#A)" stroke="#000" stroke-width="7.875" stroke-linejoin="bevel"/><path d="M400.02 347.462l64.65-105.056 74.751 104.551M464.67 241.396v-53.538" stroke="#000" fill="none" stroke-width="6"/></svg>