<?xml version="1.0" standalone="no"?>
<!DOCTYPE svg PUBLIC "-//W3C//DTD SVG 20010904//EN"
 "http://www.w3.org/TR/2001/REC-SVG-20010904/DTD/svg10.dtd">
<svg version="1.0" xmlns="http://www.w3.org/2000/svg"
 width="320.000000pt" height="320.000000pt" viewBox="0 0 320.000000 320.000000"
 preserveAspectRatio="xMidYMid meet">
<metadata>
Created by potrace 1.11, written by Peter Selinger 2001-2013
</metadata>
<g transform="translate(0.000000,320.000000) scale(0.100000,-0.100000)"
fill="#000000" stroke="none">
<path d="M2299 2510 c-281 -58 -522 -236 -678 -501 -43 -73 -105 -212 -117
-259 -10 -46 -64 -232 -78 -273 -87 -255 -312 -486 -610 -627 -123 -58 -303
-121 -396 -136 -14 -3 -33 -7 -42 -10 -22 -6 -53 -12 -103 -19 -22 -3 -47 -8
-55 -10 -23 -6 -152 -18 -177 -17 -12 1 -25 -3 -28 -8 -4 -7 87 -10 258 -10
225 0 279 3 358 20 327 68 570 189 760 379 94 94 125 133 185 231 37 59 144
286 144 304 0 33 174 338 252 442 160 215 374 376 596 448 28 10 52 23 52 31
0 31 -195 40 -321 15z"/>
<path d="M2505 2328 c-88 -21 -117 -37 -69 -39 16 -1 38 -3 49 -4 147 -17 225
-34 311 -69 73 -30 97 -35 187 -43 75 -6 80 -1 48 51 -27 43 -65 74 -120 99
-66 30 -291 33 -406 5z"/>
<path d="M2360 2100 c-28 -8 -37 -4 150 -56 114 -32 218 -74 269 -107 44 -29
245 -127 261 -127 26 0 -16 111 -62 161 -52 57 -110 84 -253 114 -82 18 -319
27 -365 15z"/>
<path d="M2351 1924 c-71 -19 -103 -37 -160 -92 -130 -126 -154 -328 -60 -515
92 -183 252 -343 466 -465 161 -92 439 -198 548 -208 48 -4 43 -1 -100 69
-174 86 -256 134 -380 227 -228 170 -341 327 -382 530 -9 45 -6 154 6 197 26
93 134 186 233 199 27 4 51 10 53 14 8 13 -76 48 -126 53 -25 2 -69 -2 -98 -9z"/>
<path d="M2550 1793 c0 -5 28 -23 63 -40 34 -18 85 -51 112 -73 55 -44 140
-90 168 -90 24 0 22 43 -5 92 -24 42 -61 64 -158 92 -62 18 -180 30 -180 19z"/>
</g>
</svg>
