<?xml version="1.0" standalone="no"?>
<!DOCTYPE svg PUBLIC "-//W3C//DTD SVG 20010904//EN"
 "http://www.w3.org/TR/2001/REC-SVG-20010904/DTD/svg10.dtd">
<svg version="1.0" xmlns="http://www.w3.org/2000/svg"
 width="512.000000pt" height="512.000000pt" viewBox="0 0 512.000000 512.000000"
 preserveAspectRatio="xMidYMid meet">
<metadata>
Created by potrace 1.11, written by Peter Selinger 2001-2013
</metadata>
<g transform="translate(0.000000,512.000000) scale(0.100000,-0.100000)"
fill="#000000" stroke="none">
<path d="M0 2560 l0 -2560 2560 0 2560 0 0 2560 0 2560 -2560 0 -2560 0 0
-2560z m3848 1343 l2 -252 -487 -1 c-268 0 -491 -4 -496 -9 -5 -5 -4 -183 3
-423 6 -227 12 -852 13 -1388 l2 -975 -314 -5 c-243 -4 -317 -2 -327 7 -14 14
-22 1208 -16 2222 2 288 1 535 -3 548 l-6 25 -495 -7 -494 -8 2 254 3 254 465
5 c256 3 843 5 1305 5 l840 0 3 -252z"/>
</g>
</svg>
