<svg xmlns="http://www.w3.org/2000/svg" xmlns:xlink="http://www.w3.org/1999/xlink" width="600" height="600"><style><![CDATA[.B{stroke:#000}.C{stroke-width:5}.D{stroke-linejoin:round}.E{fill-rule:evenodd}]]></style><defs><linearGradient id="A" xlink:href="#H"><stop offset="0" stop-color="#b0640d"/><stop offset="1" stop-color="#fff" stop-opacity="0"/></linearGradient><linearGradient id="B" x1="75.042" y1="217.014" x2="195.669" y2="59.43" xlink:href="#H"><stop offset="0"/><stop offset="1" stop-opacity="0"/></linearGradient><linearGradient id="C" x1="422.32" y1="521.446" x2="505.065" y2="381.035" xlink:href="#H"><stop offset="0"/><stop offset="1" stop-opacity="0"/></linearGradient><linearGradient id="D" x1="274.297" y1="361.035" x2="421.193" y2="185.268" xlink:href="#H"><stop offset="0" stop-color="#595b52"/><stop offset="1" stop-color="#595b52" stop-opacity="0"/></linearGradient><linearGradient id="E" x1="221.068" y1="916.619" x2="220.214" y2="729.327" gradientTransform="matrix(1.0768904,0.9150043,-0.8988587,1.0968443,992.86986,-1042.1499)" xlink:href="#H"><stop offset="0" stop-color="#1e241a"/><stop offset="1" stop-color="#fff" stop-opacity="0"/></linearGradient><linearGradient xlink:href="#A" id="F" x1="236.353" y1="1100.749" x2="170.062" y2="1101.301" gradientTransform="matrix(1.0642241,0.9297058,-0.9138357,1.0843979,1009.4011,-1033.8787)"/><linearGradient xlink:href="#A" id="G" x1="232.877" y1="862.727" x2="194.369" y2="862.727" gradientTransform="matrix(1.0642241,0.9297058,-0.9138357,1.0843979,1009.4011,-1033.8787)"/><linearGradient id="H" gradientUnits="userSpaceOnUse"/></defs><g class="B C E"><path d="M331.33 289.378l-92.429-75.256-5.051-33.335-8.081-35.86s-3.536-17.678-8.081-25.254-15.657-23.234-20.203-26.264-15.657-10.102-22.728-12.122-20.203-5.556-24.749-6.061-16.162 0-20.708.505-30.305 5.556-32.325 5.556-12.627 29.8-12.627 29.8l68.69 21.213s5.051 4.546 6.566 9.091 3.536 10.607 3.03 13.637-2.525 13.637-6.061 19.698-5.556 10.607-8.586 13.132-8.081 5.051-11.617 6.061-7.576 3.03-10.102 2.525-65.155-22.223-65.155-22.223l-7.071 25.759 15.152 18.183c2.525 3.03 15.152 13.132 18.688 15.152s19.698 10.607 23.739 12.122 13.637 3.03 17.173 4.041 18.183 2.525 22.728 3.03 9.596 1.515 14.647 4.546 13.132 7.576 16.668 10.102 147.987 122.734 147.987 122.734l17.678 14.142 4.041 25.254 5.556 27.274 6.566 27.274s6.061 15.657 8.586 19.698 9.091 13.637 12.627 16.668 19.698 13.132 22.728 14.142 19.698 7.071 23.234 7.576 17.173 2.525 22.728 2.02 39.396-7.576 39.396-7.576l8.586-29.8-69.195-21.213s-4.041-5.051-5.051-8.586-3.536-9.596-3.03-12.122 2.02-9.596 4.546-16.162 7.071-16.162 10.102-19.193 5.556-3.03 10.607-4.546 9.091-3.536 13.132-3.03 62.124 22.728 62.124 22.728l8.586-25.759s-8.586-11.112-13.132-15.657-13.637-13.637-19.193-17.678-15.152-9.091-21.213-11.112-12.627-5.556-20.708-6.566-16.668.505-25.759-2.525-14.581-4.13-22.728-10.102c-8.193-6.005-14.383-11.405-20.708-16.162-7.467-5.617-60.713-49.446-59.599-49.497z" fill="url(#D)" class="D"/><path d="M532.35 423.189l-71.154-26.589s-14.393-.233-21.507 4.259c-6.616 4.178-17.405 9.471-23.923 18.353-7.034 9.584-13.864 23.051-14.6 36.136s4.484 27.888 9.579 34.799c4.666 6.329 17.664 17.701 23.255 20.246 5.077 2.311 62.179 16.705 62.179 16.705l6.118-20.558-63.148-19.246c-.859 1.288-9.321-5.924-11.304-10.774-2.1-5.135-3.993-14.357-2.022-18.36 1.919-3.896 3.516-11.747 5.518-16 2.564-5.447 6.562-10.061 8.402-12.009s6.227-4.403 8.024-5.171 3.471-2.342 14.464-3.551c1.155-.127 62.935 22.438 62.935 22.438l7.184-20.677z" fill="url(#C)"/><path d="M55.839 194.053l70.648 27.852s14.393.233 21.507-4.259c6.616-4.178 17.405-9.471 23.923-18.353 7.034-9.584 13.864-23.051 14.6-36.136s-4.484-27.888-9.579-34.799c-4.666-6.329-17.664-17.701-23.255-20.246-5.077-2.311-61.421-17.21-61.421-17.21l-7.128 19.801 63.401 20.508c.859-1.288 9.321 5.924 11.304 10.774 2.1 5.135 3.236 12.337 2.022 18.36-.858 4.257-3.516 11.747-5.518 16-2.564 5.447-6.562 10.061-8.402 12.009s-6.227 4.403-8.024 5.171-3.471 2.342-14.464 3.551c-1.155.127-63.945-22.186-63.945-22.186l-5.669 19.162z" fill="url(#B)"/></g><path d="M218.193 264.124l131.825 110.612M235.871 243.921l131.825 110.612" fill="none" stroke-linecap="round" class="B C"/><g class="E B"><g fill="#fff"><path d="M380.208 159.843L87.331 481.435s-3.394 9.717-.616 16.058c2.712 6.19 7.035 10.349 14.512 16.607s19.11 14.893 19.11 14.893 11.344 4.822 18.671.519c3.94-2.314 271.686-345.321 271.686-345.321l-30.485-24.349zm58.424-55.825s5.097-7.77 10.774-7.309c5.376.436 7.692 2.717 11.293 5.732s7.015 5.742 8.465 8.89c.778 1.688-.351 5.643-.351 5.643l-5.671 6.901-24.51-19.857z"/><path d="M421.318 90.124l98.151 81.437 22.215-1.815 14.353 10.695-73.596 87.637-14.474-12.837.296-21.131-97.27-84.06s-14.799-13.448-33.419-25.933c-10.969-7.355-20.894-16.206-34.631-18.907-11.754-2.312-32.826-2.861-47.959 2.84l-15.061 5.762s28.457-22.449 52.295-34.608c15.135-7.72 33.417-12.861 48.465-14.189 22.892-2.019 30.96.928 43.583 5.371s35.851 18.733 37.052 19.738z" class="D"/></g><g class="C"><path d="M421.523 88.723l97.278 81.928 21.974-1.886 14.223 10.756-72.617 88.612-14.347-12.917.247-21.323-96.412-84.577s-14.67-13.532-33.118-26.084c-10.867-7.394-20.706-16.3-34.302-18.992-11.633-2.303-32.481-2.805-47.44 2.986l-14.887 5.852s28.103-22.723 51.66-35.051c14.956-7.827 33.031-13.061 47.916-14.438 22.643-2.094 30.63.859 43.128 5.311s35.509 18.813 36.698 19.824z" fill="url(#E)" class="D"/><path d="M381.215 158.573L87.736 479.803s-3.471 9.766-.797 16.195c2.61 6.276 6.838 10.519 14.162 16.917s18.73 15.239 18.73 15.239 11.166 4.991 18.464.731c3.925-2.291 272.793-345.406 272.793-345.406l-29.873-24.906z" fill="url(#F)"/><path d="M439.661 102.895s5.133-7.783 10.744-7.255c5.313.5 7.577 2.827 11.105 5.908s6.872 5.871 8.271 9.064c.75 1.712-.413 5.69-.413 5.69l-5.691 6.9-24.015-20.307z" fill="url(#G)"/></g></g></svg>