<svg xmlns="http://www.w3.org/2000/svg" width="600" height="600"><defs><marker orient="auto" refY="0.0" refX="0.0" id="A" overflow="visible"><path d="M0 0l5-5-17.5 5L5 5 0 0z" transform="matrix(-.8 0 0 -.8 -10 0)" fill-rule="evenodd" stroke="#000" stroke-width="1pt"/></marker></defs><path d="M233.661 114.734a40 40 0 0 1-60.003 34.65 40 40 0 0 1 0-69.3 40 40 0 0 1 60.003 34.65z" fill="red"/><path d="M450.714 115a40 40 0 0 1-60.003 34.65 40 40 0 0 1 0-69.3A40 40 0 0 1 450.714 115z" fill="#007f00"/><path d="M300.458 528.584l-97.897-339.333" fill="none" stroke="#000" stroke-width="19.792" stroke-linecap="round" marker-end="url(#A)"/></svg>