<svg xmlns="http://www.w3.org/2000/svg" width="234" height="234" fill="none"><path fill="#e6e6e6" d="M0 0h234v234H0z"/><path fill="url(#A)" d="M0 0h234v234H0z"/><path fill-rule="evenodd" d="M68.494 0H19.506A51.02 51.02 0 0 0 0 18.755v51.101c8.861 14.929 25.249 24.949 44 24.949 28.167 0 51-22.61 51-50.5C95 25.205 84.291 8.581 68.494 0zM130.9 0c8.326 14.172 13.1 30.681 13.1 48.305 0 52.743-42.757 95.5-95.5 95.5-17.705 0-34.285-4.818-48.5-13.214v29.148c14.857 6.475 31.259 10.066 48.5 10.066 67.103 0 121.5-54.397 121.5-121.5 0-17.166-3.56-33.5-9.982-48.305H130.9zm72.606 0C214.049 20.628 220 44.014 220 68.805c0 83.465-67.45 151-150.5 151-25.062 0-48.704-6.15-69.5-17.032v28.782c1.978.85 3.974 1.666 5.989 2.445h127.022c46.194-17.872 83.007-54.669 100.989-100.914V4.524L232.168 0h-28.662zM44 68.805c14.049 0 25-11.21 25-24.5s-10.951-24.5-25-24.5-25 11.21-25 24.5 10.951 24.5 25 24.5z" fill="#000"/><defs><linearGradient id="A" x1="0" y1="0" x2="234" y2="234" gradientUnits="userSpaceOnUse"><stop stop-color="#fff"/><stop offset="1" stop-color="#e6e6e6" stop-opacity="0"/></linearGradient></defs></svg>