<svg xmlns="http://www.w3.org/2000/svg" xmlns:xlink="http://www.w3.org/1999/xlink" width="600" height="600"><style><![CDATA[.B{stroke-linejoin:round}]]></style><defs><linearGradient id="A" gradientUnits="userSpaceOnUse"><stop offset="0" stop-color="#0a0a0a"/><stop offset="1" stop-color="#fff" stop-opacity="0"/></linearGradient><linearGradient id="B" x1="420.506" y1="369.659" x2="-59.538" y2="307.433" gradientUnits="userSpaceOnUse"><stop offset="0" stop-color="#462644"/><stop offset="1" stop-color="#fff" stop-opacity="0"/></linearGradient><linearGradient xlink:href="#A" id="C" x1="201.599" y1="125.961" x2="492.725" y2="457.961"/><linearGradient xlink:href="#A" id="D" x1="306.348" y1="359.164" x2="260.115" y2="362.611"/><linearGradient id="E" x1="288.01" y1="373" x2="328.614" y2="375.123" gradientUnits="userSpaceOnUse"><stop offset="0" stop-color="#0a0a0a"/><stop offset="1" stop-color="#fff" stop-opacity="0"/></linearGradient><linearGradient id="F" x1="289.349" y1="372.352" x2="331.464" y2="372.874" gradientUnits="userSpaceOnUse"><stop offset="0" stop-color="#0a0a0a"/><stop offset="1" stop-color="#fff" stop-opacity="0"/></linearGradient><path id="G" d="M173.254 478.123s0 5.859 2.344 7.813 7.422 5.469 10.156 7.031 19.141 6.641 21.484 7.031 34.766 7.422 40.234 7.422 20.703 2.344 35.547 2.344 41.406.391 52.734-.781 33.984-3.906 41.406-5.469 21.094-5.078 25-7.031 8.203-3.906 11.328-6.25 7.813-5.859 8.203-7.812l61.328-324.219s-.781 5.859-4.687 9.375-9.766 8.594-16.016 11.328-21.875 8.594-26.953 9.766-45.312 10.156-49.219 10.547-42.969 6.25-49.609 5.859-67.969-.391-75.391-.391-31.641-1.953-39.063-3.125-39.453-7.812-44.141-8.984-22.656-5.469-28.906-8.203-16.016-6.641-20.703-10.937-8.984-7.812-11.328-11.719-4.297-8.594-4.297-8.594l60.547 325z"/><path id="H" d="M 311,373 A 12,110 0 1 1 287,373 A 12,110 0 1 1 311,373 z"/></defs><g stroke="#000"><path d="M 529.22525,135.96117 A 185.06311,53.033009 0 1 1 159.09903,135.96117 A 185.06311,53.033009 0 1 1 529.22525,135.96117 z" transform="translate(-45.299 16.573)" fill="url(#C)" stroke-width="8" class="B"/><g fill-rule="evenodd"><use xlink:href="#G" fill="#fff"/><use xlink:href="#G" x="-0.5" fill="url(#B)" stroke-width="8" class="B"/></g><use xlink:href="#H" transform="matrix(1.404782 0 0 .99916 -119.07994 -13.686787)" fill="url(#E)" stroke-width="2.532" class="B"/><g stroke-width="2.896" class="B"><use xlink:href="#H" transform="matrix(1.026103 .231828 -.118079 1.019142 139.30488 -101.06286)" fill="url(#F)"/><use xlink:href="#H" transform="matrix(-1.026103 .231828 .11808 1.019142 462.59457 -98.234433)" fill="url(#D)"/></g></g></svg>