<svg xmlns="http://www.w3.org/2000/svg" width="36" height="36" fill="none"><g stroke-width="1.5" stroke-linecap="round" stroke-linejoin="round"><path d="M20 21.5h12.5l-6.5 6H15.5" stroke="#ff0a0a"/><path d="M20 21.5V8l-4.5 5v14.5m4.5-6l-4.5 6m4.5-6H9l-6 6h12.5" stroke="#00f"/></g><g fill="#00f"><circle cx="12" cy="25.5" r=".5"/><circle cx="10.5" cy="23.5" r=".5"/><circle cx="18" cy="13.5" r=".5"/><circle cx="17.5" cy="15.5" r=".5"/><circle cx="18.25" cy="17.5" r=".5"/></g><g fill="#ff0a0a"><circle cx="23" cy="24.5" r=".5"/><circle cx="21" cy="23.5" r=".5"/><circle cx="25" cy="23.5" r=".5"/><circle cx="25" cy="25.5" r=".5"/><circle cx="20" cy="25.5" r=".5"/></g><g fill="#00f"><circle cx="17.5" cy="19.5" r=".5"/><circle cx="9" cy="25.5" r=".5"/><circle cx="13" cy="23.5" r=".5"/></g><path d="M27.055 16.116l-4.092-4.388 1.463-1.364 4.092 4.388 1.463-1.364.534 4.971-4.922-.879 1.463-1.364z" fill="#fc3b3b" stroke="#fc3b3b" stroke-linejoin="round"/></svg>