<svg width="1001" height="496" viewBox="0 0 1001 496" fill="none" xmlns="http://www.w3.org/2000/svg">
<g opacity="0.29827">
<path d="M1008.08 163.448L443.182 -356.858V-747.19L28.1096 -770C24.9043 -762.456 4.36709 -740.714 7.57176 -728.596C11.43 -714.102 30.8387 -718.735 36.4776 -709.409C43.0661 -698.42 31.7291 -653.749 28.3457 -640.86C21.8759 -616.445 7.09676 -596.665 2.82235 -572.25C-4.35982 -531.263 10.1824 -534.53 37.7242 -508.927C84.141 -465.742 46.9244 -420.952 58.6176 -370.223C68.1146 -328.878 109.605 -307.554 124.8 -266.211C136.553 -234.37 152.697 -226.233 177.746 -202.947C177.153 -217.084 164.51 -258.785 188.253 -255.102C211.817 -251.478 202.736 -216.669 207.247 -202.115C211.045 -189.997 237.933 -165.761 215.616 -154.593C208.196 -150.91 187.066 -165.582 178.577 -169.503C184.572 -150.791 180.774 -131.367 190.271 -113.487C201.608 -92.162 213.835 -100.359 228.853 -88.7754C244.344 -76.8355 242.683 -63.1137 235.797 -45.0554C228.615 -26.2247 221.196 -29.1352 232.592 -6.44342C240.843 9.95119 254.85 30.7421 266.9 43.2164C273.904 50.4634 281.502 52.1267 288.506 61.3932C294.323 69.1155 292.067 79.2142 299.012 86.1638C310.883 98.1037 331.006 98.282 340.384 113.904C350.831 131.309 338.96 144.437 369.706 142.833C371.309 177.643 377.897 209.185 377.541 243.994C394.695 250.825 422.414 242.687 440.399 239.063C458.266 263.18 481.355 246.429 501.774 259.558C510.678 265.26 508.837 279.517 514.239 284.506C525.339 294.723 533.529 288.308 547.301 291.872C557.51 294.486 565.404 301.97 575.138 304.703C584.338 307.257 599.475 301.258 606.301 309.396C614.492 319.138 600.78 336.958 613.127 344.799C623.395 351.333 638.115 335.77 648.088 338.027C659.721 340.7 693.079 371.174 701.271 381.212C710.59 392.677 719.969 414.062 725.25 428.793C733.501 451.841 732.373 463.127 749.408 479.998C760.27 490.75 749.942 491.522 767.63 494.67C779.204 496.749 794.518 488.374 806.212 487.067C830.549 484.394 855.122 489.027 879.102 484.453C901.421 480.176 922.729 473.166 945.64 469.899C965.465 467.048 1000.37 469.246 1017.94 459.801C1036.99 449.643 1038.71 426.654 1011.17 430.932C1008.97 416.26 1018.77 396.003 1007.85 385.847C1023.04 365.056 1028.56 350.384 1030.93 324.959C1032 313.792 1032.48 301.436 1038 292.05C1043.4 282.783 1058.59 277.259 1061.56 269.299C1066.13 256.943 1058.83 251.419 1053.25 244.528C1049.69 240.073 1039.54 242.212 1036.63 238.291C1031.23 231.103 1036.57 223.678 1033.6 216.431C1024.94 195.462 1014.61 187.205 1008.08 163.444C1008.26 167.424 1008.44 171.463 1008.2 175.384" stroke="white" stroke-width="2" stroke-linecap="round" stroke-linejoin="round"/>
</g>
<path d="M729.114 83.9394C720.546 107.321 740.614 115.526 756.675 130.807C761.434 135.336 761.888 142.817 756.879 147.342C746.107 157.074 705.264 142.917 707.854 155.745C710.53 168.994 745.061 187.531 746.618 188.799C760.284 199.932 764.735 228.174 757.208 243.658C751.852 254.676 716.342 250.962 705.172 247.293C632.024 223.266 664.985 226.131 582.817 218.67C576.527 218.099 569.935 217.806 563.894 219.65C557.671 221.549 557.869 229.339 559.957 233.55C566.876 247.506 597.849 271.178 589.514 289.523C586.956 295.152 580.963 298.707 578.264 304.27C576.151 308.627 576.385 313.772 575.445 318.523" stroke="white" stroke-width="2"/>
<path fill-rule="evenodd" clip-rule="evenodd" d="M573.5 326C577.09 326 580 323.09 580 319.5C580 315.91 577.09 313 573.5 313C569.91 313 567 315.91 567 319.5C567 323.09 569.91 326 573.5 326Z" fill="#4AF6CD"/>
<path fill-rule="evenodd" clip-rule="evenodd" d="M661 363C662.657 363 664 361.657 664 360C664 358.343 662.657 357 661 357C659.343 357 658 358.343 658 360C658 361.657 659.343 363 661 363Z" fill="#4AF6CD"/>
<path fill-rule="evenodd" clip-rule="evenodd" d="M725 471C726.657 471 728 469.657 728 468C728 466.343 726.657 465 725 465C723.343 465 722 466.343 722 468C722 469.657 723.343 471 725 471Z" fill="#4AF6CD"/>
<path fill-rule="evenodd" clip-rule="evenodd" d="M365 228C366.657 228 368 226.657 368 225C368 223.343 366.657 222 365 222C363.343 222 362 223.343 362 225C362 226.657 363.343 228 365 228Z" fill="#4AF6CD"/>
<path fill-rule="evenodd" clip-rule="evenodd" d="M729.5 91C733.09 91 736 88.0899 736 84.5C736 80.9101 733.09 78 729.5 78C725.91 78 723 80.9101 723 84.5C723 88.0899 725.91 91 729.5 91Z" fill="#4AF6CD"/>
<path d="M408.41 329.976L406.17 341H404.218L402.186 331.768L400.138 341H398.234L395.994 329.976H397.482L399.258 339.672L401.386 329.976H403.002L405.178 339.672L407.018 329.976H408.41ZM416.544 336.536C416.544 336.781 416.534 337.032 416.512 337.288H411.136C411.2 338.216 411.435 338.899 411.84 339.336C412.246 339.773 412.768 339.992 413.408 339.992C413.814 339.992 414.187 339.933 414.528 339.816C414.87 339.699 415.227 339.512 415.6 339.256L416.24 340.136C415.344 340.84 414.363 341.192 413.296 341.192C412.123 341.192 411.206 340.808 410.544 340.04C409.894 339.272 409.568 338.216 409.568 336.872C409.568 335.997 409.707 335.224 409.984 334.552C410.272 333.869 410.678 333.336 411.2 332.952C411.734 332.568 412.358 332.376 413.072 332.376C414.192 332.376 415.051 332.744 415.648 333.48C416.246 334.216 416.544 335.235 416.544 336.536ZM415.088 336.104C415.088 335.272 414.923 334.637 414.592 334.2C414.262 333.763 413.766 333.544 413.104 333.544C411.899 333.544 411.243 334.429 411.136 336.2H415.088V336.104ZM421.183 332.376C421.759 332.376 422.276 332.456 422.735 332.616C423.194 332.776 423.631 333.016 424.047 333.336L423.423 334.264C423.039 334.019 422.671 333.837 422.319 333.72C421.978 333.603 421.615 333.544 421.231 333.544C420.751 333.544 420.372 333.645 420.095 333.848C419.818 334.04 419.679 334.307 419.679 334.648C419.679 334.989 419.807 335.256 420.063 335.448C420.33 335.64 420.804 335.827 421.487 336.008C422.426 336.243 423.124 336.563 423.583 336.968C424.052 337.373 424.287 337.928 424.287 338.632C424.287 339.464 423.962 340.099 423.311 340.536C422.671 340.973 421.887 341.192 420.959 341.192C419.679 341.192 418.618 340.824 417.775 340.088L418.559 339.192C419.274 339.736 420.063 340.008 420.927 340.008C421.482 340.008 421.919 339.896 422.239 339.672C422.57 339.437 422.735 339.123 422.735 338.728C422.735 338.44 422.676 338.211 422.559 338.04C422.442 337.859 422.239 337.704 421.951 337.576C421.663 337.437 421.242 337.293 420.687 337.144C419.791 336.909 419.14 336.595 418.735 336.2C418.34 335.805 418.143 335.304 418.143 334.696C418.143 334.259 418.271 333.864 418.527 333.512C418.794 333.149 419.156 332.872 419.615 332.68C420.084 332.477 420.607 332.376 421.183 332.376ZM430.62 340.616C430.065 341 429.436 341.192 428.732 341.192C428.017 341.192 427.457 340.989 427.052 340.584C426.657 340.168 426.46 339.571 426.46 338.792V333.704H424.988V332.568H426.46V330.664L427.932 330.488V332.568H429.932L429.772 333.704H427.932V338.728C427.932 339.165 428.006 339.485 428.156 339.688C428.316 339.88 428.577 339.976 428.94 339.976C429.27 339.976 429.644 339.864 430.06 339.64L430.62 340.616ZM439.179 329.784C439.915 329.784 440.545 329.891 441.067 330.104C441.59 330.307 442.097 330.627 442.587 331.064L441.755 331.992C441.339 331.661 440.929 331.421 440.523 331.272C440.129 331.112 439.702 331.032 439.243 331.032C438.667 331.032 438.193 331.165 437.819 331.432C437.446 331.699 437.259 332.088 437.259 332.6C437.259 332.92 437.323 333.192 437.451 333.416C437.579 333.629 437.814 333.827 438.155 334.008C438.507 334.189 439.014 334.381 439.675 334.584C440.369 334.797 440.945 335.027 441.403 335.272C441.862 335.517 442.23 335.859 442.507 336.296C442.795 336.723 442.939 337.267 442.939 337.928C442.939 338.568 442.779 339.133 442.459 339.624C442.15 340.115 441.697 340.499 441.099 340.776C440.513 341.053 439.814 341.192 439.003 341.192C437.478 341.192 436.23 340.717 435.259 339.768L436.091 338.84C436.539 339.203 436.993 339.48 437.451 339.672C437.91 339.853 438.422 339.944 438.987 339.944C439.67 339.944 440.235 339.779 440.683 339.448C441.131 339.107 441.355 338.616 441.355 337.976C441.355 337.613 441.286 337.315 441.147 337.08C441.009 336.835 440.769 336.616 440.427 336.424C440.097 336.232 439.611 336.04 438.971 335.848C437.841 335.507 437.014 335.096 436.491 334.616C435.969 334.136 435.707 333.485 435.707 332.664C435.707 332.109 435.851 331.613 436.139 331.176C436.438 330.739 436.849 330.397 437.371 330.152C437.905 329.907 438.507 329.784 439.179 329.784ZM449.066 332.376C449.834 332.376 450.431 332.605 450.858 333.064C451.295 333.523 451.514 334.152 451.514 334.952V341H450.042V335.16C450.042 334.563 449.925 334.141 449.69 333.896C449.466 333.651 449.135 333.528 448.698 333.528C448.261 333.528 447.871 333.656 447.53 333.912C447.189 334.168 446.869 334.531 446.57 335V341H445.098V329.192L446.57 329.032V333.736C447.231 332.829 448.063 332.376 449.066 332.376ZM457.641 332.376C458.825 332.376 459.742 332.771 460.393 333.56C461.054 334.349 461.385 335.421 461.385 336.776C461.385 337.651 461.236 338.424 460.937 339.096C460.638 339.757 460.206 340.275 459.641 340.648C459.076 341.011 458.404 341.192 457.625 341.192C456.441 341.192 455.518 340.797 454.857 340.008C454.196 339.219 453.865 338.147 453.865 336.792C453.865 335.917 454.014 335.149 454.313 334.488C454.612 333.816 455.044 333.299 455.609 332.936C456.174 332.563 456.852 332.376 457.641 332.376ZM457.641 333.56C456.18 333.56 455.449 334.637 455.449 336.792C455.449 338.936 456.174 340.008 457.625 340.008C459.076 340.008 459.801 338.931 459.801 336.776C459.801 334.632 459.081 333.56 457.641 333.56ZM467.481 332.376C467.78 332.376 468.057 332.408 468.313 332.472L468.041 333.912C467.785 333.848 467.54 333.816 467.305 333.816C466.782 333.816 466.361 334.008 466.041 334.392C465.721 334.776 465.47 335.373 465.289 336.184V341H463.817V332.568H465.081L465.225 334.28C465.449 333.651 465.753 333.176 466.137 332.856C466.521 332.536 466.969 332.376 467.481 332.376ZM475.872 336.536C475.872 336.781 475.862 337.032 475.84 337.288H470.464C470.528 338.216 470.763 338.899 471.168 339.336C471.574 339.773 472.096 339.992 472.736 339.992C473.142 339.992 473.515 339.933 473.856 339.816C474.198 339.699 474.555 339.512 474.928 339.256L475.568 340.136C474.672 340.84 473.691 341.192 472.624 341.192C471.451 341.192 470.534 340.808 469.872 340.04C469.222 339.272 468.896 338.216 468.896 336.872C468.896 335.997 469.035 335.224 469.312 334.552C469.6 333.869 470.006 333.336 470.528 332.952C471.062 332.568 471.686 332.376 472.4 332.376C473.52 332.376 474.379 332.744 474.976 333.48C475.574 334.216 475.872 335.235 475.872 336.536ZM474.416 336.104C474.416 335.272 474.251 334.637 473.92 334.2C473.59 333.763 473.094 333.544 472.432 333.544C471.227 333.544 470.571 334.429 470.464 336.2H474.416V336.104ZM484.41 328.184V342.568H484.058V328.184H484.41ZM503.237 341H501.765L501.381 336.024C501.221 334.072 501.131 332.573 501.109 331.528L498.725 339.752H497.301L494.789 331.512C494.789 332.845 494.72 334.387 494.581 336.136L494.213 341H492.773L493.685 329.976H495.733L498.053 337.992L500.261 329.976H502.325L503.237 341ZM511.434 339.032C511.434 339.373 511.493 339.629 511.61 339.8C511.728 339.96 511.904 340.083 512.138 340.168L511.802 341.192C511.365 341.139 511.013 341.016 510.746 340.824C510.48 340.632 510.282 340.333 510.154 339.928C509.589 340.771 508.752 341.192 507.642 341.192C506.81 341.192 506.154 340.957 505.674 340.488C505.194 340.019 504.954 339.405 504.954 338.648C504.954 337.752 505.274 337.064 505.914 336.584C506.565 336.104 507.482 335.864 508.666 335.864H509.962V335.24C509.962 334.643 509.818 334.216 509.53 333.96C509.242 333.704 508.8 333.576 508.202 333.576C507.584 333.576 506.826 333.725 505.93 334.024L505.562 332.952C506.608 332.568 507.578 332.376 508.474 332.376C509.466 332.376 510.208 332.621 510.698 333.112C511.189 333.592 511.434 334.28 511.434 335.176V339.032ZM507.978 340.088C508.821 340.088 509.482 339.651 509.962 338.776V336.84H508.858C507.301 336.84 506.522 337.416 506.522 338.568C506.522 339.069 506.645 339.448 506.89 339.704C507.136 339.96 507.498 340.088 507.978 340.088ZM515.981 341.192C515.437 341.192 515.005 341.032 514.685 340.712C514.376 340.381 514.221 339.923 514.221 339.336V329.176L515.693 329V339.304C515.693 339.539 515.731 339.709 515.805 339.816C515.891 339.923 516.029 339.976 516.221 339.976C516.424 339.976 516.605 339.944 516.765 339.88L517.149 340.904C516.797 341.096 516.408 341.192 515.981 341.192ZM520.461 332.568V341H518.989V332.568H520.461ZM519.709 328.52C520.018 328.52 520.269 328.616 520.461 328.808C520.653 329 520.749 329.24 520.749 329.528C520.749 329.816 520.653 330.056 520.461 330.248C520.269 330.429 520.018 330.52 519.709 330.52C519.41 330.52 519.165 330.429 518.973 330.248C518.781 330.056 518.685 329.816 518.685 329.528C518.685 329.24 518.781 329 518.973 328.808C519.165 328.616 519.41 328.52 519.709 328.52ZM527.36 332.376C528.32 332.376 529.083 332.765 529.648 333.544C530.214 334.312 530.496 335.389 530.496 336.776C530.496 337.651 530.363 338.424 530.096 339.096C529.83 339.757 529.446 340.275 528.944 340.648C528.443 341.011 527.856 341.192 527.184 341.192C526.299 341.192 525.552 340.819 524.944 340.072L524.8 341H523.504V329.176L524.976 329V333.624C525.584 332.792 526.379 332.376 527.36 332.376ZM526.832 340.024C527.483 340.024 527.99 339.763 528.352 339.24C528.726 338.707 528.912 337.885 528.912 336.776C528.912 335.635 528.742 334.813 528.4 334.312C528.059 333.8 527.574 333.544 526.944 333.544C526.198 333.544 525.542 333.981 524.976 334.856V338.888C525.2 339.24 525.472 339.517 525.792 339.72C526.123 339.923 526.47 340.024 526.832 340.024ZM539.276 341H538.012L537.9 339.688C537.58 340.211 537.212 340.595 536.796 340.84C536.38 341.075 535.874 341.192 535.276 341.192C534.54 341.192 533.964 340.968 533.548 340.52C533.132 340.072 532.924 339.437 532.924 338.616V332.568H534.396V338.456C534.396 339.032 534.498 339.443 534.7 339.688C534.903 339.923 535.234 340.04 535.692 340.04C536.514 340.04 537.218 339.555 537.804 338.584V332.568H539.276V341ZM542.701 338.968C543.021 338.968 543.288 339.075 543.501 339.288C543.714 339.501 543.821 339.763 543.821 340.072C543.821 340.403 543.725 340.781 543.533 341.208L542.461 343.656H541.405L542.045 341C541.906 340.893 541.794 340.76 541.709 340.6C541.634 340.44 541.597 340.264 541.597 340.072C541.597 339.763 541.704 339.501 541.917 339.288C542.13 339.075 542.392 338.968 542.701 338.968ZM554.331 329.784C554.992 329.784 555.547 329.869 555.995 330.04C556.454 330.211 556.918 330.488 557.387 330.872L556.555 331.848C555.883 331.304 555.174 331.032 554.427 331.032C553.51 331.032 552.768 331.384 552.203 332.088C551.648 332.792 551.371 333.923 551.371 335.48C551.371 336.995 551.648 338.115 552.203 338.84C552.758 339.555 553.494 339.912 554.411 339.912C554.88 339.912 555.291 339.832 555.643 339.672C555.995 339.512 556.368 339.288 556.763 339L557.515 339.96C557.174 340.312 556.736 340.605 556.203 340.84C555.67 341.075 555.056 341.192 554.363 341.192C553.467 341.192 552.667 340.973 551.963 340.536C551.27 340.088 550.726 339.437 550.331 338.584C549.947 337.72 549.755 336.685 549.755 335.48C549.755 334.275 549.958 333.245 550.363 332.392C550.768 331.528 551.318 330.877 552.011 330.44C552.704 330.003 553.478 329.784 554.331 329.784ZM565.3 341L564.468 338.232H560.292L559.46 341H557.924L561.46 329.976H563.38L566.9 341H565.3ZM560.66 337H564.1L562.388 331.24L560.66 337Z" fill="white"/>
<path d="M598.378 75.784C599.039 75.784 599.594 75.8693 600.042 76.04C600.501 76.2107 600.965 76.488 601.434 76.872L600.602 77.848C599.93 77.304 599.221 77.032 598.474 77.032C597.557 77.032 596.815 77.384 596.25 78.088C595.695 78.792 595.418 79.9227 595.418 81.48C595.418 82.9947 595.695 84.1147 596.25 84.84C596.805 85.5547 597.541 85.912 598.458 85.912C598.927 85.912 599.338 85.832 599.69 85.672C600.042 85.512 600.415 85.288 600.81 85L601.562 85.96C601.221 86.312 600.783 86.6053 600.25 86.84C599.717 87.0747 599.103 87.192 598.41 87.192C597.514 87.192 596.714 86.9733 596.01 86.536C595.317 86.088 594.773 85.4373 594.378 84.584C593.994 83.72 593.802 82.6853 593.802 81.48C593.802 80.2747 594.005 79.2453 594.41 78.392C594.815 77.528 595.365 76.8773 596.058 76.44C596.751 76.0027 597.525 75.784 598.378 75.784ZM609.401 87H608.137L608.025 85.688C607.705 86.2107 607.337 86.5947 606.921 86.84C606.505 87.0747 605.999 87.192 605.401 87.192C604.665 87.192 604.089 86.968 603.673 86.52C603.257 86.072 603.049 85.4373 603.049 84.616V78.568H604.521V84.456C604.521 85.032 604.623 85.4427 604.825 85.688C605.028 85.9227 605.359 86.04 605.817 86.04C606.639 86.04 607.343 85.5547 607.929 84.584V78.568H609.401V87ZM616.106 78.376C616.405 78.376 616.682 78.408 616.938 78.472L616.666 79.912C616.41 79.848 616.165 79.816 615.93 79.816C615.407 79.816 614.986 80.008 614.666 80.392C614.346 80.776 614.095 81.3733 613.914 82.184V87H612.442V78.568H613.706L613.85 80.28C614.074 79.6507 614.378 79.176 614.762 78.856C615.146 78.536 615.594 78.376 616.106 78.376ZM622.278 78.376C622.576 78.376 622.854 78.408 623.11 78.472L622.838 79.912C622.582 79.848 622.336 79.816 622.102 79.816C621.579 79.816 621.158 80.008 620.838 80.392C620.518 80.776 620.267 81.3733 620.086 82.184V87H618.614V78.568H619.878L620.022 80.28C620.246 79.6507 620.55 79.176 620.934 78.856C621.318 78.536 621.766 78.376 622.278 78.376ZM630.669 82.536C630.669 82.7813 630.659 83.032 630.637 83.288H625.261C625.325 84.216 625.56 84.8987 625.965 85.336C626.371 85.7733 626.893 85.992 627.533 85.992C627.939 85.992 628.312 85.9333 628.653 85.816C628.995 85.6987 629.352 85.512 629.725 85.256L630.365 86.136C629.469 86.84 628.488 87.192 627.421 87.192C626.248 87.192 625.331 86.808 624.669 86.04C624.019 85.272 623.693 84.216 623.693 82.872C623.693 81.9973 623.832 81.224 624.109 80.552C624.397 79.8693 624.803 79.336 625.325 78.952C625.859 78.568 626.483 78.376 627.197 78.376C628.317 78.376 629.176 78.744 629.773 79.48C630.371 80.216 630.669 81.2347 630.669 82.536ZM629.213 82.104C629.213 81.272 629.048 80.6373 628.717 80.2C628.387 79.7627 627.891 79.544 627.229 79.544C626.024 79.544 625.368 80.4293 625.261 82.2H629.213V82.104ZM636.988 78.376C637.756 78.376 638.353 78.6053 638.78 79.064C639.217 79.5227 639.436 80.152 639.436 80.952V87H637.964V81.16C637.964 80.5627 637.852 80.1413 637.628 79.896C637.404 79.6507 637.073 79.528 636.636 79.528C636.188 79.528 635.793 79.656 635.452 79.912C635.111 80.168 634.791 80.536 634.492 81.016V87H633.02V78.568H634.284L634.412 79.816C634.711 79.368 635.079 79.016 635.516 78.76C635.964 78.504 636.455 78.376 636.988 78.376ZM646.651 86.616C646.096 87 645.467 87.192 644.763 87.192C644.048 87.192 643.488 86.9893 643.083 86.584C642.688 86.168 642.491 85.5707 642.491 84.792V79.704H641.019V78.568H642.491V76.664L643.963 76.488V78.568H645.963L645.803 79.704H643.963V84.728C643.963 85.1653 644.038 85.4853 644.187 85.688C644.347 85.88 644.608 85.976 644.971 85.976C645.302 85.976 645.675 85.864 646.091 85.64L646.651 86.616ZM654.011 75.976V85.672H658.539L658.363 87H652.491V75.976H654.011ZM663.141 78.376C664.325 78.376 665.242 78.7707 665.893 79.56C666.554 80.3493 666.885 81.4213 666.885 82.776C666.885 83.6507 666.736 84.424 666.437 85.096C666.138 85.7573 665.706 86.2747 665.141 86.648C664.576 87.0107 663.904 87.192 663.125 87.192C661.941 87.192 661.018 86.7973 660.357 86.008C659.696 85.2187 659.365 84.1467 659.365 82.792C659.365 81.9173 659.514 81.1493 659.813 80.488C660.112 79.816 660.544 79.2987 661.109 78.936C661.674 78.5627 662.352 78.376 663.141 78.376ZM663.141 79.56C661.68 79.56 660.949 80.6373 660.949 82.792C660.949 84.936 661.674 86.008 663.125 86.008C664.576 86.008 665.301 84.9307 665.301 82.776C665.301 80.632 664.581 79.56 663.141 79.56ZM672.389 78.376C672.89 78.376 673.349 78.4507 673.765 78.6C674.181 78.7387 674.581 78.968 674.965 79.288L674.261 80.216C673.962 80.0027 673.669 79.848 673.381 79.752C673.104 79.6453 672.794 79.592 672.453 79.592C671.77 79.592 671.237 79.864 670.853 80.408C670.48 80.952 670.293 81.7573 670.293 82.824C670.293 83.8907 670.48 84.68 670.853 85.192C671.226 85.6933 671.76 85.944 672.453 85.944C672.784 85.944 673.088 85.896 673.365 85.8C673.642 85.6933 673.952 85.528 674.293 85.304L674.965 86.264C674.197 86.8827 673.338 87.192 672.389 87.192C671.248 87.192 670.346 86.808 669.685 86.04C669.034 85.272 668.709 84.2107 668.709 82.856C668.709 81.96 668.858 81.176 669.157 80.504C669.456 79.832 669.877 79.3093 670.421 78.936C670.976 78.5627 671.632 78.376 672.389 78.376ZM682.481 85.032C682.481 85.3733 682.54 85.6293 682.657 85.8C682.775 85.96 682.951 86.0827 683.185 86.168L682.849 87.192C682.412 87.1387 682.06 87.016 681.793 86.824C681.527 86.632 681.329 86.3333 681.201 85.928C680.636 86.7707 679.799 87.192 678.689 87.192C677.857 87.192 677.201 86.9573 676.721 86.488C676.241 86.0187 676.001 85.4053 676.001 84.648C676.001 83.752 676.321 83.064 676.961 82.584C677.612 82.104 678.529 81.864 679.713 81.864H681.009V81.24C681.009 80.6427 680.865 80.216 680.577 79.96C680.289 79.704 679.847 79.576 679.249 79.576C678.631 79.576 677.873 79.7253 676.977 80.024L676.609 78.952C677.655 78.568 678.625 78.376 679.521 78.376C680.513 78.376 681.255 78.6213 681.745 79.112C682.236 79.592 682.481 80.28 682.481 81.176V85.032ZM679.025 86.088C679.868 86.088 680.529 85.6507 681.009 84.776V82.84H679.905C678.348 82.84 677.569 83.416 677.569 84.568C677.569 85.0693 677.692 85.448 677.937 85.704C678.183 85.96 678.545 86.088 679.025 86.088ZM689.76 86.616C689.206 87 688.576 87.192 687.872 87.192C687.158 87.192 686.598 86.9893 686.192 86.584C685.798 86.168 685.6 85.5707 685.6 84.792V79.704H684.128V78.568H685.6V76.664L687.072 76.488V78.568H689.072L688.912 79.704H687.072V84.728C687.072 85.1653 687.147 85.4853 687.296 85.688C687.456 85.88 687.718 85.976 688.08 85.976C688.411 85.976 688.784 85.864 689.2 85.64L689.76 86.616ZM692.758 78.568V87H691.286V78.568H692.758ZM692.006 74.52C692.315 74.52 692.566 74.616 692.758 74.808C692.95 75 693.046 75.24 693.046 75.528C693.046 75.816 692.95 76.056 692.758 76.248C692.566 76.4293 692.315 76.52 692.006 76.52C691.707 76.52 691.462 76.4293 691.27 76.248C691.078 76.056 690.982 75.816 690.982 75.528C690.982 75.24 691.078 75 691.27 74.808C691.462 74.616 691.707 74.52 692.006 74.52ZM698.969 78.376C700.153 78.376 701.071 78.7707 701.721 79.56C702.383 80.3493 702.713 81.4213 702.713 82.776C702.713 83.6507 702.564 84.424 702.265 85.096C701.967 85.7573 701.535 86.2747 700.969 86.648C700.404 87.0107 699.732 87.192 698.953 87.192C697.769 87.192 696.847 86.7973 696.185 86.008C695.524 85.2187 695.193 84.1467 695.193 82.792C695.193 81.9173 695.343 81.1493 695.641 80.488C695.94 79.816 696.372 79.2987 696.937 78.936C697.503 78.5627 698.18 78.376 698.969 78.376ZM698.969 79.56C697.508 79.56 696.777 80.6373 696.777 82.792C696.777 84.936 697.503 86.008 698.953 86.008C700.404 86.008 701.129 84.9307 701.129 82.776C701.129 80.632 700.409 79.56 698.969 79.56ZM709.113 78.376C709.881 78.376 710.478 78.6053 710.905 79.064C711.342 79.5227 711.561 80.152 711.561 80.952V87H710.089V81.16C710.089 80.5627 709.977 80.1413 709.753 79.896C709.529 79.6507 709.198 79.528 708.761 79.528C708.313 79.528 707.918 79.656 707.577 79.912C707.236 80.168 706.916 80.536 706.617 81.016V87H705.145V78.568H706.409L706.537 79.816C706.836 79.368 707.204 79.016 707.641 78.76C708.089 78.504 708.58 78.376 709.113 78.376Z" fill="white"/>
</svg>
