<svg width="1001" height="496" viewBox="0 0 1001 496" fill="none" xmlns="http://www.w3.org/2000/svg">
<g opacity="0.29827">
<path d="M1008.08 163.448L443.182 -356.858V-747.19L28.1096 -770C24.9043 -762.456 4.36709 -740.714 7.57176 -728.596C11.43 -714.102 30.8387 -718.735 36.4776 -709.409C43.0661 -698.42 31.7291 -653.749 28.3457 -640.86C21.8759 -616.445 7.09676 -596.665 2.82235 -572.25C-4.35982 -531.263 10.1824 -534.53 37.7242 -508.927C84.141 -465.742 46.9244 -420.952 58.6176 -370.223C68.1146 -328.878 109.605 -307.554 124.8 -266.211C136.553 -234.37 152.697 -226.233 177.746 -202.947C177.153 -217.084 164.51 -258.785 188.253 -255.102C211.817 -251.478 202.736 -216.669 207.247 -202.115C211.045 -189.997 237.933 -165.761 215.616 -154.593C208.196 -150.91 187.066 -165.582 178.577 -169.503C184.572 -150.791 180.774 -131.367 190.271 -113.487C201.608 -92.162 213.835 -100.359 228.853 -88.7754C244.344 -76.8355 242.683 -63.1137 235.797 -45.0554C228.615 -26.2247 221.196 -29.1352 232.592 -6.44342C240.843 9.95119 254.85 30.7421 266.9 43.2164C273.904 50.4634 281.502 52.1267 288.506 61.3932C294.323 69.1155 292.067 79.2142 299.012 86.1638C310.883 98.1037 331.006 98.282 340.384 113.904C350.831 131.309 338.96 144.437 369.706 142.833C371.309 177.643 377.897 209.185 377.541 243.994C394.695 250.825 422.414 242.687 440.399 239.063C458.266 263.18 481.355 246.429 501.774 259.558C510.678 265.26 508.837 279.517 514.239 284.506C525.339 294.723 533.529 288.308 547.301 291.872C557.51 294.486 565.404 301.97 575.138 304.703C584.338 307.257 599.475 301.258 606.301 309.396C614.492 319.138 600.78 336.958 613.127 344.799C623.395 351.333 638.115 335.77 648.088 338.027C659.721 340.7 693.079 371.174 701.271 381.212C710.59 392.677 719.969 414.062 725.25 428.793C733.501 451.841 732.373 463.127 749.408 479.998C760.27 490.75 749.942 491.522 767.63 494.67C779.204 496.749 794.518 488.374 806.212 487.067C830.549 484.394 855.122 489.027 879.102 484.453C901.421 480.176 922.729 473.166 945.64 469.899C965.465 467.048 1000.37 469.246 1017.94 459.801C1036.99 449.643 1038.71 426.654 1011.17 430.932C1008.97 416.26 1018.77 396.003 1007.85 385.847C1023.04 365.056 1028.56 350.384 1030.93 324.959C1032 313.792 1032.48 301.436 1038 292.05C1043.4 282.783 1058.59 277.259 1061.56 269.299C1066.13 256.943 1058.83 251.419 1053.25 244.528C1049.69 240.073 1039.54 242.212 1036.63 238.291C1031.23 231.103 1036.57 223.678 1033.6 216.431C1024.94 195.462 1014.61 187.205 1008.08 163.444C1008.26 167.424 1008.44 171.463 1008.2 175.384" stroke="white" stroke-width="2" stroke-linecap="round" stroke-linejoin="round"/>
</g>
<path d="M730.833 84.6868C700.583 104.195 711.904 129.447 712.726 159.477C712.969 168.375 706.328 177.167 697.288 178.269C677.847 180.64 652.402 132.109 642.737 148.629C632.756 165.691 648.058 214.122 648.339 216.792C650.808 240.237 628.339 275.607 606.544 287.048C591.037 295.189 560.79 262.679 553.639 249.634C506.815 164.212 535.441 193.734 464.38 119.781C458.94 114.12 452.95 108.532 445.464 105.791C437.753 102.967 430.577 111.901 428.58 118.311C421.964 139.554 429.03 190.932 403.763 204.951C396.01 209.253 386.951 208.478 379.127 212.593C372.998 215.816 368.357 221.799 362.972 226.402" stroke="white" stroke-width="2"/>
<path fill-rule="evenodd" clip-rule="evenodd" d="M364.5 231C368.09 231 371 228.09 371 224.5C371 220.91 368.09 218 364.5 218C360.91 218 358 220.91 358 224.5C358 228.09 360.91 231 364.5 231Z" fill="#4AF6CD"/>
<path fill-rule="evenodd" clip-rule="evenodd" d="M574 323C575.657 323 577 321.657 577 320C577 318.343 575.657 317 574 317C572.343 317 571 318.343 571 320C571 321.657 572.343 323 574 323Z" fill="#4AF6CD"/>
<path fill-rule="evenodd" clip-rule="evenodd" d="M725 471C726.657 471 728 469.657 728 468C728 466.343 726.657 465 725 465C723.343 465 722 466.343 722 468C722 469.657 723.343 471 725 471Z" fill="#4AF6CD"/>
<path fill-rule="evenodd" clip-rule="evenodd" d="M662 363C663.657 363 665 361.657 665 360C665 358.343 663.657 357 662 357C660.343 357 659 358.343 659 360C659 361.657 660.343 363 662 363Z" fill="#4AF6CD"/>
<path fill-rule="evenodd" clip-rule="evenodd" d="M729.5 91C733.09 91 736 88.0899 736 84.5C736 80.9101 733.09 78 729.5 78C725.91 78 723 80.9101 723 84.5C723 88.0899 725.91 91 729.5 91Z" fill="#4AF6CD"/>
<path d="M186.359 246H184.327L179.847 236.64C179.911 237.376 179.959 238.059 179.991 238.688C180.034 239.307 180.055 240.059 180.055 240.944V246H178.631V234.976H180.615L185.143 244.352C185.111 244.075 185.069 243.589 185.015 242.896C184.962 242.203 184.935 241.568 184.935 240.992V234.976H186.359V246ZM192.641 237.376C193.825 237.376 194.742 237.771 195.393 238.56C196.054 239.349 196.385 240.421 196.385 241.776C196.385 242.651 196.236 243.424 195.937 244.096C195.638 244.757 195.206 245.275 194.641 245.648C194.076 246.011 193.404 246.192 192.625 246.192C191.441 246.192 190.518 245.797 189.857 245.008C189.196 244.219 188.865 243.147 188.865 241.792C188.865 240.917 189.014 240.149 189.313 239.488C189.612 238.816 190.044 238.299 190.609 237.936C191.174 237.563 191.852 237.376 192.641 237.376ZM192.641 238.56C191.18 238.56 190.449 239.637 190.449 241.792C190.449 243.936 191.174 245.008 192.625 245.008C194.076 245.008 194.801 243.931 194.801 241.776C194.801 239.632 194.081 238.56 192.641 238.56ZM202.481 237.376C202.78 237.376 203.057 237.408 203.313 237.472L203.041 238.912C202.785 238.848 202.54 238.816 202.305 238.816C201.782 238.816 201.361 239.008 201.041 239.392C200.721 239.776 200.47 240.373 200.289 241.184V246H198.817V237.568H200.081L200.225 239.28C200.449 238.651 200.753 238.176 201.137 237.856C201.521 237.536 201.969 237.376 202.481 237.376ZM209.245 245.616C208.69 246 208.061 246.192 207.357 246.192C206.642 246.192 206.082 245.989 205.677 245.584C205.282 245.168 205.085 244.571 205.085 243.792V238.704H203.613V237.568H205.085V235.664L206.557 235.488V237.568H208.557L208.397 238.704H206.557V243.728C206.557 244.165 206.631 244.485 206.781 244.688C206.941 244.88 207.202 244.976 207.565 244.976C207.895 244.976 208.269 244.864 208.685 244.64L209.245 245.616ZM214.738 237.376C215.506 237.376 216.103 237.605 216.53 238.064C216.967 238.523 217.186 239.152 217.186 239.952V246H215.714V240.16C215.714 239.563 215.597 239.141 215.362 238.896C215.138 238.651 214.807 238.528 214.37 238.528C213.933 238.528 213.543 238.656 213.202 238.912C212.861 239.168 212.541 239.531 212.242 240V246H210.77V234.192L212.242 234.032V238.736C212.903 237.829 213.735 237.376 214.738 237.376ZM227.179 234.784C227.915 234.784 228.545 234.891 229.067 235.104C229.59 235.307 230.097 235.627 230.587 236.064L229.755 236.992C229.339 236.661 228.929 236.421 228.523 236.272C228.129 236.112 227.702 236.032 227.243 236.032C226.667 236.032 226.193 236.165 225.819 236.432C225.446 236.699 225.259 237.088 225.259 237.6C225.259 237.92 225.323 238.192 225.451 238.416C225.579 238.629 225.814 238.827 226.155 239.008C226.507 239.189 227.014 239.381 227.675 239.584C228.369 239.797 228.945 240.027 229.403 240.272C229.862 240.517 230.23 240.859 230.507 241.296C230.795 241.723 230.939 242.267 230.939 242.928C230.939 243.568 230.779 244.133 230.459 244.624C230.15 245.115 229.697 245.499 229.099 245.776C228.513 246.053 227.814 246.192 227.003 246.192C225.478 246.192 224.23 245.717 223.259 244.768L224.091 243.84C224.539 244.203 224.993 244.48 225.451 244.672C225.91 244.853 226.422 244.944 226.987 244.944C227.67 244.944 228.235 244.779 228.683 244.448C229.131 244.107 229.355 243.616 229.355 242.976C229.355 242.613 229.286 242.315 229.147 242.08C229.009 241.835 228.769 241.616 228.427 241.424C228.097 241.232 227.611 241.04 226.971 240.848C225.841 240.507 225.014 240.096 224.491 239.616C223.969 239.136 223.707 238.485 223.707 237.664C223.707 237.109 223.851 236.613 224.139 236.176C224.438 235.739 224.849 235.397 225.371 235.152C225.905 234.907 226.507 234.784 227.179 234.784ZM237.066 237.376C237.834 237.376 238.431 237.605 238.858 238.064C239.295 238.523 239.514 239.152 239.514 239.952V246H238.042V240.16C238.042 239.563 237.925 239.141 237.69 238.896C237.466 238.651 237.135 238.528 236.698 238.528C236.261 238.528 235.871 238.656 235.53 238.912C235.189 239.168 234.869 239.531 234.57 240V246H233.098V234.192L234.57 234.032V238.736C235.231 237.829 236.063 237.376 237.066 237.376ZM245.641 237.376C246.825 237.376 247.742 237.771 248.393 238.56C249.054 239.349 249.385 240.421 249.385 241.776C249.385 242.651 249.236 243.424 248.937 244.096C248.638 244.757 248.206 245.275 247.641 245.648C247.076 246.011 246.404 246.192 245.625 246.192C244.441 246.192 243.518 245.797 242.857 245.008C242.196 244.219 241.865 243.147 241.865 241.792C241.865 240.917 242.014 240.149 242.313 239.488C242.612 238.816 243.044 238.299 243.609 237.936C244.174 237.563 244.852 237.376 245.641 237.376ZM245.641 238.56C244.18 238.56 243.449 239.637 243.449 241.792C243.449 243.936 244.174 245.008 245.625 245.008C247.076 245.008 247.801 243.931 247.801 241.776C247.801 239.632 247.081 238.56 245.641 238.56ZM255.481 237.376C255.78 237.376 256.057 237.408 256.313 237.472L256.041 238.912C255.785 238.848 255.54 238.816 255.305 238.816C254.782 238.816 254.361 239.008 254.041 239.392C253.721 239.776 253.47 240.373 253.289 241.184V246H251.817V237.568H253.081L253.225 239.28C253.449 238.651 253.753 238.176 254.137 237.856C254.521 237.536 254.969 237.376 255.481 237.376ZM263.872 241.536C263.872 241.781 263.862 242.032 263.84 242.288H258.464C258.528 243.216 258.763 243.899 259.168 244.336C259.574 244.773 260.096 244.992 260.736 244.992C261.142 244.992 261.515 244.933 261.856 244.816C262.198 244.699 262.555 244.512 262.928 244.256L263.568 245.136C262.672 245.84 261.691 246.192 260.624 246.192C259.451 246.192 258.534 245.808 257.872 245.04C257.222 244.272 256.896 243.216 256.896 241.872C256.896 240.997 257.035 240.224 257.312 239.552C257.6 238.869 258.006 238.336 258.528 237.952C259.062 237.568 259.686 237.376 260.4 237.376C261.52 237.376 262.379 237.744 262.976 238.48C263.574 239.216 263.872 240.235 263.872 241.536ZM262.416 241.104C262.416 240.272 262.251 239.637 261.92 239.2C261.59 238.763 261.094 238.544 260.432 238.544C259.227 238.544 258.571 239.429 258.464 241.2H262.416V241.104ZM272.41 233.184V247.568H272.058V233.184H272.41ZM291.237 246H289.765L289.381 241.024C289.221 239.072 289.131 237.573 289.109 236.528L286.725 244.752H285.301L282.789 236.512C282.789 237.845 282.72 239.387 282.581 241.136L282.213 246H280.773L281.685 234.976H283.733L286.053 242.992L288.261 234.976H290.325L291.237 246ZM299.434 244.032C299.434 244.373 299.493 244.629 299.61 244.8C299.728 244.96 299.904 245.083 300.138 245.168L299.802 246.192C299.365 246.139 299.013 246.016 298.746 245.824C298.48 245.632 298.282 245.333 298.154 244.928C297.589 245.771 296.752 246.192 295.642 246.192C294.81 246.192 294.154 245.957 293.674 245.488C293.194 245.019 292.954 244.405 292.954 243.648C292.954 242.752 293.274 242.064 293.914 241.584C294.565 241.104 295.482 240.864 296.666 240.864H297.962V240.24C297.962 239.643 297.818 239.216 297.53 238.96C297.242 238.704 296.8 238.576 296.202 238.576C295.584 238.576 294.826 238.725 293.93 239.024L293.562 237.952C294.608 237.568 295.578 237.376 296.474 237.376C297.466 237.376 298.208 237.621 298.698 238.112C299.189 238.592 299.434 239.28 299.434 240.176V244.032ZM295.978 245.088C296.821 245.088 297.482 244.651 297.962 243.776V241.84H296.858C295.301 241.84 294.522 242.416 294.522 243.568C294.522 244.069 294.645 244.448 294.89 244.704C295.136 244.96 295.498 245.088 295.978 245.088ZM303.981 246.192C303.437 246.192 303.005 246.032 302.685 245.712C302.376 245.381 302.221 244.923 302.221 244.336V234.176L303.693 234V244.304C303.693 244.539 303.731 244.709 303.805 244.816C303.891 244.923 304.029 244.976 304.221 244.976C304.424 244.976 304.605 244.944 304.765 244.88L305.149 245.904C304.797 246.096 304.408 246.192 303.981 246.192ZM308.461 237.568V246H306.989V237.568H308.461ZM307.709 233.52C308.018 233.52 308.269 233.616 308.461 233.808C308.653 234 308.749 234.24 308.749 234.528C308.749 234.816 308.653 235.056 308.461 235.248C308.269 235.429 308.018 235.52 307.709 235.52C307.41 235.52 307.165 235.429 306.973 235.248C306.781 235.056 306.685 234.816 306.685 234.528C306.685 234.24 306.781 234 306.973 233.808C307.165 233.616 307.41 233.52 307.709 233.52ZM315.36 237.376C316.32 237.376 317.083 237.765 317.648 238.544C318.214 239.312 318.496 240.389 318.496 241.776C318.496 242.651 318.363 243.424 318.096 244.096C317.83 244.757 317.446 245.275 316.944 245.648C316.443 246.011 315.856 246.192 315.184 246.192C314.299 246.192 313.552 245.819 312.944 245.072L312.8 246H311.504V234.176L312.976 234V238.624C313.584 237.792 314.379 237.376 315.36 237.376ZM314.832 245.024C315.483 245.024 315.99 244.763 316.352 244.24C316.726 243.707 316.912 242.885 316.912 241.776C316.912 240.635 316.742 239.813 316.4 239.312C316.059 238.8 315.574 238.544 314.944 238.544C314.198 238.544 313.542 238.981 312.976 239.856V243.888C313.2 244.24 313.472 244.517 313.792 244.72C314.123 244.923 314.47 245.024 314.832 245.024ZM327.276 246H326.012L325.9 244.688C325.58 245.211 325.212 245.595 324.796 245.84C324.38 246.075 323.874 246.192 323.276 246.192C322.54 246.192 321.964 245.968 321.548 245.52C321.132 245.072 320.924 244.437 320.924 243.616V237.568H322.396V243.456C322.396 244.032 322.498 244.443 322.7 244.688C322.903 244.923 323.234 245.04 323.692 245.04C324.514 245.04 325.218 244.555 325.804 243.584V237.568H327.276V246ZM330.701 243.968C331.021 243.968 331.288 244.075 331.501 244.288C331.714 244.501 331.821 244.763 331.821 245.072C331.821 245.403 331.725 245.781 331.533 246.208L330.461 248.656H329.405L330.045 246C329.906 245.893 329.794 245.76 329.709 245.6C329.634 245.44 329.597 245.264 329.597 245.072C329.597 244.763 329.704 244.501 329.917 244.288C330.13 244.075 330.392 243.968 330.701 243.968ZM342.331 234.784C342.992 234.784 343.547 234.869 343.995 235.04C344.454 235.211 344.918 235.488 345.387 235.872L344.555 236.848C343.883 236.304 343.174 236.032 342.427 236.032C341.51 236.032 340.768 236.384 340.203 237.088C339.648 237.792 339.371 238.923 339.371 240.48C339.371 241.995 339.648 243.115 340.203 243.84C340.758 244.555 341.494 244.912 342.411 244.912C342.88 244.912 343.291 244.832 343.643 244.672C343.995 244.512 344.368 244.288 344.763 244L345.515 244.96C345.174 245.312 344.736 245.605 344.203 245.84C343.67 246.075 343.056 246.192 342.363 246.192C341.467 246.192 340.667 245.973 339.963 245.536C339.27 245.088 338.726 244.437 338.331 243.584C337.947 242.72 337.755 241.685 337.755 240.48C337.755 239.275 337.958 238.245 338.363 237.392C338.768 236.528 339.318 235.877 340.011 235.44C340.704 235.003 341.478 234.784 342.331 234.784ZM353.3 246L352.468 243.232H348.292L347.46 246H345.924L349.46 234.976H351.38L354.9 246H353.3ZM348.66 242H352.1L350.388 236.24L348.66 242Z" fill="white"/>
<path d="M598.378 75.784C599.039 75.784 599.594 75.8693 600.042 76.04C600.501 76.2107 600.965 76.488 601.434 76.872L600.602 77.848C599.93 77.304 599.221 77.032 598.474 77.032C597.557 77.032 596.815 77.384 596.25 78.088C595.695 78.792 595.418 79.9227 595.418 81.48C595.418 82.9947 595.695 84.1147 596.25 84.84C596.805 85.5547 597.541 85.912 598.458 85.912C598.927 85.912 599.338 85.832 599.69 85.672C600.042 85.512 600.415 85.288 600.81 85L601.562 85.96C601.221 86.312 600.783 86.6053 600.25 86.84C599.717 87.0747 599.103 87.192 598.41 87.192C597.514 87.192 596.714 86.9733 596.01 86.536C595.317 86.088 594.773 85.4373 594.378 84.584C593.994 83.72 593.802 82.6853 593.802 81.48C593.802 80.2747 594.005 79.2453 594.41 78.392C594.815 77.528 595.365 76.8773 596.058 76.44C596.751 76.0027 597.525 75.784 598.378 75.784ZM609.401 87H608.137L608.025 85.688C607.705 86.2107 607.337 86.5947 606.921 86.84C606.505 87.0747 605.999 87.192 605.401 87.192C604.665 87.192 604.089 86.968 603.673 86.52C603.257 86.072 603.049 85.4373 603.049 84.616V78.568H604.521V84.456C604.521 85.032 604.623 85.4427 604.825 85.688C605.028 85.9227 605.359 86.04 605.817 86.04C606.639 86.04 607.343 85.5547 607.929 84.584V78.568H609.401V87ZM616.106 78.376C616.405 78.376 616.682 78.408 616.938 78.472L616.666 79.912C616.41 79.848 616.165 79.816 615.93 79.816C615.407 79.816 614.986 80.008 614.666 80.392C614.346 80.776 614.095 81.3733 613.914 82.184V87H612.442V78.568H613.706L613.85 80.28C614.074 79.6507 614.378 79.176 614.762 78.856C615.146 78.536 615.594 78.376 616.106 78.376ZM622.278 78.376C622.576 78.376 622.854 78.408 623.11 78.472L622.838 79.912C622.582 79.848 622.336 79.816 622.102 79.816C621.579 79.816 621.158 80.008 620.838 80.392C620.518 80.776 620.267 81.3733 620.086 82.184V87H618.614V78.568H619.878L620.022 80.28C620.246 79.6507 620.55 79.176 620.934 78.856C621.318 78.536 621.766 78.376 622.278 78.376ZM630.669 82.536C630.669 82.7813 630.659 83.032 630.637 83.288H625.261C625.325 84.216 625.56 84.8987 625.965 85.336C626.371 85.7733 626.893 85.992 627.533 85.992C627.939 85.992 628.312 85.9333 628.653 85.816C628.995 85.6987 629.352 85.512 629.725 85.256L630.365 86.136C629.469 86.84 628.488 87.192 627.421 87.192C626.248 87.192 625.331 86.808 624.669 86.04C624.019 85.272 623.693 84.216 623.693 82.872C623.693 81.9973 623.832 81.224 624.109 80.552C624.397 79.8693 624.803 79.336 625.325 78.952C625.859 78.568 626.483 78.376 627.197 78.376C628.317 78.376 629.176 78.744 629.773 79.48C630.371 80.216 630.669 81.2347 630.669 82.536ZM629.213 82.104C629.213 81.272 629.048 80.6373 628.717 80.2C628.387 79.7627 627.891 79.544 627.229 79.544C626.024 79.544 625.368 80.4293 625.261 82.2H629.213V82.104ZM636.988 78.376C637.756 78.376 638.353 78.6053 638.78 79.064C639.217 79.5227 639.436 80.152 639.436 80.952V87H637.964V81.16C637.964 80.5627 637.852 80.1413 637.628 79.896C637.404 79.6507 637.073 79.528 636.636 79.528C636.188 79.528 635.793 79.656 635.452 79.912C635.111 80.168 634.791 80.536 634.492 81.016V87H633.02V78.568H634.284L634.412 79.816C634.711 79.368 635.079 79.016 635.516 78.76C635.964 78.504 636.455 78.376 636.988 78.376ZM646.651 86.616C646.096 87 645.467 87.192 644.763 87.192C644.048 87.192 643.488 86.9893 643.083 86.584C642.688 86.168 642.491 85.5707 642.491 84.792V79.704H641.019V78.568H642.491V76.664L643.963 76.488V78.568H645.963L645.803 79.704H643.963V84.728C643.963 85.1653 644.038 85.4853 644.187 85.688C644.347 85.88 644.608 85.976 644.971 85.976C645.302 85.976 645.675 85.864 646.091 85.64L646.651 86.616ZM654.011 75.976V85.672H658.539L658.363 87H652.491V75.976H654.011ZM663.141 78.376C664.325 78.376 665.242 78.7707 665.893 79.56C666.554 80.3493 666.885 81.4213 666.885 82.776C666.885 83.6507 666.736 84.424 666.437 85.096C666.138 85.7573 665.706 86.2747 665.141 86.648C664.576 87.0107 663.904 87.192 663.125 87.192C661.941 87.192 661.018 86.7973 660.357 86.008C659.696 85.2187 659.365 84.1467 659.365 82.792C659.365 81.9173 659.514 81.1493 659.813 80.488C660.112 79.816 660.544 79.2987 661.109 78.936C661.674 78.5627 662.352 78.376 663.141 78.376ZM663.141 79.56C661.68 79.56 660.949 80.6373 660.949 82.792C660.949 84.936 661.674 86.008 663.125 86.008C664.576 86.008 665.301 84.9307 665.301 82.776C665.301 80.632 664.581 79.56 663.141 79.56ZM672.389 78.376C672.89 78.376 673.349 78.4507 673.765 78.6C674.181 78.7387 674.581 78.968 674.965 79.288L674.261 80.216C673.962 80.0027 673.669 79.848 673.381 79.752C673.104 79.6453 672.794 79.592 672.453 79.592C671.77 79.592 671.237 79.864 670.853 80.408C670.48 80.952 670.293 81.7573 670.293 82.824C670.293 83.8907 670.48 84.68 670.853 85.192C671.226 85.6933 671.76 85.944 672.453 85.944C672.784 85.944 673.088 85.896 673.365 85.8C673.642 85.6933 673.952 85.528 674.293 85.304L674.965 86.264C674.197 86.8827 673.338 87.192 672.389 87.192C671.248 87.192 670.346 86.808 669.685 86.04C669.034 85.272 668.709 84.2107 668.709 82.856C668.709 81.96 668.858 81.176 669.157 80.504C669.456 79.832 669.877 79.3093 670.421 78.936C670.976 78.5627 671.632 78.376 672.389 78.376ZM682.481 85.032C682.481 85.3733 682.54 85.6293 682.657 85.8C682.775 85.96 682.951 86.0827 683.185 86.168L682.849 87.192C682.412 87.1387 682.06 87.016 681.793 86.824C681.527 86.632 681.329 86.3333 681.201 85.928C680.636 86.7707 679.799 87.192 678.689 87.192C677.857 87.192 677.201 86.9573 676.721 86.488C676.241 86.0187 676.001 85.4053 676.001 84.648C676.001 83.752 676.321 83.064 676.961 82.584C677.612 82.104 678.529 81.864 679.713 81.864H681.009V81.24C681.009 80.6427 680.865 80.216 680.577 79.96C680.289 79.704 679.847 79.576 679.249 79.576C678.631 79.576 677.873 79.7253 676.977 80.024L676.609 78.952C677.655 78.568 678.625 78.376 679.521 78.376C680.513 78.376 681.255 78.6213 681.745 79.112C682.236 79.592 682.481 80.28 682.481 81.176V85.032ZM679.025 86.088C679.868 86.088 680.529 85.6507 681.009 84.776V82.84H679.905C678.348 82.84 677.569 83.416 677.569 84.568C677.569 85.0693 677.692 85.448 677.937 85.704C678.183 85.96 678.545 86.088 679.025 86.088ZM689.76 86.616C689.206 87 688.576 87.192 687.872 87.192C687.158 87.192 686.598 86.9893 686.192 86.584C685.798 86.168 685.6 85.5707 685.6 84.792V79.704H684.128V78.568H685.6V76.664L687.072 76.488V78.568H689.072L688.912 79.704H687.072V84.728C687.072 85.1653 687.147 85.4853 687.296 85.688C687.456 85.88 687.718 85.976 688.08 85.976C688.411 85.976 688.784 85.864 689.2 85.64L689.76 86.616ZM692.758 78.568V87H691.286V78.568H692.758ZM692.006 74.52C692.315 74.52 692.566 74.616 692.758 74.808C692.95 75 693.046 75.24 693.046 75.528C693.046 75.816 692.95 76.056 692.758 76.248C692.566 76.4293 692.315 76.52 692.006 76.52C691.707 76.52 691.462 76.4293 691.27 76.248C691.078 76.056 690.982 75.816 690.982 75.528C690.982 75.24 691.078 75 691.27 74.808C691.462 74.616 691.707 74.52 692.006 74.52ZM698.969 78.376C700.153 78.376 701.071 78.7707 701.721 79.56C702.383 80.3493 702.713 81.4213 702.713 82.776C702.713 83.6507 702.564 84.424 702.265 85.096C701.967 85.7573 701.535 86.2747 700.969 86.648C700.404 87.0107 699.732 87.192 698.953 87.192C697.769 87.192 696.847 86.7973 696.185 86.008C695.524 85.2187 695.193 84.1467 695.193 82.792C695.193 81.9173 695.343 81.1493 695.641 80.488C695.94 79.816 696.372 79.2987 696.937 78.936C697.503 78.5627 698.18 78.376 698.969 78.376ZM698.969 79.56C697.508 79.56 696.777 80.6373 696.777 82.792C696.777 84.936 697.503 86.008 698.953 86.008C700.404 86.008 701.129 84.9307 701.129 82.776C701.129 80.632 700.409 79.56 698.969 79.56ZM709.113 78.376C709.881 78.376 710.478 78.6053 710.905 79.064C711.342 79.5227 711.561 80.152 711.561 80.952V87H710.089V81.16C710.089 80.5627 709.977 80.1413 709.753 79.896C709.529 79.6507 709.198 79.528 708.761 79.528C708.313 79.528 707.918 79.656 707.577 79.912C707.236 80.168 706.916 80.536 706.617 81.016V87H705.145V78.568H706.409L706.537 79.816C706.836 79.368 707.204 79.016 707.641 78.76C708.089 78.504 708.58 78.376 709.113 78.376Z" fill="white"/>
</svg>
