<svg width="1001" height="502" viewBox="0 0 1001 502" fill="none" xmlns="http://www.w3.org/2000/svg">
<g opacity="0.29827">
<path d="M1008.08 163.448L443.182 -356.858V-747.19L28.1096 -770C24.9043 -762.456 4.36709 -740.714 7.57176 -728.596C11.43 -714.102 30.8387 -718.735 36.4776 -709.409C43.0661 -698.42 31.7291 -653.749 28.3457 -640.86C21.8759 -616.445 7.09676 -596.665 2.82235 -572.25C-4.35982 -531.263 10.1824 -534.53 37.7242 -508.927C84.141 -465.742 46.9244 -420.952 58.6176 -370.223C68.1146 -328.878 109.605 -307.554 124.8 -266.211C136.553 -234.37 152.697 -226.233 177.746 -202.947C177.153 -217.084 164.51 -258.785 188.253 -255.102C211.817 -251.478 202.736 -216.669 207.247 -202.115C211.045 -189.997 237.933 -165.761 215.616 -154.593C208.196 -150.91 187.066 -165.582 178.577 -169.503C184.572 -150.791 180.774 -131.367 190.271 -113.487C201.608 -92.162 213.835 -100.359 228.853 -88.7754C244.344 -76.8355 242.683 -63.1137 235.797 -45.0554C228.615 -26.2247 221.196 -29.1352 232.592 -6.44342C240.843 9.95119 254.85 30.7421 266.9 43.2164C273.904 50.4634 281.502 52.1267 288.506 61.3932C294.323 69.1155 292.067 79.2142 299.012 86.1638C310.883 98.1037 331.006 98.282 340.384 113.904C350.831 131.309 338.96 144.437 369.706 142.833C371.309 177.643 377.897 209.185 377.541 243.994C394.695 250.825 422.414 242.687 440.399 239.063C458.266 263.18 481.355 246.429 501.774 259.558C510.678 265.26 508.837 279.517 514.239 284.506C525.339 294.723 533.529 288.308 547.301 291.872C557.51 294.486 565.404 301.97 575.138 304.703C584.338 307.257 599.475 301.258 606.301 309.396C614.492 319.138 600.78 336.958 613.127 344.799C623.395 351.333 638.115 335.77 648.088 338.027C659.721 340.7 693.079 371.174 701.271 381.212C710.59 392.677 719.969 414.062 725.25 428.793C733.501 451.841 732.373 463.127 749.408 479.998C760.27 490.75 749.942 491.522 767.63 494.67C779.204 496.749 794.518 488.374 806.212 487.067C830.549 484.394 855.122 489.027 879.102 484.453C901.421 480.176 922.729 473.166 945.64 469.899C965.465 467.048 1000.37 469.246 1017.94 459.801C1036.99 449.643 1038.71 426.654 1011.17 430.932C1008.97 416.26 1018.77 396.003 1007.85 385.847C1023.04 365.056 1028.56 350.384 1030.93 324.959C1032 313.792 1032.48 301.436 1038 292.05C1043.4 282.783 1058.59 277.259 1061.56 269.299C1066.13 256.943 1058.83 251.419 1053.25 244.528C1049.69 240.073 1039.54 242.212 1036.63 238.291C1031.23 231.103 1036.57 223.678 1033.6 216.431C1024.94 195.462 1014.61 187.205 1008.08 163.444C1008.26 167.424 1008.44 171.463 1008.2 175.384" stroke="white" stroke-width="2" stroke-linecap="round" stroke-linejoin="round"/>
</g>
<path d="M723.582 468.763C732.326 437.275 763.33 449.667 795.271 451.093C804.735 451.515 811.402 444.686 809.037 435.188C803.952 414.762 742.928 387.064 756.554 377.196C770.627 367.004 827.59 384.021 830.511 384.366C856.159 387.403 884.641 364.404 888.188 341.669C890.712 325.492 844.684 293.037 828.16 285.265C719.954 234.367 762.203 265.06 656.622 188.856C648.539 183.022 640.32 176.611 634.513 168.677C628.532 160.505 635.141 153.116 641.112 151.133C660.9 144.563 717.754 152.962 722.662 126.618C724.168 118.535 719.819 108.982 721.1 100.82C722.104 94.4269 726.594 89.652 729.341 84.0679" stroke="white" stroke-width="2"/>
<path fill-rule="evenodd" clip-rule="evenodd" d="M724.5 474C728.09 474 731 471.09 731 467.5C731 463.91 728.09 461 724.5 461C720.91 461 718 463.91 718 467.5C718 471.09 720.91 474 724.5 474Z" fill="#4AF6CD"/>
<path fill-rule="evenodd" clip-rule="evenodd" d="M661 363C662.657 363 664 361.657 664 360C664 358.343 662.657 357 661 357C659.343 357 658 358.343 658 360C658 361.657 659.343 363 661 363Z" fill="#4AF6CD"/>
<path fill-rule="evenodd" clip-rule="evenodd" d="M576 322C577.657 322 579 320.657 579 319C579 317.343 577.657 316 576 316C574.343 316 573 317.343 573 319C573 320.657 574.343 322 576 322Z" fill="#4AF6CD"/>
<path fill-rule="evenodd" clip-rule="evenodd" d="M365 228C366.657 228 368 226.657 368 225C368 223.343 366.657 222 365 222C363.343 222 362 223.343 362 225C362 226.657 363.343 228 365 228Z" fill="#4AF6CD"/>
<path fill-rule="evenodd" clip-rule="evenodd" d="M729.5 91C733.09 91 736 88.0899 736 84.5C736 80.9101 733.09 78 729.5 78C725.91 78 723 80.9101 723 84.5C723 88.0899 725.91 91 729.5 91Z" fill="#4AF6CD"/>
<path d="M543.414 479.784C544.15 479.784 544.779 479.891 545.302 480.104C545.824 480.307 546.331 480.627 546.822 481.064L545.99 481.992C545.574 481.661 545.163 481.421 544.758 481.272C544.363 481.112 543.936 481.032 543.478 481.032C542.902 481.032 542.427 481.165 542.054 481.432C541.68 481.699 541.494 482.088 541.494 482.6C541.494 482.92 541.558 483.192 541.686 483.416C541.814 483.629 542.048 483.827 542.39 484.008C542.742 484.189 543.248 484.381 543.91 484.584C544.603 484.797 545.179 485.027 545.638 485.272C546.096 485.517 546.464 485.859 546.742 486.296C547.03 486.723 547.174 487.267 547.174 487.928C547.174 488.568 547.014 489.133 546.694 489.624C546.384 490.115 545.931 490.499 545.334 490.776C544.747 491.053 544.048 491.192 543.238 491.192C541.712 491.192 540.464 490.717 539.494 489.768L540.326 488.84C540.774 489.203 541.227 489.48 541.686 489.672C542.144 489.853 542.656 489.944 543.222 489.944C543.904 489.944 544.47 489.779 544.918 489.448C545.366 489.107 545.59 488.616 545.59 487.976C545.59 487.613 545.52 487.315 545.382 487.08C545.243 486.835 545.003 486.616 544.662 486.424C544.331 486.232 543.846 486.04 543.206 485.848C542.075 485.507 541.248 485.096 540.726 484.616C540.203 484.136 539.942 483.485 539.942 482.664C539.942 482.109 540.086 481.613 540.374 481.176C540.672 480.739 541.083 480.397 541.606 480.152C542.139 479.907 542.742 479.784 543.414 479.784ZM552.501 482.376C553.685 482.376 554.602 482.771 555.253 483.56C555.914 484.349 556.245 485.421 556.245 486.776C556.245 487.651 556.095 488.424 555.797 489.096C555.498 489.757 555.066 490.275 554.501 490.648C553.935 491.011 553.263 491.192 552.485 491.192C551.301 491.192 550.378 490.797 549.717 490.008C549.055 489.219 548.725 488.147 548.725 486.792C548.725 485.917 548.874 485.149 549.173 484.488C549.471 483.816 549.903 483.299 550.469 482.936C551.034 482.563 551.711 482.376 552.501 482.376ZM552.501 483.56C551.039 483.56 550.309 484.637 550.309 486.792C550.309 488.936 551.034 490.008 552.485 490.008C553.935 490.008 554.661 488.931 554.661 486.776C554.661 484.632 553.941 483.56 552.501 483.56ZM564.948 491H563.684L563.572 489.688C563.252 490.211 562.884 490.595 562.468 490.84C562.052 491.075 561.546 491.192 560.948 491.192C560.212 491.192 559.636 490.968 559.22 490.52C558.804 490.072 558.596 489.437 558.596 488.616V482.568H560.068V488.456C560.068 489.032 560.17 489.443 560.372 489.688C560.575 489.923 560.906 490.04 561.364 490.04C562.186 490.04 562.89 489.555 563.476 488.584V482.568H564.948V491ZM572.245 490.616C571.69 491 571.061 491.192 570.357 491.192C569.642 491.192 569.082 490.989 568.677 490.584C568.282 490.168 568.085 489.571 568.085 488.792V483.704H566.613V482.568H568.085V480.664L569.557 480.488V482.568H571.557L571.397 483.704H569.557V488.728C569.557 489.165 569.631 489.485 569.781 489.688C569.941 489.88 570.202 489.976 570.565 489.976C570.895 489.976 571.269 489.864 571.685 489.64L572.245 490.616ZM577.738 482.376C578.506 482.376 579.103 482.605 579.53 483.064C579.967 483.523 580.186 484.152 580.186 484.952V491H578.714V485.16C578.714 484.563 578.597 484.141 578.362 483.896C578.138 483.651 577.807 483.528 577.37 483.528C576.933 483.528 576.543 483.656 576.202 483.912C575.861 484.168 575.541 484.531 575.242 485V491H573.77V479.192L575.242 479.032V483.736C575.903 482.829 576.735 482.376 577.738 482.376ZM590.179 479.784C590.915 479.784 591.545 479.891 592.067 480.104C592.59 480.307 593.097 480.627 593.587 481.064L592.755 481.992C592.339 481.661 591.929 481.421 591.523 481.272C591.129 481.112 590.702 481.032 590.243 481.032C589.667 481.032 589.193 481.165 588.819 481.432C588.446 481.699 588.259 482.088 588.259 482.6C588.259 482.92 588.323 483.192 588.451 483.416C588.579 483.629 588.814 483.827 589.155 484.008C589.507 484.189 590.014 484.381 590.675 484.584C591.369 484.797 591.945 485.027 592.403 485.272C592.862 485.517 593.23 485.859 593.507 486.296C593.795 486.723 593.939 487.267 593.939 487.928C593.939 488.568 593.779 489.133 593.459 489.624C593.15 490.115 592.697 490.499 592.099 490.776C591.513 491.053 590.814 491.192 590.003 491.192C588.478 491.192 587.23 490.717 586.259 489.768L587.091 488.84C587.539 489.203 587.993 489.48 588.451 489.672C588.91 489.853 589.422 489.944 589.987 489.944C590.67 489.944 591.235 489.779 591.683 489.448C592.131 489.107 592.355 488.616 592.355 487.976C592.355 487.613 592.286 487.315 592.147 487.08C592.009 486.835 591.769 486.616 591.427 486.424C591.097 486.232 590.611 486.04 589.971 485.848C588.841 485.507 588.014 485.096 587.491 484.616C586.969 484.136 586.707 483.485 586.707 482.664C586.707 482.109 586.851 481.613 587.139 481.176C587.438 480.739 587.849 480.397 588.371 480.152C588.905 479.907 589.507 479.784 590.179 479.784ZM600.066 482.376C600.834 482.376 601.431 482.605 601.858 483.064C602.295 483.523 602.514 484.152 602.514 484.952V491H601.042V485.16C601.042 484.563 600.925 484.141 600.69 483.896C600.466 483.651 600.135 483.528 599.698 483.528C599.261 483.528 598.871 483.656 598.53 483.912C598.189 484.168 597.869 484.531 597.57 485V491H596.098V479.192L597.57 479.032V483.736C598.231 482.829 599.063 482.376 600.066 482.376ZM608.641 482.376C609.825 482.376 610.742 482.771 611.393 483.56C612.054 484.349 612.385 485.421 612.385 486.776C612.385 487.651 612.236 488.424 611.937 489.096C611.638 489.757 611.206 490.275 610.641 490.648C610.076 491.011 609.404 491.192 608.625 491.192C607.441 491.192 606.518 490.797 605.857 490.008C605.196 489.219 604.865 488.147 604.865 486.792C604.865 485.917 605.014 485.149 605.313 484.488C605.612 483.816 606.044 483.299 606.609 482.936C607.174 482.563 607.852 482.376 608.641 482.376ZM608.641 483.56C607.18 483.56 606.449 484.637 606.449 486.792C606.449 488.936 607.174 490.008 608.625 490.008C610.076 490.008 610.801 488.931 610.801 486.776C610.801 484.632 610.081 483.56 608.641 483.56ZM618.481 482.376C618.78 482.376 619.057 482.408 619.313 482.472L619.041 483.912C618.785 483.848 618.54 483.816 618.305 483.816C617.782 483.816 617.361 484.008 617.041 484.392C616.721 484.776 616.47 485.373 616.289 486.184V491H614.817V482.568H616.081L616.225 484.28C616.449 483.651 616.753 483.176 617.137 482.856C617.521 482.536 617.969 482.376 618.481 482.376ZM626.872 486.536C626.872 486.781 626.862 487.032 626.84 487.288H621.464C621.528 488.216 621.763 488.899 622.168 489.336C622.574 489.773 623.096 489.992 623.736 489.992C624.142 489.992 624.515 489.933 624.856 489.816C625.198 489.699 625.555 489.512 625.928 489.256L626.568 490.136C625.672 490.84 624.691 491.192 623.624 491.192C622.451 491.192 621.534 490.808 620.872 490.04C620.222 489.272 619.896 488.216 619.896 486.872C619.896 485.997 620.035 485.224 620.312 484.552C620.6 483.869 621.006 483.336 621.528 482.952C622.062 482.568 622.686 482.376 623.4 482.376C624.52 482.376 625.379 482.744 625.976 483.48C626.574 484.216 626.872 485.235 626.872 486.536ZM625.416 486.104C625.416 485.272 625.251 484.637 624.92 484.2C624.59 483.763 624.094 483.544 623.432 483.544C622.227 483.544 621.571 484.429 621.464 486.2H625.416V486.104ZM635.41 478.184V492.568H635.058V478.184H635.41ZM654.237 491H652.765L652.381 486.024C652.221 484.072 652.131 482.573 652.109 481.528L649.725 489.752H648.301L645.789 481.512C645.789 482.845 645.72 484.387 645.581 486.136L645.213 491H643.773L644.685 479.976H646.733L649.053 487.992L651.261 479.976H653.325L654.237 491ZM662.434 489.032C662.434 489.373 662.493 489.629 662.61 489.8C662.728 489.96 662.904 490.083 663.138 490.168L662.802 491.192C662.365 491.139 662.013 491.016 661.746 490.824C661.48 490.632 661.282 490.333 661.154 489.928C660.589 490.771 659.752 491.192 658.642 491.192C657.81 491.192 657.154 490.957 656.674 490.488C656.194 490.019 655.954 489.405 655.954 488.648C655.954 487.752 656.274 487.064 656.914 486.584C657.565 486.104 658.482 485.864 659.666 485.864H660.962V485.24C660.962 484.643 660.818 484.216 660.53 483.96C660.242 483.704 659.8 483.576 659.202 483.576C658.584 483.576 657.826 483.725 656.93 484.024L656.562 482.952C657.608 482.568 658.578 482.376 659.474 482.376C660.466 482.376 661.208 482.621 661.698 483.112C662.189 483.592 662.434 484.28 662.434 485.176V489.032ZM658.978 490.088C659.821 490.088 660.482 489.651 660.962 488.776V486.84H659.858C658.301 486.84 657.522 487.416 657.522 488.568C657.522 489.069 657.645 489.448 657.89 489.704C658.136 489.96 658.498 490.088 658.978 490.088ZM666.981 491.192C666.437 491.192 666.005 491.032 665.685 490.712C665.376 490.381 665.221 489.923 665.221 489.336V479.176L666.693 479V489.304C666.693 489.539 666.731 489.709 666.805 489.816C666.891 489.923 667.029 489.976 667.221 489.976C667.424 489.976 667.605 489.944 667.765 489.88L668.149 490.904C667.797 491.096 667.408 491.192 666.981 491.192ZM671.461 482.568V491H669.989V482.568H671.461ZM670.709 478.52C671.018 478.52 671.269 478.616 671.461 478.808C671.653 479 671.749 479.24 671.749 479.528C671.749 479.816 671.653 480.056 671.461 480.248C671.269 480.429 671.018 480.52 670.709 480.52C670.41 480.52 670.165 480.429 669.973 480.248C669.781 480.056 669.685 479.816 669.685 479.528C669.685 479.24 669.781 479 669.973 478.808C670.165 478.616 670.41 478.52 670.709 478.52ZM678.36 482.376C679.32 482.376 680.083 482.765 680.648 483.544C681.214 484.312 681.496 485.389 681.496 486.776C681.496 487.651 681.363 488.424 681.096 489.096C680.83 489.757 680.446 490.275 679.944 490.648C679.443 491.011 678.856 491.192 678.184 491.192C677.299 491.192 676.552 490.819 675.944 490.072L675.8 491H674.504V479.176L675.976 479V483.624C676.584 482.792 677.379 482.376 678.36 482.376ZM677.832 490.024C678.483 490.024 678.99 489.763 679.352 489.24C679.726 488.707 679.912 487.885 679.912 486.776C679.912 485.635 679.742 484.813 679.4 484.312C679.059 483.8 678.574 483.544 677.944 483.544C677.198 483.544 676.542 483.981 675.976 484.856V488.888C676.2 489.24 676.472 489.517 676.792 489.72C677.123 489.923 677.47 490.024 677.832 490.024ZM690.276 491H689.012L688.9 489.688C688.58 490.211 688.212 490.595 687.796 490.84C687.38 491.075 686.874 491.192 686.276 491.192C685.54 491.192 684.964 490.968 684.548 490.52C684.132 490.072 683.924 489.437 683.924 488.616V482.568H685.396V488.456C685.396 489.032 685.498 489.443 685.7 489.688C685.903 489.923 686.234 490.04 686.692 490.04C687.514 490.04 688.218 489.555 688.804 488.584V482.568H690.276V491ZM693.701 488.968C694.021 488.968 694.288 489.075 694.501 489.288C694.714 489.501 694.821 489.763 694.821 490.072C694.821 490.403 694.725 490.781 694.533 491.208L693.461 493.656H692.405L693.045 491C692.906 490.893 692.794 490.76 692.709 490.6C692.634 490.44 692.597 490.264 692.597 490.072C692.597 489.763 692.704 489.501 692.917 489.288C693.13 489.075 693.392 488.968 693.701 488.968ZM705.331 479.784C705.992 479.784 706.547 479.869 706.995 480.04C707.454 480.211 707.918 480.488 708.387 480.872L707.555 481.848C706.883 481.304 706.174 481.032 705.427 481.032C704.51 481.032 703.768 481.384 703.203 482.088C702.648 482.792 702.371 483.923 702.371 485.48C702.371 486.995 702.648 488.115 703.203 488.84C703.758 489.555 704.494 489.912 705.411 489.912C705.88 489.912 706.291 489.832 706.643 489.672C706.995 489.512 707.368 489.288 707.763 489L708.515 489.96C708.174 490.312 707.736 490.605 707.203 490.84C706.67 491.075 706.056 491.192 705.363 491.192C704.467 491.192 703.667 490.973 702.963 490.536C702.27 490.088 701.726 489.437 701.331 488.584C700.947 487.72 700.755 486.685 700.755 485.48C700.755 484.275 700.958 483.245 701.363 482.392C701.768 481.528 702.318 480.877 703.011 480.44C703.704 480.003 704.478 479.784 705.331 479.784ZM716.3 491L715.468 488.232H711.292L710.46 491H708.924L712.46 479.976H714.38L717.9 491H716.3ZM711.66 487H715.1L713.388 481.24L711.66 487Z" fill="white"/>
<path d="M598.378 75.784C599.039 75.784 599.594 75.8693 600.042 76.04C600.501 76.2107 600.965 76.488 601.434 76.872L600.602 77.848C599.93 77.304 599.221 77.032 598.474 77.032C597.557 77.032 596.815 77.384 596.25 78.088C595.695 78.792 595.418 79.9227 595.418 81.48C595.418 82.9947 595.695 84.1147 596.25 84.84C596.805 85.5547 597.541 85.912 598.458 85.912C598.927 85.912 599.338 85.832 599.69 85.672C600.042 85.512 600.415 85.288 600.81 85L601.562 85.96C601.221 86.312 600.783 86.6053 600.25 86.84C599.717 87.0747 599.103 87.192 598.41 87.192C597.514 87.192 596.714 86.9733 596.01 86.536C595.317 86.088 594.773 85.4373 594.378 84.584C593.994 83.72 593.802 82.6853 593.802 81.48C593.802 80.2747 594.005 79.2453 594.41 78.392C594.815 77.528 595.365 76.8773 596.058 76.44C596.751 76.0027 597.525 75.784 598.378 75.784ZM609.401 87H608.137L608.025 85.688C607.705 86.2107 607.337 86.5947 606.921 86.84C606.505 87.0747 605.999 87.192 605.401 87.192C604.665 87.192 604.089 86.968 603.673 86.52C603.257 86.072 603.049 85.4373 603.049 84.616V78.568H604.521V84.456C604.521 85.032 604.623 85.4427 604.825 85.688C605.028 85.9227 605.359 86.04 605.817 86.04C606.639 86.04 607.343 85.5547 607.929 84.584V78.568H609.401V87ZM616.106 78.376C616.405 78.376 616.682 78.408 616.938 78.472L616.666 79.912C616.41 79.848 616.165 79.816 615.93 79.816C615.407 79.816 614.986 80.008 614.666 80.392C614.346 80.776 614.095 81.3733 613.914 82.184V87H612.442V78.568H613.706L613.85 80.28C614.074 79.6507 614.378 79.176 614.762 78.856C615.146 78.536 615.594 78.376 616.106 78.376ZM622.278 78.376C622.576 78.376 622.854 78.408 623.11 78.472L622.838 79.912C622.582 79.848 622.336 79.816 622.102 79.816C621.579 79.816 621.158 80.008 620.838 80.392C620.518 80.776 620.267 81.3733 620.086 82.184V87H618.614V78.568H619.878L620.022 80.28C620.246 79.6507 620.55 79.176 620.934 78.856C621.318 78.536 621.766 78.376 622.278 78.376ZM630.669 82.536C630.669 82.7813 630.659 83.032 630.637 83.288H625.261C625.325 84.216 625.56 84.8987 625.965 85.336C626.371 85.7733 626.893 85.992 627.533 85.992C627.939 85.992 628.312 85.9333 628.653 85.816C628.995 85.6987 629.352 85.512 629.725 85.256L630.365 86.136C629.469 86.84 628.488 87.192 627.421 87.192C626.248 87.192 625.331 86.808 624.669 86.04C624.019 85.272 623.693 84.216 623.693 82.872C623.693 81.9973 623.832 81.224 624.109 80.552C624.397 79.8693 624.803 79.336 625.325 78.952C625.859 78.568 626.483 78.376 627.197 78.376C628.317 78.376 629.176 78.744 629.773 79.48C630.371 80.216 630.669 81.2347 630.669 82.536ZM629.213 82.104C629.213 81.272 629.048 80.6373 628.717 80.2C628.387 79.7627 627.891 79.544 627.229 79.544C626.024 79.544 625.368 80.4293 625.261 82.2H629.213V82.104ZM636.988 78.376C637.756 78.376 638.353 78.6053 638.78 79.064C639.217 79.5227 639.436 80.152 639.436 80.952V87H637.964V81.16C637.964 80.5627 637.852 80.1413 637.628 79.896C637.404 79.6507 637.073 79.528 636.636 79.528C636.188 79.528 635.793 79.656 635.452 79.912C635.111 80.168 634.791 80.536 634.492 81.016V87H633.02V78.568H634.284L634.412 79.816C634.711 79.368 635.079 79.016 635.516 78.76C635.964 78.504 636.455 78.376 636.988 78.376ZM646.651 86.616C646.096 87 645.467 87.192 644.763 87.192C644.048 87.192 643.488 86.9893 643.083 86.584C642.688 86.168 642.491 85.5707 642.491 84.792V79.704H641.019V78.568H642.491V76.664L643.963 76.488V78.568H645.963L645.803 79.704H643.963V84.728C643.963 85.1653 644.038 85.4853 644.187 85.688C644.347 85.88 644.608 85.976 644.971 85.976C645.302 85.976 645.675 85.864 646.091 85.64L646.651 86.616ZM654.011 75.976V85.672H658.539L658.363 87H652.491V75.976H654.011ZM663.141 78.376C664.325 78.376 665.242 78.7707 665.893 79.56C666.554 80.3493 666.885 81.4213 666.885 82.776C666.885 83.6507 666.736 84.424 666.437 85.096C666.138 85.7573 665.706 86.2747 665.141 86.648C664.576 87.0107 663.904 87.192 663.125 87.192C661.941 87.192 661.018 86.7973 660.357 86.008C659.696 85.2187 659.365 84.1467 659.365 82.792C659.365 81.9173 659.514 81.1493 659.813 80.488C660.112 79.816 660.544 79.2987 661.109 78.936C661.674 78.5627 662.352 78.376 663.141 78.376ZM663.141 79.56C661.68 79.56 660.949 80.6373 660.949 82.792C660.949 84.936 661.674 86.008 663.125 86.008C664.576 86.008 665.301 84.9307 665.301 82.776C665.301 80.632 664.581 79.56 663.141 79.56ZM672.389 78.376C672.89 78.376 673.349 78.4507 673.765 78.6C674.181 78.7387 674.581 78.968 674.965 79.288L674.261 80.216C673.962 80.0027 673.669 79.848 673.381 79.752C673.104 79.6453 672.794 79.592 672.453 79.592C671.77 79.592 671.237 79.864 670.853 80.408C670.48 80.952 670.293 81.7573 670.293 82.824C670.293 83.8907 670.48 84.68 670.853 85.192C671.226 85.6933 671.76 85.944 672.453 85.944C672.784 85.944 673.088 85.896 673.365 85.8C673.642 85.6933 673.952 85.528 674.293 85.304L674.965 86.264C674.197 86.8827 673.338 87.192 672.389 87.192C671.248 87.192 670.346 86.808 669.685 86.04C669.034 85.272 668.709 84.2107 668.709 82.856C668.709 81.96 668.858 81.176 669.157 80.504C669.456 79.832 669.877 79.3093 670.421 78.936C670.976 78.5627 671.632 78.376 672.389 78.376ZM682.481 85.032C682.481 85.3733 682.54 85.6293 682.657 85.8C682.775 85.96 682.951 86.0827 683.185 86.168L682.849 87.192C682.412 87.1387 682.06 87.016 681.793 86.824C681.527 86.632 681.329 86.3333 681.201 85.928C680.636 86.7707 679.799 87.192 678.689 87.192C677.857 87.192 677.201 86.9573 676.721 86.488C676.241 86.0187 676.001 85.4053 676.001 84.648C676.001 83.752 676.321 83.064 676.961 82.584C677.612 82.104 678.529 81.864 679.713 81.864H681.009V81.24C681.009 80.6427 680.865 80.216 680.577 79.96C680.289 79.704 679.847 79.576 679.249 79.576C678.631 79.576 677.873 79.7253 676.977 80.024L676.609 78.952C677.655 78.568 678.625 78.376 679.521 78.376C680.513 78.376 681.255 78.6213 681.745 79.112C682.236 79.592 682.481 80.28 682.481 81.176V85.032ZM679.025 86.088C679.868 86.088 680.529 85.6507 681.009 84.776V82.84H679.905C678.348 82.84 677.569 83.416 677.569 84.568C677.569 85.0693 677.692 85.448 677.937 85.704C678.183 85.96 678.545 86.088 679.025 86.088ZM689.76 86.616C689.206 87 688.576 87.192 687.872 87.192C687.158 87.192 686.598 86.9893 686.192 86.584C685.798 86.168 685.6 85.5707 685.6 84.792V79.704H684.128V78.568H685.6V76.664L687.072 76.488V78.568H689.072L688.912 79.704H687.072V84.728C687.072 85.1653 687.147 85.4853 687.296 85.688C687.456 85.88 687.718 85.976 688.08 85.976C688.411 85.976 688.784 85.864 689.2 85.64L689.76 86.616ZM692.758 78.568V87H691.286V78.568H692.758ZM692.006 74.52C692.315 74.52 692.566 74.616 692.758 74.808C692.95 75 693.046 75.24 693.046 75.528C693.046 75.816 692.95 76.056 692.758 76.248C692.566 76.4293 692.315 76.52 692.006 76.52C691.707 76.52 691.462 76.4293 691.27 76.248C691.078 76.056 690.982 75.816 690.982 75.528C690.982 75.24 691.078 75 691.27 74.808C691.462 74.616 691.707 74.52 692.006 74.52ZM698.969 78.376C700.153 78.376 701.071 78.7707 701.721 79.56C702.383 80.3493 702.713 81.4213 702.713 82.776C702.713 83.6507 702.564 84.424 702.265 85.096C701.967 85.7573 701.535 86.2747 700.969 86.648C700.404 87.0107 699.732 87.192 698.953 87.192C697.769 87.192 696.847 86.7973 696.185 86.008C695.524 85.2187 695.193 84.1467 695.193 82.792C695.193 81.9173 695.343 81.1493 695.641 80.488C695.94 79.816 696.372 79.2987 696.937 78.936C697.503 78.5627 698.18 78.376 698.969 78.376ZM698.969 79.56C697.508 79.56 696.777 80.6373 696.777 82.792C696.777 84.936 697.503 86.008 698.953 86.008C700.404 86.008 701.129 84.9307 701.129 82.776C701.129 80.632 700.409 79.56 698.969 79.56ZM709.113 78.376C709.881 78.376 710.478 78.6053 710.905 79.064C711.342 79.5227 711.561 80.152 711.561 80.952V87H710.089V81.16C710.089 80.5627 709.977 80.1413 709.753 79.896C709.529 79.6507 709.198 79.528 708.761 79.528C708.313 79.528 707.918 79.656 707.577 79.912C707.236 80.168 706.916 80.536 706.617 81.016V87H705.145V78.568H706.409L706.537 79.816C706.836 79.368 707.204 79.016 707.641 78.76C708.089 78.504 708.58 78.376 709.113 78.376Z" fill="white"/>
</svg>
