<svg width="1001" height="496" viewBox="0 0 1001 496" fill="none" xmlns="http://www.w3.org/2000/svg">
<g opacity="0.29827">
<path d="M1008.08 163.448L443.182 -356.858V-747.19L28.1096 -770C24.9043 -762.456 4.36709 -740.714 7.57176 -728.596C11.43 -714.102 30.8387 -718.735 36.4776 -709.409C43.0661 -698.42 31.7291 -653.749 28.3457 -640.86C21.8759 -616.445 7.09676 -596.665 2.82235 -572.25C-4.35982 -531.263 10.1824 -534.53 37.7242 -508.927C84.141 -465.742 46.9244 -420.952 58.6176 -370.223C68.1146 -328.878 109.605 -307.554 124.8 -266.211C136.553 -234.37 152.697 -226.233 177.746 -202.947C177.153 -217.084 164.51 -258.785 188.253 -255.102C211.817 -251.478 202.736 -216.669 207.247 -202.115C211.045 -189.997 237.933 -165.761 215.616 -154.593C208.196 -150.91 187.066 -165.582 178.577 -169.503C184.572 -150.791 180.774 -131.367 190.271 -113.487C201.608 -92.162 213.835 -100.359 228.853 -88.7754C244.344 -76.8355 242.683 -63.1137 235.797 -45.0554C228.615 -26.2247 221.196 -29.1352 232.592 -6.44342C240.843 9.95119 254.85 30.7421 266.9 43.2164C273.904 50.4634 281.502 52.1267 288.506 61.3932C294.323 69.1155 292.067 79.2142 299.012 86.1638C310.883 98.1037 331.006 98.282 340.384 113.904C350.831 131.309 338.96 144.437 369.706 142.833C371.309 177.643 377.897 209.185 377.541 243.994C394.695 250.825 422.414 242.687 440.399 239.063C458.266 263.18 481.355 246.429 501.774 259.558C510.678 265.26 508.837 279.517 514.239 284.506C525.339 294.723 533.529 288.308 547.301 291.872C557.51 294.486 565.404 301.97 575.138 304.703C584.338 307.257 599.475 301.258 606.301 309.396C614.492 319.138 600.78 336.958 613.127 344.799C623.395 351.333 638.115 335.77 648.088 338.027C659.721 340.7 693.079 371.174 701.271 381.212C710.59 392.677 719.969 414.062 725.25 428.793C733.501 451.841 732.373 463.127 749.408 479.998C760.27 490.75 749.942 491.522 767.63 494.67C779.204 496.749 794.518 488.374 806.212 487.067C830.549 484.394 855.122 489.027 879.102 484.453C901.421 480.176 922.729 473.166 945.64 469.899C965.465 467.048 1000.37 469.246 1017.94 459.801C1036.99 449.643 1038.71 426.654 1011.17 430.932C1008.97 416.26 1018.77 396.003 1007.85 385.847C1023.04 365.056 1028.56 350.384 1030.93 324.959C1032 313.792 1032.48 301.436 1038 292.05C1043.4 282.783 1058.59 277.259 1061.56 269.299C1066.13 256.943 1058.83 251.419 1053.25 244.528C1049.69 240.073 1039.54 242.212 1036.63 238.291C1031.23 231.103 1036.57 223.678 1033.6 216.431C1024.94 195.462 1014.61 187.205 1008.08 163.444C1008.26 167.424 1008.44 171.463 1008.2 175.384" stroke="white" stroke-width="2" stroke-linecap="round" stroke-linejoin="round"/>
</g>
<path d="M729.386 86.1425C729.101 111.079 751.262 111.727 771.974 120.419C778.111 122.995 781.102 129.851 777.814 135.854C770.744 148.763 726.508 149.828 733.386 160.949C740.49 172.435 780.131 177.695 782.066 178.337C799.051 183.978 812.985 208.902 811.009 226.067C809.603 238.28 774.077 247.266 762.048 247.748C683.277 250.899 716.054 242.012 634.236 263.867C627.973 265.54 621.514 267.581 616.315 271.431C610.96 275.397 613.81 282.633 617.262 285.849C628.7 296.508 666.662 307.832 664.882 327.964C664.336 334.141 659.768 339.58 659.063 345.744C658.511 350.573 660.493 355.315 661.208 360.101" stroke="white" stroke-width="2"/>
<path fill-rule="evenodd" clip-rule="evenodd" d="M661.5 368C665.09 368 668 365.09 668 361.5C668 357.91 665.09 355 661.5 355C657.91 355 655 357.91 655 361.5C655 365.09 657.91 368 661.5 368Z" fill="#4AF6CD"/>
<path fill-rule="evenodd" clip-rule="evenodd" d="M574 323C575.657 323 577 321.657 577 320C577 318.343 575.657 317 574 317C572.343 317 571 318.343 571 320C571 321.657 572.343 323 574 323Z" fill="#4AF6CD"/>
<path fill-rule="evenodd" clip-rule="evenodd" d="M725 471C726.657 471 728 469.657 728 468C728 466.343 726.657 465 725 465C723.343 465 722 466.343 722 468C722 469.657 723.343 471 725 471Z" fill="#4AF6CD"/>
<path fill-rule="evenodd" clip-rule="evenodd" d="M365 228C366.657 228 368 226.657 368 225C368 223.343 366.657 222 365 222C363.343 222 362 223.343 362 225C362 226.657 363.343 228 365 228Z" fill="#4AF6CD"/>
<path fill-rule="evenodd" clip-rule="evenodd" d="M729.5 91C733.09 91 736 88.0899 736 84.5C736 80.9101 733.09 78 729.5 78C725.91 78 723 80.9101 723 84.5C723 88.0899 725.91 91 729.5 91Z" fill="#4AF6CD"/>
<path d="M493.865 371.976L493.689 373.192H489.417V376.792H493.129V378.008H489.417V381.784H493.993V383H487.897V371.976H493.865ZM501.872 381.032C501.872 381.373 501.931 381.629 502.048 381.8C502.165 381.96 502.341 382.083 502.576 382.168L502.24 383.192C501.803 383.139 501.451 383.016 501.184 382.824C500.917 382.632 500.72 382.333 500.592 381.928C500.027 382.771 499.189 383.192 498.08 383.192C497.248 383.192 496.592 382.957 496.112 382.488C495.632 382.019 495.392 381.405 495.392 380.648C495.392 379.752 495.712 379.064 496.352 378.584C497.003 378.104 497.92 377.864 499.104 377.864H500.4V377.24C500.4 376.643 500.256 376.216 499.968 375.96C499.68 375.704 499.237 375.576 498.64 375.576C498.021 375.576 497.264 375.725 496.368 376.024L496 374.952C497.045 374.568 498.016 374.376 498.912 374.376C499.904 374.376 500.645 374.621 501.136 375.112C501.627 375.592 501.872 376.28 501.872 377.176V381.032ZM498.416 382.088C499.259 382.088 499.92 381.651 500.4 380.776V378.84H499.296C497.739 378.84 496.96 379.416 496.96 380.568C496.96 381.069 497.083 381.448 497.328 381.704C497.573 381.96 497.936 382.088 498.416 382.088ZM507.183 374.376C507.759 374.376 508.276 374.456 508.735 374.616C509.194 374.776 509.631 375.016 510.047 375.336L509.423 376.264C509.039 376.019 508.671 375.837 508.319 375.72C507.978 375.603 507.615 375.544 507.231 375.544C506.751 375.544 506.372 375.645 506.095 375.848C505.818 376.04 505.679 376.307 505.679 376.648C505.679 376.989 505.807 377.256 506.063 377.448C506.33 377.64 506.804 377.827 507.487 378.008C508.426 378.243 509.124 378.563 509.583 378.968C510.052 379.373 510.287 379.928 510.287 380.632C510.287 381.464 509.962 382.099 509.311 382.536C508.671 382.973 507.887 383.192 506.959 383.192C505.679 383.192 504.618 382.824 503.775 382.088L504.559 381.192C505.274 381.736 506.063 382.008 506.927 382.008C507.482 382.008 507.919 381.896 508.239 381.672C508.57 381.437 508.735 381.123 508.735 380.728C508.735 380.44 508.676 380.211 508.559 380.04C508.442 379.859 508.239 379.704 507.951 379.576C507.663 379.437 507.242 379.293 506.687 379.144C505.791 378.909 505.14 378.595 504.735 378.2C504.34 377.805 504.143 377.304 504.143 376.696C504.143 376.259 504.271 375.864 504.527 375.512C504.794 375.149 505.156 374.872 505.615 374.68C506.084 374.477 506.607 374.376 507.183 374.376ZM516.62 382.616C516.065 383 515.436 383.192 514.732 383.192C514.017 383.192 513.457 382.989 513.052 382.584C512.657 382.168 512.46 381.571 512.46 380.792V375.704H510.988V374.568H512.46V372.664L513.932 372.488V374.568H515.932L515.772 375.704H513.932V380.728C513.932 381.165 514.006 381.485 514.156 381.688C514.316 381.88 514.577 381.976 514.94 381.976C515.27 381.976 515.644 381.864 516.06 381.64L516.62 382.616ZM525.179 371.784C525.915 371.784 526.545 371.891 527.067 372.104C527.59 372.307 528.097 372.627 528.587 373.064L527.755 373.992C527.339 373.661 526.929 373.421 526.523 373.272C526.129 373.112 525.702 373.032 525.243 373.032C524.667 373.032 524.193 373.165 523.819 373.432C523.446 373.699 523.259 374.088 523.259 374.6C523.259 374.92 523.323 375.192 523.451 375.416C523.579 375.629 523.814 375.827 524.155 376.008C524.507 376.189 525.014 376.381 525.675 376.584C526.369 376.797 526.945 377.027 527.403 377.272C527.862 377.517 528.23 377.859 528.507 378.296C528.795 378.723 528.939 379.267 528.939 379.928C528.939 380.568 528.779 381.133 528.459 381.624C528.15 382.115 527.697 382.499 527.099 382.776C526.513 383.053 525.814 383.192 525.003 383.192C523.478 383.192 522.23 382.717 521.259 381.768L522.091 380.84C522.539 381.203 522.993 381.48 523.451 381.672C523.91 381.853 524.422 381.944 524.987 381.944C525.67 381.944 526.235 381.779 526.683 381.448C527.131 381.107 527.355 380.616 527.355 379.976C527.355 379.613 527.286 379.315 527.147 379.08C527.009 378.835 526.769 378.616 526.427 378.424C526.097 378.232 525.611 378.04 524.971 377.848C523.841 377.507 523.014 377.096 522.491 376.616C521.969 376.136 521.707 375.485 521.707 374.664C521.707 374.109 521.851 373.613 522.139 373.176C522.438 372.739 522.849 372.397 523.371 372.152C523.905 371.907 524.507 371.784 525.179 371.784ZM535.066 374.376C535.834 374.376 536.431 374.605 536.858 375.064C537.295 375.523 537.514 376.152 537.514 376.952V383H536.042V377.16C536.042 376.563 535.925 376.141 535.69 375.896C535.466 375.651 535.135 375.528 534.698 375.528C534.261 375.528 533.871 375.656 533.53 375.912C533.189 376.168 532.869 376.531 532.57 377V383H531.098V371.192L532.57 371.032V375.736C533.231 374.829 534.063 374.376 535.066 374.376ZM543.641 374.376C544.825 374.376 545.742 374.771 546.393 375.56C547.054 376.349 547.385 377.421 547.385 378.776C547.385 379.651 547.236 380.424 546.937 381.096C546.638 381.757 546.206 382.275 545.641 382.648C545.076 383.011 544.404 383.192 543.625 383.192C542.441 383.192 541.518 382.797 540.857 382.008C540.196 381.219 539.865 380.147 539.865 378.792C539.865 377.917 540.014 377.149 540.313 376.488C540.612 375.816 541.044 375.299 541.609 374.936C542.174 374.563 542.852 374.376 543.641 374.376ZM543.641 375.56C542.18 375.56 541.449 376.637 541.449 378.792C541.449 380.936 542.174 382.008 543.625 382.008C545.076 382.008 545.801 380.931 545.801 378.776C545.801 376.632 545.081 375.56 543.641 375.56ZM553.481 374.376C553.78 374.376 554.057 374.408 554.313 374.472L554.041 375.912C553.785 375.848 553.54 375.816 553.305 375.816C552.782 375.816 552.361 376.008 552.041 376.392C551.721 376.776 551.47 377.373 551.289 378.184V383H549.817V374.568H551.081L551.225 376.28C551.449 375.651 551.753 375.176 552.137 374.856C552.521 374.536 552.969 374.376 553.481 374.376ZM561.872 378.536C561.872 378.781 561.862 379.032 561.84 379.288H556.464C556.528 380.216 556.763 380.899 557.168 381.336C557.574 381.773 558.096 381.992 558.736 381.992C559.142 381.992 559.515 381.933 559.856 381.816C560.198 381.699 560.555 381.512 560.928 381.256L561.568 382.136C560.672 382.84 559.691 383.192 558.624 383.192C557.451 383.192 556.534 382.808 555.872 382.04C555.222 381.272 554.896 380.216 554.896 378.872C554.896 377.997 555.035 377.224 555.312 376.552C555.6 375.869 556.006 375.336 556.528 374.952C557.062 374.568 557.686 374.376 558.4 374.376C559.52 374.376 560.379 374.744 560.976 375.48C561.574 376.216 561.872 377.235 561.872 378.536ZM560.416 378.104C560.416 377.272 560.251 376.637 559.92 376.2C559.59 375.763 559.094 375.544 558.432 375.544C557.227 375.544 556.571 376.429 556.464 378.2H560.416V378.104ZM570.41 370.184V384.568H570.058V370.184H570.41ZM589.237 383H587.765L587.381 378.024C587.221 376.072 587.131 374.573 587.109 373.528L584.725 381.752H583.301L580.789 373.512C580.789 374.845 580.72 376.387 580.581 378.136L580.213 383H578.773L579.685 371.976H581.733L584.053 379.992L586.261 371.976H588.325L589.237 383ZM597.434 381.032C597.434 381.373 597.493 381.629 597.61 381.8C597.728 381.96 597.904 382.083 598.138 382.168L597.802 383.192C597.365 383.139 597.013 383.016 596.746 382.824C596.48 382.632 596.282 382.333 596.154 381.928C595.589 382.771 594.752 383.192 593.642 383.192C592.81 383.192 592.154 382.957 591.674 382.488C591.194 382.019 590.954 381.405 590.954 380.648C590.954 379.752 591.274 379.064 591.914 378.584C592.565 378.104 593.482 377.864 594.666 377.864H595.962V377.24C595.962 376.643 595.818 376.216 595.53 375.96C595.242 375.704 594.8 375.576 594.202 375.576C593.584 375.576 592.826 375.725 591.93 376.024L591.562 374.952C592.608 374.568 593.578 374.376 594.474 374.376C595.466 374.376 596.208 374.621 596.698 375.112C597.189 375.592 597.434 376.28 597.434 377.176V381.032ZM593.978 382.088C594.821 382.088 595.482 381.651 595.962 380.776V378.84H594.858C593.301 378.84 592.522 379.416 592.522 380.568C592.522 381.069 592.645 381.448 592.89 381.704C593.136 381.96 593.498 382.088 593.978 382.088ZM601.981 383.192C601.437 383.192 601.005 383.032 600.685 382.712C600.376 382.381 600.221 381.923 600.221 381.336V371.176L601.693 371V381.304C601.693 381.539 601.731 381.709 601.805 381.816C601.891 381.923 602.029 381.976 602.221 381.976C602.424 381.976 602.605 381.944 602.765 381.88L603.149 382.904C602.797 383.096 602.408 383.192 601.981 383.192ZM606.461 374.568V383H604.989V374.568H606.461ZM605.709 370.52C606.018 370.52 606.269 370.616 606.461 370.808C606.653 371 606.749 371.24 606.749 371.528C606.749 371.816 606.653 372.056 606.461 372.248C606.269 372.429 606.018 372.52 605.709 372.52C605.41 372.52 605.165 372.429 604.973 372.248C604.781 372.056 604.685 371.816 604.685 371.528C604.685 371.24 604.781 371 604.973 370.808C605.165 370.616 605.41 370.52 605.709 370.52ZM613.36 374.376C614.32 374.376 615.083 374.765 615.648 375.544C616.214 376.312 616.496 377.389 616.496 378.776C616.496 379.651 616.363 380.424 616.096 381.096C615.83 381.757 615.446 382.275 614.944 382.648C614.443 383.011 613.856 383.192 613.184 383.192C612.299 383.192 611.552 382.819 610.944 382.072L610.8 383H609.504V371.176L610.976 371V375.624C611.584 374.792 612.379 374.376 613.36 374.376ZM612.832 382.024C613.483 382.024 613.99 381.763 614.352 381.24C614.726 380.707 614.912 379.885 614.912 378.776C614.912 377.635 614.742 376.813 614.4 376.312C614.059 375.8 613.574 375.544 612.944 375.544C612.198 375.544 611.542 375.981 610.976 376.856V380.888C611.2 381.24 611.472 381.517 611.792 381.72C612.123 381.923 612.47 382.024 612.832 382.024ZM625.276 383H624.012L623.9 381.688C623.58 382.211 623.212 382.595 622.796 382.84C622.38 383.075 621.874 383.192 621.276 383.192C620.54 383.192 619.964 382.968 619.548 382.52C619.132 382.072 618.924 381.437 618.924 380.616V374.568H620.396V380.456C620.396 381.032 620.498 381.443 620.7 381.688C620.903 381.923 621.234 382.04 621.692 382.04C622.514 382.04 623.218 381.555 623.804 380.584V374.568H625.276V383ZM628.701 380.968C629.021 380.968 629.288 381.075 629.501 381.288C629.714 381.501 629.821 381.763 629.821 382.072C629.821 382.403 629.725 382.781 629.533 383.208L628.461 385.656H627.405L628.045 383C627.906 382.893 627.794 382.76 627.709 382.6C627.634 382.44 627.597 382.264 627.597 382.072C627.597 381.763 627.704 381.501 627.917 381.288C628.13 381.075 628.392 380.968 628.701 380.968ZM640.331 371.784C640.992 371.784 641.547 371.869 641.995 372.04C642.454 372.211 642.918 372.488 643.387 372.872L642.555 373.848C641.883 373.304 641.174 373.032 640.427 373.032C639.51 373.032 638.768 373.384 638.203 374.088C637.648 374.792 637.371 375.923 637.371 377.48C637.371 378.995 637.648 380.115 638.203 380.84C638.758 381.555 639.494 381.912 640.411 381.912C640.88 381.912 641.291 381.832 641.643 381.672C641.995 381.512 642.368 381.288 642.763 381L643.515 381.96C643.174 382.312 642.736 382.605 642.203 382.84C641.67 383.075 641.056 383.192 640.363 383.192C639.467 383.192 638.667 382.973 637.963 382.536C637.27 382.088 636.726 381.437 636.331 380.584C635.947 379.72 635.755 378.685 635.755 377.48C635.755 376.275 635.958 375.245 636.363 374.392C636.768 373.528 637.318 372.877 638.011 372.44C638.704 372.003 639.478 371.784 640.331 371.784ZM651.3 383L650.468 380.232H646.292L645.46 383H643.924L647.46 371.976H649.38L652.9 383H651.3ZM646.66 379H650.1L648.388 373.24L646.66 379Z" fill="white"/>
<path d="M598.378 75.784C599.039 75.784 599.594 75.8693 600.042 76.04C600.501 76.2107 600.965 76.488 601.434 76.872L600.602 77.848C599.93 77.304 599.221 77.032 598.474 77.032C597.557 77.032 596.815 77.384 596.25 78.088C595.695 78.792 595.418 79.9227 595.418 81.48C595.418 82.9947 595.695 84.1147 596.25 84.84C596.805 85.5547 597.541 85.912 598.458 85.912C598.927 85.912 599.338 85.832 599.69 85.672C600.042 85.512 600.415 85.288 600.81 85L601.562 85.96C601.221 86.312 600.783 86.6053 600.25 86.84C599.717 87.0747 599.103 87.192 598.41 87.192C597.514 87.192 596.714 86.9733 596.01 86.536C595.317 86.088 594.773 85.4373 594.378 84.584C593.994 83.72 593.802 82.6853 593.802 81.48C593.802 80.2747 594.005 79.2453 594.41 78.392C594.815 77.528 595.365 76.8773 596.058 76.44C596.751 76.0027 597.525 75.784 598.378 75.784ZM609.401 87H608.137L608.025 85.688C607.705 86.2107 607.337 86.5947 606.921 86.84C606.505 87.0747 605.999 87.192 605.401 87.192C604.665 87.192 604.089 86.968 603.673 86.52C603.257 86.072 603.049 85.4373 603.049 84.616V78.568H604.521V84.456C604.521 85.032 604.623 85.4427 604.825 85.688C605.028 85.9227 605.359 86.04 605.817 86.04C606.639 86.04 607.343 85.5547 607.929 84.584V78.568H609.401V87ZM616.106 78.376C616.405 78.376 616.682 78.408 616.938 78.472L616.666 79.912C616.41 79.848 616.165 79.816 615.93 79.816C615.407 79.816 614.986 80.008 614.666 80.392C614.346 80.776 614.095 81.3733 613.914 82.184V87H612.442V78.568H613.706L613.85 80.28C614.074 79.6507 614.378 79.176 614.762 78.856C615.146 78.536 615.594 78.376 616.106 78.376ZM622.278 78.376C622.576 78.376 622.854 78.408 623.11 78.472L622.838 79.912C622.582 79.848 622.336 79.816 622.102 79.816C621.579 79.816 621.158 80.008 620.838 80.392C620.518 80.776 620.267 81.3733 620.086 82.184V87H618.614V78.568H619.878L620.022 80.28C620.246 79.6507 620.55 79.176 620.934 78.856C621.318 78.536 621.766 78.376 622.278 78.376ZM630.669 82.536C630.669 82.7813 630.659 83.032 630.637 83.288H625.261C625.325 84.216 625.56 84.8987 625.965 85.336C626.371 85.7733 626.893 85.992 627.533 85.992C627.939 85.992 628.312 85.9333 628.653 85.816C628.995 85.6987 629.352 85.512 629.725 85.256L630.365 86.136C629.469 86.84 628.488 87.192 627.421 87.192C626.248 87.192 625.331 86.808 624.669 86.04C624.019 85.272 623.693 84.216 623.693 82.872C623.693 81.9973 623.832 81.224 624.109 80.552C624.397 79.8693 624.803 79.336 625.325 78.952C625.859 78.568 626.483 78.376 627.197 78.376C628.317 78.376 629.176 78.744 629.773 79.48C630.371 80.216 630.669 81.2347 630.669 82.536ZM629.213 82.104C629.213 81.272 629.048 80.6373 628.717 80.2C628.387 79.7627 627.891 79.544 627.229 79.544C626.024 79.544 625.368 80.4293 625.261 82.2H629.213V82.104ZM636.988 78.376C637.756 78.376 638.353 78.6053 638.78 79.064C639.217 79.5227 639.436 80.152 639.436 80.952V87H637.964V81.16C637.964 80.5627 637.852 80.1413 637.628 79.896C637.404 79.6507 637.073 79.528 636.636 79.528C636.188 79.528 635.793 79.656 635.452 79.912C635.111 80.168 634.791 80.536 634.492 81.016V87H633.02V78.568H634.284L634.412 79.816C634.711 79.368 635.079 79.016 635.516 78.76C635.964 78.504 636.455 78.376 636.988 78.376ZM646.651 86.616C646.096 87 645.467 87.192 644.763 87.192C644.048 87.192 643.488 86.9893 643.083 86.584C642.688 86.168 642.491 85.5707 642.491 84.792V79.704H641.019V78.568H642.491V76.664L643.963 76.488V78.568H645.963L645.803 79.704H643.963V84.728C643.963 85.1653 644.038 85.4853 644.187 85.688C644.347 85.88 644.608 85.976 644.971 85.976C645.302 85.976 645.675 85.864 646.091 85.64L646.651 86.616ZM654.011 75.976V85.672H658.539L658.363 87H652.491V75.976H654.011ZM663.141 78.376C664.325 78.376 665.242 78.7707 665.893 79.56C666.554 80.3493 666.885 81.4213 666.885 82.776C666.885 83.6507 666.736 84.424 666.437 85.096C666.138 85.7573 665.706 86.2747 665.141 86.648C664.576 87.0107 663.904 87.192 663.125 87.192C661.941 87.192 661.018 86.7973 660.357 86.008C659.696 85.2187 659.365 84.1467 659.365 82.792C659.365 81.9173 659.514 81.1493 659.813 80.488C660.112 79.816 660.544 79.2987 661.109 78.936C661.674 78.5627 662.352 78.376 663.141 78.376ZM663.141 79.56C661.68 79.56 660.949 80.6373 660.949 82.792C660.949 84.936 661.674 86.008 663.125 86.008C664.576 86.008 665.301 84.9307 665.301 82.776C665.301 80.632 664.581 79.56 663.141 79.56ZM672.389 78.376C672.89 78.376 673.349 78.4507 673.765 78.6C674.181 78.7387 674.581 78.968 674.965 79.288L674.261 80.216C673.962 80.0027 673.669 79.848 673.381 79.752C673.104 79.6453 672.794 79.592 672.453 79.592C671.77 79.592 671.237 79.864 670.853 80.408C670.48 80.952 670.293 81.7573 670.293 82.824C670.293 83.8907 670.48 84.68 670.853 85.192C671.226 85.6933 671.76 85.944 672.453 85.944C672.784 85.944 673.088 85.896 673.365 85.8C673.642 85.6933 673.952 85.528 674.293 85.304L674.965 86.264C674.197 86.8827 673.338 87.192 672.389 87.192C671.248 87.192 670.346 86.808 669.685 86.04C669.034 85.272 668.709 84.2107 668.709 82.856C668.709 81.96 668.858 81.176 669.157 80.504C669.456 79.832 669.877 79.3093 670.421 78.936C670.976 78.5627 671.632 78.376 672.389 78.376ZM682.481 85.032C682.481 85.3733 682.54 85.6293 682.657 85.8C682.775 85.96 682.951 86.0827 683.185 86.168L682.849 87.192C682.412 87.1387 682.06 87.016 681.793 86.824C681.527 86.632 681.329 86.3333 681.201 85.928C680.636 86.7707 679.799 87.192 678.689 87.192C677.857 87.192 677.201 86.9573 676.721 86.488C676.241 86.0187 676.001 85.4053 676.001 84.648C676.001 83.752 676.321 83.064 676.961 82.584C677.612 82.104 678.529 81.864 679.713 81.864H681.009V81.24C681.009 80.6427 680.865 80.216 680.577 79.96C680.289 79.704 679.847 79.576 679.249 79.576C678.631 79.576 677.873 79.7253 676.977 80.024L676.609 78.952C677.655 78.568 678.625 78.376 679.521 78.376C680.513 78.376 681.255 78.6213 681.745 79.112C682.236 79.592 682.481 80.28 682.481 81.176V85.032ZM679.025 86.088C679.868 86.088 680.529 85.6507 681.009 84.776V82.84H679.905C678.348 82.84 677.569 83.416 677.569 84.568C677.569 85.0693 677.692 85.448 677.937 85.704C678.183 85.96 678.545 86.088 679.025 86.088ZM689.76 86.616C689.206 87 688.576 87.192 687.872 87.192C687.158 87.192 686.598 86.9893 686.192 86.584C685.798 86.168 685.6 85.5707 685.6 84.792V79.704H684.128V78.568H685.6V76.664L687.072 76.488V78.568H689.072L688.912 79.704H687.072V84.728C687.072 85.1653 687.147 85.4853 687.296 85.688C687.456 85.88 687.718 85.976 688.08 85.976C688.411 85.976 688.784 85.864 689.2 85.64L689.76 86.616ZM692.758 78.568V87H691.286V78.568H692.758ZM692.006 74.52C692.315 74.52 692.566 74.616 692.758 74.808C692.95 75 693.046 75.24 693.046 75.528C693.046 75.816 692.95 76.056 692.758 76.248C692.566 76.4293 692.315 76.52 692.006 76.52C691.707 76.52 691.462 76.4293 691.27 76.248C691.078 76.056 690.982 75.816 690.982 75.528C690.982 75.24 691.078 75 691.27 74.808C691.462 74.616 691.707 74.52 692.006 74.52ZM698.969 78.376C700.153 78.376 701.071 78.7707 701.721 79.56C702.383 80.3493 702.713 81.4213 702.713 82.776C702.713 83.6507 702.564 84.424 702.265 85.096C701.967 85.7573 701.535 86.2747 700.969 86.648C700.404 87.0107 699.732 87.192 698.953 87.192C697.769 87.192 696.847 86.7973 696.185 86.008C695.524 85.2187 695.193 84.1467 695.193 82.792C695.193 81.9173 695.343 81.1493 695.641 80.488C695.94 79.816 696.372 79.2987 696.937 78.936C697.503 78.5627 698.18 78.376 698.969 78.376ZM698.969 79.56C697.508 79.56 696.777 80.6373 696.777 82.792C696.777 84.936 697.503 86.008 698.953 86.008C700.404 86.008 701.129 84.9307 701.129 82.776C701.129 80.632 700.409 79.56 698.969 79.56ZM709.113 78.376C709.881 78.376 710.478 78.6053 710.905 79.064C711.342 79.5227 711.561 80.152 711.561 80.952V87H710.089V81.16C710.089 80.5627 709.977 80.1413 709.753 79.896C709.529 79.6507 709.198 79.528 708.761 79.528C708.313 79.528 707.918 79.656 707.577 79.912C707.236 80.168 706.916 80.536 706.617 81.016V87H705.145V78.568H706.409L706.537 79.816C706.836 79.368 707.204 79.016 707.641 78.76C708.089 78.504 708.58 78.376 709.113 78.376Z" fill="white"/>
</svg>
