<svg width="11" height="14" viewBox="0 0 11 14" fill="none" xmlns="http://www.w3.org/2000/svg">
<path fill-rule="evenodd" clip-rule="evenodd" d="M5.43368 0.2948C6.65892 0.2948 7.84852 0.708526 8.78648 1.45986V1.45983C10.0117 2.44068 10.7324 3.83532 10.8195 5.38588C10.903 6.91674 10.3309 8.4145 9.25055 9.49486L5.66926 13.0293C5.53054 13.1668 5.28992 13.1656 5.1512 13.0281L1.62051 9.4974C0.537701 8.41459 -0.0356278 6.91561 0.0490816 5.38591C0.135007 3.83542 0.85689 2.44077 2.08088 1.45986C3.0176 0.708526 4.20846 0.2948 5.43368 0.2948ZM3.02744 5.68442C3.02744 7.01153 4.10654 8.09066 5.43368 8.09066C6.76078 8.09066 7.84114 7.01156 7.83991 5.68442C7.83991 4.35732 6.76081 3.27819 5.43368 3.27819C4.10657 3.27819 3.02744 4.35729 3.02744 5.68442Z" fill="white"/>
<path d="M5.43367 4.5116C4.78668 4.5116 4.26123 5.03705 4.26123 5.68404C4.26123 6.33103 4.78668 6.85648 5.43367 6.85648C6.08066 6.85648 6.60612 6.33103 6.60612 5.68404C6.60612 5.03705 6.08066 4.5116 5.43367 4.5116Z" fill="white"/>
</svg>
