<svg width="52" height="33" viewBox="0 0 52 33" fill="none" xmlns="http://www.w3.org/2000/svg">
<path fill-rule="evenodd" clip-rule="evenodd" d="M49.75 22.2761V25.0226L49.7496 25.0227C50.3199 25.1387 50.7496 25.6393 50.7496 26.2346V27.2222C50.7496 27.8214 50.3199 28.32 49.7496 28.436V28.4611H43.1851C42.8218 30.7012 40.8628 32.4194 38.4995 32.4194C36.1362 32.4194 34.1772 30.7012 33.8159 28.4611H16.4349C16.0716 30.7012 14.1127 32.4194 11.7494 32.4194C9.38606 32.4194 7.42514 30.6992 7.06381 28.4611H3.24936L2.50131 28.463C1.80991 28.463 1.24936 27.9064 1.24936 27.2241V26.2365C1.24936 25.5523 1.81186 24.9976 2.50131 24.9976H3.24936V13.8667C3.24936 10.4553 6.05411 7.67986 9.50136 7.67986L15.2709 7.67599V5.70261C9.18536 5.12861 4.02891 4.0559 2.46836 2.5116C2.23594 2.28355 2.18125 1.93177 2.33359 1.64379C2.48594 1.35774 2.80627 1.19925 3.13049 1.25723C8.10699 2.13857 15.8455 2.25646 22.7555 2.25646C24.2242 2.25646 25.6676 2.2526 27.0543 2.2468C27.407 2.24574 27.7559 2.24454 28.1008 2.24335L28.1009 2.24335L28.101 2.24335L28.1011 2.24335L28.1014 2.24335L28.1016 2.24335L28.1017 2.24334C29.0154 2.24019 29.9005 2.23714 30.7496 2.23714L37.1871 2.23907H37.1891C41.5466 2.23907 44.2301 2.21008 47.7106 2.04193C48.0543 2.02837 48.3727 2.24871 48.4684 2.57922C48.5641 2.90974 48.4176 3.26345 48.1149 3.4316C47.6129 3.70992 46.9879 3.9689 46.2477 4.20857V5.71036C46.2477 6.37912 45.8883 6.957 45.2848 7.25851C45.0289 7.38608 44.7594 7.44986 44.4918 7.44986C44.1286 7.44986 43.7672 7.33389 43.4547 7.10389L41.0348 5.32769C37.9528 5.77224 34.1365 6.05443 29.7498 6.15493V7.68181L34.9978 7.67988C38.3418 7.67988 41.4258 8.78737 43.9023 10.6486L44.1074 10.8071C46.1797 12.4208 47.8047 14.572 48.7676 17.0479L48.7734 17.0595L48.7871 17.0924C48.8007 17.1306 48.8154 17.1678 48.83 17.2047L48.8301 17.2049L48.8301 17.2049L48.8302 17.2051L48.8302 17.2052L48.8302 17.2053C48.8429 17.2372 48.8554 17.269 48.8672 17.3011L49.166 18.0684H49.123C49.5293 19.402 49.75 20.8149 49.75 22.2761ZM36.0001 16.5859H46.9316H46.9319C46.092 14.8715 44.8811 13.3504 43.3791 12.1328H36.0001C35.8654 12.1328 35.7501 12.2468 35.7501 12.3802V16.3385C35.7501 16.4719 35.8654 16.5859 36.0001 16.5859ZM44.75 5.71037C44.75 5.81281 44.7051 5.88625 44.6113 5.93264C44.5176 5.97903 44.4336 5.97129 44.3496 5.90945L43.0918 4.9875C43.6816 4.8754 44.2344 4.75557 44.75 4.62993L44.75 5.71037ZM26.0908 3.73601L26.0906 3.73601C25.0042 3.73935 23.8892 3.74278 22.758 3.74278L22.7584 3.74274C18.3189 3.74274 13.5376 3.69249 9.33644 3.42383C13.3714 4.17765 19.1744 4.71108 26.0004 4.71108C32.2734 4.71108 37.76 4.34776 41.7424 3.70799C40.385 3.72345 38.9182 3.72925 37.1916 3.72925H37.1897L30.7502 3.72345C29.5822 3.72345 28.3459 3.72732 27.0607 3.73312L26.0908 3.73601ZM16.7715 5.836C19.7812 6.07373 22.957 6.19549 26 6.19549C26.7636 6.19549 27.5136 6.18969 28.25 6.18003V7.67984H16.7715V5.836ZM8.49999 27.7191C8.49999 29.4934 9.95704 30.9353 11.75 30.9353C13.5429 30.9353 15 29.4934 15 27.7191C15 25.9449 13.5429 24.503 11.75 24.503C9.95704 24.503 8.49999 25.9449 8.49999 27.7191ZM38.5 30.9353C36.707 30.9353 35.25 29.4934 35.25 27.7191C35.25 25.9449 36.707 24.503 38.5 24.503C40.2929 24.503 41.75 25.9449 41.75 27.7191C41.75 29.4934 40.2929 30.9353 38.5 30.9353ZM38.5 23.0186C40.8633 23.0186 42.8242 24.7369 43.1855 26.977H49.2499V26.4822H44.7499V24.9978H48.2499V22.2784C48.2499 20.8056 48 19.3927 47.5468 18.0707H35.9998C35.035 18.0707 34.2498 17.2937 34.2498 16.3389V12.3806C34.2498 11.4258 35.035 10.6488 35.9998 10.6488H41.1113C39.281 9.70368 37.2009 9.16446 34.9978 9.16446H9.50183C6.88073 9.16446 4.74989 11.275 4.74989 13.8669V16.5863H12.2849V18.0707H4.74989V24.9978H5.74989V26.4822H2.74989V26.977H7.06433C7.42763 24.7369 9.38659 23.0186 11.7499 23.0186C14.1132 23.0186 16.0741 24.7369 16.4354 26.977H33.8144C34.1777 24.7369 36.1367 23.0186 38.5 23.0186Z" fill="white"/>
<path d="M49.75 25.0226L49.8336 25.3107L50.05 25.2479V25.0226H49.75ZM49.7496 25.0227L49.666 24.7346L49.6898 25.3167L49.7496 25.0227ZM49.7496 28.436L49.6898 28.142L49.4496 28.1908V28.436H49.7496ZM49.7496 28.4611V28.7611H50.0496V28.4611H49.7496ZM43.1851 28.4611V28.1611H42.9298L42.8889 28.4131L43.1851 28.4611ZM33.8159 28.4611L34.1121 28.4133L34.0714 28.1611H33.8159V28.4611ZM16.4349 28.4611V28.1611H16.1796L16.1388 28.4131L16.4349 28.4611ZM7.06381 28.4611L7.35997 28.4133L7.31926 28.1611H7.06381V28.4611ZM3.24936 28.4611V28.1611L3.24858 28.1611L3.24936 28.4611ZM2.50131 28.463V28.763L2.50208 28.763L2.50131 28.463ZM3.24936 24.9976V25.2976H3.54936V24.9976H3.24936ZM9.50136 7.67986V7.97986L9.50156 7.97986L9.50136 7.67986ZM15.2709 7.67599L15.2711 7.97599L15.5709 7.97579V7.67599H15.2709ZM15.2709 5.70261H15.5709V5.42958L15.299 5.40394L15.2709 5.70261ZM2.46836 2.5116L2.67938 2.29836L2.67847 2.29747L2.46836 2.5116ZM2.33359 1.64379L2.06881 1.50277L2.06841 1.50351L2.33359 1.64379ZM3.13049 1.25723L3.07768 1.55255L3.07818 1.55264L3.13049 1.25723ZM27.0543 2.2468L27.0534 1.9468L27.0531 1.9468L27.0543 2.2468ZM28.1008 2.24335L28.1018 2.54335L28.1019 2.54335L28.1008 2.24335ZM28.1011 2.24335L28.1 1.94335L28.1 1.94335L28.1011 2.24335ZM28.1014 2.24335L28.1005 1.94335L28.1004 1.94335L28.1014 2.24335ZM28.1016 2.24335L28.1026 2.54334L28.1028 2.54334L28.1016 2.24335ZM28.1017 2.24334L28.1007 1.94335L28.1006 1.94335L28.1017 2.24334ZM30.7496 2.23714L30.7497 1.93714H30.7496V2.23714ZM37.1871 2.23907L37.1871 2.53907H37.1871V2.23907ZM47.7106 2.04193L47.6988 1.74215L47.6961 1.74227L47.7106 2.04193ZM48.4684 2.57922L48.7566 2.49578V2.49578L48.4684 2.57922ZM48.1149 3.4316L48.2604 3.69396L48.2606 3.69386L48.1149 3.4316ZM46.2477 4.20857L46.1553 3.92315L45.9477 3.99037V4.20857H46.2477ZM45.2848 7.25851L45.4186 7.52699L45.4189 7.52688L45.2848 7.25851ZM43.4547 7.10389L43.6326 6.86228L43.6322 6.86205L43.4547 7.10389ZM41.0348 5.32769L41.2123 5.08584L41.1134 5.01325L40.992 5.03076L41.0348 5.32769ZM29.7498 6.15493L29.743 5.85501L29.4498 5.86172V6.15493H29.7498ZM29.7498 7.68181H29.4498V7.98192L29.7499 7.98181L29.7498 7.68181ZM34.9978 7.67988V7.37988H34.9977L34.9978 7.67988ZM43.9023 10.6486L44.0858 10.4112L44.0826 10.4088L43.9023 10.6486ZM44.1074 10.8071L44.2917 10.5704L44.2909 10.5697L44.1074 10.8071ZM48.7676 17.0479L48.488 17.1567L48.4932 17.1702L48.4998 17.1832L48.7676 17.0479ZM48.7734 17.0595L49.0504 16.9443L49.0462 16.9341L49.0412 16.9242L48.7734 17.0595ZM48.7871 17.0924L49.0698 16.992L49.0671 16.9845L49.0641 16.9771L48.7871 17.0924ZM48.83 17.2047L48.5511 17.3151L48.5515 17.3161L48.83 17.2047ZM48.8301 17.2049L49.1098 17.0966L49.1086 17.0934L48.8301 17.2049ZM48.8301 17.2049L48.5503 17.3133L48.5516 17.3164L48.8301 17.2049ZM48.8302 17.2051L49.1099 17.0968L49.1087 17.0937L48.8302 17.2051ZM48.8302 17.2052L48.5504 17.3135L48.5516 17.3166L48.8302 17.2052ZM48.8302 17.2053L49.1092 17.0949L49.1088 17.0939L48.8302 17.2053ZM48.8672 17.3011L48.5853 17.404L48.5876 17.41L48.8672 17.3011ZM49.166 18.0684V18.3684H49.6048L49.4456 17.9596L49.166 18.0684ZM49.123 18.0684V17.7684H48.718L48.8361 18.1559L49.123 18.0684ZM46.9319 16.5859V16.8859H47.4129L47.2013 16.4539L46.9319 16.5859ZM43.3791 12.1328L43.5681 11.8997L43.4855 11.8328H43.3791V12.1328ZM44.6113 5.93264L44.4783 5.66375L44.4783 5.66376L44.6113 5.93264ZM44.75 5.71037L44.45 5.71037V5.71037H44.75ZM44.3496 5.90945L44.5275 5.66788L44.527 5.66748L44.3496 5.90945ZM43.0918 4.9875L43.0358 4.69278L42.358 4.82159L42.9144 5.22946L43.0918 4.9875ZM44.75 4.62993L45.05 4.62994L45.05 4.24806L44.679 4.33846L44.75 4.62993ZM26.0906 3.73601L26.0915 4.03601L26.0918 4.03601L26.0906 3.73601ZM26.0908 3.73601L26.0899 3.43601L26.0896 3.43601L26.0908 3.73601ZM22.758 3.74278L22.7308 3.44401L22.758 4.04278V3.74278ZM22.7584 3.74274L22.7856 4.04151L22.7584 3.44274V3.74274ZM9.33644 3.42383L9.35558 3.12444L9.28135 3.71873L9.33644 3.42383ZM41.7424 3.70799L41.79 4.00419L41.739 3.40801L41.7424 3.70799ZM37.1897 3.72925L37.1894 4.02925H37.1897V3.72925ZM30.7502 3.72345L30.7505 3.42345H30.7502V3.72345ZM27.0607 3.73312L27.0616 4.03312L27.0621 4.03311L27.0607 3.73312ZM16.7715 5.836L16.7951 5.53693L16.4715 5.51137V5.836H16.7715ZM28.25 6.18003H28.55V5.87607L28.246 5.88006L28.25 6.18003ZM28.25 7.67984V7.97984H28.55V7.67984H28.25ZM16.7715 7.67984H16.4715V7.97984H16.7715V7.67984ZM43.1855 26.977L42.8894 27.0247L42.93 27.277H43.1855V26.977ZM49.2499 26.977V27.277H49.5499V26.977H49.2499ZM49.2499 26.4822H49.5499V26.1822H49.2499V26.4822ZM44.7499 26.4822H44.4499V26.7822H44.7499V26.4822ZM44.7499 24.9978V24.6978H44.4499V24.9978H44.7499ZM48.2499 24.9978V25.2978H48.5499V24.9978H48.2499ZM47.5468 18.0707L47.8306 17.9734L47.7611 17.7707H47.5468V18.0707ZM41.1113 10.6488V10.9488L41.249 10.3823L41.1113 10.6488ZM4.74989 16.5863H4.44989V16.8863H4.74989V16.5863ZM12.2849 16.5863H12.5849V16.2863H12.2849V16.5863ZM12.2849 18.0707V18.3707H12.5849V18.0707H12.2849ZM4.74989 18.0707V17.7707H4.44989V18.0707H4.74989ZM4.74989 24.9978H4.44989V25.2978H4.74989V24.9978ZM5.74989 24.9978H6.04989V24.6978H5.74989V24.9978ZM5.74989 26.4822V26.7822H6.04989V26.4822H5.74989ZM2.74989 26.4822V26.1822H2.44989V26.4822H2.74989ZM2.74989 26.977H2.44989V27.277H2.74989V26.977ZM7.06433 26.977V27.277H7.3196L7.36047 27.025L7.06433 26.977ZM16.4354 26.977L16.1393 27.0247L16.1799 27.277H16.4354V26.977ZM33.8144 26.977V27.277H34.0697L34.1106 27.025L33.8144 26.977ZM50.05 25.0226V22.2761H49.45V25.0226H50.05ZM49.8332 25.3108L49.8336 25.3107L49.6664 24.7345L49.666 24.7346L49.8332 25.3108ZM51.0496 26.2346C51.0496 25.4912 50.514 24.872 49.8093 24.7287L49.6898 25.3167C50.1257 25.4053 50.4496 25.7873 50.4496 26.2346H51.0496ZM51.0496 27.2222V26.2346H50.4496V27.2222H51.0496ZM49.8093 28.73C50.514 28.5867 51.0496 27.9694 51.0496 27.2222H50.4496C50.4496 27.6733 50.1257 28.0534 49.6898 28.142L49.8093 28.73ZM50.0496 28.4611V28.436H49.4496V28.4611H50.0496ZM43.1851 28.7611H49.7496V28.1611H43.1851V28.7611ZM38.4995 32.7194C41.011 32.7194 43.0945 30.8934 43.4812 28.5091L42.8889 28.4131C42.549 30.5089 40.7146 32.1194 38.4995 32.1194V32.7194ZM33.5197 28.5089C33.9044 30.8934 35.9881 32.7194 38.4995 32.7194V32.1194C36.2844 32.1194 34.4501 30.5089 34.1121 28.4133L33.5197 28.5089ZM16.4349 28.7611H33.8159V28.1611H16.4349V28.7611ZM11.7494 32.7194C14.2609 32.7194 16.3443 30.8934 16.731 28.5091L16.1388 28.4131C15.7989 30.5089 13.9645 32.1194 11.7494 32.1194V32.7194ZM6.76764 28.5089C7.1523 30.8915 9.23796 32.7194 11.7494 32.7194V32.1194C9.53416 32.1194 7.69798 30.5069 7.35997 28.4133L6.76764 28.5089ZM3.24936 28.7611H7.06381V28.1611H3.24936V28.7611ZM2.50208 28.763L3.25013 28.7611L3.24858 28.1611L2.50053 28.163L2.50208 28.763ZM0.949359 27.2241C0.949359 28.0747 1.64689 28.763 2.50131 28.763V28.163C1.97293 28.163 1.54936 27.7381 1.54936 27.2241H0.949359ZM0.949359 26.2365V27.2241H1.54936V26.2365H0.949359ZM2.50131 24.6976C1.64945 24.6976 0.949359 25.3833 0.949359 26.2365H1.54936C1.54936 25.7212 1.97427 25.2976 2.50131 25.2976V24.6976ZM3.24936 24.6976H2.50131V25.2976H3.24936V24.6976ZM2.94936 13.8667V24.9976H3.54936V13.8667H2.94936ZM9.50136 7.37986C5.89139 7.37986 2.94936 10.2867 2.94936 13.8667H3.54936C3.54936 10.624 6.21682 7.97986 9.50136 7.97986V7.37986ZM15.2707 7.37599L9.50116 7.37986L9.50156 7.97986L15.2711 7.97599L15.2707 7.37599ZM14.9709 5.70261V7.67599H15.5709V5.70261H14.9709ZM2.25734 2.72484C2.68839 3.1514 3.34532 3.52602 4.15766 3.85861C4.97481 4.19317 5.97193 4.49421 7.10345 4.76285C9.36679 5.3002 12.1923 5.71356 15.2427 6.00129L15.299 5.40394C12.264 5.11766 9.46846 4.70766 7.24205 4.17908C6.12871 3.91476 5.16377 3.62219 4.385 3.30335C3.60144 2.98254 3.02861 2.64396 2.67938 2.29836L2.25734 2.72484ZM2.06841 1.50351C1.85402 1.90879 1.93108 2.40472 2.25825 2.72574L2.67847 2.29747C2.5408 2.16239 2.50848 1.95476 2.59877 1.78407L2.06841 1.50351ZM3.18331 0.961919C2.73015 0.880875 2.28196 1.10255 2.06881 1.50277L2.59838 1.78481C2.68993 1.61292 2.8824 1.51762 3.07768 1.55255L3.18331 0.961919ZM22.7555 1.95646C15.8392 1.95646 8.12846 1.8377 3.18281 0.96183L3.07818 1.55264C8.08553 2.43943 15.8518 2.55646 22.7555 2.55646V1.95646ZM27.0531 1.9468C25.6667 1.9526 24.2237 1.95646 22.7555 1.95646V2.55646C24.2248 2.55646 25.6686 2.5526 27.0556 2.5468L27.0531 1.9468ZM28.0997 1.94335C27.7548 1.94454 27.406 1.94574 27.0534 1.9468L27.0552 2.5468C27.4079 2.54574 27.7569 2.54454 28.1018 2.54335L28.0997 1.94335ZM28.0998 1.94335L28.0997 1.94335L28.1019 2.54335L28.102 2.54335L28.0998 1.94335ZM28.0999 1.94335L28.0998 1.94335L28.102 2.54335L28.1021 2.54335L28.0999 1.94335ZM28.1 1.94335L28.0999 1.94335L28.1021 2.54335L28.1022 2.54335L28.1 1.94335ZM28.1004 1.94335L28.1 1.94335L28.1021 2.54335L28.1025 2.54334L28.1004 1.94335ZM28.1007 1.94335L28.1005 1.94335L28.1024 2.54334L28.1026 2.54334L28.1007 1.94335ZM28.1006 1.94335L28.1005 1.94335L28.1028 2.54334L28.1029 2.54334L28.1006 1.94335ZM30.7496 1.93714C29.8999 1.93714 29.0143 1.94019 28.1007 1.94335L28.1028 2.54334C29.0165 2.54019 29.9011 2.53714 30.7496 2.53714V1.93714ZM37.1872 1.93907L30.7497 1.93714L30.7496 2.53714L37.1871 2.53907L37.1872 1.93907ZM37.1891 1.93907H37.1871V2.53907H37.1891V1.93907ZM47.6961 1.74227C44.2229 1.91008 41.545 1.93907 37.1891 1.93907V2.53907C41.5482 2.53907 44.2374 2.51007 47.7251 2.34158L47.6961 1.74227ZM48.7566 2.49578C48.6209 2.02728 48.1746 1.72339 47.6988 1.74216L47.7224 2.34169C47.9341 2.33334 48.1245 2.47015 48.1802 2.66266L48.7566 2.49578ZM48.2606 3.69386C48.6847 3.45829 48.8915 2.96166 48.7566 2.49578L48.1802 2.66266C48.2367 2.85783 48.1506 3.06861 47.9692 3.16934L48.2606 3.69386ZM46.3401 4.49398C47.0922 4.25047 47.7364 3.98448 48.2604 3.69396L47.9694 3.16923C47.4894 3.43536 46.8836 3.68733 46.1553 3.92315L46.3401 4.49398ZM46.5477 5.71036V4.20857H45.9477V5.71036H46.5477ZM45.4189 7.52688C46.1229 7.17513 46.5477 6.49404 46.5477 5.71036H45.9477C45.9477 6.2642 45.6536 6.73887 45.1507 6.99014L45.4189 7.52688ZM44.4918 7.74986C44.8077 7.74986 45.1228 7.67447 45.4186 7.52699L45.1509 6.99003C44.935 7.09768 44.7112 7.14986 44.4918 7.14986V7.74986ZM43.2769 7.34551C43.6403 7.61298 44.0638 7.74986 44.4918 7.74986V7.14986C44.1933 7.14986 43.8941 7.0548 43.6326 6.86228L43.2769 7.34551ZM40.8573 5.56953L43.2772 7.34574L43.6322 6.86205L41.2123 5.08584L40.8573 5.56953ZM29.7567 6.45485C34.1512 6.35417 37.9802 6.0714 41.0777 5.62462L40.992 5.03076C37.9255 5.47308 34.1218 5.75469 29.743 5.85501L29.7567 6.45485ZM30.0498 7.68181V6.15493H29.4498V7.68181H30.0498ZM34.9977 7.37988L29.7497 7.38181L29.7499 7.98181L34.9979 7.97988L34.9977 7.37988ZM44.0826 10.4088C41.5559 8.50989 38.4091 7.37988 34.9978 7.37988V7.97988C38.2745 7.97988 41.2956 9.06484 43.7221 10.8884L44.0826 10.4088ZM44.2909 10.5697L44.0858 10.4112L43.7189 10.886L43.924 11.0445L44.2909 10.5697ZM49.0472 16.9392C48.0642 14.4117 46.4058 12.2167 44.2917 10.5704L43.9231 11.0438C45.9535 12.625 47.5451 14.7323 48.488 17.1567L49.0472 16.9392ZM49.0412 16.9242L49.0353 16.9126L48.4998 17.1832L48.5057 17.1948L49.0412 16.9242ZM49.0641 16.9771L49.0504 16.9443L48.4964 17.1748L48.5101 17.2076L49.0641 16.9771ZM49.1089 17.0943C49.094 17.0566 49.0813 17.0244 49.0698 16.992L48.5044 17.1927C48.52 17.2369 48.5368 17.279 48.5511 17.3151L49.1089 17.0943ZM49.1086 17.0934L49.1085 17.0933L48.5515 17.3161L48.5515 17.3163L49.1086 17.0934ZM49.1099 17.0966L49.1098 17.0966L48.5503 17.3132L48.5503 17.3132L49.1099 17.0966ZM49.1087 17.0937L49.1086 17.0935L48.5516 17.3164L48.5516 17.3165L49.1087 17.0937ZM49.11 17.0969L49.1099 17.0968L48.5504 17.3134L48.5504 17.3135L49.11 17.0969ZM49.1088 17.0939L49.1087 17.0938L48.5516 17.3166L48.5517 17.3167L49.1088 17.0939ZM49.149 17.1983C49.1356 17.1617 49.1216 17.1262 49.1092 17.0949L48.5513 17.3158C48.5642 17.3483 48.5752 17.3763 48.5854 17.404L49.149 17.1983ZM49.4456 17.9596L49.1467 17.1922L48.5876 17.41L48.8865 18.1773L49.4456 17.9596ZM49.123 18.3684H49.166V17.7684H49.123V18.3684ZM50.05 22.2761C50.05 20.7846 49.8247 19.3422 49.41 17.981L48.8361 18.1559C49.2339 19.4618 49.45 20.8453 49.45 22.2761H50.05ZM46.9316 16.2859H36.0001V16.8859H46.9316V16.2859ZM46.9319 16.2859H46.9316V16.8859H46.9319V16.2859ZM43.1902 12.3658C44.6585 13.5561 45.8419 15.0429 46.6625 16.7179L47.2013 16.4539C46.3422 14.7002 45.1037 13.1446 43.5681 11.8997L43.1902 12.3658ZM36.0001 12.4328H43.3791V11.8328H36.0001V12.4328ZM36.0501 12.3802C36.0501 12.4012 36.0413 12.4141 36.0356 12.4197C36.0299 12.4253 36.0183 12.4328 36.0001 12.4328V11.8328C35.7027 11.8328 35.4501 12.0782 35.4501 12.3802H36.0501ZM36.0501 16.3385V12.3802H35.4501V16.3385H36.0501ZM36.0001 16.2859C36.0183 16.2859 36.0299 16.2933 36.0356 16.299C36.0413 16.3046 36.0501 16.3175 36.0501 16.3385H35.4501C35.4501 16.6405 35.7027 16.8859 36.0001 16.8859V16.2859ZM44.7444 6.20153C44.8315 6.15843 44.9129 6.09383 44.9707 6.00076C45.0285 5.90769 45.05 5.80644 45.05 5.71037H44.45C44.45 5.7141 44.4496 5.71242 44.451 5.70689C44.4525 5.70102 44.4556 5.69293 44.4609 5.68429C44.4663 5.67564 44.4721 5.66942 44.4766 5.66561C44.4807 5.66204 44.4821 5.66187 44.4783 5.66375L44.7444 6.20153ZM44.1717 6.15101C44.248 6.2072 44.3411 6.25069 44.4501 6.26044C44.5591 6.27019 44.6588 6.24387 44.7444 6.20152L44.4783 5.66376C44.4737 5.66602 44.4742 5.66515 44.4793 5.66405C44.4849 5.66285 44.4933 5.66191 44.5035 5.66282C44.5137 5.66373 44.5218 5.66615 44.5268 5.66823C44.5315 5.67015 44.5317 5.67101 44.5275 5.66788L44.1717 6.15101ZM42.9144 5.22946L44.1722 6.15141L44.527 5.66748L43.2691 4.74554L42.9144 5.22946ZM44.679 4.33846C44.1686 4.46281 43.6209 4.58158 43.0358 4.69278L43.1478 5.28223C43.7424 5.16923 44.3002 5.04832 44.821 4.92141L44.679 4.33846ZM45.05 5.71037L45.05 4.62994L44.45 4.62993L44.45 5.71037L45.05 5.71037ZM26.0918 4.03601L26.0919 4.03601L26.0896 3.43601L26.0894 3.43601L26.0918 4.03601ZM22.758 4.04278C23.8897 4.04278 25.0052 4.03935 26.0915 4.03601L26.0897 3.43601C25.0032 3.43935 23.8886 3.44278 22.758 3.44278V4.04278ZM22.7313 3.44397L22.7308 3.44401L22.7851 4.04155L22.7856 4.04151L22.7313 3.44397ZM9.31729 3.72322C13.5286 3.99253 18.3181 4.04274 22.7584 4.04274V3.44274C18.3198 3.44274 13.5466 3.39245 9.35558 3.12444L9.31729 3.72322ZM26.0004 4.41108C19.188 4.41108 13.4041 3.87856 9.39153 3.12893L9.28135 3.71873C13.3388 4.47673 19.1609 5.01108 26.0004 5.01108V4.41108ZM41.6949 3.41179C37.7337 4.04814 32.2643 4.41108 26.0004 4.41108V5.01108C32.2826 5.01108 37.7864 4.64737 41.79 4.00419L41.6949 3.41179ZM37.1916 4.02925C38.9188 4.02925 40.3868 4.02345 41.7459 4.00797L41.739 3.40801C40.3831 3.42345 38.9176 3.42925 37.1916 3.42925V4.02925ZM37.1897 4.02925H37.1916V3.42925H37.1897V4.02925ZM30.7499 4.02345L37.1894 4.02925L37.19 3.42925L30.7505 3.42345L30.7499 4.02345ZM27.0621 4.03311C28.347 4.02732 29.5829 4.02345 30.7502 4.02345V3.42345C29.5816 3.42345 28.3448 3.42732 27.0594 3.43312L27.0621 4.03311ZM26.0917 4.03601L27.0616 4.03312L27.0598 3.43312L26.0899 3.43601L26.0917 4.03601ZM26 5.89549C22.9646 5.89549 19.7967 5.77402 16.7951 5.53693L16.7479 6.13507C19.7657 6.37344 22.9494 6.49549 26 6.49549V5.89549ZM28.246 5.88006C27.5108 5.88971 26.7621 5.89549 26 5.89549V6.49549C26.7652 6.49549 27.5165 6.48968 28.2539 6.48L28.246 5.88006ZM28.55 7.67984V6.18003H27.95V7.67984H28.55ZM16.7715 7.97984H28.25V7.37984H16.7715V7.97984ZM16.4715 5.836V7.67984H17.0715V5.836H16.4715ZM11.75 30.6353C10.1198 30.6353 8.79999 29.3248 8.79999 27.7191H8.19999C8.19999 29.6621 9.79432 31.2353 11.75 31.2353V30.6353ZM14.7 27.7191C14.7 29.3248 13.3802 30.6353 11.75 30.6353V31.2353C13.7057 31.2353 15.3 29.6621 15.3 27.7191H14.7ZM11.75 24.803C13.3802 24.803 14.7 26.1135 14.7 27.7191H15.3C15.3 25.7762 13.7057 24.203 11.75 24.203V24.803ZM8.79999 27.7191C8.79999 26.1135 10.1198 24.803 11.75 24.803V24.203C9.79432 24.203 8.19999 25.7762 8.19999 27.7191H8.79999ZM34.95 27.7191C34.95 29.6621 36.5443 31.2353 38.5 31.2353V30.6353C36.8698 30.6353 35.55 29.3248 35.55 27.7191H34.95ZM38.5 24.203C36.5443 24.203 34.95 25.7762 34.95 27.7191H35.55C35.55 26.1135 36.8698 24.803 38.5 24.803V24.203ZM42.05 27.7191C42.05 25.7762 40.4557 24.203 38.5 24.203V24.803C40.1302 24.803 41.45 26.1135 41.45 27.7191H42.05ZM38.5 31.2353C40.4557 31.2353 42.05 29.6621 42.05 27.7191H41.45C41.45 29.3248 40.1302 30.6353 38.5 30.6353V31.2353ZM43.4817 26.9292C43.097 24.5445 41.0113 22.7186 38.5 22.7186V23.3186C40.7153 23.3186 42.5514 24.9293 42.8894 27.0247L43.4817 26.9292ZM49.2499 26.677H43.1855V27.277H49.2499V26.677ZM48.9499 26.4822V26.977H49.5499V26.4822H48.9499ZM44.7499 26.7822H49.2499V26.1822H44.7499V26.7822ZM44.4499 24.9978V26.4822H45.0499V24.9978H44.4499ZM48.2499 24.6978H44.7499V25.2978H48.2499V24.6978ZM47.9499 22.2784V24.9978H48.5499V22.2784H47.9499ZM47.263 18.168C47.7058 19.4598 47.9499 20.8398 47.9499 22.2784H48.5499C48.5499 20.7713 48.2941 19.3257 47.8306 17.9734L47.263 18.168ZM35.9998 18.3707H47.5468V17.7707H35.9998V18.3707ZM33.9498 16.3389C33.9498 17.4624 34.8723 18.3707 35.9998 18.3707V17.7707C35.1977 17.7707 34.5498 17.1251 34.5498 16.3389H33.9498ZM33.9498 12.3806V16.3389H34.5498V12.3806H33.9498ZM35.9998 10.3488C34.8723 10.3488 33.9498 11.2572 33.9498 12.3806H34.5498C34.5498 11.5944 35.1977 10.9488 35.9998 10.9488V10.3488ZM41.1113 10.3488H35.9998V10.9488H41.1113V10.3488ZM34.9978 9.46446C37.1515 9.46446 39.1845 9.9915 40.9737 10.9154L41.249 10.3823C39.3775 9.41587 37.2504 8.86446 34.9978 8.86446V9.46446ZM9.50183 9.46446H34.9978V8.86446H9.50183V9.46446ZM5.04989 13.8669C5.04989 11.4436 7.04353 9.46446 9.50183 9.46446V8.86446C6.71794 8.86446 4.44989 11.1065 4.44989 13.8669H5.04989ZM5.04989 16.5863V13.8669H4.44989V16.5863H5.04989ZM12.2849 16.2863H4.74989V16.8863H12.2849V16.2863ZM12.5849 18.0707V16.5863H11.9849V18.0707H12.5849ZM4.74989 18.3707H12.2849V17.7707H4.74989V18.3707ZM5.04989 24.9978V18.0707H4.44989V24.9978H5.04989ZM5.74989 24.6978H4.74989V25.2978H5.74989V24.6978ZM6.04989 26.4822V24.9978H5.44988V26.4822H6.04989ZM2.74989 26.7822H5.74989V26.1822H2.74989V26.7822ZM3.04989 26.977V26.4822H2.44989V26.977H3.04989ZM7.06433 26.677H2.74989V27.277H7.06433V26.677ZM11.7499 22.7186C9.23839 22.7186 7.15489 24.5446 6.7682 26.9289L7.36047 27.025C7.70038 24.9291 9.53478 23.3186 11.7499 23.3186V22.7186ZM16.7316 26.9292C16.3469 24.5445 14.2612 22.7186 11.7499 22.7186V23.3186C13.9652 23.3186 15.8013 24.9293 16.1393 27.0247L16.7316 26.9292ZM33.8144 26.677H16.4354V27.277H33.8144V26.677ZM38.5 22.7186C35.9885 22.7186 33.905 24.5446 33.5183 26.9289L34.1106 27.025C34.4505 24.9291 36.2849 23.3186 38.5 23.3186V22.7186Z" fill="#222532"/>
<path fill-rule="evenodd" clip-rule="evenodd" d="M23.75 12.3802V16.3385C23.75 17.2933 22.9648 18.0703 22 18.0703H17C16.0351 18.0703 15.25 17.2933 15.25 16.3385V12.3802C15.25 11.4254 16.0351 10.6484 17 10.6484H22C22.9648 10.6484 23.75 11.4254 23.75 12.3802ZM16.75 12.3802V16.3385C16.75 16.4738 16.8652 16.5859 17 16.5859H22C22.1348 16.5859 22.25 16.4719 22.25 16.3385V12.3802C22.25 12.2468 22.1348 12.1328 22 12.1328H17C16.8652 12.1328 16.75 12.2468 16.75 12.3802Z" fill="white"/>
<path d="M24.05 16.3385V12.3802H23.45V16.3385H24.05ZM22 18.3703C23.1276 18.3703 24.05 17.462 24.05 16.3385H23.45C23.45 17.1247 22.8021 17.7703 22 17.7703V18.3703ZM17 18.3703H22V17.7703H17V18.3703ZM14.95 16.3385C14.95 17.462 15.8724 18.3703 17 18.3703V17.7703C16.1979 17.7703 15.55 17.1247 15.55 16.3385H14.95ZM14.95 12.3802V16.3385H15.55V12.3802H14.95ZM17 10.3484C15.8724 10.3484 14.95 11.2568 14.95 12.3802H15.55C15.55 11.594 16.1979 10.9484 17 10.9484V10.3484ZM22 10.3484H17V10.9484H22V10.3484ZM24.05 12.3802C24.05 11.2568 23.1276 10.3484 22 10.3484V10.9484C22.8021 10.9484 23.45 11.594 23.45 12.3802H24.05ZM17.05 16.3385V12.3802H16.45V16.3385H17.05ZM17 16.2859C17.0167 16.2859 17.0284 16.2927 17.0349 16.2992C17.0417 16.3059 17.05 16.3192 17.05 16.3385H16.45C16.45 16.644 16.704 16.8859 17 16.8859V16.2859ZM22 16.2859H17V16.8859H22V16.2859ZM21.95 16.3385C21.95 16.3175 21.9589 16.3046 21.9645 16.299C21.9702 16.2934 21.9818 16.2859 22 16.2859V16.8859C22.2975 16.8859 22.55 16.6405 22.55 16.3385H21.95ZM21.95 12.3802V16.3385H22.55V12.3802H21.95ZM22 12.4328C21.9818 12.4328 21.9702 12.4254 21.9645 12.4197C21.9589 12.4141 21.95 12.4012 21.95 12.3802H22.55C22.55 12.0782 22.2975 11.8328 22 11.8328V12.4328ZM17 12.4328H22V11.8328H17V12.4328ZM17.05 12.3802C17.05 12.4012 17.0411 12.4141 17.0355 12.4197C17.0298 12.4254 17.0182 12.4328 17 12.4328V11.8328C16.7025 11.8328 16.45 12.0782 16.45 12.3802H17.05Z" fill="#222532"/>
<path fill-rule="evenodd" clip-rule="evenodd" d="M26.5 10.6484H31.5C32.4648 10.6484 33.25 11.4254 33.25 12.3802V16.3385C33.25 17.2933 32.4648 18.0703 31.5 18.0703H26.5C25.5351 18.0703 24.75 17.2933 24.75 16.3385V12.3802C24.75 11.4254 25.5351 10.6484 26.5 10.6484ZM31.5 16.5859C31.6348 16.5859 31.75 16.4719 31.75 16.3385V12.3802C31.75 12.2468 31.6348 12.1328 31.5 12.1328H26.5C26.3652 12.1328 26.25 12.2468 26.25 12.3802V16.3385C26.25 16.4719 26.3652 16.5859 26.5 16.5859H31.5Z" fill="white"/>
<path d="M31.5 10.3484H26.5V10.9484H31.5V10.3484ZM33.55 12.3802C33.55 11.2568 32.6276 10.3484 31.5 10.3484V10.9484C32.3021 10.9484 32.95 11.594 32.95 12.3802H33.55ZM33.55 16.3385V12.3802H32.95V16.3385H33.55ZM31.5 18.3703C32.6276 18.3703 33.55 17.462 33.55 16.3385H32.95C32.95 17.1247 32.3021 17.7703 31.5 17.7703V18.3703ZM26.5 18.3703H31.5V17.7703H26.5V18.3703ZM24.45 16.3385C24.45 17.462 25.3724 18.3703 26.5 18.3703V17.7703C25.6979 17.7703 25.05 17.1247 25.05 16.3385H24.45ZM24.45 12.3802V16.3385H25.05V12.3802H24.45ZM26.5 10.3484C25.3724 10.3484 24.45 11.2568 24.45 12.3802H25.05C25.05 11.594 25.6979 10.9484 26.5 10.9484V10.3484ZM31.45 16.3385C31.45 16.3175 31.4589 16.3046 31.4645 16.299C31.4702 16.2934 31.4818 16.2859 31.5 16.2859V16.8859C31.7975 16.8859 32.05 16.6405 32.05 16.3385H31.45ZM31.45 12.3802V16.3385H32.05V12.3802H31.45ZM31.5 12.4328C31.4818 12.4328 31.4702 12.4254 31.4645 12.4197C31.4589 12.4141 31.45 12.4012 31.45 12.3802H32.05C32.05 12.0782 31.7975 11.8328 31.5 11.8328V12.4328ZM26.5 12.4328H31.5V11.8328H26.5V12.4328ZM26.55 12.3802C26.55 12.4012 26.5411 12.4141 26.5355 12.4197C26.5298 12.4254 26.5182 12.4328 26.5 12.4328V11.8328C26.2025 11.8328 25.95 12.0782 25.95 12.3802H26.55ZM26.55 16.3385V12.3802H25.95V16.3385H26.55ZM26.5 16.2859C26.5182 16.2859 26.5298 16.2934 26.5355 16.299C26.5411 16.3046 26.55 16.3175 26.55 16.3385H25.95C25.95 16.6405 26.2025 16.8859 26.5 16.8859V16.2859ZM31.5 16.2859H26.5V16.8859H31.5V16.2859Z" fill="#222532"/>
<path fill-rule="evenodd" clip-rule="evenodd" d="M36.5 27.7188C36.5 26.6268 37.3965 25.7396 38.5 25.7396C39.6035 25.7396 40.5 26.6287 40.5 27.7188C40.5 28.8108 39.6035 29.698 38.5 29.698C37.3965 29.698 36.5 28.8108 36.5 27.7188ZM38 27.7188C38 27.9913 38.2246 28.2136 38.5 28.2136C38.7754 28.2136 39 27.9913 39 27.7188C39 27.4463 38.7754 27.224 38.5 27.224C38.2246 27.224 38 27.4463 38 27.7188Z" fill="white"/>
<path d="M38.5 25.4396C37.2338 25.4396 36.2 26.4581 36.2 27.7188H36.8C36.8 26.7954 37.5592 26.0396 38.5 26.0396V25.4396ZM40.8 27.7188C40.8 26.4603 39.7664 25.4396 38.5 25.4396V26.0396C39.4406 26.0396 40.2 26.7972 40.2 27.7188H40.8ZM38.5 29.998C39.7662 29.998 40.8 28.9794 40.8 27.7188H40.2C40.2 28.6422 39.4408 29.398 38.5 29.398V29.998ZM36.2 27.7188C36.2 28.9794 37.2338 29.998 38.5 29.998V29.398C37.5592 29.398 36.8 28.6422 36.8 27.7188H36.2ZM38.5 27.9136C38.3873 27.9136 38.3 27.8227 38.3 27.7188H37.7C37.7 28.16 38.0619 28.5136 38.5 28.5136V27.9136ZM38.7 27.7188C38.7 27.8227 38.6127 27.9136 38.5 27.9136V28.5136C38.9381 28.5136 39.3 28.16 39.3 27.7188H38.7ZM38.5 27.524C38.6127 27.524 38.7 27.6149 38.7 27.7188H39.3C39.3 27.2776 38.9381 26.924 38.5 26.924V27.524ZM38.3 27.7188C38.3 27.6149 38.3873 27.524 38.5 27.524V26.924C38.0619 26.924 37.7 27.2776 37.7 27.7188H38.3Z" fill="#222532"/>
<path fill-rule="evenodd" clip-rule="evenodd" d="M9.75 27.7188C9.75 26.6268 10.6465 25.7396 11.75 25.7396C12.8535 25.7396 13.75 26.6287 13.75 27.7188C13.75 28.8108 12.8535 29.698 11.75 29.698C10.6465 29.698 9.75 28.8089 9.75 27.7188ZM11.25 27.7188C11.25 27.9913 11.4746 28.2136 11.75 28.2136C12.0254 28.2136 12.25 27.9913 12.25 27.7188C12.25 27.4463 12.0254 27.224 11.75 27.224C11.4746 27.224 11.25 27.4463 11.25 27.7188Z" fill="white"/>
<path d="M11.75 25.4396C10.4838 25.4396 9.45 26.4581 9.45 27.7188H10.05C10.05 26.7954 10.8092 26.0396 11.75 26.0396V25.4396ZM14.05 27.7188C14.05 26.4603 13.0164 25.4396 11.75 25.4396V26.0396C12.6906 26.0396 13.45 26.7972 13.45 27.7188H14.05ZM11.75 29.998C13.0162 29.998 14.05 28.9794 14.05 27.7188H13.45C13.45 28.6422 12.6908 29.398 11.75 29.398V29.998ZM9.45 27.7188C9.45 28.9773 10.4836 29.998 11.75 29.998V29.398C10.8094 29.398 10.05 28.6404 10.05 27.7188H9.45ZM11.75 27.9136C11.6373 27.9136 11.55 27.8227 11.55 27.7188H10.95C10.95 28.16 11.3119 28.5136 11.75 28.5136V27.9136ZM11.95 27.7188C11.95 27.8227 11.8627 27.9136 11.75 27.9136V28.5136C12.1881 28.5136 12.55 28.16 12.55 27.7188H11.95ZM11.75 27.524C11.8627 27.524 11.95 27.6149 11.95 27.7188H12.55C12.55 27.2776 12.1881 26.924 11.75 26.924V27.524ZM11.55 27.7188C11.55 27.6149 11.6373 27.524 11.75 27.524V26.924C11.3119 26.924 10.95 27.2776 10.95 27.7188H11.55Z" fill="#222532"/>
<path d="M17.25 24.9974H32.75V26.4818H17.25V24.9974Z" fill="white" stroke="#222532" stroke-width="0.6"/>
</svg>
