<svg width="61" height="48" viewBox="0 0 61 48" fill="none" xmlns="http://www.w3.org/2000/svg">
<path fill-rule="evenodd" clip-rule="evenodd" d="M59.5976 43.8612C59.5882 43.8896 59.5764 43.9181 59.5623 43.9442L59.5628 43.9438C59.5487 43.9723 59.5345 43.9984 59.5063 44.0174C59.4953 44.0348 59.4844 44.0501 59.4734 44.0654C59.4679 44.0731 59.4624 44.0807 59.4569 44.0886C59.4381 44.1123 59.417 44.1385 59.3958 44.1622C59.377 44.1812 59.3582 44.2002 59.337 44.2191C59.3135 44.2429 59.2876 44.2642 59.2617 44.2832C59.2509 44.2905 59.2389 44.2984 59.2266 44.3063C59.2148 44.3138 59.2027 44.3213 59.1912 44.3283C59.1841 44.3319 59.1772 44.3356 59.1704 44.3393C59.1656 44.342 59.1608 44.3447 59.156 44.3473C59.1402 44.3562 59.1241 44.3652 59.1065 44.3734C59.097 44.3782 59.0873 44.3825 59.0773 44.3864C59.0665 44.3908 59.0555 44.3948 59.0444 44.3988C59.0354 44.4021 59.0263 44.4055 59.0172 44.409C59.0109 44.4114 59.0049 44.414 58.9989 44.4167C58.9932 44.4192 58.9874 44.4217 58.9815 44.4239C58.975 44.4265 58.9681 44.4287 58.9607 44.4304C58.956 44.4315 58.9519 44.4315 58.9478 44.4315H58.9465C58.9428 44.4316 58.9391 44.4317 58.9349 44.4327C58.862 44.4517 58.7867 44.4636 58.7091 44.4636C58.6033 44.4636 58.5656 44.4802 58.5656 44.4802C58.5224 44.5308 58.4438 44.7839 58.394 44.9442L58.3893 44.9596C58.2058 45.5529 57.8225 46.787 56.2727 46.787C54.9471 46.787 54.2886 45.8988 53.8068 45.2489L53.8034 45.2444C53.3518 44.6297 53.1802 44.4635 52.8415 44.4635C52.5029 44.4635 52.3335 44.6296 51.8796 45.2419L51.8763 45.2465C51.3945 45.8963 50.7359 46.7846 49.408 46.7846C48.0823 46.7846 47.4238 45.8964 46.942 45.2465L46.9386 45.2419C46.4871 44.6297 46.3154 44.4635 45.9767 44.4635C45.6404 44.4635 45.4687 44.6297 45.0149 45.2444C44.5351 45.8946 43.8742 46.787 42.5455 46.787C41.2175 46.787 40.559 45.8988 40.0772 45.2489L40.0738 45.2444C39.6223 44.6321 39.4506 44.466 39.112 44.466C38.7733 44.466 38.604 44.6321 38.1501 45.2444C37.6703 45.8946 37.0118 46.787 35.6808 46.787C34.3551 46.787 33.6966 45.8988 33.2148 45.2489L33.2114 45.2444C32.7599 44.6321 32.5882 44.466 32.2495 44.466C31.9132 44.466 31.7416 44.6321 31.2877 45.2468C30.8079 45.897 30.1471 46.7894 28.8183 46.7894C27.4927 46.7894 26.8342 45.9012 26.3524 45.2514L26.349 45.2468C25.8974 44.6345 25.7258 44.4684 25.3871 44.4684C25.0508 44.4684 24.8791 44.6346 24.4252 45.2492C23.9455 45.8995 23.2846 46.7918 21.9559 46.7918C21.5349 46.7918 21.1516 46.6186 20.8811 46.3053C20.225 45.5507 20.3567 44.2644 20.6272 42.2281L20.6318 42.1929C20.7284 41.4561 20.8757 40.3326 20.8271 39.7861C19.0704 40.1324 16.5775 43.6854 15.2841 46.2698C15.1242 46.5926 14.7973 46.792 14.4445 46.792C14.4257 46.792 14.4069 46.792 14.3881 46.7896C14.0142 46.7683 13.6873 46.5238 13.5603 46.1678C13.3439 45.5645 11.4955 40.1941 13.4168 37.2228C14.1364 36.1121 15.3029 35.4737 16.7939 35.3764C18.0897 35.291 18.6823 34.9397 18.7952 34.6621C18.8705 34.477 18.7505 34.1613 18.4871 33.8599C17.7863 33.0554 16.22 32.4099 14.4374 32.8988C11.9656 33.5732 9.19536 36.917 8.26171 40.3534C7.9348 41.5614 7.58201 43.797 8.91782 45.1806C9.27998 45.558 9.27058 46.1584 8.899 46.5238C8.52507 46.8893 7.93247 46.8822 7.56795 46.5049C6.09341 44.979 5.69596 42.6153 6.44617 39.8528C7.41726 36.2739 10.4888 32.0092 13.9458 31.067C16.5209 30.3645 18.7903 31.3328 19.9003 32.6072C20.6694 33.4877 20.8998 34.5011 20.5353 35.3887C20.2179 36.16 19.3336 37.1141 16.916 37.2731C16.0153 37.3324 15.3874 37.6575 14.9947 38.2627C14.2021 39.4873 14.3856 41.6588 14.7454 43.3913C16.1565 41.1058 18.6329 37.7856 21.1963 37.8663C21.6102 37.8806 21.9841 38.0609 22.2475 38.3766C22.5109 38.6898 22.6402 39.0957 22.6872 39.5988C24.4181 38.443 26.9442 37.2991 31.9298 36.7912C26.5253 14.6964 36.685 2.25821 37.1459 1.71C37.1498 1.70603 37.1538 1.7029 37.1575 1.6999C37.1628 1.69571 37.1677 1.69179 37.1718 1.68626C37.2 1.65541 37.2282 1.6293 37.2588 1.6032C37.2776 1.58421 37.2964 1.5676 37.3176 1.55336C37.3465 1.53392 37.3754 1.51766 37.4056 1.50068L37.4258 1.48928C37.4446 1.47742 37.4634 1.46555 37.4846 1.45606C37.5293 1.43707 37.5739 1.42283 37.621 1.41096C37.6319 1.40938 37.6429 1.40569 37.6539 1.402L37.6539 1.40199C37.6594 1.40014 37.6649 1.3983 37.6704 1.39673C37.7338 1.38249 37.7997 1.37537 37.8679 1.37537L38.0066 1.38011C38.2841 1.38011 38.5452 1.50115 38.7239 1.71474C39.1848 2.26032 49.2949 14.6349 43.9871 36.6228C57.8667 37.4439 59.5647 43.0329 59.6305 43.2773C59.6329 43.2868 59.6329 43.2987 59.6352 43.3082L59.6493 43.4007C59.654 43.434 59.6587 43.4672 59.6587 43.5004C59.6587 43.5027 59.6589 43.505 59.6591 43.5073L59.6599 43.5147C59.6602 43.5172 59.6605 43.5198 59.6608 43.5223C59.661 43.5245 59.6611 43.5267 59.6611 43.5289C59.6611 43.5352 59.6608 43.5413 59.6604 43.5473C59.6596 43.5574 59.6584 43.5673 59.6571 43.5778L59.6564 43.5835L59.6561 43.5869C59.6539 43.6191 59.6514 43.6534 59.6446 43.6855C59.6434 43.6927 59.6421 43.6999 59.6406 43.7071C59.6394 43.7132 59.6381 43.7193 59.6368 43.7253C59.6333 43.7405 59.6296 43.7558 59.6258 43.771L59.621 43.7875L59.6177 43.7991C59.6117 43.8204 59.6058 43.8413 59.5976 43.8612ZM38.8081 39.5466H41.2398C46.5949 21.8735 41.5573 9.95955 38.8081 5.22964V39.5466ZM36.9267 5.47874V39.5466H34.6338C29.3824 22.2174 34.1564 10.3792 36.9267 5.47874ZM56.599 44.42L56.6038 44.4046L56.6031 44.4047C56.7136 44.0486 56.9017 43.4648 57.365 43.0543C56.3235 41.7252 53.0381 38.996 43.5018 38.5C43.2949 39.2523 43.0714 40.0141 42.8269 40.7878C42.7022 41.1817 42.34 41.4499 41.9308 41.4499H33.94C33.5307 41.4499 33.1686 41.1817 33.0439 40.7878C32.8182 40.0663 32.6112 39.3567 32.416 38.6566C26.3696 39.2309 24.206 40.7617 22.5528 42.0527C22.5454 42.1083 22.5385 42.1635 22.5314 42.2192C22.5204 42.3062 22.5092 42.3944 22.4963 42.487C22.4046 43.18 22.2635 44.2479 22.2917 44.8175C22.4634 44.7155 22.6375 44.5066 22.9197 44.1222L22.923 44.1176C23.4048 43.4678 24.0634 42.5795 25.3913 42.5795C26.717 42.5795 27.3755 43.4677 27.8573 44.1176L27.8607 44.1222C28.3122 44.7344 28.4839 44.9006 28.8226 44.9006C29.1612 44.9006 29.3306 44.7345 29.7844 44.1222L29.7878 44.1176C30.2696 43.4678 30.9282 42.5795 32.2561 42.5795C33.5818 42.5795 34.2402 43.4677 34.722 44.1176L34.7254 44.1222C35.1794 44.7344 35.351 44.9006 35.6873 44.9006C36.026 44.9006 36.1953 44.7345 36.6492 44.1222C37.129 43.4719 37.7875 42.5795 39.1185 42.5795C40.4442 42.5795 41.1027 43.4677 41.5845 44.1176L41.5879 44.1222C42.0418 44.7369 42.2134 44.903 42.5521 44.903C42.8907 44.903 43.0601 44.7369 43.514 44.1246L43.5173 44.1201C43.9991 43.4702 44.6577 42.582 45.9857 42.582C47.3113 42.582 47.9698 43.4702 48.4516 44.12L48.455 44.1246C48.9065 44.7369 49.0782 44.903 49.4169 44.903C49.7555 44.903 49.9272 44.7368 50.3811 44.1222C50.8609 43.4719 51.5217 42.5795 52.8504 42.5795C54.1784 42.5795 54.8369 43.4677 55.3187 44.1176L55.3221 44.1222C55.776 44.7344 55.9477 44.9006 56.284 44.9006C56.3898 44.9006 56.4274 44.884 56.4274 44.884C56.4707 44.8334 56.5492 44.5804 56.599 44.42Z" fill="white"/>
<path d="M59.5623 43.9442L59.1224 43.7065L59.8802 44.3302L59.5623 43.9442ZM59.5976 43.8612L59.1354 43.6703L59.1285 43.6871L59.1228 43.7043L59.5976 43.8612ZM59.5628 43.9438L60.0108 44.1658L59.2449 43.5579L59.5628 43.9438ZM59.5063 44.0174L59.2272 43.6026L59.1396 43.6615L59.0834 43.7508L59.5063 44.0174ZM59.4734 44.0654L59.8796 44.3569L59.8797 44.3569L59.4734 44.0654ZM59.4569 44.0886L59.8487 44.3992L59.8587 44.3867L59.8677 44.3736L59.4569 44.0886ZM59.3958 44.1622L59.7509 44.5141L59.7602 44.5048L59.769 44.495L59.3958 44.1622ZM59.337 44.2191L59.0031 43.847L58.9922 43.8568L58.9818 43.8672L59.337 44.2191ZM59.2617 44.2832L59.5408 44.6981L59.5493 44.6924L59.5576 44.6863L59.2617 44.2832ZM59.2266 44.3063L58.9573 43.885L58.9572 43.885L59.2266 44.3063ZM59.1912 44.3283L59.4164 44.7747L59.4337 44.766L59.4501 44.756L59.1912 44.3283ZM59.1704 44.3393L58.9294 43.9012L58.9292 43.9013L59.1704 44.3393ZM59.156 44.3473L58.9117 43.9111L58.9116 43.9111L59.156 44.3473ZM59.1065 44.3734L58.8954 43.9202L58.8883 43.9235L58.8813 43.927L59.1065 44.3734ZM59.0773 44.3864L58.8912 43.9224L58.8911 43.9224L59.0773 44.3864ZM59.0444 44.3988L58.873 43.9291L58.873 43.9292L59.0444 44.3988ZM59.0172 44.409L59.194 44.8767L59.1981 44.8751L59.0172 44.409ZM58.9989 44.4167L59.1997 44.8746L59.1999 44.8745L58.9989 44.4167ZM58.9815 44.4239L59.1607 44.8907L59.161 44.8906L58.9815 44.4239ZM58.9607 44.4304L58.8513 43.9423L58.8383 43.9456L58.9607 44.4304ZM58.9465 44.4315V43.9315L58.9449 43.9315L58.9465 44.4315ZM58.9349 44.4327L58.8128 43.9479L58.8088 43.9489L58.9349 44.4327ZM58.5656 44.4802L58.3637 44.0228L58.2597 44.0687L58.1858 44.1551L58.5656 44.4802ZM58.394 44.9442L58.8715 45.0926L58.8716 45.0924L58.394 44.9442ZM58.3893 44.9596L57.9118 44.8112L57.9116 44.8119L58.3893 44.9596ZM53.8068 45.2489L53.405 45.5465L53.4051 45.5467L53.8068 45.2489ZM53.8034 45.2444L53.4004 45.5404L53.4016 45.5419L53.8034 45.2444ZM51.8796 45.2419L52.2812 45.5398L52.2813 45.5397L51.8796 45.2419ZM51.8763 45.2465L51.4747 44.9486L51.4746 44.9487L51.8763 45.2465ZM46.942 45.2465L47.3437 44.9487L47.3436 44.9486L46.942 45.2465ZM46.9386 45.2419L46.5362 45.5387L46.5371 45.5398L46.9386 45.2419ZM45.0149 45.2444L44.6126 44.9473L44.6125 44.9475L45.0149 45.2444ZM40.0772 45.2489L40.4789 44.9511L40.4789 44.9511L40.0772 45.2489ZM40.0738 45.2444L39.6714 45.5411L39.6722 45.5421L40.0738 45.2444ZM38.1501 45.2444L37.7484 44.9466L37.7477 44.9475L38.1501 45.2444ZM33.2148 45.2489L33.6165 44.9512L33.6164 44.9511L33.2148 45.2489ZM33.2114 45.2444L32.809 45.5411L32.8098 45.5422L33.2114 45.2444ZM31.2877 45.2468L30.8854 44.9498L30.8853 44.9499L31.2877 45.2468ZM26.3524 45.2514L26.7541 44.9536L26.754 44.9535L26.3524 45.2514ZM26.349 45.2468L25.9466 45.5436L25.9474 45.5446L26.349 45.2468ZM24.4252 45.2492L24.023 44.9522L24.0229 44.9524L24.4252 45.2492ZM20.8811 46.3053L21.2596 45.9786L21.2585 45.9773L20.8811 46.3053ZM20.6272 42.2281L21.1228 42.2939L21.1229 42.2931L20.6272 42.2281ZM20.6318 42.1929L20.136 42.1279L20.136 42.1279L20.6318 42.1929ZM20.8271 39.7861L21.3251 39.7418L21.2758 39.188L20.7303 39.2955L20.8271 39.7861ZM15.2841 46.2698L14.8369 46.0461L14.836 46.0479L15.2841 46.2698ZM14.3881 46.7896L14.4506 46.2935L14.4337 46.2914L14.4166 46.2904L14.3881 46.7896ZM13.5603 46.1678L14.0312 45.9998L14.0309 45.999L13.5603 46.1678ZM13.4168 37.2228L12.9972 36.951L12.997 36.9513L13.4168 37.2228ZM16.7939 35.3764L16.8265 35.8754L16.8268 35.8754L16.7939 35.3764ZM18.7952 34.6621L19.2584 34.8504L19.2584 34.8504L18.7952 34.6621ZM18.4871 33.8599L18.1101 34.1884L18.1106 34.1889L18.4871 33.8599ZM14.4374 32.8988L14.5691 33.3811L14.5697 33.381L14.4374 32.8988ZM8.26171 40.3534L7.7792 40.2223L7.77907 40.2228L8.26171 40.3534ZM8.91782 45.1806L9.27855 44.8344L9.27752 44.8333L8.91782 45.1806ZM8.899 46.5238L9.24849 46.8814L9.24962 46.8803L8.899 46.5238ZM7.56795 46.5049L7.92756 46.1575L7.9275 46.1574L7.56795 46.5049ZM6.44617 39.8528L6.92869 39.9838L6.92872 39.9837L6.44617 39.8528ZM13.9458 31.067L14.0773 31.5494L14.0774 31.5494L13.9458 31.067ZM19.9003 32.6072L19.5233 32.9356L19.5238 32.9362L19.9003 32.6072ZM20.5353 35.3887L20.9977 35.579L20.9978 35.5786L20.5353 35.3887ZM16.916 37.2731L16.8832 36.7741L16.8831 36.7741L16.916 37.2731ZM14.9947 38.2627L14.5752 37.9905L14.5749 37.991L14.9947 38.2627ZM14.7454 43.3913L14.2558 43.493L14.5112 44.7224L15.1708 43.654L14.7454 43.3913ZM21.1963 37.8663L21.2134 37.3666L21.212 37.3666L21.1963 37.8663ZM22.2475 38.3766L21.8636 38.6969L21.8648 38.6984L22.2475 38.3766ZM22.6872 39.5988L22.1894 39.6453L22.2675 40.4803L22.9649 40.0146L22.6872 39.5988ZM31.9298 36.7912L31.9805 37.2887L32.552 37.2304L32.4155 36.6724L31.9298 36.7912ZM37.1459 1.71L36.7908 1.35803L36.7764 1.37256L36.7632 1.38822L37.1459 1.71ZM37.1575 1.6999L37.4695 2.09061L37.4695 2.09061L37.1575 1.6999ZM37.1718 1.68626L36.8028 1.34881L36.7857 1.36759L36.7705 1.38801L37.1718 1.68626ZM37.2588 1.6032L37.5835 1.98344L37.5993 1.96993L37.614 1.95514L37.2588 1.6032ZM37.3176 1.55336L37.0385 1.1385L37.0385 1.13851L37.3176 1.55336ZM37.4056 1.50068L37.6507 1.93645L37.6513 1.93613L37.4056 1.50068ZM37.4258 1.48928L37.6715 1.92473L37.6822 1.91872L37.6925 1.91219L37.4258 1.48928ZM37.4846 1.45606L37.289 0.995784L37.28 0.999841L37.4846 1.45606ZM37.621 1.41096L37.5496 0.916081L37.5239 0.919792L37.4987 0.926155L37.621 1.41096ZM37.6539 1.402L37.8133 1.87593L37.8178 1.87435L37.6539 1.402ZM37.6539 1.40199L37.4945 0.928044L37.49 0.929631L37.6539 1.40199ZM37.6704 1.39673L37.5609 0.908845L37.5463 0.912129L37.5319 0.916284L37.6704 1.39673ZM37.8679 1.37537L37.885 0.875658L37.8764 0.875366H37.8679V1.37537ZM38.0066 1.38011L37.9896 1.87982L37.9981 1.88011H38.0066V1.38011ZM38.7239 1.71474L38.3405 2.03562L38.342 2.03742L38.7239 1.71474ZM43.9871 36.6228L43.501 36.5055L43.3608 37.0867L43.9576 37.122L43.9871 36.6228ZM59.6305 43.2773L60.116 43.1571L60.1133 43.1473L59.6305 43.2773ZM59.6352 43.3082L60.1295 43.2328L60.1261 43.2102L60.1206 43.1881L59.6352 43.3082ZM59.6493 43.4007L60.1444 43.3306L60.1436 43.3254L59.6493 43.4007ZM59.6591 43.5073L59.161 43.5526L59.1623 43.5636L59.6591 43.5073ZM59.6599 43.5147L59.1631 43.5709L59.1637 43.576L59.6599 43.5147ZM59.6608 43.5223L60.1589 43.4789L60.1588 43.4786L59.6608 43.5223ZM59.6604 43.5473L59.1617 43.511L59.1617 43.5111L59.6604 43.5473ZM59.6571 43.5778L59.161 43.5156L59.1609 43.5159L59.6571 43.5778ZM59.6564 43.5835L59.1602 43.5215L59.1586 43.5348L59.1576 43.5482L59.6564 43.5835ZM59.6561 43.5869L59.1574 43.5516L59.1574 43.5517L59.6561 43.5869ZM59.6446 43.6855L59.1555 43.5817L59.1532 43.5928L59.1513 43.6041L59.6446 43.6855ZM59.6406 43.7071L60.1308 43.8059L60.1308 43.8058L59.6406 43.7071ZM59.6368 43.7253L59.1489 43.6159L59.1489 43.616L59.6368 43.7253ZM59.6258 43.771L60.1055 43.912L60.1085 43.9017L60.1111 43.8913L59.6258 43.771ZM59.621 43.7875L59.1412 43.6464L59.1399 43.6513L59.621 43.7875ZM59.6177 43.7991L59.1366 43.6629L59.1364 43.6636L59.6177 43.7991ZM41.2398 39.5466V40.0466H41.6107L41.7183 39.6916L41.2398 39.5466ZM38.8081 39.5466H38.3081V40.0466H38.8081V39.5466ZM38.8081 5.22964L39.2404 4.97839L38.3081 3.3744V5.22964H38.8081ZM36.9267 39.5466V40.0466H37.4267V39.5466H36.9267ZM36.9267 5.47874H37.4267V3.57827L36.4915 5.23268L36.9267 5.47874ZM34.6338 39.5466L34.1553 39.6916L34.2629 40.0466H34.6338V39.5466ZM56.6038 44.4046L57.0814 44.5527L57.3126 43.8072L56.5387 43.9088L56.6038 44.4046ZM56.599 44.42L57.0765 44.5683L57.0766 44.5682L56.599 44.42ZM56.6031 44.4047L56.1255 44.2564L55.8941 45.0021L56.6682 44.9004L56.6031 44.4047ZM57.365 43.0543L57.6966 43.4285L58.0489 43.1163L57.7586 42.7458L57.365 43.0543ZM43.5018 38.5L43.5278 38.0007L43.1263 37.9798L43.0197 38.3674L43.5018 38.5ZM42.8269 40.7878L43.3036 40.9387L43.3036 40.9385L42.8269 40.7878ZM33.0439 40.7878L32.5668 40.9371L32.5672 40.9386L33.0439 40.7878ZM32.416 38.6566L32.8976 38.5223L32.7853 38.1193L32.3687 38.1589L32.416 38.6566ZM22.5528 42.0527L22.245 41.6586L22.0839 41.7845L22.0571 41.9872L22.5528 42.0527ZM22.5314 42.2192L23.0275 42.2819V42.2819L22.5314 42.2192ZM22.4963 42.487L22.0011 42.418L22.0007 42.4214L22.4963 42.487ZM22.2917 44.8175L21.7924 44.8423L21.8334 45.6715L22.5472 45.2474L22.2917 44.8175ZM22.9197 44.1222L22.5179 43.8245L22.5166 43.8263L22.9197 44.1222ZM22.923 44.1176L22.5214 43.8199L22.5213 43.82L22.923 44.1176ZM27.8573 44.1176L27.4556 44.4154L27.4557 44.4155L27.8573 44.1176ZM27.8607 44.1222L28.2631 43.8254L28.2623 43.8243L27.8607 44.1222ZM29.7844 44.1222L30.1861 44.4199L30.1862 44.4198L29.7844 44.1222ZM29.7878 44.1176L29.3861 43.8199L29.3861 43.82L29.7878 44.1176ZM34.722 44.1176L34.3204 44.4154L34.3204 44.4155L34.722 44.1176ZM34.7254 44.1222L35.1271 43.8244L35.127 43.8243L34.7254 44.1222ZM36.6492 44.1222L37.0509 44.4199L37.0515 44.419L36.6492 44.1222ZM41.5845 44.1176L41.9863 43.82L41.9861 43.8198L41.5845 44.1176ZM41.5879 44.1222L41.9901 43.8252L41.9897 43.8246L41.5879 44.1222ZM43.514 44.1246L43.1123 43.8268L43.1123 43.8269L43.514 44.1246ZM43.5173 44.1201L43.1157 43.8223L43.1157 43.8223L43.5173 44.1201ZM48.4516 44.12L48.0499 44.4178L48.05 44.4179L48.4516 44.12ZM48.455 44.1246L48.8574 43.8278L48.8566 43.8268L48.455 44.1246ZM50.3811 44.1222L50.7833 44.4192L50.7834 44.419L50.3811 44.1222ZM55.3187 44.1176L54.9171 44.4154L54.9171 44.4155L55.3187 44.1176ZM55.3221 44.1222L55.7238 43.8244L55.7237 43.8243L55.3221 44.1222ZM56.4274 44.884L56.6294 45.3414L56.7334 45.2954L56.8073 45.2091L56.4274 44.884ZM60.0022 44.182C60.0328 44.1253 60.0555 44.0689 60.0724 44.018L59.1228 43.7043C59.122 43.7069 59.1213 43.7086 59.121 43.7093C59.1207 43.7101 59.121 43.7091 59.1224 43.7065L60.0022 44.182ZM59.2449 43.5579L59.2445 43.5583L59.8802 44.3302L59.8806 44.3298L59.2449 43.5579ZM59.7854 44.4323C59.9333 44.3328 59.9958 44.196 60.0108 44.1658L59.1147 43.7219C59.1015 43.7486 59.1358 43.6641 59.2272 43.6026L59.7854 44.4323ZM59.8797 44.3569C59.8897 44.3428 59.9092 44.316 59.9293 44.2841L59.0834 43.7508C59.0828 43.7517 59.0815 43.7536 59.079 43.7572C59.0762 43.7613 59.073 43.7658 59.0671 43.7739L59.8797 44.3569ZM59.8677 44.3736C59.8706 44.3695 59.8738 44.3651 59.8796 44.3569L59.0672 43.7739C59.0621 43.781 59.0543 43.7919 59.0461 43.8036L59.8677 44.3736ZM59.769 44.495C59.7999 44.4602 59.8283 44.425 59.8487 44.3992L59.0651 43.778C59.048 43.7996 59.034 43.8167 59.0226 43.8294L59.769 44.495ZM59.6709 44.5913C59.7046 44.5611 59.7333 44.5319 59.7509 44.5141L59.0406 43.8102C59.0206 43.8304 59.0117 43.8392 59.0031 43.847L59.6709 44.5913ZM59.5576 44.6863C59.5988 44.656 59.6458 44.6178 59.6921 44.5711L58.9818 43.8672C58.9817 43.8673 58.9804 43.8686 58.9776 43.871C58.9747 43.8734 58.9709 43.8765 58.9659 43.8801L59.5576 44.6863ZM59.4958 44.7276C59.5112 44.7177 59.5265 44.7077 59.5408 44.6981L58.9827 43.8683C58.9753 43.8733 58.9666 43.879 58.9573 43.885L59.4958 44.7276ZM59.4501 44.756C59.4656 44.7466 59.4812 44.7369 59.4959 44.7275L58.9572 43.885C58.9483 43.8907 58.9398 43.896 58.9322 43.9006L59.4501 44.756ZM59.4113 44.7775C59.4154 44.7752 59.4167 44.7746 59.4164 44.7747L58.9659 43.8819C58.9516 43.8891 58.9391 43.8959 58.9294 43.9012L59.4113 44.7775ZM59.4003 44.7836C59.4053 44.7808 59.4086 44.779 59.4115 44.7774L58.9292 43.9013C58.9226 43.905 58.9163 43.9085 58.9117 43.9111L59.4003 44.7836ZM59.3177 44.8266C59.3548 44.8093 59.3865 44.7913 59.4004 44.7836L58.9116 43.9111C58.9031 43.9159 58.8993 43.918 58.8961 43.9197C58.8935 43.9211 58.8936 43.921 58.8954 43.9202L59.3177 44.8266ZM59.2634 44.8505C59.2821 44.843 59.3058 44.8329 59.3318 44.8198L58.8813 43.927C58.8883 43.9235 58.8924 43.9219 58.8912 43.9224L59.2634 44.8505ZM59.2158 44.8685C59.2256 44.865 59.2442 44.8582 59.2636 44.8505L58.8911 43.9224C58.8889 43.9233 58.8854 43.9246 58.873 43.9291L59.2158 44.8685ZM59.1981 44.8751C59.2017 44.8737 59.2061 44.8721 59.2158 44.8685L58.873 43.9292C58.8647 43.9322 58.8508 43.9372 58.8363 43.9429L59.1981 44.8751ZM59.1999 44.8745C59.2034 44.8729 59.2034 44.8729 59.2028 44.8732C59.202 44.8735 59.1987 44.8749 59.194 44.8767L58.8403 43.9413C58.8199 43.9491 58.8021 43.957 58.7978 43.9588L59.1999 44.8745ZM59.161 44.8906C59.1794 44.8835 59.1955 44.8764 59.1997 44.8746L58.7981 43.9587C58.7948 43.9602 58.7946 43.9602 58.7949 43.9601C58.7955 43.9599 58.7981 43.9588 58.802 43.9573L59.161 44.8906ZM59.0701 44.9183C59.1075 44.9099 59.1383 44.8993 59.1607 44.8907L58.8023 43.9572C58.8116 43.9536 58.8287 43.9475 58.8514 43.9425L59.0701 44.9183ZM58.9478 44.9315C58.9484 44.9315 59.0107 44.9334 59.0832 44.9151L58.8383 43.9456C58.9013 43.9297 58.9553 43.9315 58.9478 43.9315V44.9315ZM58.9465 44.9315H58.9478V43.9315H58.9465V44.9315ZM59.0569 44.9176C58.9997 44.932 58.9533 44.9315 58.948 44.9315L58.9449 43.9315C58.9323 43.9316 58.8784 43.9313 58.8128 43.9479L59.0569 44.9176ZM58.7091 44.9636C58.8379 44.9636 58.9561 44.9439 59.0609 44.9166L58.8088 43.9489C58.7678 43.9596 58.7355 43.9636 58.7091 43.9636V44.9636ZM58.5656 44.4802C58.7676 44.9376 58.7673 44.9377 58.7671 44.9378C58.767 44.9378 58.7668 44.9379 58.7667 44.938C58.7663 44.9381 58.766 44.9383 58.7657 44.9384C58.7651 44.9387 58.7645 44.9389 58.7639 44.9392C58.7627 44.9397 58.7615 44.9403 58.7603 44.9408C58.7579 44.9418 58.7555 44.9427 58.7532 44.9437C58.7486 44.9455 58.7442 44.9472 58.74 44.9488C58.7315 44.9519 58.7239 44.9544 58.7171 44.9564C58.7036 44.9605 58.6936 44.9626 58.6879 44.9637C58.6768 44.9657 58.6821 44.9636 58.7091 44.9636V43.9636C58.6303 43.9636 58.5639 43.9697 58.5074 43.9801C58.4791 43.9853 58.4531 43.9916 58.4292 43.9988C58.4173 44.0024 58.4058 44.0062 58.3949 44.0102C58.3895 44.0122 58.3841 44.0143 58.3789 44.0164C58.3763 44.0174 58.3738 44.0185 58.3712 44.0195C58.3699 44.0201 58.3687 44.0206 58.3674 44.0212C58.3668 44.0214 58.3662 44.0217 58.3656 44.022C58.3652 44.0221 58.3649 44.0222 58.3646 44.0224C58.3645 44.0225 58.3642 44.0226 58.3642 44.0226C58.3639 44.0227 58.3637 44.0228 58.5656 44.4802ZM58.8716 45.0924C58.897 45.0105 58.9265 44.9157 58.9544 44.8357C58.9684 44.7954 58.9796 44.766 58.9874 44.7477C58.9914 44.7385 58.9922 44.7375 58.9898 44.7419C58.9886 44.7443 58.985 44.7508 58.9793 44.7599C58.974 44.7682 58.9629 44.785 58.9455 44.8053L58.1858 44.1551C58.1184 44.2338 58.0795 44.3275 58.0677 44.3552C58.0471 44.4036 58.0274 44.457 58.0102 44.5063C57.9755 44.6056 57.9409 44.7175 57.9165 44.796L58.8716 45.0924ZM58.8667 45.1079L58.8715 45.0926L57.9165 44.7959L57.9118 44.8112L58.8667 45.1079ZM56.2727 47.287C57.205 47.287 57.8279 46.9053 58.2306 46.412C58.6123 45.9446 58.7769 45.3985 58.8669 45.1073L57.9116 44.8119C57.8181 45.1141 57.6994 45.4816 57.4561 45.7795C57.2339 46.0517 56.8902 46.287 56.2727 46.287V47.287ZM53.4051 45.5467C53.8791 46.186 54.6727 47.287 56.2727 47.287V46.287C55.2214 46.287 54.6981 45.6116 54.2084 44.9512L53.4051 45.5467ZM53.4016 45.5419L53.405 45.5465L54.2086 44.9514L54.2052 44.9468L53.4016 45.5419ZM52.8415 44.9635C52.884 44.9635 52.8991 44.9686 52.9036 44.9702C52.9079 44.9717 52.9245 44.9778 52.9596 45.0072C53.047 45.0802 53.1686 45.2248 53.4004 45.5404L54.2063 44.9483C53.9866 44.6492 53.7966 44.4034 53.6007 44.2397C53.3657 44.0434 53.1236 43.9635 52.8415 43.9635V44.9635ZM52.2813 45.5397C52.5148 45.2247 52.6364 45.0803 52.7242 45.0069C52.7594 44.9776 52.7759 44.9715 52.7799 44.9701C52.7841 44.9686 52.799 44.9635 52.8415 44.9635V43.9635C52.5591 43.9635 52.3177 44.0436 52.0833 44.2393C51.8884 44.4021 51.6983 44.6469 51.478 44.9442L52.2813 45.5397ZM52.2779 45.5443L52.2812 45.5398L51.478 44.9441L51.4747 44.9486L52.2779 45.5443ZM49.408 47.2846C51.0101 47.2846 51.8038 46.1838 52.2779 45.5442L51.4746 44.9487C50.9852 45.6089 50.4617 46.2846 49.408 46.2846V47.2846ZM46.5404 45.5443C47.0143 46.1835 47.8079 47.2846 49.408 47.2846V46.2846C48.3567 46.2846 47.8333 45.6092 47.3437 44.9487L46.5404 45.5443ZM46.5371 45.5398L46.5405 45.5444L47.3436 44.9486L47.3402 44.944L46.5371 45.5398ZM45.9767 44.9635C46.0192 44.9635 46.0344 44.9686 46.039 44.9702C46.0435 44.9718 46.0601 44.978 46.0953 45.0073C46.1828 45.0802 46.3044 45.2243 46.5362 45.5387L47.341 44.9451C47.1213 44.6473 46.9312 44.4022 46.7354 44.239C46.5006 44.0434 46.2587 43.9635 45.9767 43.9635V44.9635ZM45.4171 45.5414C45.6501 45.2258 45.7724 45.0807 45.8605 45.0072C45.8959 44.9776 45.9125 44.9714 45.9166 44.9699C45.9207 44.9685 45.9352 44.9635 45.9767 44.9635V43.9635C45.6949 43.9635 45.4536 44.044 45.2193 44.2397C45.024 44.4029 44.8335 44.6482 44.6126 44.9473L45.4171 45.5414ZM42.5455 47.287C44.149 47.287 44.9449 46.1814 45.4172 45.5412L44.6125 44.9475C44.1253 45.6078 43.5994 46.287 42.5455 46.287V47.287ZM39.6756 45.5467C40.1497 46.1863 40.9433 47.287 42.5455 47.287V46.287C41.4917 46.287 40.9683 45.6113 40.4789 44.9511L39.6756 45.5467ZM39.6722 45.5421L39.6756 45.5467L40.4789 44.9511L40.4755 44.9466L39.6722 45.5421ZM39.112 44.966C39.1545 44.966 39.1696 44.971 39.1743 44.9726C39.1787 44.9742 39.1954 44.9804 39.2305 45.0097C39.3181 45.0826 39.4396 45.2267 39.6714 45.5411L40.4762 44.9476C40.2565 44.6497 40.0665 44.4046 39.8706 44.2414C39.6358 44.0458 39.394 43.966 39.112 43.966V44.966ZM38.5518 45.5421C38.7853 45.2271 38.9069 45.0827 38.9947 45.0094C39.0299 44.98 39.0463 44.9739 39.0504 44.9725C39.0546 44.971 39.0695 44.966 39.112 44.966V43.966C38.8296 43.966 38.5882 44.046 38.3538 44.2417C38.1588 44.4045 37.9688 44.6493 37.7484 44.9466L38.5518 45.5421ZM35.6808 47.287C37.2868 47.287 38.0803 46.1811 38.5524 45.5412L37.7477 44.9475C37.2603 45.6081 36.7369 46.287 35.6808 46.287V47.287ZM32.8132 45.5467C33.2871 46.186 34.0807 47.287 35.6808 47.287V46.287C34.6295 46.287 34.1061 45.6116 33.6165 44.9512L32.8132 45.5467ZM32.8098 45.5422L32.8132 45.5468L33.6164 44.9511L33.613 44.9465L32.8098 45.5422ZM32.2495 44.966C32.292 44.966 32.3072 44.971 32.3118 44.9726C32.3163 44.9742 32.333 44.9804 32.3681 45.0097C32.4556 45.0826 32.5772 45.2267 32.809 45.5411L33.6138 44.9476C33.3941 44.6497 33.2041 44.4046 33.0082 44.2414C32.7734 44.0458 32.5315 43.966 32.2495 43.966V44.966ZM31.6899 45.5438C31.9229 45.2282 32.0452 45.0831 32.1333 45.0096C32.1687 44.98 32.1854 44.9738 32.1894 44.9724C32.1936 44.9709 32.208 44.966 32.2495 44.966V43.966C31.9677 43.966 31.7264 44.0465 31.4921 44.2422C31.2968 44.4054 31.1063 44.6507 30.8854 44.9498L31.6899 45.5438ZM28.8183 47.2894C30.4219 47.2894 31.2177 46.1838 31.69 45.5436L30.8853 44.9499C30.3981 45.6103 29.8723 46.2894 28.8183 46.2894V47.2894ZM25.9508 45.5491C26.4247 46.1884 27.2183 47.2894 28.8183 47.2894V46.2894C27.7671 46.2894 27.2437 45.6141 26.7541 44.9536L25.9508 45.5491ZM25.9474 45.5446L25.9508 45.5492L26.754 44.9535L26.7506 44.9489L25.9474 45.5446ZM25.3871 44.9684C25.4296 44.9684 25.4448 44.9734 25.4494 44.9751C25.4538 44.9766 25.4705 44.9828 25.5057 45.0121C25.5932 45.0851 25.7148 45.2292 25.9466 45.5436L26.7514 44.95C26.5317 44.6521 26.3416 44.407 26.1458 44.2439C25.911 44.0482 25.6691 43.9684 25.3871 43.9684V44.9684ZM24.8275 45.5462C25.0605 45.2307 25.1828 45.0855 25.2708 45.012C25.3063 44.9824 25.3229 44.9763 25.327 44.9748C25.3311 44.9733 25.3456 44.9684 25.3871 44.9684V43.9684C25.1052 43.9684 24.8639 44.0489 24.6297 44.2446C24.4343 44.4078 24.2439 44.6531 24.023 44.9522L24.8275 45.5462ZM21.9559 47.2918C23.5594 47.2918 24.3552 46.1863 24.8276 45.5461L24.0229 44.9524C23.5357 45.6127 23.0098 46.2918 21.9559 46.2918V47.2918ZM20.5027 46.6321C20.8702 47.0578 21.3928 47.2918 21.9559 47.2918V46.2918C21.677 46.2918 21.433 46.1794 21.2596 45.9786L20.5027 46.6321ZM20.1315 42.1623C19.9974 43.1717 19.8905 44.0423 19.9068 44.7587C19.9232 45.4791 20.0646 46.1282 20.5038 46.6334L21.2585 45.9773C21.0416 45.7278 20.9207 45.3565 20.9066 44.7359C20.8923 44.1114 20.9864 43.3207 21.1228 42.2939L20.1315 42.1623ZM20.136 42.1279L20.1314 42.1631L21.1229 42.2931L21.1275 42.2578L20.136 42.1279ZM20.329 39.8303C20.3487 40.052 20.3292 40.4272 20.2862 40.8699C20.2443 41.3014 20.1845 41.7582 20.136 42.1279L21.1275 42.2579C21.1757 41.8908 21.2378 41.4175 21.2815 40.9664C21.3242 40.5265 21.354 40.0667 21.3251 39.7418L20.329 39.8303ZM15.7312 46.4936C16.3642 45.2288 17.2923 43.7249 18.2721 42.5011C18.7621 41.8891 19.2562 41.3583 19.724 40.9641C20.2007 40.5624 20.6076 40.3389 20.9238 40.2766L20.7303 39.2955C20.1681 39.4063 19.6047 39.7569 19.0795 40.1995C18.5454 40.6496 18.006 41.2335 17.4915 41.8761C16.4624 43.1616 15.4974 44.7264 14.8369 46.0461L15.7312 46.4936ZM14.4445 47.292C14.9862 47.292 15.4873 46.9859 15.7321 46.4918L14.836 46.0479C14.761 46.1993 14.6084 46.292 14.4445 46.292V47.292ZM14.3255 47.2857C14.3806 47.2926 14.4308 47.292 14.4445 47.292V46.292C14.4395 46.292 14.4368 46.292 14.4344 46.2919C14.4322 46.2919 14.4316 46.2919 14.4321 46.2919C14.4328 46.2919 14.4399 46.2922 14.4506 46.2935L14.3255 47.2857ZM13.0893 46.3358C13.2836 46.8803 13.7842 47.256 14.3596 47.2888L14.4166 46.2904C14.2441 46.2806 14.091 46.1673 14.0312 45.9998L13.0893 46.3358ZM12.997 36.9513C11.9329 38.5968 11.9395 40.8398 12.1917 42.6522C12.4475 44.4907 12.9764 46.0209 13.0896 46.3366L14.0309 45.999C13.9278 45.7114 13.4243 44.2548 13.1821 42.5144C12.9363 40.748 12.9793 38.8202 13.8367 37.4943L12.997 36.9513ZM16.7613 34.8775C15.1357 34.9836 13.8146 35.6894 12.9972 36.951L13.8364 37.4947C14.4583 36.5349 15.47 35.9639 16.8265 35.8754L16.7613 34.8775ZM18.332 34.4738C18.3526 34.423 18.3335 34.5116 18.0481 34.6289C17.7883 34.7356 17.373 34.8372 16.761 34.8775L16.8268 35.8754C17.5106 35.8303 18.0395 35.7135 18.4281 35.5538C18.7912 35.4047 19.1249 35.1788 19.2584 34.8504L18.332 34.4738ZM18.1106 34.1889C18.2128 34.3059 18.2733 34.4104 18.3012 34.4834C18.315 34.5193 18.3172 34.5381 18.3174 34.5405C18.3176 34.5432 18.3148 34.5162 18.332 34.4738L19.2584 34.8504C19.3651 34.5879 19.3085 34.3176 19.2351 34.1258C19.156 33.9193 19.0248 33.7154 18.8636 33.5309L18.1106 34.1889ZM14.5697 33.381C16.1783 32.9398 17.5429 33.5372 18.1101 34.1884L18.8641 33.5315C18.0297 32.5736 16.2618 31.88 14.3052 32.4166L14.5697 33.381ZM8.74422 40.4845C9.1905 38.8419 10.0804 37.2098 11.1578 35.9093C12.2431 34.5993 13.4724 33.6803 14.5691 33.3811L14.3058 32.4164C12.9307 32.7916 11.539 33.8817 10.3877 35.2714C9.22864 36.6705 8.26657 38.4285 7.7792 40.2223L8.74422 40.4845ZM9.27752 44.8333C8.72401 44.26 8.50063 43.491 8.46578 42.6797C8.43093 41.8682 8.58779 41.0626 8.74435 40.484L7.77907 40.2228C7.60873 40.8523 7.42573 41.7685 7.46671 42.7226C7.50769 43.677 7.77581 44.7176 8.55811 45.5279L9.27752 44.8333ZM9.24962 46.8803C9.81628 46.3229 9.83035 45.4093 9.27855 44.8344L8.55708 45.5268C8.72961 45.7066 8.72487 45.9938 8.54838 46.1674L9.24962 46.8803ZM7.20834 46.8523C7.76603 47.4296 8.6768 47.4402 9.24849 46.8814L8.54951 46.1663C8.37335 46.3385 8.09891 46.3349 7.92756 46.1575L7.20834 46.8523ZM5.96364 39.7217C5.18552 42.587 5.56975 45.1566 7.2084 46.8523L7.9275 46.1574C6.61707 44.8014 6.20641 42.6435 6.92869 39.9838L5.96364 39.7217ZM13.8143 30.5846C11.9466 31.0936 10.2324 32.4809 8.87522 34.1564C7.51341 35.8376 6.46873 37.8603 5.96362 39.7218L6.92872 39.9837C7.3947 38.2664 8.3713 36.3672 9.65228 34.7858C10.9379 33.1987 12.488 31.9825 14.0773 31.5494L13.8143 30.5846ZM20.2774 32.2789C19.0424 30.861 16.5759 29.8312 13.8142 30.5846L14.0774 31.5494C16.4659 30.8978 18.5381 31.8046 19.5233 32.9356L20.2774 32.2789ZM20.9978 35.5786C21.4513 34.4744 21.1381 33.2643 20.2769 32.2783L19.5238 32.9362C20.2006 33.7111 20.3483 34.5279 20.0728 35.1987L20.9978 35.5786ZM16.9488 37.772C18.2171 37.6886 19.1289 37.3937 19.7798 36.9835C20.4362 36.5698 20.802 36.0543 20.9977 35.579L20.0729 35.1984C19.9511 35.4944 19.7161 35.8416 19.2466 36.1375C18.7716 36.4369 18.0325 36.6985 16.8832 36.7741L16.9488 37.772ZM15.4141 38.5349C15.7001 38.0942 16.163 37.8238 16.9489 37.772L16.8831 36.7741C15.8676 36.8411 15.0747 37.2209 14.5752 37.9905L15.4141 38.5349ZM15.2349 43.2896C15.0592 42.4436 14.9301 41.5055 14.9379 40.641C14.9458 39.7645 15.0944 39.0289 15.4144 38.5344L14.5749 37.991C14.1024 38.7211 13.9465 39.6835 13.9379 40.632C13.9293 41.5926 14.0717 42.6064 14.2558 43.493L15.2349 43.2896ZM21.212 37.3666C19.7158 37.3195 18.3265 38.2571 17.1868 39.3863C16.03 40.5325 15.0339 41.9723 14.3199 43.1286L15.1708 43.654C15.868 42.5248 16.8157 41.1617 17.8906 40.0967C18.9827 39.0146 20.1134 38.3325 21.1805 38.3661L21.212 37.3666ZM22.6314 38.0562C22.2751 37.6293 21.7669 37.3857 21.2134 37.3666L21.1791 38.366C21.4534 38.3755 21.693 38.4926 21.8636 38.6969L22.6314 38.0562ZM23.1851 39.5522C23.1328 38.9934 22.9834 38.4749 22.6302 38.0548L21.8648 38.6984C22.0384 38.9048 22.1476 39.1979 22.1894 39.6453L23.1851 39.5522ZM31.8791 36.2938C26.8274 36.8084 24.2199 37.9742 22.4096 39.183L22.9649 40.0146C24.6163 38.9119 27.0609 37.7898 31.9805 37.2887L31.8791 36.2938ZM36.7632 1.38822C36.243 2.00695 25.9882 14.6049 31.4441 36.91L32.4155 36.6724C27.0625 14.788 37.127 2.50948 37.5286 2.03177L36.7632 1.38822ZM36.8455 1.30919C36.8436 1.31076 36.8179 1.33066 36.7908 1.35803L37.5011 2.06196C37.4907 2.07239 37.4818 2.08027 37.476 2.08524C37.471 2.08951 37.4668 2.09278 37.4695 2.09061L36.8455 1.30919ZM36.7705 1.38801C36.792 1.35912 36.8129 1.33815 36.8274 1.32487C36.8396 1.3137 36.8504 1.30526 36.8455 1.30919L37.4695 2.09061C37.4699 2.09035 37.4858 2.07786 37.5028 2.0623C37.5221 2.04464 37.5475 2.01894 37.5731 1.98452L36.7705 1.38801ZM36.9341 1.22296C36.8934 1.25773 36.8491 1.29828 36.8028 1.34881L37.5407 2.02372C37.551 2.01254 37.5631 2.00088 37.5835 1.98344L36.9341 1.22296ZM37.0385 1.13851C36.9813 1.17698 36.937 1.21764 36.9036 1.25126L37.614 1.95514C37.6183 1.95078 37.6115 1.95822 37.5967 1.96821L37.0385 1.13851ZM37.1604 1.06491C37.1327 1.08051 37.0866 1.10617 37.0385 1.1385L37.5967 1.96822C37.6064 1.96167 37.6181 1.95481 37.6507 1.93645L37.1604 1.06491ZM37.18 1.05383L37.1599 1.06523L37.6513 1.93613L37.6715 1.92473L37.18 1.05383ZM37.28 0.999841C37.2215 1.02605 37.1738 1.05709 37.159 1.06638L37.6925 1.91219C37.6975 1.90902 37.7003 1.90728 37.7028 1.90575C37.705 1.90436 37.7057 1.90396 37.7055 1.9041C37.705 1.90439 37.699 1.90788 37.6892 1.91227L37.28 0.999841ZM37.4987 0.926155C37.4319 0.942985 37.362 0.964861 37.289 0.995874L37.6801 1.91624C37.6965 1.90928 37.7159 1.90268 37.7433 1.89577L37.4987 0.926155ZM37.4945 0.928097C37.4871 0.93056 37.4921 0.928813 37.4989 0.926846C37.5067 0.924591 37.5249 0.919643 37.5496 0.916081L37.6923 1.90585C37.7563 1.89663 37.8111 1.87666 37.8133 1.8759L37.4945 0.928097ZM37.49 0.929631L37.4899 0.929645L37.8178 1.87435L37.8179 1.87434L37.49 0.929631ZM37.5319 0.916284C37.5141 0.92141 37.4982 0.926842 37.4946 0.928066L37.8133 1.87591C37.8165 1.87484 37.8166 1.87479 37.8164 1.87488C37.8158 1.87505 37.813 1.87596 37.8088 1.87717L37.5319 0.916284ZM37.8679 0.875366C37.7647 0.875366 37.662 0.886171 37.5609 0.908845L37.7798 1.88461C37.8057 1.8788 37.8347 1.87537 37.8679 1.87537V0.875366ZM38.0237 0.880405L37.885 0.875658L37.8508 1.87507L37.9896 1.87982L38.0237 0.880405ZM39.1074 1.39386C38.8331 1.06611 38.4314 0.880112 38.0066 0.880112V1.88011C38.1369 1.88011 38.2573 1.93618 38.3405 2.03562L39.1074 1.39386ZM44.4731 36.7402C49.8316 14.5427 39.6269 2.00877 39.1059 1.39206L38.342 2.03742C38.7428 2.51187 48.7583 14.7272 43.501 36.5055L44.4731 36.7402ZM60.1133 43.1473C60.0531 42.9237 59.5494 41.362 57.2773 39.7579C55.0118 38.1583 51.0188 36.5379 44.0166 36.1237L43.9576 37.122C50.8349 37.5288 54.6307 39.1134 56.7006 40.5748C58.7638 42.0315 59.1421 43.3865 59.1477 43.4074L60.1133 43.1473ZM60.1206 43.1881C60.1255 43.2082 60.1279 43.2238 60.1289 43.2306C60.1294 43.2344 60.1297 43.2372 60.1299 43.2382C60.13 43.2391 60.13 43.2397 60.1299 43.238C60.1297 43.237 60.1294 43.2338 60.129 43.2302C60.1285 43.2265 60.1279 43.2211 60.127 43.2147C60.1253 43.2027 60.122 43.182 60.1159 43.1572L59.1452 43.3975C59.1402 43.3774 59.1378 43.3617 59.1368 43.3549C59.1363 43.3511 59.136 43.3484 59.1358 43.3473C59.1357 43.3464 59.1357 43.3459 59.1359 43.3475C59.136 43.3485 59.1363 43.3518 59.1367 43.3553C59.1372 43.359 59.1378 43.3644 59.1388 43.3708C59.1404 43.3828 59.1437 43.4035 59.1499 43.4283L60.1206 43.1881ZM60.1436 43.3254L60.1295 43.2328L59.1409 43.3835L59.155 43.4761L60.1436 43.3254ZM60.1587 43.5004C60.1587 43.426 60.1482 43.3577 60.1444 43.3307L59.1543 43.4708C59.1555 43.4795 59.1564 43.4856 59.1571 43.4914C59.1579 43.497 59.1583 43.5007 59.1586 43.5034C59.1592 43.5089 59.1587 43.5069 59.1587 43.5004H60.1587ZM60.157 43.4621C60.1577 43.4697 60.1587 43.4832 60.1587 43.5004H59.1587C59.1587 43.5222 59.16 43.5403 59.1611 43.5526L60.157 43.4621ZM60.1567 43.4584L60.1559 43.4511L59.1623 43.5636L59.1631 43.5709L60.1567 43.4584ZM60.1588 43.4786C60.1577 43.4657 60.1563 43.4543 60.1561 43.4533L59.1637 43.576C59.1639 43.5777 59.1638 43.5768 59.1636 43.5755C59.1634 43.5739 59.1631 43.5706 59.1627 43.5661L60.1588 43.4786ZM60.1611 43.5289C60.1611 43.5079 60.1599 43.4904 60.1589 43.4789L59.1627 43.5658C59.162 43.5586 59.1611 43.5455 59.1611 43.5289H60.1611ZM60.1591 43.5835C60.1602 43.5676 60.1611 43.5492 60.1611 43.5289H59.1611C59.1611 43.5212 59.1614 43.515 59.1617 43.511L60.1591 43.5835ZM60.1532 43.64C60.1542 43.6317 60.1572 43.6088 60.1591 43.5835L59.1617 43.5111C59.1619 43.5077 59.1622 43.5059 59.1621 43.5067C59.1619 43.5079 59.1617 43.5097 59.161 43.5156L60.1532 43.64ZM60.1525 43.6454L60.1532 43.6397L59.1609 43.5159L59.1602 43.5215L60.1525 43.6454ZM60.1549 43.6222L60.1551 43.6188L59.1576 43.5482L59.1574 43.5516L60.1549 43.6222ZM60.1337 43.7894C60.149 43.7174 60.1531 43.6478 60.1549 43.6221L59.1574 43.5517C59.1568 43.56 59.1564 43.5661 59.1559 43.5719C59.1555 43.5774 59.1551 43.5813 59.1548 43.5841C59.1542 43.5903 59.1541 43.5884 59.1555 43.5817L60.1337 43.7894ZM60.1308 43.8058C60.1332 43.7939 60.1356 43.7809 60.1379 43.767L59.1513 43.6041C59.1512 43.6045 59.151 43.6059 59.1505 43.6085L60.1308 43.8058ZM60.1246 43.8347C60.1267 43.8257 60.1287 43.8161 60.1308 43.8059L59.1505 43.6084C59.1501 43.6103 59.1496 43.6128 59.1489 43.6159L60.1246 43.8347ZM60.1111 43.8913C60.1147 43.8769 60.1198 43.8563 60.1247 43.8347L59.1489 43.616C59.1469 43.6248 59.1445 43.6346 59.1405 43.6507L60.1111 43.8913ZM60.1007 43.9285L60.1055 43.912L59.1461 43.6299L59.1413 43.6464L60.1007 43.9285ZM60.0988 43.9353L60.1021 43.9237L59.1399 43.6513L59.1366 43.6629L60.0988 43.9353ZM60.0597 44.052C60.081 44.0004 60.0944 43.9508 60.0989 43.9346L59.1364 43.6636C59.1348 43.6692 59.1338 43.6727 59.1329 43.676C59.132 43.6791 59.1315 43.6807 59.1313 43.6813C59.1308 43.6829 59.1321 43.6783 59.1354 43.6703L60.0597 44.052ZM41.2398 39.0466H38.8081V40.0466H41.2398V39.0466ZM38.3758 5.4809C41.0722 10.1199 46.0673 21.8904 40.7613 39.4016L41.7183 39.6916C47.1225 21.8567 42.0424 9.79917 39.2404 4.97839L38.3758 5.4809ZM39.3081 39.5466V5.22964H38.3081V39.5466H39.3081ZM37.4267 39.5466V5.47874H36.4267V39.5466H37.4267ZM34.6338 40.0466H36.9267V39.0466H34.6338V40.0466ZM36.4915 5.23268C33.6698 10.2239 28.8557 22.2035 34.1553 39.6916L35.1123 39.4016C29.909 22.2313 34.6429 10.5346 37.362 5.7248L36.4915 5.23268ZM56.1263 44.2564L56.1215 44.2719L57.0766 44.5682L57.0814 44.5527L56.1263 44.2564ZM56.6682 44.9004L56.6689 44.9003L56.5387 43.9088L56.538 43.9089L56.6682 44.9004ZM57.0334 42.6801C56.454 43.1935 56.2342 43.9063 56.1255 44.2564L57.0806 44.5529C57.193 44.191 57.3494 43.7362 57.6966 43.4285L57.0334 42.6801ZM43.4758 38.9993C52.9292 39.491 56.051 42.1882 56.9715 43.3627L57.7586 42.7458C56.5959 41.2623 53.1471 38.501 43.5278 38.0007L43.4758 38.9993ZM43.3036 40.9385C43.5502 40.1583 43.7754 39.3905 43.9839 38.6326L43.0197 38.3674C42.8143 39.1142 42.5926 39.8699 42.3501 40.6371L43.3036 40.9385ZM41.9308 41.9499C42.5618 41.9499 43.1142 41.5368 43.3036 40.9387L42.3502 40.6369C42.2901 40.8266 42.1183 40.9499 41.9308 40.9499V41.9499ZM33.94 41.9499H41.9308V40.9499H33.94V41.9499ZM32.5672 40.9386C32.7565 41.5369 33.309 41.9499 33.94 41.9499V40.9499C33.7525 40.9499 33.5806 40.8266 33.5207 40.637L32.5672 40.9386ZM31.9344 38.7909C32.1306 39.4948 32.3391 40.2096 32.5668 40.9371L33.5211 40.6385C33.2972 39.923 33.0918 39.2186 32.8976 38.5223L31.9344 38.7909ZM22.8605 42.4468C23.6731 41.8122 24.5853 41.139 26.0265 40.5486C27.4733 39.9559 29.4754 39.4382 32.4633 39.1544L32.3687 38.1589C29.3102 38.4494 27.2073 38.9842 25.6474 39.6232C24.0819 40.2645 23.0857 41.0021 22.245 41.6586L22.8605 42.4468ZM23.0275 42.2819C23.0345 42.226 23.0413 42.1722 23.0485 42.1182L22.0571 41.9872C22.0495 42.0444 22.0424 42.101 22.0354 42.1564L23.0275 42.2819ZM22.9916 42.556C23.005 42.4598 23.0165 42.3686 23.0275 42.2819L22.0354 42.1564C22.0243 42.2439 22.0135 42.329 22.0011 42.418L22.9916 42.556ZM22.7911 44.7928C22.7657 44.2803 22.8972 43.269 22.992 42.5526L22.0007 42.4214C21.912 43.091 21.7613 44.2156 21.7924 44.8423L22.7911 44.7928ZM22.5166 43.8263C22.219 44.2318 22.1039 44.3475 22.0363 44.3877L22.5472 45.2474C22.823 45.0835 23.0559 44.7815 23.3227 44.418L22.5166 43.8263ZM22.5213 43.82L22.5179 43.8245L23.3214 44.4198L23.3248 44.4153L22.5213 43.82ZM25.3913 42.0795C23.7892 42.0795 22.9955 43.1803 22.5214 43.8199L23.3247 44.4154C23.8141 43.7552 24.3376 43.0795 25.3913 43.0795V42.0795ZM28.2589 43.8198C27.785 43.1806 26.9914 42.0795 25.3913 42.0795V43.0795C26.4426 43.0795 26.966 43.7549 27.4556 44.4154L28.2589 43.8198ZM28.2623 43.8243L28.2589 43.8197L27.4557 44.4155L27.4591 44.42L28.2623 43.8243ZM28.8226 44.4006C28.7801 44.4006 28.7649 44.3955 28.7603 44.3939C28.7558 44.3923 28.7392 44.3861 28.704 44.3568C28.6165 44.2839 28.4949 44.1398 28.2631 43.8254L27.4583 44.419C27.678 44.7168 27.868 44.9619 28.0639 45.1251C28.2987 45.3207 28.5406 45.4006 28.8226 45.4006V44.4006ZM29.3828 43.8244C29.1492 44.1394 29.0277 44.2838 28.9398 44.3572C28.9047 44.3865 28.8882 44.3926 28.8841 44.394C28.8799 44.3955 28.8651 44.4006 28.8226 44.4006V45.4006C29.1049 45.4006 29.3463 45.3205 29.5807 45.1248C29.7757 44.962 29.9657 44.7172 30.1861 44.4199L29.3828 43.8244ZM29.3861 43.82L29.3827 43.8245L30.1862 44.4198L30.1895 44.4153L29.3861 43.82ZM32.2561 42.0795C30.6539 42.0795 29.8603 43.1803 29.3861 43.8199L30.1894 44.4154C30.6789 43.7552 31.2024 43.0795 32.2561 43.0795V42.0795ZM35.1237 43.8198C34.6498 43.1806 33.8561 42.0795 32.2561 42.0795V43.0795C33.3074 43.0795 33.8307 43.7549 34.3204 44.4154L35.1237 43.8198ZM35.127 43.8243L35.1236 43.8197L34.3204 44.4155L34.3238 44.42L35.127 43.8243ZM35.6873 44.4006C35.6458 44.4006 35.6312 44.3956 35.627 44.3941C35.6228 44.3926 35.606 44.3864 35.5706 44.3568C35.4825 44.2835 35.3602 44.1388 35.1271 43.8244L34.3238 44.42C34.5446 44.7178 34.7351 44.9624 34.9304 45.1251C35.1645 45.3202 35.4056 45.4006 35.6873 45.4006V44.4006ZM36.2475 43.8244C36.014 44.1394 35.8924 44.2838 35.8046 44.3572C35.7694 44.3865 35.753 44.3926 35.7489 44.394C35.7447 44.3955 35.7298 44.4006 35.6873 44.4006V45.4006C35.9697 45.4006 36.2111 45.3205 36.4455 45.1248C36.6405 44.962 36.8305 44.7172 37.0509 44.4199L36.2475 43.8244ZM39.1185 42.0795C37.5125 42.0795 36.719 43.1854 36.2469 43.8253L37.0515 44.419C37.539 43.7584 38.0624 43.0795 39.1185 43.0795V42.0795ZM41.9861 43.8198C41.5122 43.1806 40.7186 42.0795 39.1185 42.0795V43.0795C40.1698 43.0795 40.6931 43.7549 41.1828 44.4154L41.9861 43.8198ZM41.9897 43.8246L41.9863 43.82L41.1827 44.4152L41.1861 44.4198L41.9897 43.8246ZM42.5521 44.403C42.5096 44.403 42.4945 44.398 42.4899 44.3963C42.4855 44.3948 42.4687 44.3885 42.4334 44.3591C42.3454 44.2857 42.2232 44.1408 41.9901 43.8252L41.1856 44.4192C41.4065 44.7182 41.5971 44.9638 41.793 45.1272C42.028 45.3231 42.2699 45.403 42.5521 45.403V44.403ZM43.1123 43.8269C42.8788 44.1419 42.7572 44.2863 42.6694 44.3596C42.6342 44.389 42.6177 44.395 42.6137 44.3965C42.6095 44.398 42.5946 44.403 42.5521 44.403V45.403C42.8345 45.403 43.0759 45.3229 43.3103 45.1272C43.5052 44.9644 43.6953 44.7196 43.9156 44.4224L43.1123 43.8269ZM43.1157 43.8223L43.1123 43.8268L43.9156 44.4224L43.919 44.4179L43.1157 43.8223ZM45.9857 42.082C44.3835 42.082 43.5898 43.1827 43.1157 43.8223L43.919 44.4179C44.4085 43.7577 44.9319 43.082 45.9857 43.082V42.082ZM48.8532 43.8222C48.3793 43.183 47.5857 42.082 45.9857 42.082V43.082C47.0369 43.082 47.5603 43.7573 48.0499 44.4178L48.8532 43.8222ZM48.8566 43.8268L48.8532 43.8222L48.05 44.4179L48.0534 44.4225L48.8566 43.8268ZM49.4169 44.403C49.3744 44.403 49.3592 44.398 49.3546 44.3963C49.3502 44.3947 49.3335 44.3885 49.2983 44.3593C49.2108 44.2863 49.0892 44.1422 48.8574 43.8278L48.0526 44.4214C48.2723 44.7193 48.4624 44.9644 48.6582 45.1275C48.893 45.3232 49.1349 45.403 49.4169 45.403V44.403ZM49.9789 43.8252C49.7458 44.1408 49.6236 44.2857 49.5356 44.359C49.5002 44.3885 49.4835 44.3948 49.479 44.3963C49.4745 44.398 49.4594 44.403 49.4169 44.403V45.403C49.6991 45.403 49.9409 45.323 50.1759 45.1271C50.3719 44.9638 50.5625 44.7182 50.7833 44.4192L49.9789 43.8252ZM52.8504 42.0795C51.2469 42.0795 50.4511 43.1851 49.9788 43.8253L50.7834 44.419C51.2706 43.7587 51.7965 43.0795 52.8504 43.0795V42.0795ZM55.7204 43.8198C55.2462 43.1803 54.4526 42.0795 52.8504 42.0795V43.0795C53.9042 43.0795 54.4276 43.7552 54.9171 44.4154L55.7204 43.8198ZM55.7237 43.8243L55.7203 43.8197L54.9171 44.4155L54.9205 44.42L55.7237 43.8243ZM56.284 44.4006C56.2425 44.4006 56.2279 44.3956 56.2236 44.3941C56.2194 44.3926 56.2027 44.3864 56.1672 44.3568C56.0792 44.2835 55.9569 44.1388 55.7238 43.8244L54.9204 44.42C55.1413 44.7178 55.3318 44.9624 55.5271 45.1251C55.7612 45.3202 56.0022 45.4006 56.284 45.4006V44.4006ZM56.4274 44.884C56.2255 44.4266 56.2257 44.4265 56.2259 44.4264C56.226 44.4263 56.2262 44.4262 56.2264 44.4262C56.2267 44.426 56.227 44.4259 56.2273 44.4258C56.2279 44.4255 56.2285 44.4252 56.2292 44.425C56.2304 44.4244 56.2316 44.4239 56.2328 44.4234C56.2352 44.4224 56.2375 44.4214 56.2398 44.4205C56.2444 44.4186 56.2488 44.4169 56.2531 44.4154C56.2615 44.4123 56.2692 44.4098 56.276 44.4077C56.2895 44.4037 56.2995 44.4015 56.3052 44.4005C56.3163 44.3984 56.311 44.4006 56.284 44.4006V45.4006C56.3628 45.4006 56.4292 45.3944 56.4856 45.3841C56.5139 45.3789 56.54 45.3726 56.5639 45.3654C56.5758 45.3618 56.5872 45.358 56.5982 45.354C56.6036 45.352 56.609 45.3499 56.6142 45.3478C56.6168 45.3467 56.6193 45.3457 56.6219 45.3446C56.6231 45.3441 56.6244 45.3435 56.6257 45.343C56.6263 45.3427 56.6269 45.3424 56.6275 45.3422C56.6278 45.342 56.6282 45.3419 56.6285 45.3418C56.6286 45.3417 56.6289 45.3416 56.6289 45.3416C56.6292 45.3415 56.6294 45.3414 56.4274 44.884ZM56.1215 44.2718C56.0961 44.3537 56.0666 44.4485 56.0387 44.5285C56.0246 44.5688 56.0134 44.5981 56.0056 44.6165C56.0017 44.6257 56.0009 44.6267 56.0032 44.6223C56.0045 44.6198 56.008 44.6133 56.0138 44.6042C56.0191 44.5959 56.0302 44.5791 56.0476 44.5589L56.8073 45.2091C56.8746 45.1304 56.9135 45.0367 56.9254 45.0089C56.946 44.9606 56.9657 44.9072 56.9829 44.8579C57.0175 44.7586 57.0522 44.6467 57.0765 44.5683L56.1215 44.2718Z" fill="#222532"/>
<path d="M7.28833 31.1358C7.16839 30.991 6.0772 29.7308 4.68029 29.7308C4.03358 29.7308 3.10932 29.999 2.38266 31.2735L1.57129 32.6974H8.59108L7.28833 31.1358Z" fill="white" stroke="#222532"/>
<path fill-rule="evenodd" clip-rule="evenodd" d="M5.46384 34.5745L6.43042 34.6766L6.30817 35.6496C5.95302 38.2791 3.20622 41.0535 3.08864 41.1721L1.81634 42.4442L1.50121 40.6643C1.12728 38.5711 1.39302 36.962 2.28904 35.8822C3.54249 34.3704 5.46384 34.5745 5.46384 34.5745ZM3.73533 37.0997C3.56835 37.299 3.44371 37.553 3.3567 37.852L3.35671 37.852C3.5566 37.5506 3.74944 37.235 3.91406 36.9169C3.85291 36.9715 3.79177 37.0309 3.73533 37.0997Z" fill="white"/>
<path d="M6.43042 34.6766L6.92652 34.7389L6.9901 34.2329L6.48292 34.1793L6.43042 34.6766ZM5.46384 34.5745L5.41103 35.0717L5.41135 35.0718L5.46384 34.5745ZM6.30817 35.6496L6.80369 35.7165L6.80427 35.7119L6.30817 35.6496ZM3.08864 41.1721L3.44216 41.5257L3.4438 41.5241L3.08864 41.1721ZM1.81634 42.4442L1.324 42.5314L1.49129 43.4763L2.16987 42.7978L1.81634 42.4442ZM1.50121 40.6643L1.99355 40.5771L1.99342 40.5763L1.50121 40.6643ZM2.28904 35.8822L2.67382 36.2015L2.67394 36.2013L2.28904 35.8822ZM3.3567 37.852L2.87661 37.7123L2.82251 37.8982L2.90774 38.0721L3.3567 37.852ZM3.73533 37.0997L4.11866 37.4207L4.12195 37.4167L3.73533 37.0997ZM3.35671 37.852L2.90775 38.0721L3.29151 38.855L3.77339 38.1284L3.35671 37.852ZM3.91406 36.9169L4.3581 37.1468L3.58111 36.5439L3.91406 36.9169ZM6.48292 34.1793L5.51634 34.0773L5.41135 35.0718L6.37792 35.1738L6.48292 34.1793ZM6.80427 35.7119L6.92652 34.7389L5.93432 34.6143L5.81207 35.5873L6.80427 35.7119ZM3.4438 41.5241C3.51087 41.4564 4.24753 40.712 5.01526 39.6444C5.77355 38.5899 6.60918 37.1565 6.80367 35.7165L5.81267 35.5827C5.65201 36.7722 4.93667 38.0408 4.20338 39.0605C3.47952 40.0671 2.78398 40.7692 2.73347 40.8202L3.4438 41.5241ZM2.16987 42.7978L3.44216 41.5257L2.73511 40.8185L1.46282 42.0906L2.16987 42.7978ZM1.00887 40.7514L1.324 42.5314L2.30869 42.357L1.99355 40.5771L1.00887 40.7514ZM1.90426 35.5629C0.874425 36.8039 0.622631 38.5893 1.009 40.7522L1.99342 40.5763C1.63193 38.5528 1.91162 37.12 2.67382 36.2015L1.90426 35.5629ZM5.46384 34.5745C5.51666 34.0773 5.51645 34.0773 5.51623 34.0773C5.51614 34.0773 5.51591 34.0773 5.51575 34.0772C5.51541 34.0772 5.51505 34.0772 5.51466 34.0771C5.51387 34.077 5.51296 34.0769 5.51194 34.0768C5.50989 34.0766 5.50736 34.0764 5.50438 34.0761C5.49841 34.0756 5.49058 34.0749 5.48099 34.0741C5.4618 34.0726 5.43549 34.0709 5.40271 34.0693C5.3372 34.0662 5.24549 34.0639 5.13282 34.0664C4.90812 34.0714 4.59631 34.0958 4.24067 34.1728C3.5301 34.3266 2.62262 34.6965 1.90414 35.563L2.67394 36.2013C3.20891 35.5561 3.88883 35.2721 4.4523 35.1501C4.73368 35.0892 4.98055 35.0701 5.15528 35.0661C5.24232 35.0642 5.3105 35.066 5.35496 35.0681C5.37717 35.0692 5.39336 35.0703 5.40293 35.0711C5.40771 35.0715 5.41083 35.0717 5.41221 35.0719C5.4129 35.0719 5.41315 35.072 5.41296 35.0719C5.41286 35.0719 5.41265 35.0719 5.41233 35.0719C5.41217 35.0719 5.41198 35.0718 5.41176 35.0718C5.41165 35.0718 5.41147 35.0718 5.41142 35.0718C5.41122 35.0718 5.41103 35.0717 5.46384 34.5745ZM3.83679 37.9917C3.9098 37.7408 4.00697 37.5541 4.11864 37.4207L3.35202 36.7786C3.12973 37.044 2.97763 37.3652 2.87661 37.7123L3.83679 37.9917ZM3.80567 37.6319L3.80566 37.6319L2.90774 38.0721L2.90775 38.0721L3.80567 37.6319ZM3.47003 36.6871C3.31612 36.9844 3.13341 37.2841 2.94002 37.5757L3.77339 38.1284C3.97979 37.8172 4.18277 37.4855 4.3581 37.1468L3.47003 36.6871ZM4.12195 37.4167C4.15577 37.3755 4.19615 37.3354 4.24702 37.29L3.58111 36.5439C3.50967 36.6077 3.42777 36.6862 3.34871 36.7826L4.12195 37.4167Z" fill="#222532"/>
<path fill-rule="evenodd" clip-rule="evenodd" d="M12.7066 29.2913C12.7066 30.2833 11.9046 31.0902 10.9216 31.0902C9.93861 31.0902 9.13904 30.2833 9.13904 29.2913C9.13904 28.2993 9.93861 27.4924 10.9216 27.4924C11.907 27.4924 12.7066 28.2993 12.7066 29.2913ZM11.0204 29.2913C11.0204 29.2367 10.9757 29.1916 10.9216 29.1916C10.8675 29.1916 10.8252 29.2367 10.8252 29.2913C10.8252 29.4005 11.0204 29.4005 11.0204 29.2913Z" fill="white"/>
<path d="M10.9216 31.5902C12.1842 31.5902 13.2066 30.556 13.2066 29.2913H12.2066C12.2066 30.0106 11.6251 30.5902 10.9216 30.5902V31.5902ZM8.63904 29.2913C8.63904 30.5552 9.65818 31.5902 10.9216 31.5902V30.5902C10.219 30.5902 9.63904 30.0115 9.63904 29.2913H8.63904ZM10.9216 26.9924C9.65818 26.9924 8.63904 28.0275 8.63904 29.2913H9.63904C9.63904 28.5712 10.219 27.9924 10.9216 27.9924V26.9924ZM13.2066 29.2913C13.2066 28.0271 12.187 26.9924 10.9216 26.9924V27.9924C11.627 27.9924 12.2066 28.5716 12.2066 29.2913H13.2066ZM10.9216 29.6916C10.6953 29.6916 10.5204 29.5086 10.5204 29.2913H11.5204C11.5204 28.9649 11.2561 28.6916 10.9216 28.6916V29.6916ZM11.3252 29.2913C11.3252 29.4927 11.1634 29.6916 10.9216 29.6916V28.6916C10.5716 28.6916 10.3252 28.9808 10.3252 29.2913H11.3252ZM10.5204 29.2913C10.5204 29.1492 10.5923 29.0255 10.691 28.9519C10.7754 28.8889 10.8619 28.8732 10.9228 28.8732C10.9837 28.8732 11.0702 28.8889 11.1546 28.9519C11.2533 29.0255 11.3252 29.1492 11.3252 29.2913H10.3252C10.3252 29.488 10.4215 29.6526 10.5568 29.7535C10.6778 29.8438 10.8131 29.8732 10.9228 29.8732C11.0325 29.8732 11.1678 29.8438 11.2888 29.7535C11.4241 29.6526 11.5204 29.488 11.5204 29.2913H10.5204Z" fill="#222532"/>
</svg>
