<svg width="149" height="350" viewBox="0 0 149 350" fill="none" xmlns="http://www.w3.org/2000/svg">
<g opacity="0.03">
<path fill-rule="evenodd" clip-rule="evenodd" d="M147.191 0.0336914C180.607 0.0336914 213.051 11.3083 238.631 31.7831V31.7823C272.047 58.5118 291.701 96.5177 294.078 138.773C296.355 180.49 280.752 221.306 251.288 250.748L153.617 347.066C149.833 350.813 143.271 350.78 139.487 347.033L43.196 250.817C13.6649 221.309 -1.97137 180.46 0.338888 138.773C2.68232 96.5202 22.37 58.5144 55.7515 31.7831C81.2986 11.3083 113.777 0.0336914 147.191 0.0336914ZM81.5669 146.908C81.5669 183.073 110.997 212.481 147.191 212.481C183.385 212.481 212.85 183.074 212.816 146.908C212.816 110.743 183.386 81.335 147.191 81.335C110.998 81.335 81.5669 110.742 81.5669 146.908Z" fill="white"/>
<path d="M147.191 114.946C129.546 114.946 115.216 129.266 115.216 146.897C115.216 164.528 129.546 178.848 147.191 178.848C164.837 178.848 179.167 164.528 179.167 146.897C179.167 129.266 164.837 114.946 147.191 114.946Z" fill="white"/>
</g>
</svg>
