<svg width="19" height="25" viewBox="0 0 19 25" fill="none" xmlns="http://www.w3.org/2000/svg">
<path d="M5.24803 15.7439C3.75973 15.7439 2.54883 14.5329 2.54883 13.0447C2.54883 12.7283 2.80664 12.4705 3.12303 12.4705C3.43943 12.4705 3.69723 12.7283 3.69723 13.0447C3.69723 13.9001 4.39448 14.5974 5.24998 14.5974C6.10548 14.5974 6.80273 13.9002 6.80273 13.0447C6.80273 12.7283 7.06054 12.4705 7.37693 12.4705C7.69333 12.4705 7.95113 12.7283 7.95113 13.0447C7.94722 14.533 6.73628 15.7439 5.24803 15.7439Z" fill="#4AF6CD" stroke="#4AF6CD" stroke-width="0.5"/>
<path d="M9.50004 15.7439C8.01174 15.7439 6.80084 14.5329 6.80084 13.0447C6.80084 12.7283 7.05866 12.4705 7.37504 12.4705C7.69143 12.4705 7.94924 12.7283 7.94924 13.0447C7.94924 13.9001 8.64649 14.5974 9.50199 14.5974C10.3574 14.5974 11.0547 13.9002 11.0547 13.0447C11.0547 12.7283 11.3126 12.4705 11.6289 12.4705C11.9453 12.4705 12.2031 12.7283 12.2031 13.0447C12.1992 14.533 10.9883 15.7439 9.50004 15.7439Z" fill="#4AF6CD" stroke="#4AF6CD" stroke-width="0.5"/>
<path d="M13.752 15.7439C12.2637 15.7439 11.0528 14.5329 11.0528 13.0447C11.0528 12.7283 11.3106 12.4705 11.627 12.4705C11.9434 12.4705 12.2012 12.7283 12.2012 13.0447C12.2012 13.9001 12.8984 14.5974 13.7539 14.5974C14.6094 14.5974 15.3067 13.9002 15.3067 13.0447C15.3067 12.7283 15.5645 12.4705 15.8809 12.4705C16.1973 12.4705 16.4551 12.7283 16.4551 13.0447C16.4512 14.533 15.2402 15.7439 13.752 15.7439Z" fill="#4AF6CD" stroke="#4AF6CD" stroke-width="0.5"/>
<path fill-rule="evenodd" clip-rule="evenodd" d="M0.421997 15.0685C0.421997 20.0742 4.494 24.1465 9.5 24.1465L9.50025 24.1466C14.506 24.1466 18.5783 20.0746 18.5802 15.0686C18.5802 8.23659 10.2367 0.795042 9.88125 0.480587C9.67225 0.295042 9.35779 0.289182 9.141 0.464962C8.7835 0.751962 0.421997 7.59196 0.421997 15.0685ZM9.48411 1.67769C9.4842 1.67761 9.48429 1.67754 9.48437 1.67746H9.48387C9.48395 1.67754 9.48403 1.67761 9.48411 1.67769ZM9.48411 1.67769C7.86455 3.09799 1.56837 9.00179 1.56837 15.068C1.56837 19.441 5.12502 22.9975 9.49787 22.9975C13.8707 22.9975 17.4274 19.4408 17.4274 15.068C17.4293 9.52524 11.09 3.1916 9.48411 1.67769Z" fill="#4AF6CD"/>
<path d="M9.5 24.1465L9.61248 23.9232L9.55942 23.8965H9.5V24.1465ZM9.50025 24.1466L9.38776 24.3699L9.44083 24.3966H9.50025V24.1466ZM18.5802 15.0686L18.8302 15.0687V15.0686H18.5802ZM9.88125 0.480587L9.71527 0.667543L9.7156 0.667836L9.88125 0.480587ZM9.141 0.464962L9.2975 0.659916L9.29845 0.659151L9.141 0.464962ZM9.48437 1.67746L9.6487 1.86586L10.1513 1.42746H9.48437V1.67746ZM9.48387 1.67746V1.42746H8.85531L9.31217 1.85917L9.48387 1.67746ZM17.4274 15.068L17.1774 15.0679V15.068H17.4274ZM9.5 23.8965C4.63207 23.8965 0.671997 19.9361 0.671997 15.0685H0.171997C0.171997 20.2123 4.35592 24.3965 9.5 24.3965V23.8965ZM9.61273 23.9233L9.61248 23.9232L9.38751 24.3697L9.38776 24.3699L9.61273 23.9233ZM18.3302 15.0685C18.3283 19.9365 14.368 23.8966 9.50025 23.8966V24.3966C14.6441 24.3966 18.8282 20.2127 18.8302 15.0687L18.3302 15.0685ZM9.7156 0.667836C9.8881 0.820431 12.0498 2.74757 14.1663 5.48348C16.2911 8.23003 18.3302 11.7411 18.3302 15.0686H18.8302C18.8302 11.5641 16.6976 7.93837 14.5618 5.17754C12.4177 2.40606 10.2299 0.455199 10.0469 0.293338L9.7156 0.667836ZM9.29845 0.659151C9.42087 0.559889 9.59843 0.563816 9.71527 0.667543L10.0472 0.293632C9.74606 0.0262691 9.29471 0.0184753 8.98355 0.270774L9.29845 0.659151ZM0.671997 15.0685C0.671997 11.4168 2.71832 7.89379 4.84298 5.22641C6.96208 2.56601 9.12629 0.797364 9.2975 0.659913L8.98449 0.270011C8.79821 0.419561 6.60291 2.21441 4.45189 4.91489C2.30642 7.60839 0.171997 11.2436 0.171997 15.0685H0.671997ZM9.32004 1.48906L9.31978 1.48929L9.64845 1.86609L9.6487 1.86586L9.32004 1.48906ZM9.48387 1.92746H9.48437V1.42746H9.48387V1.92746ZM9.65582 1.49598C9.65582 1.49598 9.65582 1.49598 9.65582 1.49598C9.65582 1.49598 9.65582 1.49598 9.65582 1.49598C9.65582 1.49598 9.65582 1.49598 9.65582 1.49598C9.65582 1.49598 9.65581 1.49598 9.65581 1.49598C9.65581 1.49598 9.65581 1.49598 9.65581 1.49598C9.65581 1.49598 9.65581 1.49598 9.65581 1.49598C9.65581 1.49598 9.65581 1.49598 9.65581 1.49598C9.65581 1.49598 9.65581 1.49598 9.65581 1.49598C9.65581 1.49598 9.65581 1.49598 9.65581 1.49598C9.65581 1.49598 9.65581 1.49598 9.65581 1.49598C9.65581 1.49598 9.65581 1.49598 9.65581 1.49598C9.65581 1.49598 9.65581 1.49598 9.65581 1.49598C9.65581 1.49598 9.65581 1.49598 9.65581 1.49598C9.65581 1.49598 9.65581 1.49598 9.65581 1.49597C9.65581 1.49597 9.65581 1.49597 9.65581 1.49597C9.65581 1.49597 9.65581 1.49597 9.65581 1.49597C9.65581 1.49597 9.65581 1.49597 9.65581 1.49597C9.65581 1.49597 9.65581 1.49597 9.65581 1.49597C9.65581 1.49597 9.65581 1.49597 9.65581 1.49597C9.65581 1.49597 9.65581 1.49597 9.65581 1.49597C9.65581 1.49597 9.65581 1.49597 9.65581 1.49597C9.65581 1.49597 9.65581 1.49597 9.65581 1.49597C9.65581 1.49597 9.65581 1.49597 9.65581 1.49597C9.65581 1.49597 9.65581 1.49597 9.6558 1.49597C9.6558 1.49597 9.6558 1.49597 9.6558 1.49597C9.6558 1.49597 9.6558 1.49597 9.6558 1.49597C9.6558 1.49597 9.6558 1.49597 9.6558 1.49597C9.6558 1.49597 9.6558 1.49597 9.6558 1.49597C9.6558 1.49597 9.6558 1.49597 9.6558 1.49597C9.6558 1.49597 9.6558 1.49597 9.6558 1.49597C9.6558 1.49597 9.6558 1.49597 9.6558 1.49597C9.6558 1.49597 9.6558 1.49597 9.6558 1.49597C9.6558 1.49597 9.6558 1.49597 9.6558 1.49597C9.6558 1.49597 9.6558 1.49597 9.6558 1.49597C9.6558 1.49597 9.6558 1.49597 9.6558 1.49597C9.6558 1.49597 9.6558 1.49597 9.6558 1.49597C9.6558 1.49597 9.6558 1.49596 9.6558 1.49596C9.6558 1.49596 9.6558 1.49596 9.6558 1.49596C9.6558 1.49596 9.6558 1.49596 9.6558 1.49596C9.6558 1.49596 9.6558 1.49596 9.6558 1.49596C9.6558 1.49596 9.6558 1.49596 9.6558 1.49596C9.6558 1.49596 9.6558 1.49596 9.6558 1.49596C9.6558 1.49596 9.6558 1.49596 9.6558 1.49596C9.6558 1.49596 9.6558 1.49596 9.6558 1.49596C9.6558 1.49596 9.6558 1.49596 9.6558 1.49596C9.6558 1.49596 9.6558 1.49596 9.6558 1.49596C9.65579 1.49596 9.65579 1.49596 9.65579 1.49596C9.65579 1.49596 9.65579 1.49596 9.65579 1.49596C9.65579 1.49596 9.65579 1.49596 9.65579 1.49596C9.65579 1.49596 9.65579 1.49596 9.65579 1.49596C9.65579 1.49596 9.65579 1.49596 9.65579 1.49596C9.65579 1.49596 9.65579 1.49596 9.65579 1.49596C9.65579 1.49596 9.65579 1.49596 9.65579 1.49596C9.65579 1.49596 9.65579 1.49596 9.65579 1.49596C9.65579 1.49596 9.65579 1.49596 9.65579 1.49596C9.65579 1.49596 9.65579 1.49596 9.65579 1.49596C9.65579 1.49596 9.65579 1.49596 9.65579 1.49596C9.65579 1.49596 9.65579 1.49596 9.65579 1.49596C9.65579 1.49596 9.65579 1.49596 9.65579 1.49595C9.65579 1.49595 9.65579 1.49595 9.65579 1.49595C9.65579 1.49595 9.65579 1.49595 9.65579 1.49595C9.65579 1.49595 9.65579 1.49595 9.65579 1.49595C9.65579 1.49595 9.65579 1.49595 9.65579 1.49595C9.65579 1.49595 9.65579 1.49595 9.65579 1.49595C9.65579 1.49595 9.65579 1.49595 9.65579 1.49595C9.65579 1.49595 9.65579 1.49595 9.65579 1.49595C9.65579 1.49595 9.65578 1.49595 9.65578 1.49595C9.65578 1.49595 9.65578 1.49595 9.65578 1.49595C9.65578 1.49595 9.65578 1.49595 9.65578 1.49595C9.65578 1.49595 9.65578 1.49595 9.65578 1.49595C9.65578 1.49595 9.65578 1.49595 9.65578 1.49595C9.65578 1.49595 9.65578 1.49595 9.65578 1.49595C9.65578 1.49595 9.65578 1.49595 9.65578 1.49595C9.65578 1.49595 9.65578 1.49595 9.65578 1.49595C9.65578 1.49595 9.65578 1.49595 9.65578 1.49595C9.65578 1.49595 9.65578 1.49595 9.65578 1.49595C9.65578 1.49595 9.65578 1.49595 9.65578 1.49595C9.65578 1.49595 9.65578 1.49595 9.65578 1.49595C9.65578 1.49595 9.65578 1.49595 9.65578 1.49595C9.65578 1.49595 9.65578 1.49595 9.65578 1.49595C9.65578 1.49595 9.65578 1.49595 9.65578 1.49595C9.65578 1.49595 9.65578 1.49594 9.65578 1.49594C9.65578 1.49594 9.65578 1.49594 9.65578 1.49594C9.65578 1.49594 9.65578 1.49594 9.65578 1.49594C9.65578 1.49594 9.65578 1.49594 9.65578 1.49594C9.65578 1.49594 9.65578 1.49594 9.65578 1.49594C9.65578 1.49594 9.65578 1.49594 9.65578 1.49594C9.65578 1.49594 9.65578 1.49594 9.65578 1.49594C9.65578 1.49594 9.65578 1.49594 9.65577 1.49594C9.65577 1.49594 9.65577 1.49594 9.65577 1.49594C9.65577 1.49594 9.65577 1.49594 9.65577 1.49594C9.65577 1.49594 9.65577 1.49594 9.65577 1.49594C9.65577 1.49594 9.65577 1.49594 9.65577 1.49594C9.65577 1.49594 9.65577 1.49594 9.65577 1.49594C9.65577 1.49594 9.65577 1.49594 9.65577 1.49594C9.65577 1.49594 9.65577 1.49594 9.65577 1.49594C9.65577 1.49594 9.65577 1.49594 9.65577 1.49594C9.65577 1.49594 9.65577 1.49594 9.65577 1.49594C9.65577 1.49594 9.65577 1.49594 9.65577 1.49594C9.65577 1.49594 9.65577 1.49594 9.65577 1.49594C9.65577 1.49594 9.65577 1.49594 9.65577 1.49594C9.65577 1.49594 9.65577 1.49594 9.65577 1.49594C9.65577 1.49594 9.65577 1.49594 9.65577 1.49594C9.65577 1.49594 9.65577 1.49594 9.65577 1.49593C9.65577 1.49593 9.65577 1.49593 9.65577 1.49593C9.65577 1.49593 9.65577 1.49593 9.65577 1.49593C9.65577 1.49593 9.65577 1.49593 9.65577 1.49593C9.65577 1.49593 9.65577 1.49593 9.65577 1.49593C9.65577 1.49593 9.65577 1.49593 9.65577 1.49593C9.65576 1.49593 9.65576 1.49593 9.65576 1.49593C9.65576 1.49593 9.65576 1.49593 9.65576 1.49593C9.65576 1.49593 9.65576 1.49593 9.65576 1.49593C9.65576 1.49593 9.65576 1.49593 9.65576 1.49593C9.65576 1.49593 9.65576 1.49593 9.65576 1.49593C9.65576 1.49593 9.65576 1.49593 9.65576 1.49593C9.65576 1.49593 9.65576 1.49593 9.65576 1.49593C9.65576 1.49593 9.65576 1.49593 9.65576 1.49593C9.65576 1.49593 9.65576 1.49593 9.65576 1.49593C9.65576 1.49593 9.65576 1.49593 9.65576 1.49593C9.65576 1.49593 9.65576 1.49593 9.65576 1.49593C9.65576 1.49593 9.65576 1.49593 9.65576 1.49593C9.65576 1.49593 9.65576 1.49593 9.65576 1.49593C9.65576 1.49593 9.65576 1.49593 9.65576 1.49593C9.65576 1.49593 9.65576 1.49593 9.65576 1.49593C9.65576 1.49593 9.65576 1.49593 9.65576 1.49593C9.65576 1.49593 9.65576 1.49593 9.65576 1.49593C9.65576 1.49593 9.65576 1.49592 9.65576 1.49592C9.65576 1.49592 9.65576 1.49592 9.65576 1.49592C9.65576 1.49592 9.65576 1.49592 9.65576 1.49592C9.65576 1.49592 9.65576 1.49592 9.65576 1.49592C9.65576 1.49592 9.65576 1.49592 9.65576 1.49592C9.65576 1.49592 9.65575 1.49592 9.65575 1.49592C9.65575 1.49592 9.65575 1.49592 9.65575 1.49592C9.65575 1.49592 9.65575 1.49592 9.65575 1.49592C9.65575 1.49592 9.65575 1.49592 9.65575 1.49592C9.65575 1.49592 9.65575 1.49592 9.65575 1.49592C9.65575 1.49592 9.65575 1.49592 9.65575 1.49592C9.65575 1.49592 9.65575 1.49592 9.65575 1.49592C9.65575 1.49592 9.65575 1.49592 9.65575 1.49592C9.65575 1.49592 9.65575 1.49592 9.65575 1.49592C9.65575 1.49592 9.65575 1.49592 9.65575 1.49592C9.65575 1.49592 9.65575 1.49592 9.65575 1.49592C9.65575 1.49592 9.65575 1.49592 9.65575 1.49592C9.65575 1.49592 9.65575 1.49592 9.65575 1.49592C9.65575 1.49592 9.65575 1.49592 9.65575 1.49592C9.65575 1.49592 9.65575 1.49592 9.65575 1.49592C9.65575 1.49592 9.65575 1.49592 9.65575 1.49592C9.65575 1.49592 9.65575 1.49592 9.65575 1.49592C9.65575 1.49592 9.65575 1.49592 9.65575 1.49592C9.65575 1.49591 9.65575 1.49591 9.65575 1.49591C9.65575 1.49591 9.65575 1.49591 9.65575 1.49591C9.65575 1.49591 9.65575 1.49591 9.65574 1.49591C9.65574 1.49591 9.65574 1.49591 9.65574 1.49591C9.65574 1.49591 9.65574 1.49591 9.65574 1.49591C9.65574 1.49591 9.65574 1.49591 9.65574 1.49591C9.65574 1.49591 9.65574 1.49591 9.65574 1.49591C9.65574 1.49591 9.65574 1.49591 9.65574 1.49591C9.65574 1.49591 9.65574 1.49591 9.65574 1.49591C9.65574 1.49591 9.65574 1.49591 9.65574 1.49591C9.65574 1.49591 9.65574 1.49591 9.65574 1.49591C9.65574 1.49591 9.65574 1.49591 9.65574 1.49591C9.65574 1.49591 9.65574 1.49591 9.65574 1.49591C9.65574 1.49591 9.65574 1.49591 9.65574 1.49591C9.65574 1.49591 9.65574 1.49591 9.65574 1.49591C9.65574 1.49591 9.65574 1.49591 9.65574 1.49591C9.65574 1.49591 9.65574 1.49591 9.65574 1.49591C9.65574 1.49591 9.65574 1.49591 9.65574 1.49591C9.65574 1.49591 9.65574 1.49591 9.65574 1.49591C9.65574 1.49591 9.65574 1.49591 9.65574 1.49591C9.65574 1.49591 9.65574 1.49591 9.65574 1.49591C9.65574 1.49591 9.65574 1.49591 9.65574 1.49591C9.65574 1.49591 9.65574 1.49591 9.65574 1.4959C9.65574 1.4959 9.65574 1.4959 9.65574 1.4959C9.65574 1.4959 9.65574 1.4959 9.65574 1.4959C9.65573 1.4959 9.65573 1.4959 9.65573 1.4959C9.65573 1.4959 9.65573 1.4959 9.65573 1.4959C9.65573 1.4959 9.65573 1.4959 9.65573 1.4959C9.65573 1.4959 9.65573 1.4959 9.65573 1.4959C9.65573 1.4959 9.65573 1.4959 9.65573 1.4959C9.65573 1.4959 9.65573 1.4959 9.65573 1.4959C9.65573 1.4959 9.65573 1.4959 9.65573 1.4959C9.65573 1.4959 9.65573 1.4959 9.65573 1.4959C9.65573 1.4959 9.65573 1.4959 9.65573 1.4959C9.65573 1.4959 9.65573 1.4959 9.65573 1.4959C9.65573 1.4959 9.65573 1.4959 9.65573 1.4959C9.65573 1.4959 9.65573 1.4959 9.65573 1.4959C9.65573 1.4959 9.65573 1.4959 9.65573 1.4959C9.65573 1.4959 9.65573 1.4959 9.65573 1.4959C9.65573 1.4959 9.65573 1.4959 9.65573 1.4959C9.65573 1.4959 9.65573 1.4959 9.65573 1.4959C9.65573 1.4959 9.65573 1.4959 9.65573 1.4959C9.65573 1.4959 9.65573 1.4959 9.65573 1.4959C9.65573 1.4959 9.65573 1.4959 9.65573 1.4959C9.65573 1.4959 9.65573 1.4959 9.65573 1.4959C9.65573 1.49589 9.65572 1.49589 9.65572 1.49589C9.65572 1.49589 9.65572 1.49589 9.65572 1.49589C9.65572 1.49589 9.65572 1.49589 9.65572 1.49589C9.65572 1.49589 9.65572 1.49589 9.65572 1.49589C9.65572 1.49589 9.65572 1.49589 9.65572 1.49589C9.65572 1.49589 9.65572 1.49589 9.65572 1.49589C9.65572 1.49589 9.65572 1.49589 9.65572 1.49589C9.65572 1.49589 9.65572 1.49589 9.65572 1.49589C9.65572 1.49589 9.65572 1.49589 9.65572 1.49589C9.65572 1.49589 9.65572 1.49589 9.65572 1.49589C9.65572 1.49589 9.65572 1.49589 9.65572 1.49589C9.65572 1.49589 9.65572 1.49589 9.65572 1.49589C9.65572 1.49589 9.65572 1.49589 9.65572 1.49589C9.65572 1.49589 9.65572 1.49589 9.65572 1.49589C9.65572 1.49589 9.65572 1.49589 9.65572 1.49589C9.65572 1.49589 9.65572 1.49589 9.65572 1.49589C9.65572 1.49589 9.65572 1.49589 9.65572 1.49589C9.65572 1.49589 9.65572 1.49589 9.65572 1.49589C9.65572 1.49589 9.65572 1.49589 9.65572 1.49589C9.65572 1.49589 9.65572 1.49589 9.65572 1.49589C9.65572 1.49589 9.65572 1.49589 9.65571 1.49589C9.65571 1.49589 9.65571 1.49589 9.65571 1.49589C9.65571 1.49589 9.65571 1.49589 9.65571 1.49588C9.65571 1.49588 9.65571 1.49588 9.65571 1.49588C9.65571 1.49588 9.65571 1.49588 9.65571 1.49588C9.65571 1.49588 9.65571 1.49588 9.65571 1.49588C9.65571 1.49588 9.65571 1.49588 9.65571 1.49588C9.65571 1.49588 9.65571 1.49588 9.65571 1.49588C9.65571 1.49588 9.65571 1.49588 9.65571 1.49588C9.65571 1.49588 9.65571 1.49588 9.65571 1.49588C9.65571 1.49588 9.65571 1.49588 9.65571 1.49588C9.65571 1.49588 9.65571 1.49588 9.65571 1.49588C9.65571 1.49588 9.65571 1.49588 9.65571 1.49588C9.65571 1.49588 9.65571 1.49588 9.65571 1.49588C9.65571 1.49588 9.65571 1.49588 9.65571 1.49588C9.65571 1.49588 9.65571 1.49588 9.65571 1.49588C9.65571 1.49588 9.65571 1.49588 9.65571 1.49588C9.65571 1.49588 9.65571 1.49588 9.65571 1.49588C9.65571 1.49588 9.65571 1.49588 9.65571 1.49588C9.65571 1.49588 9.65571 1.49588 9.65571 1.49588C9.65571 1.49588 9.65571 1.49588 9.65571 1.49588C9.65571 1.49588 9.65571 1.49588 9.65571 1.49588C9.65571 1.49588 9.65571 1.49588 9.65571 1.49588C9.6557 1.49588 9.6557 1.49588 9.6557 1.49588C9.6557 1.49588 9.6557 1.49588 9.6557 1.49588C9.6557 1.49588 9.6557 1.49587 9.6557 1.49587C9.6557 1.49587 9.6557 1.49587 9.6557 1.49587C9.6557 1.49587 9.6557 1.49587 9.6557 1.49587C9.6557 1.49587 9.6557 1.49587 9.6557 1.49587C9.6557 1.49587 9.6557 1.49587 9.6557 1.49587C9.6557 1.49587 9.6557 1.49587 9.6557 1.49587C9.6557 1.49587 9.6557 1.49587 9.6557 1.49587C9.6557 1.49587 9.6557 1.49587 9.6557 1.49587C9.6557 1.49587 9.6557 1.49587 9.6557 1.49587C9.6557 1.49587 9.6557 1.49587 9.6557 1.49587C9.6557 1.49587 9.6557 1.49587 9.6557 1.49587C9.6557 1.49587 9.6557 1.49587 9.6557 1.49587C9.6557 1.49587 9.6557 1.49587 9.6557 1.49587C9.6557 1.49587 9.6557 1.49587 9.6557 1.49587C9.6557 1.49587 9.6557 1.49587 9.6557 1.49587C9.6557 1.49587 9.6557 1.49587 9.6557 1.49587C9.6557 1.49587 9.6557 1.49587 9.6557 1.49587C9.6557 1.49587 9.6557 1.49587 9.6557 1.49587C9.6557 1.49587 9.65569 1.49587 9.65569 1.49587C9.65569 1.49587 9.65569 1.49587 9.65569 1.49587C9.65569 1.49587 9.65569 1.49587 9.65569 1.49587C9.65569 1.49587 9.65569 1.49587 9.65569 1.49587C9.65569 1.49587 9.65569 1.49587 9.65569 1.49586C9.65569 1.49586 9.65569 1.49586 9.65569 1.49586C9.65569 1.49586 9.65569 1.49586 9.65569 1.49586C9.65569 1.49586 9.65569 1.49586 9.65569 1.49586C9.65569 1.49586 9.65569 1.49586 9.65569 1.49586C9.65569 1.49586 9.65569 1.49586 9.65569 1.49586C9.65569 1.49586 9.65569 1.49586 9.65569 1.49586C9.65569 1.49586 9.65569 1.49586 9.65569 1.49586C9.65569 1.49586 9.65569 1.49586 9.65569 1.49586C9.65569 1.49586 9.65569 1.49586 9.65569 1.49586C9.65569 1.49586 9.65569 1.49586 9.65569 1.49586C9.65569 1.49586 9.65569 1.49586 9.65569 1.49586C9.65569 1.49586 9.65569 1.49586 9.65569 1.49586C9.65569 1.49586 9.65569 1.49586 9.65569 1.49586C9.65569 1.49586 9.65569 1.49586 9.65569 1.49586C9.65569 1.49586 9.65569 1.49586 9.65569 1.49586C9.65569 1.49586 9.65569 1.49586 9.65569 1.49586C9.65569 1.49586 9.65569 1.49586 9.65569 1.49586C9.65569 1.49586 9.65569 1.49586 9.65568 1.49586C9.65568 1.49586 9.65568 1.49586 9.65568 1.49586C9.65568 1.49586 9.65568 1.49586 9.65568 1.49586C9.65568 1.49586 9.65568 1.49586 9.65568 1.49586C9.65568 1.49586 9.65568 1.49586 9.65568 1.49586C9.65568 1.49585 9.65568 1.49585 9.65568 1.49585C9.65568 1.49585 9.65568 1.49585 9.65568 1.49585C9.65568 1.49585 9.65568 1.49585 9.65568 1.49585C9.65568 1.49585 9.65568 1.49585 9.65568 1.49585C9.65568 1.49585 9.65568 1.49585 9.65568 1.49585C9.65568 1.49585 9.65568 1.49585 9.65568 1.49585C9.65568 1.49585 9.65568 1.49585 9.65568 1.49585C9.65568 1.49585 9.65568 1.49585 9.65568 1.49585C9.65568 1.49585 9.65568 1.49585 9.65568 1.49585C9.65568 1.49585 9.65568 1.49585 9.65568 1.49585C9.65568 1.49585 9.65568 1.49585 9.65568 1.49585C9.65568 1.49585 9.65568 1.49585 9.65568 1.49585C9.65568 1.49585 9.65568 1.49585 9.65568 1.49585C9.65568 1.49585 9.65568 1.49585 9.65568 1.49585C9.65568 1.49585 9.65568 1.49585 9.65568 1.49585C9.65568 1.49585 9.65568 1.49585 9.65568 1.49585C9.65567 1.49585 9.65567 1.49585 9.65567 1.49585C9.65567 1.49585 9.65567 1.49585 9.65567 1.49585C9.65567 1.49585 9.65567 1.49585 9.65567 1.49585C9.65567 1.49585 9.65567 1.49585 9.65567 1.49585C9.65567 1.49585 9.65567 1.49585 9.65567 1.49585C9.65567 1.49585 9.65567 1.49585 9.65567 1.49585C9.65567 1.49585 9.65567 1.49585 9.65567 1.49584C9.65567 1.49584 9.65567 1.49584 9.65567 1.49584C9.65567 1.49584 9.65567 1.49584 9.65567 1.49584C9.65567 1.49584 9.65567 1.49584 9.65567 1.49584C9.65567 1.49584 9.65567 1.49584 9.65567 1.49584C9.65567 1.49584 9.65567 1.49584 9.65567 1.49584C9.65567 1.49584 9.65567 1.49584 9.65567 1.49584C9.65567 1.49584 9.65567 1.49584 9.65567 1.49584C9.65567 1.49584 9.65567 1.49584 9.65567 1.49584C9.65567 1.49584 9.65567 1.49584 9.65567 1.49584C9.65567 1.49584 9.65567 1.49584 9.65567 1.49584C9.65567 1.49584 9.65567 1.49584 9.65567 1.49584C9.65567 1.49584 9.65567 1.49584 9.65567 1.49584C9.65567 1.49584 9.65567 1.49584 9.65567 1.49584C9.65567 1.49584 9.65567 1.49584 9.65567 1.49584C9.65567 1.49584 9.65567 1.49584 9.65567 1.49584C9.65567 1.49584 9.65566 1.49584 9.65566 1.49584C9.65566 1.49584 9.65566 1.49584 9.65566 1.49584C9.65566 1.49584 9.65566 1.49584 9.65566 1.49584C9.65566 1.49584 9.65566 1.49584 9.65566 1.49584C9.65566 1.49584 9.65566 1.49584 9.65566 1.49584C9.65566 1.49584 9.65566 1.49584 9.65566 1.49584C9.65566 1.49584 9.65566 1.49584 9.65566 1.49584C9.65566 1.49584 9.65566 1.49583 9.65566 1.49583C9.65566 1.49583 9.65566 1.49583 9.65566 1.49583C9.65566 1.49583 9.65566 1.49583 9.65566 1.49583C9.65566 1.49583 9.65566 1.49583 9.65566 1.49583C9.65566 1.49583 9.65566 1.49583 9.65566 1.49583C9.65566 1.49583 9.65566 1.49583 9.65566 1.49583C9.65566 1.49583 9.65566 1.49583 9.65566 1.49583C9.65566 1.49583 9.65566 1.49583 9.65566 1.49583C9.65566 1.49583 9.65566 1.49583 9.65566 1.49583C9.65566 1.49583 9.65566 1.49583 9.65566 1.49583C9.65566 1.49583 9.65566 1.49583 9.65566 1.49583C9.65566 1.49583 9.65566 1.49583 9.65566 1.49583C9.65566 1.49583 9.65566 1.49583 9.65566 1.49583C9.65566 1.49583 9.65566 1.49583 9.65565 1.49583C9.65565 1.49583 9.65565 1.49583 9.65565 1.49583C9.65565 1.49583 9.65565 1.49583 9.65565 1.49583C9.65565 1.49583 9.65565 1.49583 9.65565 1.49583C9.65565 1.49583 9.65565 1.49583 9.65565 1.49583C9.65565 1.49583 9.65565 1.49583 9.65565 1.49583C9.65565 1.49583 9.65565 1.49583 9.65565 1.49583C9.65565 1.49583 9.65565 1.49583 9.65565 1.49583C9.65565 1.49583 9.65565 1.49583 9.65565 1.49583C9.65565 1.49583 9.65565 1.49583 9.65565 1.49583C9.65565 1.49582 9.65565 1.49582 9.65565 1.49582C9.65565 1.49582 9.65565 1.49582 9.65565 1.49582C9.65565 1.49582 9.65565 1.49582 9.65565 1.49582C9.65565 1.49582 9.65565 1.49582 9.65565 1.49582C9.65565 1.49582 9.65565 1.49582 9.65565 1.49582C9.65565 1.49582 9.65565 1.49582 9.65565 1.49582C9.65565 1.49582 9.65565 1.49582 9.65565 1.49582C9.65565 1.49582 9.65565 1.49582 9.65565 1.49582C9.65565 1.49582 9.65565 1.49582 9.65565 1.49582C9.65565 1.49582 9.65565 1.49582 9.65565 1.49582C9.65565 1.49582 9.65565 1.49582 9.65565 1.49582C9.65565 1.49582 9.65565 1.49582 9.65565 1.49582C9.65565 1.49582 9.65565 1.49582 9.65565 1.49582C9.65564 1.49582 9.65564 1.49582 9.65564 1.49582C9.65564 1.49582 9.65564 1.49582 9.65564 1.49582C9.65564 1.49582 9.65564 1.49582 9.65564 1.49582C9.65564 1.49582 9.65564 1.49582 9.65564 1.49582C9.65564 1.49582 9.65564 1.49582 9.65564 1.49582C9.65564 1.49582 9.65564 1.49582 9.65564 1.49582C9.65564 1.49582 9.65564 1.49582 9.65564 1.49582C9.65564 1.49582 9.65564 1.49582 9.65564 1.49582C9.65564 1.49582 9.65564 1.49582 9.65564 1.49582C9.65564 1.49582 9.65564 1.49581 9.65564 1.49581C9.65564 1.49581 9.65564 1.49581 9.65564 1.49581C9.65564 1.49581 9.65564 1.49581 9.65564 1.49581C9.65564 1.49581 9.65564 1.49581 9.65564 1.49581C9.65564 1.49581 9.65564 1.49581 9.65564 1.49581C9.65564 1.49581 9.65564 1.49581 9.65564 1.49581C9.65564 1.49581 9.65564 1.49581 9.65564 1.49581C9.65564 1.49581 9.65564 1.49581 9.65564 1.49581C9.65564 1.49581 9.65564 1.49581 9.65564 1.49581C9.65564 1.49581 9.65564 1.49581 9.65564 1.49581C9.65564 1.49581 9.65564 1.49581 9.65564 1.49581C9.65564 1.49581 9.65563 1.49581 9.65563 1.49581C9.65563 1.49581 9.65563 1.49581 9.65563 1.49581C9.65563 1.49581 9.65563 1.49581 9.65563 1.49581C9.65563 1.49581 9.65563 1.49581 9.65563 1.49581C9.65563 1.49581 9.65563 1.49581 9.65563 1.49581C9.65563 1.49581 9.65563 1.49581 9.65563 1.49581C9.65563 1.49581 9.65563 1.49581 9.65563 1.49581C9.65563 1.49581 9.65563 1.49581 9.65563 1.49581C9.65563 1.49581 9.65563 1.49581 9.65563 1.49581C9.65563 1.49581 9.65563 1.49581 9.65563 1.49581C9.65563 1.49581 9.65563 1.49581 9.65563 1.49581C9.65563 1.49581 9.65563 1.49581 9.65563 1.49581C9.65563 1.4958 9.65563 1.4958 9.65563 1.4958C9.65563 1.4958 9.65563 1.4958 9.65563 1.4958C9.65563 1.4958 9.65563 1.4958 9.65563 1.4958C9.65563 1.4958 9.65563 1.4958 9.65563 1.4958C9.65563 1.4958 9.65563 1.4958 9.65563 1.4958C9.65563 1.4958 9.65563 1.4958 9.65563 1.4958C9.65563 1.4958 9.65563 1.4958 9.65563 1.4958C9.65563 1.4958 9.65563 1.4958 9.65563 1.4958C9.65563 1.4958 9.65563 1.4958 9.65563 1.4958C9.65563 1.4958 9.65563 1.4958 9.65563 1.4958C9.65563 1.4958 9.65563 1.4958 9.65562 1.4958C9.65562 1.4958 9.65562 1.4958 9.65562 1.4958C9.65562 1.4958 9.65562 1.4958 9.65562 1.4958C9.65562 1.4958 9.65562 1.4958 9.65562 1.4958C9.65562 1.4958 9.65562 1.4958 9.65562 1.4958C9.65562 1.4958 9.65562 1.4958 9.65562 1.4958C9.65562 1.4958 9.65562 1.4958 9.65562 1.4958C9.65562 1.4958 9.65562 1.4958 9.65562 1.4958C9.65562 1.4958 9.65562 1.4958 9.65562 1.4958C9.65562 1.4958 9.65562 1.4958 9.65562 1.4958C9.65562 1.4958 9.65562 1.4958 9.65562 1.4958C9.65562 1.4958 9.65562 1.4958 9.65562 1.4958C9.65562 1.4958 9.65562 1.4958 9.65562 1.49579C9.65562 1.49579 9.65562 1.49579 9.65562 1.49579C9.65562 1.49579 9.65562 1.49579 9.65562 1.49579C9.65562 1.49579 9.65562 1.49579 9.65562 1.49579C9.65562 1.49579 9.65562 1.49579 9.65562 1.49579C9.65562 1.49579 9.65562 1.49579 9.65562 1.49579C9.65562 1.49579 9.65562 1.49579 9.65562 1.49579C9.65562 1.49579 9.65562 1.49579 9.65562 1.49579C9.65562 1.49579 9.65562 1.49579 9.65562 1.49579C9.65561 1.49579 9.65561 1.49579 9.65561 1.49579C9.65561 1.49579 9.65561 1.49579 9.65561 1.49579C9.65561 1.49579 9.65561 1.49579 9.65561 1.49579C9.65561 1.49579 9.65561 1.49579 9.65561 1.49579C9.65561 1.49579 9.65561 1.49579 9.65561 1.49579C9.65561 1.49579 9.65561 1.49579 9.65561 1.49579C9.65561 1.49579 9.65561 1.49579 9.65561 1.49579C9.65561 1.49579 9.65561 1.49579 9.65561 1.49579C9.65561 1.49579 9.65561 1.49579 9.65561 1.49579C9.65561 1.49579 9.65561 1.49579 9.65561 1.49579C9.65561 1.49579 9.65561 1.49579 9.65561 1.49579C9.65561 1.49579 9.65561 1.49579 9.65561 1.49579C9.65561 1.49579 9.65561 1.49579 9.65561 1.49579C9.65561 1.49579 9.65561 1.49579 9.65561 1.49579C9.65561 1.49578 9.65561 1.49578 9.65561 1.49578C9.65561 1.49578 9.65561 1.49578 9.65561 1.49578C9.65561 1.49578 9.65561 1.49578 9.65561 1.49578C9.65561 1.49578 9.65561 1.49578 9.65561 1.49578C9.65561 1.49578 9.65561 1.49578 9.65561 1.49578C9.65561 1.49578 9.65561 1.49578 9.65561 1.49578C9.65561 1.49578 9.65561 1.49578 9.65561 1.49578C9.65561 1.49578 9.65561 1.49578 9.65561 1.49578C9.65561 1.49578 9.6556 1.49578 9.6556 1.49578C9.6556 1.49578 9.6556 1.49578 9.6556 1.49578C9.6556 1.49578 9.6556 1.49578 9.6556 1.49578C9.6556 1.49578 9.6556 1.49578 9.6556 1.49578C9.6556 1.49578 9.6556 1.49578 9.6556 1.49578C9.6556 1.49578 9.6556 1.49578 9.6556 1.49578C9.6556 1.49578 9.6556 1.49578 9.6556 1.49578C9.6556 1.49578 9.6556 1.49578 9.6556 1.49578C9.6556 1.49578 9.6556 1.49578 9.6556 1.49578C9.6556 1.49578 9.6556 1.49578 9.6556 1.49578C9.6556 1.49578 9.6556 1.49578 9.6556 1.49578C9.6556 1.49578 9.6556 1.49578 9.6556 1.49578C9.6556 1.49578 9.6556 1.49578 9.6556 1.49578C9.6556 1.49578 9.6556 1.49578 9.6556 1.49578C9.6556 1.49578 9.6556 1.49578 9.6556 1.49577C9.6556 1.49577 9.6556 1.49577 9.6556 1.49577C9.6556 1.49577 9.6556 1.49577 9.6556 1.49577C9.6556 1.49577 9.6556 1.49577 9.6556 1.49577C9.6556 1.49577 9.6556 1.49577 9.6556 1.49577C9.6556 1.49577 9.6556 1.49577 9.6556 1.49577C9.6556 1.49577 9.6556 1.49577 9.65559 1.49577C9.65559 1.49577 9.65559 1.49577 9.65559 1.49577C9.65559 1.49577 9.65559 1.49577 9.65559 1.49577C9.65559 1.49577 9.65559 1.49577 9.65559 1.49577C9.65559 1.49577 9.65559 1.49577 9.65559 1.49577C9.65559 1.49577 9.65559 1.49577 9.65559 1.49577C9.65559 1.49577 9.65559 1.49577 9.65559 1.49577C9.65559 1.49577 9.65559 1.49577 9.65559 1.49577C9.65559 1.49577 9.65559 1.49577 9.65559 1.49577C9.65559 1.49577 9.65559 1.49577 9.65559 1.49577C9.65559 1.49577 9.65559 1.49577 9.65559 1.49577C9.65559 1.49577 9.65559 1.49577 9.65559 1.49577C9.65559 1.49577 9.65559 1.49577 9.65559 1.49577C9.65559 1.49577 9.65559 1.49577 9.65559 1.49577C9.65559 1.49577 9.65559 1.49577 9.65559 1.49577C9.65559 1.49577 9.65559 1.49577 9.65559 1.49577C9.65559 1.49577 9.65559 1.49577 9.65559 1.49577C9.65559 1.49576 9.65559 1.49576 9.65559 1.49576C9.65559 1.49576 9.65559 1.49576 9.65559 1.49576C9.65559 1.49576 9.65559 1.49576 9.65559 1.49576C9.65559 1.49576 9.65559 1.49576 9.65559 1.49576C9.65559 1.49576 9.65559 1.49576 9.65559 1.49576C9.65559 1.49576 9.65559 1.49576 9.65559 1.49576C9.65558 1.49576 9.65558 1.49576 9.65558 1.49576C9.65558 1.49576 9.65558 1.49576 9.65558 1.49576C9.65558 1.49576 9.65558 1.49576 9.65558 1.49576C9.65558 1.49576 9.65558 1.49576 9.65558 1.49576C9.65558 1.49576 9.65558 1.49576 9.65558 1.49576C9.65558 1.49576 9.65558 1.49576 9.65558 1.49576C9.65558 1.49576 9.65558 1.49576 9.65558 1.49576C9.65558 1.49576 9.65558 1.49576 9.65558 1.49576C9.65558 1.49576 9.65558 1.49576 9.65558 1.49576C9.65558 1.49576 9.65558 1.49576 9.65558 1.49576C9.65558 1.49576 9.65558 1.49576 9.65558 1.49576C9.65558 1.49576 9.65558 1.49576 9.65558 1.49576C9.65558 1.49576 9.65558 1.49576 9.65558 1.49576C9.65558 1.49576 9.65558 1.49576 9.65558 1.49576C9.65558 1.49576 9.65558 1.49576 9.65558 1.49576C9.65558 1.49576 9.65558 1.49576 9.65558 1.49576C9.65558 1.49576 9.65558 1.49576 9.65558 1.49575C9.65558 1.49575 9.65558 1.49575 9.65558 1.49575C9.65558 1.49575 9.65558 1.49575 9.65558 1.49575L9.31217 1.85917C9.31217 1.85917 9.31217 1.85917 9.31217 1.85917C9.31217 1.85917 9.31217 1.85917 9.31217 1.85917C9.31217 1.85917 9.31217 1.85917 9.31217 1.85917C9.31217 1.85917 9.31217 1.85917 9.31217 1.85917C9.31217 1.85917 9.31217 1.85917 9.31217 1.85917C9.31217 1.85917 9.31217 1.85917 9.31217 1.85917C9.31217 1.85917 9.31217 1.85917 9.31217 1.85917C9.31217 1.85917 9.31217 1.85917 9.31217 1.85917C9.31217 1.85917 9.31217 1.85917 9.31217 1.85917C9.31217 1.85917 9.31217 1.85917 9.31217 1.85918C9.31217 1.85918 9.31217 1.85918 9.31217 1.85918C9.31217 1.85918 9.31217 1.85918 9.31217 1.85918C9.31217 1.85918 9.31217 1.85918 9.31217 1.85918C9.31217 1.85918 9.31218 1.85918 9.31218 1.85918C9.31218 1.85918 9.31218 1.85918 9.31218 1.85918C9.31218 1.85918 9.31218 1.85918 9.31218 1.85918C9.31218 1.85918 9.31218 1.85918 9.31218 1.85918C9.31218 1.85918 9.31218 1.85918 9.31218 1.85918C9.31218 1.85918 9.31218 1.85918 9.31218 1.85918C9.31218 1.85918 9.31218 1.85918 9.31218 1.85918C9.31218 1.85918 9.31218 1.85918 9.31218 1.85918C9.31218 1.85918 9.31218 1.85918 9.31218 1.85918C9.31218 1.85918 9.31218 1.85918 9.31218 1.85918C9.31218 1.85918 9.31218 1.85918 9.31218 1.85918C9.31218 1.85918 9.31218 1.85918 9.31218 1.85918C9.31218 1.85918 9.31218 1.85918 9.31218 1.85918C9.31218 1.85918 9.31218 1.85918 9.31218 1.85918C9.31218 1.85918 9.31218 1.85918 9.31218 1.85918C9.31218 1.85918 9.31218 1.85918 9.31218 1.85918C9.31218 1.85918 9.31218 1.85918 9.31218 1.85918C9.31218 1.85918 9.31218 1.85918 9.31218 1.85918C9.31218 1.85918 9.31218 1.85918 9.31218 1.85918C9.31218 1.85918 9.31218 1.85919 9.31218 1.85919C9.31218 1.85919 9.31218 1.85919 9.31219 1.85919C9.31219 1.85919 9.31219 1.85919 9.31219 1.85919C9.31219 1.85919 9.31219 1.85919 9.31219 1.85919C9.31219 1.85919 9.31219 1.85919 9.31219 1.85919C9.31219 1.85919 9.31219 1.85919 9.31219 1.85919C9.31219 1.85919 9.31219 1.85919 9.31219 1.85919C9.31219 1.85919 9.31219 1.85919 9.31219 1.85919C9.31219 1.85919 9.31219 1.85919 9.31219 1.85919C9.31219 1.85919 9.31219 1.85919 9.31219 1.85919C9.31219 1.85919 9.31219 1.85919 9.31219 1.85919C9.31219 1.85919 9.31219 1.85919 9.31219 1.85919C9.31219 1.85919 9.31219 1.85919 9.31219 1.85919C9.31219 1.85919 9.31219 1.85919 9.31219 1.85919C9.31219 1.85919 9.31219 1.85919 9.31219 1.85919C9.31219 1.85919 9.31219 1.85919 9.31219 1.85919C9.31219 1.85919 9.31219 1.85919 9.31219 1.85919C9.31219 1.85919 9.31219 1.85919 9.31219 1.85919C9.31219 1.85919 9.31219 1.85919 9.31219 1.85919C9.31219 1.85919 9.31219 1.85919 9.31219 1.85919C9.31219 1.85919 9.31219 1.85919 9.31219 1.85919C9.31219 1.85919 9.31219 1.85919 9.31219 1.85919C9.31219 1.85919 9.31219 1.85919 9.31219 1.85919C9.31219 1.8592 9.31219 1.8592 9.31219 1.8592C9.3122 1.8592 9.3122 1.8592 9.3122 1.8592C9.3122 1.8592 9.3122 1.8592 9.3122 1.8592C9.3122 1.8592 9.3122 1.8592 9.3122 1.8592C9.3122 1.8592 9.3122 1.8592 9.3122 1.8592C9.3122 1.8592 9.3122 1.8592 9.3122 1.8592C9.3122 1.8592 9.3122 1.8592 9.3122 1.8592C9.3122 1.8592 9.3122 1.8592 9.3122 1.8592C9.3122 1.8592 9.3122 1.8592 9.3122 1.8592C9.3122 1.8592 9.3122 1.8592 9.3122 1.8592C9.3122 1.8592 9.3122 1.8592 9.3122 1.8592C9.3122 1.8592 9.3122 1.8592 9.3122 1.8592C9.3122 1.8592 9.3122 1.8592 9.3122 1.8592C9.3122 1.8592 9.3122 1.8592 9.3122 1.8592C9.3122 1.8592 9.3122 1.8592 9.3122 1.8592C9.3122 1.8592 9.3122 1.8592 9.3122 1.8592C9.3122 1.8592 9.3122 1.8592 9.3122 1.8592C9.3122 1.8592 9.3122 1.8592 9.3122 1.8592C9.3122 1.8592 9.3122 1.8592 9.3122 1.8592C9.3122 1.8592 9.3122 1.8592 9.3122 1.8592C9.3122 1.8592 9.3122 1.8592 9.3122 1.8592C9.3122 1.8592 9.31221 1.8592 9.31221 1.8592C9.31221 1.8592 9.31221 1.85921 9.31221 1.85921C9.31221 1.85921 9.31221 1.85921 9.31221 1.85921C9.31221 1.85921 9.31221 1.85921 9.31221 1.85921C9.31221 1.85921 9.31221 1.85921 9.31221 1.85921C9.31221 1.85921 9.31221 1.85921 9.31221 1.85921C9.31221 1.85921 9.31221 1.85921 9.31221 1.85921C9.31221 1.85921 9.31221 1.85921 9.31221 1.85921C9.31221 1.85921 9.31221 1.85921 9.31221 1.85921C9.31221 1.85921 9.31221 1.85921 9.31221 1.85921C9.31221 1.85921 9.31221 1.85921 9.31221 1.85921C9.31221 1.85921 9.31221 1.85921 9.31221 1.85921C9.31221 1.85921 9.31221 1.85921 9.31221 1.85921C9.31221 1.85921 9.31221 1.85921 9.31221 1.85921C9.31221 1.85921 9.31221 1.85921 9.31221 1.85921C9.31221 1.85921 9.31221 1.85921 9.31221 1.85921C9.31221 1.85921 9.31221 1.85921 9.31221 1.85921C9.31221 1.85921 9.31221 1.85921 9.31221 1.85921C9.31221 1.85921 9.31221 1.85921 9.31221 1.85921C9.31221 1.85921 9.31221 1.85921 9.31221 1.85921C9.31221 1.85921 9.31221 1.85921 9.31221 1.85921C9.31221 1.85921 9.31221 1.85921 9.31221 1.85921C9.31221 1.85921 9.31221 1.85921 9.31222 1.85921C9.31222 1.85921 9.31222 1.85921 9.31222 1.85922C9.31222 1.85922 9.31222 1.85922 9.31222 1.85922C9.31222 1.85922 9.31222 1.85922 9.31222 1.85922C9.31222 1.85922 9.31222 1.85922 9.31222 1.85922C9.31222 1.85922 9.31222 1.85922 9.31222 1.85922C9.31222 1.85922 9.31222 1.85922 9.31222 1.85922C9.31222 1.85922 9.31222 1.85922 9.31222 1.85922C9.31222 1.85922 9.31222 1.85922 9.31222 1.85922C9.31222 1.85922 9.31222 1.85922 9.31222 1.85922C9.31222 1.85922 9.31222 1.85922 9.31222 1.85922C9.31222 1.85922 9.31222 1.85922 9.31222 1.85922C9.31222 1.85922 9.31222 1.85922 9.31222 1.85922C9.31222 1.85922 9.31222 1.85922 9.31222 1.85922C9.31222 1.85922 9.31222 1.85922 9.31222 1.85922C9.31222 1.85922 9.31222 1.85922 9.31222 1.85922C9.31222 1.85922 9.31222 1.85922 9.31222 1.85922C9.31222 1.85922 9.31222 1.85922 9.31222 1.85922C9.31222 1.85922 9.31222 1.85922 9.31222 1.85922C9.31222 1.85922 9.31222 1.85922 9.31222 1.85922C9.31222 1.85922 9.31222 1.85922 9.31222 1.85922C9.31223 1.85922 9.31223 1.85922 9.31223 1.85922C9.31223 1.85922 9.31223 1.85922 9.31223 1.85922C9.31223 1.85922 9.31223 1.85922 9.31223 1.85922C9.31223 1.85922 9.31223 1.85923 9.31223 1.85923C9.31223 1.85923 9.31223 1.85923 9.31223 1.85923C9.31223 1.85923 9.31223 1.85923 9.31223 1.85923C9.31223 1.85923 9.31223 1.85923 9.31223 1.85923C9.31223 1.85923 9.31223 1.85923 9.31223 1.85923C9.31223 1.85923 9.31223 1.85923 9.31223 1.85923C9.31223 1.85923 9.31223 1.85923 9.31223 1.85923C9.31223 1.85923 9.31223 1.85923 9.31223 1.85923C9.31223 1.85923 9.31223 1.85923 9.31223 1.85923C9.31223 1.85923 9.31223 1.85923 9.31223 1.85923C9.31223 1.85923 9.31223 1.85923 9.31223 1.85923C9.31223 1.85923 9.31223 1.85923 9.31223 1.85923C9.31223 1.85923 9.31223 1.85923 9.31223 1.85923C9.31223 1.85923 9.31223 1.85923 9.31223 1.85923C9.31223 1.85923 9.31223 1.85923 9.31223 1.85923C9.31223 1.85923 9.31223 1.85923 9.31223 1.85923C9.31223 1.85923 9.31223 1.85923 9.31223 1.85923C9.31223 1.85923 9.31223 1.85923 9.31223 1.85923C9.31223 1.85923 9.31223 1.85923 9.31223 1.85923C9.31223 1.85923 9.31224 1.85923 9.31224 1.85923C9.31224 1.85923 9.31224 1.85923 9.31224 1.85923C9.31224 1.85923 9.31224 1.85923 9.31224 1.85923C9.31224 1.85923 9.31224 1.85923 9.31224 1.85923C9.31224 1.85924 9.31224 1.85924 9.31224 1.85924C9.31224 1.85924 9.31224 1.85924 9.31224 1.85924C9.31224 1.85924 9.31224 1.85924 9.31224 1.85924C9.31224 1.85924 9.31224 1.85924 9.31224 1.85924C9.31224 1.85924 9.31224 1.85924 9.31224 1.85924C9.31224 1.85924 9.31224 1.85924 9.31224 1.85924C9.31224 1.85924 9.31224 1.85924 9.31224 1.85924C9.31224 1.85924 9.31224 1.85924 9.31224 1.85924C9.31224 1.85924 9.31224 1.85924 9.31224 1.85924C9.31224 1.85924 9.31224 1.85924 9.31224 1.85924C9.31224 1.85924 9.31224 1.85924 9.31224 1.85924C9.31224 1.85924 9.31224 1.85924 9.31224 1.85924C9.31224 1.85924 9.31224 1.85924 9.31224 1.85924C9.31224 1.85924 9.31224 1.85924 9.31224 1.85924C9.31224 1.85924 9.31224 1.85924 9.31224 1.85924C9.31224 1.85924 9.31224 1.85924 9.31224 1.85924C9.31224 1.85924 9.31224 1.85924 9.31225 1.85924C9.31225 1.85924 9.31225 1.85924 9.31225 1.85924C9.31225 1.85924 9.31225 1.85924 9.31225 1.85924C9.31225 1.85924 9.31225 1.85924 9.31225 1.85924C9.31225 1.85924 9.31225 1.85924 9.31225 1.85924C9.31225 1.85924 9.31225 1.85924 9.31225 1.85924C9.31225 1.85924 9.31225 1.85924 9.31225 1.85925C9.31225 1.85925 9.31225 1.85925 9.31225 1.85925C9.31225 1.85925 9.31225 1.85925 9.31225 1.85925C9.31225 1.85925 9.31225 1.85925 9.31225 1.85925C9.31225 1.85925 9.31225 1.85925 9.31225 1.85925C9.31225 1.85925 9.31225 1.85925 9.31225 1.85925C9.31225 1.85925 9.31225 1.85925 9.31225 1.85925C9.31225 1.85925 9.31225 1.85925 9.31225 1.85925C9.31225 1.85925 9.31225 1.85925 9.31225 1.85925C9.31225 1.85925 9.31225 1.85925 9.31225 1.85925C9.31225 1.85925 9.31225 1.85925 9.31225 1.85925C9.31225 1.85925 9.31225 1.85925 9.31225 1.85925C9.31225 1.85925 9.31225 1.85925 9.31225 1.85925C9.31225 1.85925 9.31225 1.85925 9.31225 1.85925C9.31225 1.85925 9.31225 1.85925 9.31225 1.85925C9.31225 1.85925 9.31225 1.85925 9.31225 1.85925C9.31225 1.85925 9.31225 1.85925 9.31225 1.85925C9.31226 1.85925 9.31226 1.85925 9.31226 1.85925C9.31226 1.85925 9.31226 1.85925 9.31226 1.85925C9.31226 1.85925 9.31226 1.85925 9.31226 1.85925C9.31226 1.85925 9.31226 1.85925 9.31226 1.85925C9.31226 1.85925 9.31226 1.85925 9.31226 1.85925C9.31226 1.85925 9.31226 1.85925 9.31226 1.85925C9.31226 1.85926 9.31226 1.85926 9.31226 1.85926C9.31226 1.85926 9.31226 1.85926 9.31226 1.85926C9.31226 1.85926 9.31226 1.85926 9.31226 1.85926C9.31226 1.85926 9.31226 1.85926 9.31226 1.85926C9.31226 1.85926 9.31226 1.85926 9.31226 1.85926C9.31226 1.85926 9.31226 1.85926 9.31226 1.85926C9.31226 1.85926 9.31226 1.85926 9.31226 1.85926C9.31226 1.85926 9.31226 1.85926 9.31226 1.85926C9.31226 1.85926 9.31226 1.85926 9.31226 1.85926C9.31226 1.85926 9.31226 1.85926 9.31226 1.85926C9.31226 1.85926 9.31226 1.85926 9.31226 1.85926C9.31226 1.85926 9.31226 1.85926 9.31226 1.85926C9.31226 1.85926 9.31226 1.85926 9.31226 1.85926C9.31226 1.85926 9.31226 1.85926 9.31226 1.85926C9.31226 1.85926 9.31227 1.85926 9.31227 1.85926C9.31227 1.85926 9.31227 1.85926 9.31227 1.85926C9.31227 1.85926 9.31227 1.85926 9.31227 1.85926C9.31227 1.85926 9.31227 1.85926 9.31227 1.85926C9.31227 1.85926 9.31227 1.85926 9.31227 1.85926C9.31227 1.85926 9.31227 1.85926 9.31227 1.85926C9.31227 1.85926 9.31227 1.85926 9.31227 1.85926C9.31227 1.85926 9.31227 1.85926 9.31227 1.85926C9.31227 1.85926 9.31227 1.85926 9.31227 1.85927C9.31227 1.85927 9.31227 1.85927 9.31227 1.85927C9.31227 1.85927 9.31227 1.85927 9.31227 1.85927C9.31227 1.85927 9.31227 1.85927 9.31227 1.85927C9.31227 1.85927 9.31227 1.85927 9.31227 1.85927C9.31227 1.85927 9.31227 1.85927 9.31227 1.85927C9.31227 1.85927 9.31227 1.85927 9.31227 1.85927C9.31227 1.85927 9.31227 1.85927 9.31227 1.85927C9.31227 1.85927 9.31227 1.85927 9.31227 1.85927C9.31227 1.85927 9.31227 1.85927 9.31227 1.85927C9.31227 1.85927 9.31227 1.85927 9.31227 1.85927C9.31227 1.85927 9.31227 1.85927 9.31227 1.85927C9.31227 1.85927 9.31227 1.85927 9.31227 1.85927C9.31227 1.85927 9.31227 1.85927 9.31227 1.85927C9.31227 1.85927 9.31227 1.85927 9.31228 1.85927C9.31228 1.85927 9.31228 1.85927 9.31228 1.85927C9.31228 1.85927 9.31228 1.85927 9.31228 1.85927C9.31228 1.85927 9.31228 1.85927 9.31228 1.85927C9.31228 1.85927 9.31228 1.85927 9.31228 1.85927C9.31228 1.85927 9.31228 1.85927 9.31228 1.85927C9.31228 1.85927 9.31228 1.85927 9.31228 1.85927C9.31228 1.85927 9.31228 1.85927 9.31228 1.85927C9.31228 1.85927 9.31228 1.85927 9.31228 1.85927C9.31228 1.85927 9.31228 1.85928 9.31228 1.85928C9.31228 1.85928 9.31228 1.85928 9.31228 1.85928C9.31228 1.85928 9.31228 1.85928 9.31228 1.85928C9.31228 1.85928 9.31228 1.85928 9.31228 1.85928C9.31228 1.85928 9.31228 1.85928 9.31228 1.85928C9.31228 1.85928 9.31228 1.85928 9.31228 1.85928C9.31228 1.85928 9.31228 1.85928 9.31228 1.85928C9.31228 1.85928 9.31228 1.85928 9.31228 1.85928C9.31228 1.85928 9.31228 1.85928 9.31228 1.85928C9.31228 1.85928 9.31228 1.85928 9.31228 1.85928C9.31228 1.85928 9.31228 1.85928 9.31228 1.85928C9.31228 1.85928 9.31228 1.85928 9.31228 1.85928C9.31229 1.85928 9.31229 1.85928 9.31229 1.85928C9.31229 1.85928 9.31229 1.85928 9.31229 1.85928C9.31229 1.85928 9.31229 1.85928 9.31229 1.85928C9.31229 1.85928 9.31229 1.85928 9.31229 1.85928C9.31229 1.85928 9.31229 1.85928 9.31229 1.85928C9.31229 1.85928 9.31229 1.85928 9.31229 1.85928C9.31229 1.85928 9.31229 1.85928 9.31229 1.85928C9.31229 1.85928 9.31229 1.85928 9.31229 1.85928C9.31229 1.85928 9.31229 1.85928 9.31229 1.85928C9.31229 1.85928 9.31229 1.85928 9.31229 1.85928C9.31229 1.85928 9.31229 1.85928 9.31229 1.85929C9.31229 1.85929 9.31229 1.85929 9.31229 1.85929C9.31229 1.85929 9.31229 1.85929 9.31229 1.85929C9.31229 1.85929 9.31229 1.85929 9.31229 1.85929C9.31229 1.85929 9.31229 1.85929 9.31229 1.85929C9.31229 1.85929 9.31229 1.85929 9.31229 1.85929C9.31229 1.85929 9.31229 1.85929 9.31229 1.85929C9.31229 1.85929 9.31229 1.85929 9.31229 1.85929C9.31229 1.85929 9.31229 1.85929 9.31229 1.85929C9.31229 1.85929 9.31229 1.85929 9.31229 1.85929C9.31229 1.85929 9.31229 1.85929 9.31229 1.85929C9.31229 1.85929 9.31229 1.85929 9.31229 1.85929C9.31229 1.85929 9.3123 1.85929 9.3123 1.85929C9.3123 1.85929 9.3123 1.85929 9.3123 1.85929C9.3123 1.85929 9.3123 1.85929 9.3123 1.85929C9.3123 1.85929 9.3123 1.85929 9.3123 1.85929C9.3123 1.85929 9.3123 1.85929 9.3123 1.85929C9.3123 1.85929 9.3123 1.85929 9.3123 1.85929C9.3123 1.85929 9.3123 1.85929 9.3123 1.85929C9.3123 1.85929 9.3123 1.85929 9.3123 1.85929C9.3123 1.85929 9.3123 1.85929 9.3123 1.85929C9.3123 1.85929 9.3123 1.85929 9.3123 1.85929C9.3123 1.85929 9.3123 1.85929 9.3123 1.85929C9.3123 1.8593 9.3123 1.8593 9.3123 1.8593C9.3123 1.8593 9.3123 1.8593 9.3123 1.8593C9.3123 1.8593 9.3123 1.8593 9.3123 1.8593C9.3123 1.8593 9.3123 1.8593 9.3123 1.8593C9.3123 1.8593 9.3123 1.8593 9.3123 1.8593C9.3123 1.8593 9.3123 1.8593 9.3123 1.8593C9.3123 1.8593 9.3123 1.8593 9.3123 1.8593C9.3123 1.8593 9.3123 1.8593 9.3123 1.8593C9.3123 1.8593 9.3123 1.8593 9.3123 1.8593C9.3123 1.8593 9.3123 1.8593 9.31231 1.8593C9.31231 1.8593 9.31231 1.8593 9.31231 1.8593C9.31231 1.8593 9.31231 1.8593 9.31231 1.8593C9.31231 1.8593 9.31231 1.8593 9.31231 1.8593C9.31231 1.8593 9.31231 1.8593 9.31231 1.8593C9.31231 1.8593 9.31231 1.8593 9.31231 1.8593C9.31231 1.8593 9.31231 1.8593 9.31231 1.8593C9.31231 1.8593 9.31231 1.8593 9.31231 1.8593C9.31231 1.8593 9.31231 1.8593 9.31231 1.8593C9.31231 1.8593 9.31231 1.8593 9.31231 1.8593C9.31231 1.8593 9.31231 1.8593 9.31231 1.8593C9.31231 1.8593 9.31231 1.8593 9.31231 1.8593C9.31231 1.8593 9.31231 1.8593 9.31231 1.8593C9.31231 1.8593 9.31231 1.8593 9.31231 1.85931C9.31231 1.85931 9.31231 1.85931 9.31231 1.85931C9.31231 1.85931 9.31231 1.85931 9.31231 1.85931C9.31231 1.85931 9.31231 1.85931 9.31231 1.85931C9.31231 1.85931 9.31231 1.85931 9.31231 1.85931C9.31231 1.85931 9.31231 1.85931 9.31231 1.85931C9.31231 1.85931 9.31231 1.85931 9.31231 1.85931C9.31231 1.85931 9.31231 1.85931 9.31231 1.85931C9.31231 1.85931 9.31231 1.85931 9.31231 1.85931C9.31231 1.85931 9.31231 1.85931 9.31231 1.85931C9.31232 1.85931 9.31232 1.85931 9.31232 1.85931C9.31232 1.85931 9.31232 1.85931 9.31232 1.85931C9.31232 1.85931 9.31232 1.85931 9.31232 1.85931C9.31232 1.85931 9.31232 1.85931 9.31232 1.85931C9.31232 1.85931 9.31232 1.85931 9.31232 1.85931C9.31232 1.85931 9.31232 1.85931 9.31232 1.85931C9.31232 1.85931 9.31232 1.85931 9.31232 1.85931C9.31232 1.85931 9.31232 1.85931 9.31232 1.85931C9.31232 1.85931 9.31232 1.85931 9.31232 1.85931C9.31232 1.85931 9.31232 1.85931 9.31232 1.85931C9.31232 1.85931 9.31232 1.85931 9.31232 1.85931C9.31232 1.85931 9.31232 1.85931 9.31232 1.85931C9.31232 1.85931 9.31232 1.85931 9.31232 1.85931C9.31232 1.85931 9.31232 1.85932 9.31232 1.85932C9.31232 1.85932 9.31232 1.85932 9.31232 1.85932C9.31232 1.85932 9.31232 1.85932 9.31232 1.85932C9.31232 1.85932 9.31232 1.85932 9.31232 1.85932C9.31232 1.85932 9.31232 1.85932 9.31232 1.85932C9.31232 1.85932 9.31232 1.85932 9.31232 1.85932C9.31232 1.85932 9.31232 1.85932 9.31232 1.85932C9.31232 1.85932 9.31233 1.85932 9.31233 1.85932C9.31233 1.85932 9.31233 1.85932 9.31233 1.85932C9.31233 1.85932 9.31233 1.85932 9.31233 1.85932C9.31233 1.85932 9.31233 1.85932 9.31233 1.85932C9.31233 1.85932 9.31233 1.85932 9.31233 1.85932C9.31233 1.85932 9.31233 1.85932 9.31233 1.85932C9.31233 1.85932 9.31233 1.85932 9.31233 1.85932C9.31233 1.85932 9.31233 1.85932 9.31233 1.85932C9.31233 1.85932 9.31233 1.85932 9.31233 1.85932C9.31233 1.85932 9.31233 1.85932 9.31233 1.85932C9.31233 1.85932 9.31233 1.85932 9.31233 1.85932C9.31233 1.85932 9.31233 1.85932 9.31233 1.85932C9.31233 1.85932 9.31233 1.85932 9.31233 1.85932C9.31233 1.85932 9.31233 1.85932 9.31233 1.85932C9.31233 1.85932 9.31233 1.85932 9.31233 1.85932C9.31233 1.85932 9.31233 1.85932 9.31233 1.85932C9.31233 1.85933 9.31233 1.85933 9.31233 1.85933C9.31233 1.85933 9.31233 1.85933 9.31233 1.85933C9.31233 1.85933 9.31233 1.85933 9.31233 1.85933C9.31233 1.85933 9.31233 1.85933 9.31233 1.85933C9.31233 1.85933 9.31233 1.85933 9.31234 1.85933C9.31234 1.85933 9.31234 1.85933 9.31234 1.85933C9.31234 1.85933 9.31234 1.85933 9.31234 1.85933C9.31234 1.85933 9.31234 1.85933 9.31234 1.85933C9.31234 1.85933 9.31234 1.85933 9.31234 1.85933C9.31234 1.85933 9.31234 1.85933 9.31234 1.85933C9.31234 1.85933 9.31234 1.85933 9.31234 1.85933C9.31234 1.85933 9.31234 1.85933 9.31234 1.85933C9.31234 1.85933 9.31234 1.85933 9.31234 1.85933C9.31234 1.85933 9.31234 1.85933 9.31234 1.85933C9.31234 1.85933 9.31234 1.85933 9.31234 1.85933C9.31234 1.85933 9.31234 1.85933 9.31234 1.85933C9.31234 1.85933 9.31234 1.85933 9.31234 1.85933C9.31234 1.85933 9.31234 1.85933 9.31234 1.85933C9.31234 1.85933 9.31234 1.85933 9.31234 1.85933C9.31234 1.85933 9.31234 1.85933 9.31234 1.85933C9.31234 1.85933 9.31234 1.85933 9.31234 1.85933C9.31234 1.85933 9.31234 1.85933 9.31234 1.85933C9.31234 1.85933 9.31234 1.85934 9.31234 1.85934C9.31234 1.85934 9.31234 1.85934 9.31234 1.85934C9.31234 1.85934 9.31234 1.85934 9.31234 1.85934C9.31234 1.85934 9.31234 1.85934 9.31234 1.85934C9.31234 1.85934 9.31234 1.85934 9.31234 1.85934C9.31235 1.85934 9.31235 1.85934 9.31235 1.85934C9.31235 1.85934 9.31235 1.85934 9.31235 1.85934C9.31235 1.85934 9.31235 1.85934 9.31235 1.85934C9.31235 1.85934 9.31235 1.85934 9.31235 1.85934C9.31235 1.85934 9.31235 1.85934 9.31235 1.85934C9.31235 1.85934 9.31235 1.85934 9.31235 1.85934C9.31235 1.85934 9.31235 1.85934 9.31235 1.85934C9.31235 1.85934 9.31235 1.85934 9.31235 1.85934C9.31235 1.85934 9.31235 1.85934 9.31235 1.85934C9.31235 1.85934 9.31235 1.85934 9.31235 1.85934C9.31235 1.85934 9.31235 1.85934 9.31235 1.85934C9.31235 1.85934 9.31235 1.85934 9.31235 1.85934C9.31235 1.85934 9.31235 1.85934 9.31235 1.85934C9.31235 1.85934 9.31235 1.85934 9.31235 1.85934C9.31235 1.85934 9.31235 1.85934 9.31235 1.85934C9.31235 1.85934 9.31235 1.85934 9.31235 1.85934C9.31235 1.85934 9.31235 1.85934 9.31235 1.85934C9.31235 1.85934 9.31235 1.85934 9.31235 1.85934C9.31235 1.85935 9.31235 1.85935 9.31235 1.85935C9.31235 1.85935 9.31235 1.85935 9.31235 1.85935C9.31235 1.85935 9.31236 1.85935 9.31236 1.85935C9.31236 1.85935 9.31236 1.85935 9.31236 1.85935C9.31236 1.85935 9.31236 1.85935 9.31236 1.85935C9.31236 1.85935 9.31236 1.85935 9.31236 1.85935C9.31236 1.85935 9.31236 1.85935 9.31236 1.85935C9.31236 1.85935 9.31236 1.85935 9.31236 1.85935C9.31236 1.85935 9.31236 1.85935 9.31236 1.85935C9.31236 1.85935 9.31236 1.85935 9.31236 1.85935C9.31236 1.85935 9.31236 1.85935 9.31236 1.85935C9.31236 1.85935 9.31236 1.85935 9.31236 1.85935C9.31236 1.85935 9.31236 1.85935 9.31236 1.85935C9.31236 1.85935 9.31236 1.85935 9.31236 1.85935C9.31236 1.85935 9.31236 1.85935 9.31236 1.85935C9.31236 1.85935 9.31236 1.85935 9.31236 1.85935C9.31236 1.85935 9.31236 1.85935 9.31236 1.85935C9.31236 1.85935 9.31236 1.85935 9.31236 1.85935C9.31236 1.85935 9.31236 1.85935 9.31236 1.85935C9.31236 1.85935 9.31236 1.85935 9.31236 1.85935C9.31236 1.85935 9.31236 1.85935 9.31236 1.85935C9.31236 1.85935 9.31236 1.85935 9.31236 1.85935C9.31236 1.85935 9.31236 1.85935 9.31236 1.85936C9.31236 1.85936 9.31236 1.85936 9.31236 1.85936C9.31236 1.85936 9.31236 1.85936 9.31237 1.85936C9.31237 1.85936 9.31237 1.85936 9.31237 1.85936C9.31237 1.85936 9.31237 1.85936 9.31237 1.85936C9.31237 1.85936 9.31237 1.85936 9.31237 1.85936C9.31237 1.85936 9.31237 1.85936 9.31237 1.85936C9.31237 1.85936 9.31237 1.85936 9.31237 1.85936C9.31237 1.85936 9.31237 1.85936 9.31237 1.85936C9.31237 1.85936 9.31237 1.85936 9.31237 1.85936C9.31237 1.85936 9.31237 1.85936 9.31237 1.85936C9.31237 1.85936 9.31237 1.85936 9.31237 1.85936C9.31237 1.85936 9.31237 1.85936 9.31237 1.85936C9.31237 1.85936 9.31237 1.85936 9.31237 1.85936C9.31237 1.85936 9.31237 1.85936 9.31237 1.85936C9.31237 1.85936 9.31237 1.85936 9.31237 1.85936C9.31237 1.85936 9.31237 1.85936 9.31237 1.85936C9.31237 1.85936 9.31237 1.85936 9.31237 1.85936C9.31237 1.85936 9.31237 1.85936 9.31237 1.85936C9.31237 1.85936 9.31237 1.85936 9.31237 1.85936C9.31237 1.85936 9.31237 1.85936 9.31237 1.85936C9.31237 1.85936 9.31237 1.85936 9.31237 1.85936C9.31237 1.85936 9.31237 1.85936 9.31237 1.85936C9.31238 1.85937 9.31238 1.85937 9.31238 1.85937C9.31238 1.85937 9.31238 1.85937 9.31238 1.85937C9.31238 1.85937 9.31238 1.85937 9.31238 1.85937C9.31238 1.85937 9.31238 1.85937 9.31238 1.85937C9.31238 1.85937 9.31238 1.85937 9.31238 1.85937C9.31238 1.85937 9.31238 1.85937 9.31238 1.85937C9.31238 1.85937 9.31238 1.85937 9.31238 1.85937C9.31238 1.85937 9.31238 1.85937 9.31238 1.85937C9.31238 1.85937 9.31238 1.85937 9.31238 1.85937C9.31238 1.85937 9.31238 1.85937 9.31238 1.85937C9.31238 1.85937 9.31238 1.85937 9.31238 1.85937C9.31238 1.85937 9.31238 1.85937 9.31238 1.85937C9.31238 1.85937 9.31238 1.85937 9.31238 1.85937C9.31238 1.85937 9.31238 1.85937 9.31238 1.85937C9.31238 1.85937 9.31238 1.85937 9.31238 1.85937C9.31238 1.85937 9.31238 1.85937 9.31238 1.85937C9.31238 1.85937 9.31238 1.85937 9.31238 1.85937C9.31238 1.85937 9.31238 1.85937 9.31238 1.85937C9.31238 1.85937 9.31238 1.85937 9.31238 1.85937C9.31238 1.85937 9.31238 1.85937 9.31238 1.85937C9.31238 1.85937 9.31238 1.85937 9.31238 1.85937C9.31238 1.85937 9.31238 1.85937 9.31238 1.85937C9.31238 1.85937 9.31239 1.85938 9.31239 1.85938C9.31239 1.85938 9.31239 1.85938 9.31239 1.85938C9.31239 1.85938 9.31239 1.85938 9.31239 1.85938C9.31239 1.85938 9.31239 1.85938 9.31239 1.85938C9.31239 1.85938 9.31239 1.85938 9.31239 1.85938C9.31239 1.85938 9.31239 1.85938 9.31239 1.85938C9.31239 1.85938 9.31239 1.85938 9.31239 1.85938C9.31239 1.85938 9.31239 1.85938 9.31239 1.85938C9.31239 1.85938 9.31239 1.85938 9.31239 1.85938C9.31239 1.85938 9.31239 1.85938 9.31239 1.85938C9.31239 1.85938 9.31239 1.85938 9.31239 1.85938C9.31239 1.85938 9.31239 1.85938 9.31239 1.85938C9.31239 1.85938 9.31239 1.85938 9.31239 1.85938C9.31239 1.85938 9.31239 1.85938 9.31239 1.85938C9.31239 1.85938 9.31239 1.85938 9.31239 1.85938C9.31239 1.85938 9.31239 1.85938 9.31239 1.85938C9.31239 1.85938 9.31239 1.85938 9.31239 1.85938C9.31239 1.85938 9.31239 1.85938 9.31239 1.85938C9.31239 1.85938 9.31239 1.85938 9.31239 1.85938C9.31239 1.85938 9.31239 1.85938 9.31239 1.85938C9.31239 1.85938 9.31239 1.85938 9.3124 1.85938C9.3124 1.85938 9.3124 1.85938 9.3124 1.85938C9.3124 1.85938 9.3124 1.85938 9.3124 1.85938C9.3124 1.85939 9.3124 1.85939 9.3124 1.85939C9.3124 1.85939 9.3124 1.85939 9.3124 1.85939C9.3124 1.85939 9.3124 1.85939 9.3124 1.85939C9.3124 1.85939 9.3124 1.85939 9.3124 1.85939C9.3124 1.85939 9.3124 1.85939 9.3124 1.85939C9.3124 1.85939 9.3124 1.85939 9.3124 1.85939C9.3124 1.85939 9.3124 1.85939 9.3124 1.85939C9.3124 1.85939 9.3124 1.85939 9.3124 1.85939C9.3124 1.85939 9.3124 1.85939 9.3124 1.85939C9.3124 1.85939 9.3124 1.85939 9.3124 1.85939C9.3124 1.85939 9.3124 1.85939 9.3124 1.85939C9.3124 1.85939 9.3124 1.85939 9.3124 1.85939C9.3124 1.85939 9.3124 1.85939 9.3124 1.85939C9.3124 1.85939 9.3124 1.85939 9.3124 1.85939C9.3124 1.85939 9.3124 1.85939 9.3124 1.85939C9.3124 1.85939 9.3124 1.85939 9.3124 1.85939C9.3124 1.85939 9.3124 1.85939 9.3124 1.85939C9.3124 1.85939 9.3124 1.85939 9.3124 1.85939C9.3124 1.85939 9.3124 1.85939 9.3124 1.85939C9.3124 1.85939 9.3124 1.85939 9.3124 1.85939C9.31241 1.85939 9.31241 1.85939 9.31241 1.85939C9.31241 1.85939 9.31241 1.85939 9.31241 1.85939C9.31241 1.85939 9.31241 1.85939 9.31241 1.8594C9.31241 1.8594 9.31241 1.8594 9.31241 1.8594C9.31241 1.8594 9.31241 1.8594 9.31241 1.8594C9.31241 1.8594 9.31241 1.8594 9.31241 1.8594C9.31241 1.8594 9.31241 1.8594 9.31241 1.8594C9.31241 1.8594 9.31241 1.8594 9.31241 1.8594C9.31241 1.8594 9.31241 1.8594 9.31241 1.8594L9.65582 1.49598ZM9.31928 1.48973C8.50284 2.20572 6.50912 4.05022 4.71762 6.48236C2.93059 8.90842 1.31837 11.9545 1.31837 15.068H1.81837C1.81837 12.1153 3.35424 9.17634 5.12019 6.77889C6.88167 4.38751 8.84582 2.56996 9.64895 1.86565L9.31928 1.48973ZM1.31837 15.068C1.31837 19.5791 4.98695 23.2475 9.49787 23.2475V22.7475C5.26309 22.7475 1.81837 19.3029 1.81837 15.068H1.31837ZM9.49787 23.2475C14.0088 23.2475 17.6774 19.5789 17.6774 15.068H17.1774C17.1774 19.3027 13.7327 22.7475 9.49787 22.7475V23.2475ZM17.6774 15.0681C17.6784 12.2135 16.0526 9.18936 14.2612 6.71539C12.4628 4.23194 10.464 2.25788 9.6556 1.49578L9.31262 1.8596C10.1101 2.61141 12.0839 4.56112 13.8562 7.00865C15.6354 9.46566 17.1783 12.3797 17.1774 15.0679L17.6774 15.0681Z" fill="#4AF6CD"/>
</svg>
