<svg xmlns="http://www.w3.org/2000/svg" width="600" height="600"><defs><linearGradient id="A" x1="355.752" y1="369.186" x2="243.226" y2="121.324" gradientUnits="userSpaceOnUse"><stop offset="0" stop-color="red"/><stop offset="1" stop-color="red" stop-opacity="0"/></linearGradient></defs><g fill="#fff"><rect ry="46.429" rx="45.714" y="258.4" x="127.062" height="92.857" width="345.714"/><rect transform="rotate(270)" width="345.714" height="92.857" x="-470.943" y="250.714" rx="45.714" ry="46.429"/></g><path d="M295.257 125.324s-8.586 1.263-11.364 2.02-6.819 2.778-9.091 3.788-7.829 5.303-9.344 6.313-2.778 2.02-5.808 6.313-4.041 6.566-5.556 11.112-3.788 8.334-3.788 13.132v28.284 61.619l-80.055.253s-7.829 1.01-9.849 1.515-4.041.758-7.576 2.778-5.303 2.525-8.081 5.051-5.556 4.546-7.324 7.071-2.525 3.788-4.293 6.566-3.536 7.071-4.293 9.091-1.768 7.829-2.02 12.122.253 9.849 1.01 13.385 3.536 9.344 4.546 11.364 5.556 8.334 7.324 10.102 6.061 5.808 8.081 6.819 3.788 2.778 8.081 4.041 8.586 2.273 10.607 2.778 83.843.253 83.843.253l.505 81.822 1.515 7.071c.505 2.525 2.02 5.556 3.536 7.576s3.536 5.051 5.556 7.576 8.081 7.829 9.849 8.839 11.869 4.798 14.142 5.808 11.364 2.02 13.637 1.768 7.324 0 11.112-1.515 5.556-1.01 8.839-3.536 5.051-3.283 8.081-6.061 5.051-5.051 6.819-7.324 5.808-9.344 6.819-11.869 1.263-4.546 1.768-8.081.758-82.327.758-82.327h88.388l7.071-1.515c2.02-.505 6.566-1.515 8.334-2.778s6.566-3.283 9.091-5.808 4.293-4.041 6.819-7.576 7.071-12.374 7.576-13.89 2.273-9.849 2.02-12.122-.505-11.364-1.263-13.385-2.273-8.334-4.546-12.122-6.566-8.839-8.586-10.607-7.071-6.061-9.344-7.324-7.829-3.536-11.617-4.546-9.849-1.263-9.849-1.263H343.24l-.505-91.166s-.253-4.293-1.768-8.839-5.556-11.869-7.576-14.647-8.839-8.586-10.354-9.596-6.566-3.788-8.586-4.546-2.778-2.02-7.324-2.525l-11.869-1.263z" fill="url(#A)" fill-rule="evenodd" stroke="#000" stroke-width="8"/></svg>