<svg xmlns="http://www.w3.org/2000/svg" width="600" height="600"><defs><marker orient="auto" refY="0.0" refX="0.0" id="A" overflow="visible"><path d="M8.719 4.034L-2.207.016 8.719-4.002c-1.745 2.372-1.735 5.617 0 8.035z" transform="matrix(-1.1 0 0 -1.1 -1.1 0)" fill-rule="evenodd" stroke-width=".625" stroke-linejoin="round"/></marker></defs><path d="M88.175 170.977h423.68v280.239H88.175z" fill="none" stroke="#000" stroke-width="16"/><path d="M130.753 170.55A40 40 0 1 1 70.75 135.9a40 40 0 0 1 60.003 34.65zm420.715 281.428a40 40 0 1 1-60.003-34.65 40 40 0 0 1 60.003 34.65z" fill="red"/><path d="M138.571 214.286l322.857 192.857" fill-rule="evenodd" stroke="#000" stroke-width="14" stroke-linecap="round" marker-end="url(#A)"/></svg>