<?xml version="1.0" standalone="no"?>
<!DOCTYPE svg PUBLIC "-//W3C//DTD SVG 20010904//EN"
 "http://www.w3.org/TR/2001/REC-SVG-20010904/DTD/svg10.dtd">
<svg version="1.0" xmlns="http://www.w3.org/2000/svg"
 width="264.000000pt" height="264.000000pt" viewBox="0 0 264.000000 264.000000"
 preserveAspectRatio="xMidYMid meet">
<metadata>
Created by potrace 1.11, written by Peter Selinger 2001-2013
</metadata>
<g transform="translate(0.000000,264.000000) scale(0.100000,-0.100000)"
fill="#000000" stroke="none">
<path d="M1282 2563 c-21 -8 -33 -50 -22 -78 9 -23 5 -28 -52 -66 -121 -82
-327 -167 -511 -209 l-97 -23 -21 27 c-25 32 -70 35 -100 5 -25 -25 -20 -73
12 -126 40 -65 130 -113 211 -113 l28 0 0 -160 c0 -185 -7 -207 -83 -277 -56
-52 -90 -69 -169 -88 -80 -19 -74 -20 -86 15 -14 39 -53 57 -87 42 -34 -16
-46 -51 -33 -99 22 -84 88 -135 199 -155 l59 -10 0 -162 c0 -161 0 -162 -28
-207 -53 -83 -151 -144 -251 -156 -41 -5 -51 -3 -51 9 0 23 -44 58 -72 58 -72
0 -78 -111 -10 -183 38 -41 96 -68 158 -74 l54 -6 0 -228 0 -229 990 0 990 0
0 229 0 228 54 6 c119 12 206 93 206 191 0 39 -26 66 -63 66 -30 0 -67 -31
-67 -56 0 -40 -180 15 -244 74 -16 15 -42 47 -57 71 -29 45 -29 46 -29 207 l0
162 59 10 c111 20 177 71 199 155 13 48 1 83 -33 99 -34 15 -73 -3 -87 -42
-12 -35 -5 -34 -88 -14 -105 24 -190 86 -231 166 -16 32 -19 59 -19 198 l0
160 28 0 c51 0 131 30 169 63 38 34 72 97 73 135 0 58 -82 83 -119 36 l-20
-26 -77 16 c-173 36 -410 132 -532 215 -58 39 -61 43 -51 68 19 50 -45 99 -99
76z m113 -204 c139 -92 332 -170 535 -219 47 -11 98 -20 113 -20 37 0 31 -19
-14 -45 -33 -19 -51 -20 -709 -20 -658 0 -676 1 -709 20 -45 26 -51 45 -14 45
41 0 214 44 318 80 121 43 278 119 345 169 30 22 56 40 56 41 1 0 36 -23 79
-51z m455 -544 l0 -165 -530 0 -530 0 0 165 0 165 530 0 530 0 0 -165z m82
-309 c81 -81 138 -109 258 -128 36 -6 67 -12 69 -14 2 -2 -13 -12 -35 -21 -36
-17 -99 -18 -904 -18 -843 0 -866 0 -905 20 l-40 20 45 8 c156 27 206 51 290
138 l65 67 542 1 543 1 72 -74z m116 -418 l-3 -163 -725 0 -725 0 -3 163 -2
162 730 0 730 0 -2 -162z m57 -281 c62 -86 170 -143 292 -154 48 -5 61 -9 53
-18 -28 -34 -81 -36 -1155 -33 -1039 3 -1062 3 -1090 23 l-30 20 65 6 c123 13
222 64 296 153 l38 46 751 -1 750 0 30 -42z m135 -477 l0 -200 -295 0 -295 0
0 135 0 135 -330 0 -330 0 0 -135 0 -135 -295 0 -295 0 0 200 0 200 920 0 920
0 0 -200z m-660 -95 l0 -95 -260 0 -260 0 0 95 0 95 260 0 260 0 0 -95z"/>
</g>
</svg>
