<svg xmlns="http://www.w3.org/2000/svg" xmlns:xlink="http://www.w3.org/1999/xlink" width="234" height="235" fill="none"><use xlink:href="#B" fill="#d800e4"/><use xlink:href="#B" stroke="#000"/><use xlink:href="#C" fill="#0b0"/><use xlink:href="#C" stroke="#000"/><path fill-rule="evenodd" d="M0 228.479l1.586-2.199c3.983-5.45 9.723-12.826 16.151-20.458s13.566-15.551 20.348-22.074c6.699-6.444 13.316-11.792 18.667-13.942a2.47 2.47 0 0 1 .655-.165c38.643-4.309 57.917-15.529 67.601-27.114 9.67-11.569 10.189-23.972 10.189-31.761 0-4.131 1.093-14.868 3.892-27.022 2.797-12.141 7.373-26.034 14.508-36.279 7.4-10.624 17.834-18.759 26.311-24.208 4.255-2.735 8.056-4.818 10.798-6.219 1.372-.701 2.481-1.233 3.253-1.591l.894-.408.24-.106.066-.028.018-.008.006-.002.002-.001c.001 0 .001-.001.983 2.298l-.982-2.299c.195-.083.399-.141.609-.173h0 .001l.008-.001.031-.005.126-.019.493-.077 1.82-.299 5.972-1.095c4.715-.936 9.989-2.174 13.005-3.447 6.402-2.706 9.44-5.476 12.826-8.776H234v3.193c-3.67 3.571-7.533 7.115-14.803 10.189h-.002c-3.551 1.499-9.304 2.817-13.975 3.745l-6.112 1.121-1.868.307-.366.058-.807.368c-.72.335-1.773.839-3.085 1.51-2.626 1.342-6.279 3.343-10.37 5.973-8.215 5.28-18.041 12.996-24.912 22.86-6.59 9.462-10.991 22.618-13.738 34.543-2.745 11.913-3.765 22.258-3.765 25.899 0 8.062-.507 21.992-11.353 34.967-10.799 12.92-31.441 24.424-70.531 28.838-4.337 1.845-10.222 6.489-16.762 12.78-6.61 6.359-13.628 14.138-19.989 21.691S9.534 223.878 5.623 229.23c-1.734 2.373-3.104 4.341-4.03 5.77H.037L0 234.952v-6.473z" fill="#000"/><defs ><path id="B" d="M.115 234.996c-2.565.512 38.528-54.064 57.958-61.871 77.962-8.692 80.014-45.508 80.014-61.359 0-7.772 4.225-42.165 17.951-61.871 14.271-20.488 40.52-31.702 40.52-31.702s15.487-2.341 22.055-5.113c6.6-2.786 11.073-7.751 13.426-10.363C233.347 1.264 234 .538 234 1.318v233.678H.115z"/><path id="C" d="M.115 234.506c2.334-5.438 39.705-54.047 57.958-61.381 77.962-8.692 80.014-45.508 80.014-61.359 0-7.772 4.225-42.165 17.951-61.871 14.271-20.488 40.52-31.702 40.52-31.702s15.487-2.341 22.055-5.113c6.562-2.77 11.118-7.9 13.519-10.605.584-.658 1.041-1.172 1.368-1.474H.263L.115 234.506zM234 1.318L233.5 1c.433-.399.5-.13.5.318zM.115 234.506v.49c-.155.031-.151-.14 0-.49z"/></defs></svg>