<svg width="517" height="303" viewBox="0 0 517 303" fill="none" xmlns="http://www.w3.org/2000/svg">
<path fill-rule="evenodd" clip-rule="evenodd" d="M328.389 298.853H3.65536C1.63706 298.853 0 297.352 0 295.502C0 293.651 1.63706 292.151 3.65536 292.151H328.389C330.407 292.151 332.044 293.651 332.044 295.502C332.044 297.352 330.407 298.853 328.389 298.853Z" fill="#FFCA00"/>
<path fill-rule="evenodd" clip-rule="evenodd" d="M512.435 298.853H351.379C349.363 298.853 347.728 297.352 347.728 295.502C347.728 293.651 349.363 292.151 351.379 292.151H512.435C514.452 292.151 516.086 293.651 516.086 295.502C516.086 297.352 514.452 298.853 512.435 298.853Z" fill="#FFCA00"/>
<path fill-rule="evenodd" clip-rule="evenodd" d="M367.138 0.592529H342.639C325.769 0.592529 312.094 12.5243 312.094 27.15C312.094 38.7796 320.742 48.7261 332.764 52.2857V59.6837L340.455 53.7096C341.176 53.7526 341.903 53.8592 342.639 53.8592H367.138C384.005 53.8592 397.682 41.8516 397.682 27.2258C397.682 12.6001 384.005 0.592529 367.138 0.592529Z" fill="white"/>
<path fill-rule="evenodd" clip-rule="evenodd" d="M306.907 104.764L316.23 90.7444L328.52 95.5355V129.286C328.52 131.926 326.942 134.381 324.343 135.78C318.426 138.969 306.907 135.301 306.907 129.286V104.764Z" fill="#FFCA00"/>
<path fill-rule="evenodd" clip-rule="evenodd" d="M252.693 286.2L248.983 293.018H272.326C271.61 290.47 268.861 288.827 265.977 289.224L263.178 289.609C261.227 289.609 259.904 287.822 260.654 286.2H252.693Z" fill="white"/>
<path fill-rule="evenodd" clip-rule="evenodd" d="M280.358 286.2L276.648 293.018H299.99C299.275 290.47 296.527 288.827 293.641 289.224L290.844 289.609C288.894 289.609 287.571 287.822 288.319 286.2H280.358Z" fill="white"/>
<path fill-rule="evenodd" clip-rule="evenodd" d="M337.25 95.9666C339.481 90.9455 336.86 83.3712 330.183 79.2317C323.743 75.2396 315.077 75.4106 308.849 79.653L307.822 80.3523C303.764 83.1157 301.26 87.2737 300.949 91.7654L300.563 106.242L293.939 109.384L299.544 126.351L305.147 120.105L314.097 110.412L321.433 112.325C326.003 113.741 331.031 111.675 332.715 107.694L332.74 107.631L334.144 104.313L337.25 95.9666Z" fill="#FBEFE1"/>
<path fill-rule="evenodd" clip-rule="evenodd" d="M339.018 91.0824L339.73 90.872C340.298 81.6654 332.375 73.6789 321.669 72.6692C309.567 71.5281 298.995 79.687 299.127 90.1096C299.17 93.5718 300.256 102.866 300.256 102.866L311.631 90.7468L312.886 91.1142C321.358 93.5944 330.554 93.5831 339.018 91.0824Z" fill="#FFCA00"/>
<path fill-rule="evenodd" clip-rule="evenodd" d="M253.292 286.957L250.309 264.517C249.096 256.24 249.412 240.431 251.246 232.243L253.36 222.796L249.392 199.391C248.32 193.068 249.367 186.606 252.406 180.795L255.962 171.805H296.388L296.039 173.524C294.462 181.294 294.688 191.45 296.706 199.141L302.818 219.396C303.621 222.055 303.657 224.845 302.925 227.519L288.818 286.957H280.879L280.282 265.059C279.749 250.707 286.343 224.513 286.343 224.513L274.024 197.72L261.231 286.957H253.292Z" fill="#FA7564"/>
<path fill-rule="evenodd" clip-rule="evenodd" d="M277.31 171.805H296.188L295.83 173.524C294.207 181.294 294.44 191.45 296.515 199.141L302.8 219.396C303.626 222.055 303.663 224.845 302.91 227.519L288.403 286.957H280.24L279.626 265.058C279.078 250.707 285.858 224.513 285.858 224.513L273.19 197.72L277.31 171.805Z" fill="#FD8778"/>
<path fill-rule="evenodd" clip-rule="evenodd" d="M334.875 122.318L321.829 146.355L318.795 122.422L308.693 115.892L304.696 120.384L293.506 109.85H277.088V109.684C261.813 125.387 254.516 145.508 255.096 166.195L255.035 171.53H283.508L304.457 186.957L312.216 180.902L298.81 163.32L304.696 149.648L310.513 143.141L319.092 164.451L333.215 161.85L344.946 124.538L334.875 122.318Z" fill="#1E389D"/>
<path fill-rule="evenodd" clip-rule="evenodd" d="M345.26 124.078C346.834 122.955 348.075 121.487 348.874 119.808L350 117.435C350.46 115.755 349.696 113.994 348.104 113.07L343.238 110.24L345.277 104.109C345.576 103.208 344.939 102.27 343.926 102.127C343.214 102.025 342.513 102.351 342.18 102.938L338.169 109.99L337.773 110.567C336.983 111.722 336.38 112.977 335.986 114.292C335.492 115.938 335.328 117.653 335.504 119.353L335.767 121.875L345.26 124.078Z" fill="#FBEFE1"/>
<path fill-rule="evenodd" clip-rule="evenodd" d="M475.815 282.297H449.943V238.929H474.338L482.121 176.91C483.713 167.377 478.517 157.911 468.993 153.059C460.544 148.755 449.807 148.755 441.382 153.096L427.495 160.082V221.264L408.056 238.929H440.491V282.297H414.647C411.106 282.297 408.238 284.726 408.238 287.819C408.238 290.913 411.106 293.598 414.647 293.598C418.063 293.598 420.848 290.558 421.038 288.493H438.839C439.03 290.558 441.814 293.775 445.23 293.775C448.648 293.775 451.432 290.558 451.621 288.493H469.424C469.615 290.558 472.398 293.558 475.815 293.558C479.355 293.558 482.225 291.022 482.225 287.928C482.225 284.834 479.355 282.297 475.815 282.297Z" fill="black"/>
<path fill-rule="evenodd" clip-rule="evenodd" d="M402.618 286.2L406.327 293.018H382.985C383.7 290.47 386.448 288.827 389.333 289.224L392.132 289.609C394.082 289.609 395.405 287.822 394.657 286.2H402.618Z" fill="white"/>
<path fill-rule="evenodd" clip-rule="evenodd" d="M381.004 286.2L384.714 293.018H361.372C362.088 290.47 364.835 288.827 367.721 289.224L370.519 289.609C372.468 289.609 373.791 287.822 373.043 286.2H381.004Z" fill="white"/>
<path fill-rule="evenodd" clip-rule="evenodd" d="M383.947 287.715L397.116 238.289L422.506 227.114H437.916L450.418 210.442L419.018 213.472L385.823 224.615C382.353 225.78 379.847 228.446 379.23 231.633L369.152 287.715H383.947Z" fill="#1E389D"/>
<path fill-rule="evenodd" clip-rule="evenodd" d="M428.413 213.702L401.897 225.802C398.745 227.242 396.642 229.962 396.305 233.039L390.766 287.715H404.598L416.731 233.932L450.539 227.115C459.544 227.115 466.844 220.781 466.844 212.968V210.442L428.413 213.702Z" fill="#212293"/>
<path fill-rule="evenodd" clip-rule="evenodd" d="M427.184 153.884H453.254C460.051 153.884 466.321 157.11 469.674 162.33L486.728 184.673V219.533H474.624V188.998L465.979 180.855V213.426H419.296L423.242 171.904L404.52 187.281C400.441 190.957 393.484 190.034 390.808 185.462L374.34 157.334L382.555 152.866L397.105 173.73L413.752 158.841C417.298 155.67 422.135 153.884 427.184 153.884Z" fill="#FA7564"/>
<path fill-rule="evenodd" clip-rule="evenodd" d="M420.395 125.52C420.294 120.043 425.696 113.628 433.512 111.743C441.05 109.925 449.022 112.765 453.134 118.734L453.812 119.719C456.492 123.608 457.183 128.347 455.711 132.726L450.55 146.441L450.192 154.573L441.321 157.411L435.313 154.573L435.654 145.813L428.809 145.795C424.013 145.734 420.162 142.212 420.162 137.895V137.827L420.159 132.012L420.395 125.52Z" fill="#FBEFE1"/>
<path fill-rule="evenodd" clip-rule="evenodd" d="M443.502 146.805V133.169H420.159L420.161 137.232V137.297C420.161 141.381 424.034 144.714 428.859 144.772L435.745 144.789L435.662 146.805H443.502Z" fill="black"/>
<path fill-rule="evenodd" clip-rule="evenodd" d="M445.442 122.554C445.442 122.554 423.683 122.849 418.43 113.068C418.43 113.068 431.459 105.222 445.349 108.011C457.184 110.594 463.802 121.626 459.446 131.581C457.999 134.888 455.509 140.438 452.73 144.532V132.327L445.62 131.159L444.489 133.844H441.152L445.442 122.554Z" fill="black"/>
<path fill-rule="evenodd" clip-rule="evenodd" d="M474.624 235.442C473.668 235.442 472.895 234.699 472.895 233.782V226.505L476.353 224.078V233.782C476.353 234.699 475.579 235.442 474.624 235.442Z" fill="#FBEFE1"/>
<path fill-rule="evenodd" clip-rule="evenodd" d="M478.137 236.199C477.219 236.199 476.472 235.51 476.462 234.654L476.354 224.078H479.703L479.812 234.624C479.82 235.491 479.069 236.199 478.137 236.199Z" fill="#FBEFE1"/>
<path fill-rule="evenodd" clip-rule="evenodd" d="M483.269 235.442C482.315 235.442 481.541 234.699 481.541 233.782V224.078H484.999V233.782C484.999 234.699 484.225 235.442 483.269 235.442Z" fill="#FBEFE1"/>
<path fill-rule="evenodd" clip-rule="evenodd" d="M486.421 230.896H485.306C484.658 230.896 484.134 230.389 484.134 229.763V224.078H487.592V229.763C487.592 230.389 487.069 230.896 486.421 230.896Z" fill="#FBEFE1"/>
<path fill-rule="evenodd" clip-rule="evenodd" d="M487.592 225.069V221.826L486.207 218.986L476.638 218.775L476.485 218.903C474.197 220.819 473.169 223.497 473.169 226.327L472.895 226.351L487.592 225.069Z" fill="#FBEFE1"/>
<path fill-rule="evenodd" clip-rule="evenodd" d="M512.664 205.896H449.692H287.023V215.207H297.653L289.323 302.109H293.35L315.045 215.207H324.337L316.966 292.798H320.47L339.615 215.207H424.6L446.293 302.109H450.322L441.993 215.207H449.692H483.811L502.956 292.798H506.46L499.089 215.207H512.664V205.896Z" fill="white"/>
<path fill-rule="evenodd" clip-rule="evenodd" d="M100.606 282.3H74.7345V238.942H107.201L87.744 221.28V160.113L73.8428 153.107C65.4091 148.767 54.804 148.744 46.3466 153.047C36.8131 157.898 31.5407 167.407 33.1337 176.937L40.8531 238.942H65.2731V282.3H39.3747C35.8314 282.3 32.9587 284.728 32.9587 287.821C32.9587 290.914 35.8314 293.598 39.3747 293.598C42.7951 293.598 45.5814 290.559 45.7719 288.494H63.5925C63.7829 290.559 66.5705 293.775 69.9896 293.775C73.4099 293.775 76.1975 290.559 76.3867 288.494H94.2085C94.3977 290.559 97.1853 293.558 100.606 293.558C104.149 293.558 107.022 291.022 107.022 287.929C107.022 284.836 104.149 282.3 100.606 282.3Z" fill="black"/>
<path fill-rule="evenodd" clip-rule="evenodd" d="M112.641 286.2L108.931 293.018H132.273C131.558 290.47 128.809 288.827 125.924 289.224L123.126 289.609C121.175 289.609 119.852 287.822 120.602 286.2H112.641Z" fill="black"/>
<path fill-rule="evenodd" clip-rule="evenodd" d="M134.254 286.2L130.543 293.018H153.886C153.17 290.47 150.421 288.827 147.536 289.224L144.739 289.609C142.788 289.609 141.465 287.822 142.215 286.2H134.254Z" fill="black"/>
<path fill-rule="evenodd" clip-rule="evenodd" d="M131.311 287.715L118.142 238.289L92.7503 227.114H77.3407L64.8397 210.442L96.2393 213.472L129.435 224.615C132.904 225.78 135.41 228.446 136.028 231.633L146.105 287.715H131.311Z" fill="#1E389D"/>
<path fill-rule="evenodd" clip-rule="evenodd" d="M85.9807 213.702L112.496 225.802C115.649 227.242 117.752 229.962 118.088 233.039L123.627 287.715H109.795L97.6625 233.932L63.8528 227.115C54.8483 227.115 47.5493 220.781 47.5493 212.968V210.442L85.9807 213.702Z" fill="#212293"/>
<path fill-rule="evenodd" clip-rule="evenodd" d="M87.4106 153.872H61.0135C54.1313 153.872 47.7817 157.06 44.388 162.219L24.7628 187.671C21.8709 191.421 23.5624 196.511 28.3201 198.373L55.646 209.064L60.8759 198.731L42.8804 191.942C41.0893 191.265 40.495 189.327 41.667 187.975L48.1281 180.526V212.715H95.3983L91.4021 171.68L110.358 186.877C114.489 190.51 121.533 189.598 124.243 185.079L140.918 157.282L132.599 152.866L117.867 173.485L101.01 158.771C97.4196 155.636 92.5219 153.872 87.4106 153.872Z" fill="#FA7564"/>
<path fill-rule="evenodd" clip-rule="evenodd" d="M93.1327 125.52C93.2328 120.043 87.8328 113.628 80.0156 111.743C72.4777 109.925 64.5069 112.765 60.394 118.734L59.7155 119.719C57.0365 123.608 56.3452 128.347 57.8174 132.726L62.9776 146.441L63.3349 154.573L72.2065 157.411L78.2141 154.573L77.8742 145.813L84.7197 145.795C89.5145 145.734 93.3667 142.212 93.3667 137.895V137.827L93.369 132.012L93.1327 125.52Z" fill="#FBEFE1"/>
<path fill-rule="evenodd" clip-rule="evenodd" d="M96.8272 110.223C96.8272 110.223 83.1345 104.653 69.5347 107.429C67.0608 107.977 64.8373 108.927 62.8842 110.15L60.0822 107.351V112.263C54.8873 117.01 52.9119 124.189 55.795 130.885C57.2119 134.176 60.0822 139.7 62.4338 143.775V131.628L69.3313 130.465L69.4748 121.902C69.4748 121.902 82.4431 122.517 90.5211 117.564L93.1821 122.356C93.1821 122.356 91.3889 113.224 96.8272 110.223Z" fill="black"/>
<path fill-rule="evenodd" clip-rule="evenodd" d="M65.7043 194.533C65.7043 193.696 64.8561 193.017 63.8101 193.017H55.506L52.7364 196.048H63.8101C64.8561 196.048 65.7043 195.369 65.7043 194.533Z" fill="#FBEFE1"/>
<path fill-rule="evenodd" clip-rule="evenodd" d="M66.5688 198.368C66.5688 197.563 65.7816 196.909 64.8051 196.901L52.7364 196.805V199.74L64.7717 199.836C65.7604 199.843 66.5688 199.185 66.5688 198.368Z" fill="#FBEFE1"/>
<path fill-rule="evenodd" clip-rule="evenodd" d="M65.7043 202.108C65.7043 201.272 64.8561 200.593 63.8101 200.593H52.7364V203.624H63.8101C64.8561 203.624 65.7043 202.945 65.7043 202.108Z" fill="#FBEFE1"/>
<path fill-rule="evenodd" clip-rule="evenodd" d="M73.4849 207.9V206.923C73.4849 206.355 72.906 205.896 72.1923 205.896H65.7042V208.927H72.1923C72.906 208.927 73.4849 208.468 73.4849 207.9Z" fill="#FF63BE"/>
<path fill-rule="evenodd" clip-rule="evenodd" d="M54.7308 205.896H51.0305L47.7893 204.682L47.5493 196.297L47.6956 196.163C49.8818 194.158 52.9369 193.258 56.1676 193.258L56.1945 193.017L54.7308 205.896Z" fill="#FBEFE1"/>
<path fill-rule="evenodd" clip-rule="evenodd" d="M227.37 205.896H64.6998H1.72943V215.207H15.3045L7.93279 292.798H11.4367L30.5808 215.207H64.6998H72.4011L64.0713 302.109H68.0998L89.7932 215.207H174.78L193.924 292.798H197.427L190.056 215.207H199.348L221.042 302.109H225.07L216.74 215.207H227.37V205.896Z" fill="white"/>
<path fill-rule="evenodd" clip-rule="evenodd" d="M118.07 194.533H208.255C211.371 194.533 214.053 192.616 214.67 189.95L225.51 143.042C226.327 139.504 223.23 136.199 219.095 136.199H128.91C125.795 136.199 123.111 138.116 122.495 140.782L111.656 187.69C110.838 191.228 113.935 194.533 118.07 194.533Z" fill="white"/>
<path fill-rule="evenodd" clip-rule="evenodd" d="M184 170.29H156.49L167.747 196.002C168.95 198.748 166.664 201.707 163.341 201.707H146.105V205.896H185.272C192.435 205.896 197.323 199.469 194.635 193.583L184 170.29Z" fill="#B3D2EC"/>
<path fill-rule="evenodd" clip-rule="evenodd" d="M414.242 32.4108H385.444C366.897 32.4108 351.862 45.2227 351.862 61.3197V61.236C351.862 77.334 366.897 90.2988 385.444 90.2988H414.242C414.873 90.2988 415.499 90.2461 416.122 90.2161L424.527 96.805V88.831C438.041 85.06 447.824 74.0644 447.824 61.0819V61.3197C447.824 45.2227 432.788 32.4108 414.242 32.4108Z" fill="#FFCA00"/>
<path fill-rule="evenodd" clip-rule="evenodd" d="M395.459 194.533H305.273C302.159 194.533 299.475 192.616 298.859 189.95L288.018 143.042C287.202 139.504 290.299 136.199 294.432 136.199H384.62C387.733 136.199 390.417 138.116 391.033 140.782L401.873 187.69C402.691 191.228 399.593 194.533 395.459 194.533Z" fill="white"/>
<path fill-rule="evenodd" clip-rule="evenodd" d="M330.263 170.29H357.46L346.331 196.002C345.142 198.748 347.402 201.707 350.687 201.707H366.559V205.896H329.006C321.924 205.896 317.093 199.469 319.749 193.583L330.263 170.29Z" fill="#B3D2EC"/>
</svg>
