<svg width="235" height="159" viewBox="0 0 235 159" fill="none" xmlns="http://www.w3.org/2000/svg">
<path opacity="0.1" fill-rule="evenodd" clip-rule="evenodd" d="M213.52 90.1137C210.607 51.4226 142.35 20.3403 69.6437 22.488C-3.06264 24.6357 70.1075 68.9884 25.212 69.051C-19.6836 69.1135 49.268 137.086 127.35 124.714C205.432 112.341 216.433 128.805 213.52 90.1137Z" fill="#02ECF1"/>
<path fill-rule="evenodd" clip-rule="evenodd" d="M131.015 107.956C130.991 108.064 130.952 108.174 130.92 108.281C130.954 108.167 130.992 108.054 131.016 107.938C131.015 107.945 131.015 107.95 131.015 107.956ZM130.769 108.75C130.726 108.855 130.668 108.96 130.617 109.062C130.67 108.954 130.729 108.845 130.774 108.734C130.772 108.739 130.77 108.745 130.769 108.75ZM130.363 109.54C130.303 109.636 130.23 109.73 130.164 109.825C130.234 109.728 130.308 109.628 130.369 109.526C130.367 109.532 130.366 109.536 130.363 109.54ZM129.759 110.355C129.697 110.428 129.627 110.5 129.56 110.571C129.63 110.497 129.702 110.422 129.765 110.346C129.763 110.349 129.762 110.351 129.759 110.355ZM129.22 110.935C129.094 111.055 128.944 111.172 128.804 111.29C128.948 111.169 129.1 111.049 129.229 110.925C129.225 110.929 129.224 110.931 129.22 110.935ZM128.028 111.886C127.971 111.925 127.916 111.965 127.858 112.006C127.918 111.964 127.976 111.921 128.035 111.881C128.032 111.882 128.03 111.884 128.028 111.886ZM131.075 107.488C131.295 105.231 129.711 102.935 126.288 101.212C119.879 97.985 109.528 97.985 103.165 101.208C99.995 102.815 98.4143 104.92 98.4178 107.027C98.4178 107.02 98.4155 107.013 98.4155 107.007L98.406 109.922C98.4001 112.05 100.01 114.183 103.237 115.808C103.622 116 104.023 116.182 104.435 116.354C104.575 116.409 104.722 116.462 104.866 116.516C105.108 116.61 105.346 116.708 105.595 116.793C105.623 116.803 105.655 116.81 105.683 116.819C106.252 117.012 106.84 117.183 107.443 117.337C107.489 117.35 107.533 117.366 107.58 117.378C107.714 117.41 107.855 117.434 107.989 117.465C108.329 117.543 108.67 117.618 109.017 117.684C109.106 117.702 109.194 117.725 109.285 117.742C109.418 117.765 109.556 117.782 109.69 117.802C109.978 117.851 110.268 117.896 110.56 117.936C110.677 117.952 110.789 117.973 110.905 117.988C111.033 118.004 111.163 118.011 111.29 118.026C111.56 118.055 111.83 118.081 112.103 118.105C112.235 118.116 112.363 118.134 112.496 118.144C112.618 118.151 112.742 118.152 112.865 118.161C113.138 118.177 113.411 118.188 113.686 118.199C113.826 118.204 113.965 118.216 114.106 118.218C114.218 118.221 114.329 118.216 114.441 118.217C114.74 118.221 115.038 118.218 115.336 118.212C115.485 118.211 115.632 118.216 115.781 118.211C115.867 118.209 115.953 118.199 116.042 118.195C116.411 118.181 116.779 118.158 117.147 118.133C117.295 118.121 117.445 118.118 117.594 118.106C117.64 118.102 117.685 118.095 117.731 118.091C118.357 118.032 118.976 117.959 119.586 117.863C119.617 117.859 119.649 117.857 119.68 117.852C119.858 117.825 120.03 117.785 120.206 117.753C120.509 117.7 120.812 117.649 121.109 117.585C121.325 117.54 121.536 117.487 121.75 117.435C122.033 117.367 122.316 117.301 122.592 117.225C122.652 117.209 122.715 117.196 122.775 117.181C122.874 117.152 122.965 117.113 123.064 117.085C123.503 116.955 123.932 116.813 124.35 116.659C124.504 116.603 124.66 116.547 124.811 116.488C125.344 116.277 125.864 116.054 126.354 115.808C126.421 115.774 126.488 115.739 126.553 115.705C126.701 115.628 126.827 115.543 126.966 115.465C127.169 115.351 127.375 115.237 127.563 115.116C127.725 115.014 127.869 114.907 128.02 114.802C128.191 114.682 128.366 114.564 128.522 114.44C128.554 114.415 128.593 114.393 128.623 114.367C128.833 114.197 129.027 114.025 129.211 113.851C129.249 113.814 129.281 113.779 129.317 113.743C129.426 113.636 129.538 113.527 129.637 113.418C129.68 113.369 129.709 113.319 129.75 113.271C129.89 113.107 130.014 112.942 130.133 112.776C130.183 112.704 130.249 112.637 130.295 112.565C130.317 112.529 130.33 112.493 130.353 112.457C130.444 112.31 130.518 112.16 130.592 112.011C130.636 111.925 130.694 111.84 130.73 111.754C130.743 111.725 130.747 111.696 130.759 111.668C130.818 111.526 130.858 111.38 130.9 111.236C130.928 111.141 130.972 111.048 130.995 110.952C131 110.927 130.998 110.901 131.005 110.876C131.037 110.724 131.049 110.573 131.064 110.422C131.074 110.325 131.098 110.229 131.102 110.134C131.103 110.094 131.104 110.054 131.104 110.015C131.104 110.012 131.104 110.011 131.104 110.009C131.107 109.037 131.11 108.064 131.113 107.092C131.113 107.224 131.088 107.356 131.075 107.488Z" fill="#250F8A"/>
<mask id="mask0" mask-type="alpha" maskUnits="userSpaceOnUse" x="98" y="106" width="33" height="12">
<path fill-rule="evenodd" clip-rule="evenodd" d="M98.2276 109.383C98.2206 111.526 99.8028 113.673 102.97 115.309C109.259 118.558 119.423 118.558 125.67 115.309C128.773 113.696 130.327 111.584 130.333 109.47C130.335 108.491 130.34 107.511 130.342 106.532C130.335 108.647 128.782 110.76 125.679 112.371C119.431 115.619 109.267 115.619 102.98 112.371C99.8109 110.737 98.2299 108.589 98.2357 106.447" fill="white"/>
</mask>
<g mask="url(#mask0)">
<path fill-rule="evenodd" clip-rule="evenodd" d="M130.342 106.536L130.333 109.474C130.333 109.515 130.332 109.557 130.331 109.599L130.341 106.663C130.341 106.62 130.342 106.578 130.342 106.536Z" fill="#872D24"/>
</g>
<mask id="mask1" mask-type="alpha" maskUnits="userSpaceOnUse" x="98" y="106" width="33" height="12">
<path fill-rule="evenodd" clip-rule="evenodd" d="M98.2276 109.383C98.2206 111.526 99.8028 113.673 102.97 115.309C109.259 118.558 119.423 118.558 125.67 115.309C128.773 113.696 130.327 111.584 130.333 109.47C130.335 108.491 130.34 107.511 130.342 106.532C130.335 108.647 128.782 110.76 125.679 112.371C119.431 115.619 109.267 115.619 102.98 112.371C99.8109 110.737 98.2299 108.589 98.2357 106.447" fill="white"/>
</mask>
<g mask="url(#mask1)">
<path fill-rule="evenodd" clip-rule="evenodd" d="M130.341 106.659L130.331 109.596C130.322 109.871 130.287 110.146 130.226 110.42L130.235 107.482C130.296 107.209 130.331 106.934 130.341 106.659Z" fill="#250F8A"/>
</g>
<path fill-rule="evenodd" clip-rule="evenodd" d="M130.235 107.482L130.226 110.421C130.165 110.691 130.078 110.961 129.966 111.228L129.976 108.29C130.087 108.024 130.174 107.755 130.235 107.482Z" fill="#250F8A"/>
<path fill-rule="evenodd" clip-rule="evenodd" d="M129.976 108.291L129.966 111.228C129.851 111.505 129.708 111.776 129.539 112.045L129.548 109.107C129.717 108.838 129.86 108.565 129.976 108.291Z" fill="#250F8A"/>
<path fill-rule="evenodd" clip-rule="evenodd" d="M129.548 109.107L129.539 112.045C129.355 112.336 129.139 112.622 128.893 112.903L128.902 109.966C129.149 109.684 129.364 109.399 129.548 109.107Z" fill="#250F8A"/>
<path fill-rule="evenodd" clip-rule="evenodd" d="M128.902 109.966L128.892 112.902C128.604 113.229 128.273 113.55 127.897 113.86L127.907 110.922C128.282 110.612 128.613 110.293 128.902 109.966Z" fill="#250F8A"/>
<path fill-rule="evenodd" clip-rule="evenodd" d="M127.906 110.922L127.898 113.86C127.322 114.335 126.645 114.786 125.865 115.207L125.875 112.269C126.653 111.85 127.331 111.398 127.906 110.922Z" fill="#250F8A"/>
<path fill-rule="evenodd" clip-rule="evenodd" d="M125.874 112.269L125.865 115.206C125.801 115.24 125.735 115.275 125.669 115.31C124.599 115.866 123.414 116.326 122.155 116.693L122.163 113.756C123.423 113.389 124.609 112.928 125.678 112.371C125.746 112.337 125.809 112.303 125.874 112.269Z" fill="#250F8A"/>
<path fill-rule="evenodd" clip-rule="evenodd" d="M122.163 113.756L122.154 116.693C121.18 116.975 120.161 117.201 119.115 117.369L119.123 114.432C120.17 114.263 121.189 114.037 122.163 113.756Z" fill="#250F8A"/>
<path fill-rule="evenodd" clip-rule="evenodd" d="M119.124 114.433L119.115 117.369C118.442 117.477 117.758 117.563 117.068 117.625L117.076 114.687C117.767 114.627 118.452 114.541 119.124 114.433Z" fill="#250F8A"/>
<path fill-rule="evenodd" clip-rule="evenodd" d="M117.076 114.686L117.068 117.625C116.477 117.676 115.883 117.712 115.288 117.73L115.296 114.794C115.893 114.775 116.486 114.739 117.076 114.686Z" fill="#250F8A"/>
<path fill-rule="evenodd" clip-rule="evenodd" d="M115.296 114.794L115.287 117.73C114.739 117.748 114.19 117.75 113.642 117.738L113.651 114.801C114.199 114.814 114.748 114.81 115.296 114.794Z" fill="#250F8A"/>
<path fill-rule="evenodd" clip-rule="evenodd" d="M113.652 114.8L113.642 117.737C113.114 117.726 112.586 117.7 112.061 117.663L112.071 114.725C112.595 114.763 113.123 114.788 113.652 114.8Z" fill="#250F8A"/>
<path fill-rule="evenodd" clip-rule="evenodd" d="M112.071 114.725L112.061 117.663C111.538 117.624 111.017 117.571 110.5 117.506L110.509 114.568C111.026 114.634 111.547 114.686 112.071 114.725Z" fill="#250F8A"/>
<path fill-rule="evenodd" clip-rule="evenodd" d="M110.51 114.568L110.501 117.505C109.964 117.437 109.433 117.355 108.909 117.258L108.917 114.321C109.442 114.418 109.972 114.5 110.51 114.568Z" fill="#250F8A"/>
<path fill-rule="evenodd" clip-rule="evenodd" d="M108.918 114.321L108.908 117.258C108.341 117.153 107.783 117.03 107.235 116.891L107.244 113.954C107.792 114.093 108.35 114.214 108.918 114.321Z" fill="#250F8A"/>
<path fill-rule="evenodd" clip-rule="evenodd" d="M107.244 113.954L107.234 116.892C106.566 116.721 105.914 116.524 105.286 116.303L105.294 113.366C105.923 113.587 106.574 113.784 107.244 113.954Z" fill="#250F8A"/>
<path fill-rule="evenodd" clip-rule="evenodd" d="M105.295 113.365L105.285 116.302C104.471 116.014 103.695 115.684 102.97 115.31C99.802 113.674 98.221 111.527 98.2268 109.382L98.236 106.446C98.2291 108.589 99.8113 110.736 102.979 112.371C103.704 112.745 104.479 113.078 105.295 113.365Z" fill="#250F8A"/>
<path fill-rule="evenodd" clip-rule="evenodd" d="M121.677 110.819H128.747C131.78 107.724 130.766 103.852 125.692 101.267C122.192 99.4835 117.504 98.6895 112.949 98.8777L106.827 103.253L121.677 110.819Z" fill="#02ECF1"/>
<path fill-rule="evenodd" clip-rule="evenodd" d="M121.677 110.819L106.827 103.253L112.949 98.8778C109.262 99.029 105.663 99.821 102.851 101.263C96.567 104.487 96.6008 109.714 102.933 112.941C109.257 116.164 119.482 116.164 125.766 112.941C127.012 112.303 127.998 111.583 128.747 110.819H121.677Z" fill="#02ECF1"/>
<path fill-rule="evenodd" clip-rule="evenodd" d="M121.783 77.7774L123.925 76.6779L123.819 109.72L121.678 110.819L121.783 77.7774Z" fill="#4F34CE"/>
<path fill-rule="evenodd" clip-rule="evenodd" d="M106.934 70.2079L109.075 69.1094L123.926 76.6773L121.783 77.7768L106.934 70.2079Z" fill="#263543"/>
<path fill-rule="evenodd" clip-rule="evenodd" d="M121.783 77.7772L121.678 110.819L106.827 103.253L106.933 70.2083L121.783 77.7772Z" fill="#250F8A"/>
<path fill-rule="evenodd" clip-rule="evenodd" d="M66.6487 17.0851C66.6533 17.0851 66.658 17.0841 66.6615 17.083C66.5729 17.1005 66.4972 17.1375 66.4145 17.1632C66.4925 17.1396 66.5648 17.1015 66.6487 17.0851ZM68.0131 17.1859C68.0155 17.1859 68.0166 17.1869 68.0178 17.1869C67.9362 17.1633 67.8628 17.1581 67.7824 17.1417C67.8605 17.1581 67.9339 17.1633 68.0131 17.1859ZM67.307 17.0531H67.3187C67.2255 17.0469 67.1416 17.0623 67.053 17.0634C67.1381 17.0623 67.2173 17.0469 67.307 17.0531ZM163.361 118.637C163.387 118.583 163.405 118.516 163.427 118.459C163.392 118.548 163.369 118.652 163.325 118.733C163.341 118.705 163.347 118.667 163.361 118.637ZM163.171 118.946C163.105 119.038 163.048 119.14 162.971 119.217C163.048 119.14 163.105 119.038 163.171 118.946ZM167.345 67.6933C167.335 67.5493 167.319 67.4043 167.296 67.2572C167.292 67.2305 167.285 67.2047 167.281 67.178C167.276 67.1574 167.271 67.1348 167.268 67.1132C167.254 67.0422 167.243 66.9723 167.227 66.9024C167.202 66.7974 167.176 66.6905 167.144 66.5876C167.119 66.494 167.088 66.4015 167.057 66.3089C167.057 66.3079 167.056 66.3048 167.056 66.3038L167.052 66.2945C167.022 66.203 166.988 66.1124 166.952 66.0209C166.917 65.9314 166.88 65.843 166.841 65.7545C166.803 65.6671 166.762 65.5807 166.72 65.4943C166.715 65.4861 166.712 65.4778 166.707 65.4686C166.704 65.4634 166.7 65.4573 166.698 65.4511C166.662 65.3791 166.626 65.3081 166.588 65.2372C166.542 65.1508 166.494 65.0654 166.445 64.9811C166.394 64.8936 166.341 64.8072 166.287 64.7219C166.274 64.7023 166.259 64.6818 166.246 64.6612C166.238 64.6489 166.229 64.6365 166.221 64.6252C166.185 64.5697 166.149 64.5131 166.111 64.4586C166.048 64.367 165.981 64.2765 165.913 64.186C165.839 64.0893 165.763 63.9927 165.685 63.8991C165.682 63.896 165.678 63.8919 165.675 63.8877C165.668 63.8785 165.659 63.8692 165.65 63.86C165.571 63.7653 165.492 63.6728 165.408 63.5823C165.288 63.4527 165.164 63.3272 165.037 63.2058C165.034 63.2038 165.03 63.2007 165.027 63.1986C164.868 63.0485 164.7 62.9189 164.531 62.7872C164.454 62.7234 164.38 62.6535 164.3 62.5949C164.047 62.4128 163.786 62.2514 163.518 62.1156L72.4002 15.6796C72.3361 15.6477 72.2744 15.6179 72.2115 15.5891C72.0623 15.5202 71.9143 15.4605 71.7698 15.4102C71.7302 15.3968 71.6918 15.3886 71.6522 15.3762C71.6288 15.368 71.6055 15.3618 71.5822 15.3536C71.5368 15.3423 71.4914 15.3248 71.4471 15.3135C71.3539 15.2919 71.2618 15.2713 71.1721 15.2569C71.0894 15.2425 71.0078 15.2312 70.9286 15.224C70.9192 15.223 70.9099 15.223 70.8994 15.2219H70.8773C70.819 15.2178 70.7619 15.2137 70.7048 15.2137C70.6349 15.2127 70.565 15.2147 70.4963 15.2188C70.431 15.2219 70.3634 15.2291 70.2993 15.2404C70.2807 15.2425 70.2644 15.2466 70.2457 15.2507C70.2364 15.2528 70.2271 15.2538 70.2189 15.2559C70.1828 15.2631 70.1455 15.2672 70.1106 15.2754C70.0476 15.2919 69.9871 15.3083 69.9276 15.3289C69.8682 15.3484 69.8088 15.3721 69.7517 15.3968C69.7202 15.4112 69.6899 15.4266 69.6596 15.441C69.0654 15.7465 68.4699 16.0509 67.8757 16.3574C67.2803 16.6629 66.686 16.9684 66.0906 17.2728C66.0929 17.2708 66.0952 17.2708 66.0976 17.2697C65.4043 17.6215 64.972 18.3775 64.9685 19.4533L64.8158 67.0145C64.8112 68.547 65.6827 70.3058 66.947 71.5894C67.462 72.1129 68.0365 72.5675 68.6529 72.8802L159.771 119.317C160.331 119.602 160.86 119.744 161.341 119.77C161.902 119.801 162.382 119.652 162.763 119.368C162.679 119.43 162.603 119.505 162.509 119.553C162.687 119.46 162.867 119.37 163.045 119.278C163.099 119.25 163.17 119.214 163.223 119.188C163.7 118.943 164.175 118.698 164.651 118.454C165.068 118.241 165.484 118.027 165.901 117.813C165.954 117.786 166.026 117.749 166.08 117.721C166.77 117.367 167.198 116.614 167.201 115.542L167.354 67.9803C167.354 67.8856 167.35 67.79 167.345 67.6933Z" fill="#250F8A"/>
<mask id="mask2" mask-type="alpha" maskUnits="userSpaceOnUse" x="65" y="15" width="8" height="3">
<path fill-rule="evenodd" clip-rule="evenodd" d="M69.4216 15.4363C68.8205 15.7451 68.2183 16.0528 67.616 16.3595C67.0137 16.6662 66.4138 16.974 65.8104 17.2807C66.5175 16.919 67.497 16.9709 68.5813 17.521L72.1925 15.6777C71.562 15.3576 70.968 15.2063 70.4411 15.2063C70.0616 15.2063 69.7175 15.285 69.4216 15.4363Z" fill="white"/>
</mask>
<g mask="url(#mask2)">
<path fill-rule="evenodd" clip-rule="evenodd" d="M65.8106 17.2807L69.4207 15.4364C69.4513 15.4219 69.482 15.4064 69.5138 15.3939L65.9025 17.2372C65.8707 17.2517 65.8401 17.2652 65.8106 17.2807Z" fill="#1A242E"/>
</g>
<mask id="mask3" mask-type="alpha" maskUnits="userSpaceOnUse" x="65" y="15" width="8" height="3">
<path fill-rule="evenodd" clip-rule="evenodd" d="M69.4216 15.4363C68.8205 15.7451 68.2183 16.0528 67.616 16.3595C67.0137 16.6662 66.4138 16.974 65.8104 17.2807C66.5175 16.919 67.497 16.9709 68.5813 17.521L72.1925 15.6777C71.562 15.3576 70.968 15.2063 70.4411 15.2063C70.0616 15.2063 69.7175 15.285 69.4216 15.4363Z" fill="white"/>
</mask>
<g mask="url(#mask3)">
<path fill-rule="evenodd" clip-rule="evenodd" d="M65.902 17.2419L69.5133 15.3986C69.5711 15.3707 69.6312 15.3489 69.6925 15.3271L66.0812 17.1736C66.0211 17.1932 65.961 17.2171 65.902 17.2419Z" fill="#1B252F"/>
</g>
<mask id="mask4" mask-type="alpha" maskUnits="userSpaceOnUse" x="65" y="15" width="8" height="3">
<path fill-rule="evenodd" clip-rule="evenodd" d="M69.4216 15.4363C68.8205 15.7451 68.2183 16.0528 67.616 16.3595C67.0137 16.6662 66.4138 16.974 65.8104 17.2807C66.5175 16.919 67.497 16.9709 68.5813 17.521L72.1925 15.6777C71.562 15.3576 70.968 15.2063 70.4411 15.2063C70.0616 15.2063 69.7175 15.285 69.4216 15.4363Z" fill="white"/>
</mask>
<g mask="url(#mask4)">
<path fill-rule="evenodd" clip-rule="evenodd" d="M66.0817 17.1709L69.6917 15.3256C69.7519 15.3048 69.8143 15.2882 69.8768 15.2737L66.2655 17.1181C66.2031 17.1326 66.1418 17.1502 66.0817 17.1709Z" fill="#1C2631"/>
</g>
<mask id="mask5" mask-type="alpha" maskUnits="userSpaceOnUse" x="65" y="15" width="8" height="3">
<path fill-rule="evenodd" clip-rule="evenodd" d="M69.4216 15.4363C68.8205 15.7451 68.2183 16.0528 67.616 16.3595C67.0137 16.6662 66.4138 16.974 65.8104 17.2807C66.5175 16.919 67.497 16.9709 68.5813 17.521L72.1925 15.6777C71.562 15.3576 70.968 15.2063 70.4411 15.2063C70.0616 15.2063 69.7175 15.285 69.4216 15.4363Z" fill="white"/>
</mask>
<g mask="url(#mask5)">
<path fill-rule="evenodd" clip-rule="evenodd" d="M66.2657 17.1167L69.8758 15.2724C69.9395 15.2558 70.0031 15.2434 70.0679 15.2351L66.4567 17.0794C66.3919 17.0898 66.3282 17.1012 66.2657 17.1167Z" fill="#1D2732"/>
</g>
<mask id="mask6" mask-type="alpha" maskUnits="userSpaceOnUse" x="65" y="15" width="8" height="3">
<path fill-rule="evenodd" clip-rule="evenodd" d="M69.4216 15.4363C68.8205 15.7451 68.2183 16.0528 67.616 16.3595C67.0137 16.6662 66.4138 16.974 65.8104 17.2807C66.5175 16.919 67.497 16.9709 68.5813 17.521L72.1925 15.6777C71.562 15.3576 70.968 15.2063 70.4411 15.2063C70.0616 15.2063 69.7175 15.285 69.4216 15.4363Z" fill="white"/>
</mask>
<g mask="url(#mask6)">
<path fill-rule="evenodd" clip-rule="evenodd" d="M66.4563 17.0784L70.0676 15.2341C70.1324 15.2248 70.2008 15.2175 70.2668 15.2123L66.6567 17.0567C66.5883 17.0608 66.5223 17.0691 66.4563 17.0784Z" fill="#1D2934"/>
</g>
<mask id="mask7" mask-type="alpha" maskUnits="userSpaceOnUse" x="65" y="15" width="8" height="3">
<path fill-rule="evenodd" clip-rule="evenodd" d="M69.4216 15.4363C68.8205 15.7451 68.2183 16.0528 67.616 16.3595C67.0137 16.6662 66.4138 16.974 65.8104 17.2807C66.5175 16.919 67.497 16.9709 68.5813 17.521L72.1925 15.6777C71.562 15.3576 70.968 15.2063 70.4411 15.2063C70.0616 15.2063 69.7175 15.285 69.4216 15.4363Z" fill="white"/>
</mask>
<g mask="url(#mask7)">
<path fill-rule="evenodd" clip-rule="evenodd" d="M66.6571 17.0569L70.2672 15.2126C70.3367 15.2074 70.4075 15.2064 70.4782 15.2064L66.8681 17.0507C66.7962 17.0507 66.7266 17.0517 66.6571 17.0569Z" fill="#1E2A35"/>
</g>
<mask id="mask8" mask-type="alpha" maskUnits="userSpaceOnUse" x="65" y="15" width="8" height="3">
<path fill-rule="evenodd" clip-rule="evenodd" d="M69.4216 15.4363C68.8205 15.7451 68.2183 16.0528 67.616 16.3595C67.0137 16.6662 66.4138 16.974 65.8104 17.2807C66.5175 16.919 67.497 16.9709 68.5813 17.521L72.1925 15.6777C71.562 15.3576 70.968 15.2063 70.4411 15.2063C70.0616 15.2063 69.7175 15.285 69.4216 15.4363Z" fill="white"/>
</mask>
<g mask="url(#mask8)">
<path fill-rule="evenodd" clip-rule="evenodd" d="M66.8678 17.0508L70.4779 15.2065C70.5522 15.2075 70.6276 15.2127 70.7042 15.2179L67.0929 17.0633C67.0163 17.057 66.9421 17.0519 66.8678 17.0508Z" fill="#1F2B37"/>
</g>
<mask id="mask9" mask-type="alpha" maskUnits="userSpaceOnUse" x="65" y="15" width="8" height="3">
<path fill-rule="evenodd" clip-rule="evenodd" d="M69.4216 15.4363C68.8205 15.7451 68.2183 16.0528 67.616 16.3595C67.0137 16.6662 66.4138 16.974 65.8104 17.2807C66.5175 16.919 67.497 16.9709 68.5813 17.521L72.1925 15.6777C71.562 15.3576 70.968 15.2063 70.4411 15.2063C70.0616 15.2063 69.7175 15.285 69.4216 15.4363Z" fill="white"/>
</mask>
<g mask="url(#mask9)">
<path fill-rule="evenodd" clip-rule="evenodd" d="M67.0934 17.0636L70.7035 15.2192C70.7848 15.2265 70.8673 15.2369 70.9498 15.2503L67.3385 17.0947C67.256 17.0822 67.1735 17.0708 67.0934 17.0636Z" fill="#202C38"/>
</g>
<mask id="mask10" mask-type="alpha" maskUnits="userSpaceOnUse" x="65" y="15" width="8" height="3">
<path fill-rule="evenodd" clip-rule="evenodd" d="M69.4216 15.4363C68.8205 15.7451 68.2183 16.0528 67.616 16.3595C67.0137 16.6662 66.4138 16.974 65.8104 17.2807C66.5175 16.919 67.497 16.9709 68.5813 17.521L72.1925 15.6777C71.562 15.3576 70.968 15.2063 70.4411 15.2063C70.0616 15.2063 69.7175 15.285 69.4216 15.4363Z" fill="white"/>
</mask>
<g mask="url(#mask10)">
<path fill-rule="evenodd" clip-rule="evenodd" d="M67.3391 17.0962L70.9504 15.2518C71.0423 15.2674 71.1342 15.2871 71.2285 15.3099L67.6173 17.1552C67.523 17.1314 67.4299 17.1138 67.3391 17.0962Z" fill="#212D3A"/>
</g>
<path fill-rule="evenodd" clip-rule="evenodd" d="M69.4216 15.4363C68.8205 15.7451 68.2183 16.0528 67.616 16.3595C67.0137 16.6662 66.4138 16.974 65.8104 17.2807C66.5175 16.919 67.497 16.9709 68.5813 17.521L72.1925 15.6777C71.562 15.3576 70.968 15.2063 70.4411 15.2063C70.0616 15.2063 69.7175 15.285 69.4216 15.4363Z" fill="#250F8A"/>
<mask id="mask11" mask-type="alpha" maskUnits="userSpaceOnUse" x="65" y="15" width="8" height="3">
<path fill-rule="evenodd" clip-rule="evenodd" d="M69.4216 15.4363C68.8205 15.7451 68.2183 16.0528 67.616 16.3595C67.0137 16.6662 66.4138 16.974 65.8104 17.2807C66.5175 16.919 67.497 16.9709 68.5813 17.521L72.1925 15.6777C71.562 15.3576 70.968 15.2063 70.4411 15.2063C70.0616 15.2063 69.7175 15.285 69.4216 15.4363Z" fill="white"/>
</mask>
<g mask="url(#mask11)">
<path fill-rule="evenodd" clip-rule="evenodd" d="M67.617 17.1575L71.2283 15.3131C71.3355 15.3401 71.4439 15.3722 71.5547 15.4095L67.9435 17.2548C67.8339 17.2186 67.7243 17.1844 67.617 17.1575Z" fill="#250F8A"/>
</g>
<path fill-rule="evenodd" clip-rule="evenodd" d="M67.944 17.2504L71.5541 15.4061C71.7014 15.4558 71.8499 15.5149 72.0019 15.5864L68.3907 17.4307C68.2398 17.3602 68.0913 17.3001 67.944 17.2504Z" fill="#250F8A"/>
<path fill-rule="evenodd" clip-rule="evenodd" d="M68.3912 17.4303L72.0013 15.586C72.0661 15.614 72.1274 15.644 72.1934 15.6782L68.5809 17.5215C68.5173 17.4904 68.4548 17.4573 68.3912 17.4303Z" fill="#250F8A"/>
<mask id="mask12" mask-type="alpha" maskUnits="userSpaceOnUse" x="162" y="115" width="6" height="5">
<path fill-rule="evenodd" clip-rule="evenodd" d="M163.398 117.225C163.397 118.358 162.942 119.155 162.208 119.531C162.397 119.435 162.588 119.337 162.776 119.24C162.834 119.211 162.91 119.172 162.967 119.142C163.473 118.885 163.978 118.626 164.484 118.367C164.926 118.142 165.369 117.917 165.81 117.691C165.867 117.662 165.943 117.624 166.001 117.594C166.734 117.218 167.188 116.422 167.191 115.287" fill="white"/>
</mask>
<g mask="url(#mask12)">
<path fill-rule="evenodd" clip-rule="evenodd" d="M163.399 117.225L167.191 115.287C167.189 116.422 166.733 117.219 166.001 117.594L162.209 119.53C162.941 119.155 163.397 118.358 163.399 117.225Z" fill="#250F8A"/>
</g>
<path fill-rule="evenodd" clip-rule="evenodd" d="M163.785 69.6554L167.353 67.8295L167.202 115.264L163.632 117.091L163.785 69.6554Z" fill="#250F8A"/>
<path fill-rule="evenodd" clip-rule="evenodd" d="M68.8695 17.4947L72.4383 15.6699L163.52 61.981L159.95 63.8069L68.8695 17.4947Z" fill="#250F8A"/>
<mask id="mask13" mask-type="alpha" maskUnits="userSpaceOnUse" x="160" y="61" width="8" height="9">
<path fill-rule="evenodd" clip-rule="evenodd" d="M160.13 63.5249C162.206 64.617 163.878 67.2571 163.872 69.432L167.354 67.5877C167.36 65.4128 165.688 62.7727 163.612 61.6806" fill="white"/>
</mask>
<g mask="url(#mask13)">
<path fill-rule="evenodd" clip-rule="evenodd" d="M160.13 63.5247L163.612 61.6804C164.14 61.957 164.64 62.3342 165.094 62.7787L161.612 64.623C161.158 64.1785 160.657 63.8024 160.13 63.5247Z" fill="#23313E"/>
</g>
<mask id="mask14" mask-type="alpha" maskUnits="userSpaceOnUse" x="160" y="61" width="8" height="9">
<path fill-rule="evenodd" clip-rule="evenodd" d="M160.13 63.5249C162.206 64.617 163.878 67.2571 163.872 69.432L167.354 67.5877C167.36 65.4128 165.688 62.7727 163.612 61.6806" fill="white"/>
</mask>
<g mask="url(#mask14)">
<path fill-rule="evenodd" clip-rule="evenodd" d="M161.612 64.6227L165.093 62.7794C165.218 62.8996 165.339 63.026 165.456 63.1576L161.974 65.002C161.858 64.8704 161.736 64.744 161.612 64.6227Z" fill="#22303D"/>
</g>
<mask id="mask15" mask-type="alpha" maskUnits="userSpaceOnUse" x="160" y="61" width="8" height="9">
<path fill-rule="evenodd" clip-rule="evenodd" d="M160.13 63.5249C162.206 64.617 163.878 67.2571 163.872 69.432L167.354 67.5877C167.36 65.4128 165.688 62.7727 163.612 61.6806" fill="white"/>
</mask>
<g mask="url(#mask15)">
<path fill-rule="evenodd" clip-rule="evenodd" d="M161.974 65.002L165.455 63.1577C165.55 63.2613 165.639 63.368 165.727 63.4768L162.245 65.3222C162.157 65.2123 162.067 65.1056 161.974 65.002Z" fill="#222E3B"/>
</g>
<mask id="mask16" mask-type="alpha" maskUnits="userSpaceOnUse" x="160" y="61" width="8" height="9">
<path fill-rule="evenodd" clip-rule="evenodd" d="M160.13 63.5249C162.206 64.617 163.878 67.2571 163.872 69.432L167.354 67.5877C167.36 65.4128 165.688 62.7727 163.612 61.6806" fill="white"/>
</mask>
<g mask="url(#mask16)">
<path fill-rule="evenodd" clip-rule="evenodd" d="M162.244 65.3218L165.727 63.4774C165.803 63.5717 165.877 63.667 165.948 63.7665L162.467 65.6108C162.396 65.5134 162.321 65.416 162.244 65.3218Z" fill="#212D3A"/>
</g>
<mask id="mask17" mask-type="alpha" maskUnits="userSpaceOnUse" x="160" y="61" width="8" height="9">
<path fill-rule="evenodd" clip-rule="evenodd" d="M160.13 63.5249C162.206 64.617 163.878 67.2571 163.872 69.432L167.354 67.5877C167.36 65.4128 165.688 62.7727 163.612 61.6806" fill="white"/>
</mask>
<g mask="url(#mask17)">
<path fill-rule="evenodd" clip-rule="evenodd" d="M162.467 65.611L165.949 63.7667C166.015 63.8568 166.079 63.948 166.141 64.0392L162.66 65.8845C162.597 65.7923 162.533 65.7011 162.467 65.611Z" fill="#202C38"/>
</g>
<mask id="mask18" mask-type="alpha" maskUnits="userSpaceOnUse" x="160" y="61" width="8" height="9">
<path fill-rule="evenodd" clip-rule="evenodd" d="M160.13 63.5249C162.206 64.617 163.878 67.2571 163.872 69.432L167.354 67.5877C167.36 65.4128 165.688 62.7727 163.612 61.6806" fill="white"/>
</mask>
<g mask="url(#mask18)">
<path fill-rule="evenodd" clip-rule="evenodd" d="M162.659 65.8843L166.14 64.04C166.201 64.1281 166.258 64.2161 166.313 64.3063L162.83 66.1506C162.775 66.0605 162.718 65.9724 162.659 65.8843Z" fill="#1F2B37"/>
</g>
<mask id="mask19" mask-type="alpha" maskUnits="userSpaceOnUse" x="160" y="61" width="8" height="9">
<path fill-rule="evenodd" clip-rule="evenodd" d="M160.13 63.5249C162.206 64.617 163.878 67.2571 163.872 69.432L167.354 67.5877C167.36 65.4128 165.688 62.7727 163.612 61.6806" fill="white"/>
</mask>
<g mask="url(#mask19)">
<path fill-rule="evenodd" clip-rule="evenodd" d="M162.83 66.1507L166.313 64.3063C166.366 64.3923 166.417 64.4794 166.467 64.5674L162.985 66.4108C162.936 66.3237 162.884 66.2356 162.83 66.1507Z" fill="#1E2A35"/>
</g>
<mask id="mask20" mask-type="alpha" maskUnits="userSpaceOnUse" x="160" y="61" width="8" height="9">
<path fill-rule="evenodd" clip-rule="evenodd" d="M160.13 63.5249C162.206 64.617 163.878 67.2571 163.872 69.432L167.354 67.5877C167.36 65.4128 165.688 62.7727 163.612 61.6806" fill="white"/>
</mask>
<g mask="url(#mask20)">
<path fill-rule="evenodd" clip-rule="evenodd" d="M162.985 66.4106L166.467 64.5673C166.515 64.6523 166.562 64.7372 166.607 64.8243L163.126 66.6697C163.08 66.5816 163.034 66.4956 162.985 66.4106Z" fill="#1D2934"/>
</g>
<mask id="mask21" mask-type="alpha" maskUnits="userSpaceOnUse" x="160" y="61" width="8" height="9">
<path fill-rule="evenodd" clip-rule="evenodd" d="M160.13 63.5249C162.206 64.617 163.878 67.2571 163.872 69.432L167.354 67.5877C167.36 65.4128 165.688 62.7727 163.612 61.6806" fill="white"/>
</mask>
<g mask="url(#mask21)">
<path fill-rule="evenodd" clip-rule="evenodd" d="M163.125 66.6695L166.606 64.8242C166.653 64.9102 166.695 64.9972 166.736 65.0832L163.253 66.9275C163.213 66.8415 163.169 66.7555 163.125 66.6695Z" fill="#1D2732"/>
</g>
<mask id="mask22" mask-type="alpha" maskUnits="userSpaceOnUse" x="160" y="61" width="8" height="9">
<path fill-rule="evenodd" clip-rule="evenodd" d="M160.13 63.5249C162.206 64.617 163.878 67.2571 163.872 69.432L167.354 67.5877C167.36 65.4128 165.688 62.7727 163.612 61.6806" fill="white"/>
</mask>
<g mask="url(#mask22)">
<path fill-rule="evenodd" clip-rule="evenodd" d="M163.254 66.9275L166.735 65.0832C166.777 65.1702 166.817 65.2583 166.854 65.3464L163.371 67.1918C163.335 67.1026 163.295 67.0156 163.254 66.9275Z" fill="#1C2631"/>
</g>
<mask id="mask23" mask-type="alpha" maskUnits="userSpaceOnUse" x="160" y="61" width="8" height="9">
<path fill-rule="evenodd" clip-rule="evenodd" d="M160.13 63.5249C162.206 64.617 163.878 67.2571 163.872 69.432L167.354 67.5877C167.36 65.4128 165.688 62.7727 163.612 61.6806" fill="white"/>
</mask>
<g mask="url(#mask23)">
<path fill-rule="evenodd" clip-rule="evenodd" d="M163.371 67.1916L166.854 65.3463C166.892 65.4354 166.927 65.5245 166.962 65.6136L163.48 67.459C163.446 67.3688 163.411 67.2797 163.371 67.1916Z" fill="#1B252F"/>
</g>
<mask id="mask24" mask-type="alpha" maskUnits="userSpaceOnUse" x="160" y="61" width="8" height="9">
<path fill-rule="evenodd" clip-rule="evenodd" d="M160.13 63.5249C162.206 64.617 163.878 67.2571 163.872 69.432L167.354 67.5877C167.36 65.4128 165.688 62.7727 163.612 61.6806" fill="white"/>
</mask>
<g mask="url(#mask24)">
<path fill-rule="evenodd" clip-rule="evenodd" d="M163.48 67.459L166.962 65.6136C166.997 65.7059 167.03 65.7981 167.06 65.8903L163.577 67.7357C163.548 67.6424 163.515 67.5502 163.48 67.459Z" fill="#1A242E"/>
</g>
<mask id="mask25" mask-type="alpha" maskUnits="userSpaceOnUse" x="160" y="61" width="8" height="9">
<path fill-rule="evenodd" clip-rule="evenodd" d="M160.13 63.5249C162.206 64.617 163.878 67.2571 163.872 69.432L167.354 67.5877C167.36 65.4128 165.688 62.7727 163.612 61.6806" fill="white"/>
</mask>
<g mask="url(#mask25)">
<path fill-rule="evenodd" clip-rule="evenodd" d="M163.578 67.7351L167.06 65.8908C167.093 65.9872 167.123 66.0856 167.15 66.184L163.669 68.0284C163.641 67.9299 163.611 67.8336 163.578 67.7351Z" fill="#19232C"/>
</g>
<mask id="mask26" mask-type="alpha" maskUnits="userSpaceOnUse" x="160" y="61" width="8" height="9">
<path fill-rule="evenodd" clip-rule="evenodd" d="M160.13 63.5249C162.206 64.617 163.878 67.2571 163.872 69.432L167.354 67.5877C167.36 65.4128 165.688 62.7727 163.612 61.6806" fill="white"/>
</mask>
<g mask="url(#mask26)">
<path fill-rule="evenodd" clip-rule="evenodd" d="M163.668 68.0287L167.149 66.1844C167.18 66.2901 167.206 66.3958 167.23 66.5014L163.748 68.3468C163.725 68.2411 163.697 68.1355 163.668 68.0287Z" fill="#18222B"/>
</g>
<mask id="mask27" mask-type="alpha" maskUnits="userSpaceOnUse" x="160" y="61" width="8" height="9">
<path fill-rule="evenodd" clip-rule="evenodd" d="M160.13 63.5249C162.206 64.617 163.878 67.2571 163.872 69.432L167.354 67.5877C167.36 65.4128 165.688 62.7727 163.612 61.6806" fill="white"/>
</mask>
<g mask="url(#mask27)">
<path fill-rule="evenodd" clip-rule="evenodd" d="M163.748 68.3464L167.23 66.502C167.256 66.6212 167.279 66.7393 167.297 66.8584L163.816 68.7038C163.796 68.5847 163.775 68.4655 163.748 68.3464Z" fill="#182029"/>
</g>
<path fill-rule="evenodd" clip-rule="evenodd" d="M160.13 63.5249C162.206 64.617 163.878 67.2571 163.872 69.432L167.354 67.5877C167.36 65.4128 165.688 62.7727 163.612 61.6806" fill="#250F8A"/>
<mask id="mask28" mask-type="alpha" maskUnits="userSpaceOnUse" x="160" y="61" width="8" height="9">
<path fill-rule="evenodd" clip-rule="evenodd" d="M160.13 63.5249C162.206 64.617 163.878 67.2571 163.872 69.432L167.354 67.5877C167.36 65.4128 165.688 62.7727 163.612 61.6806" fill="white"/>
</mask>
<g mask="url(#mask28)">
<path fill-rule="evenodd" clip-rule="evenodd" d="M163.815 68.7035L167.297 66.8591C167.319 67.0063 167.335 67.1534 167.345 67.3005L163.863 69.1449C163.854 68.9988 163.838 68.8516 163.815 68.7035Z" fill="#250F8A"/>
</g>
<path fill-rule="evenodd" clip-rule="evenodd" d="M163.863 69.1445L167.345 67.3002C167.351 67.3965 167.353 67.4919 167.353 67.5872L163.872 69.4315C163.872 69.3383 163.869 69.2409 163.863 69.1445Z" fill="#250F8A"/>
<path fill-rule="evenodd" clip-rule="evenodd" d="M159.909 64.0873C162.037 65.1685 163.75 67.7832 163.743 69.9353L163.591 117.371C163.584 119.523 161.859 120.389 159.732 119.307L68.6499 72.9952C66.5231 71.914 64.8086 69.2983 64.8156 67.1462L64.9682 19.7108C64.9751 17.5598 66.7013 16.693 68.8281 17.7752L159.909 64.0873Z" fill="#0AD7DD"/>
<path fill-rule="evenodd" clip-rule="evenodd" d="M159.348 67.7946L71.6178 23.1862L71.4967 66.2713L159.209 110.863L159.348 67.7946ZM102.95 50.1533L102.973 43.0159L154.753 69.3437L154.729 76.4811L102.95 50.1533ZM75.472 36.1821L75.4953 29.0447L98.2393 40.6083L98.2171 47.7468L98.1205 77.5561L75.3753 65.9894L75.472 36.1821ZM102.853 79.9605L102.95 50.1533L154.729 76.4811L154.633 106.289L102.853 79.9605Z" fill="white"/>
<path fill-rule="evenodd" clip-rule="evenodd" d="M117.929 93.9702L110.475 90.181L110.469 92.0643L117.923 95.8546L117.929 93.9702Z" fill="#250F8A"/>
<path fill-rule="evenodd" clip-rule="evenodd" d="M98.2389 40.6085L75.4949 29.0448L75.4728 36.1822L98.2168 47.7469L98.2389 40.6085ZM92.732 43.4508L92.746 39.3159L96.8319 41.3942L96.8179 45.5281L92.732 43.4508ZM87.2053 40.6412L87.2181 36.5052L91.304 38.5824L91.2912 42.7184L87.2053 40.6412ZM81.6774 37.8295L81.6902 33.6945L85.7761 35.7717L85.7633 39.9067L81.6774 37.8295Z" fill="#FA7564"/>
<path fill-rule="evenodd" clip-rule="evenodd" d="M98.2166 47.7468L75.4727 36.1821L75.376 65.9894L98.12 77.5562L98.2166 47.7468ZM76.7318 47.1704L76.7539 40.2084L96.8027 50.4037L96.7806 57.3636L76.7318 47.1704ZM76.677 64.0238L76.684 62.2379L96.7316 72.4311L96.7258 74.2181L76.677 64.0238Z" fill="#E5FDFD"/>
<path fill-rule="evenodd" clip-rule="evenodd" d="M154.729 76.4809L102.949 50.1531L102.852 79.9614L154.632 106.29L154.729 76.4809ZM104.364 61.2191L104.386 54.2591L153.283 79.1211L153.26 86.0821L104.364 61.2191ZM104.351 64.793L104.357 63.0061L153.255 87.869L153.249 89.6549L104.351 64.793ZM104.341 68.3709L104.347 66.5851L153.243 91.447L153.237 93.2339L104.341 68.3709ZM104.312 77.1854L104.334 70.2224L153.231 95.0854L153.209 102.046L104.312 77.1854Z" fill="#E5FDFD"/>
<path fill-rule="evenodd" clip-rule="evenodd" d="M154.752 69.3435L102.972 43.0157L102.949 50.1532L154.729 76.4809L154.752 69.3435ZM149.212 72.1693L149.226 68.0344L153.312 70.1116L153.299 74.2465L149.212 72.1693ZM143.685 69.3588L143.698 65.2239L147.784 67.3021L147.77 71.4361L143.685 69.3588ZM138.157 66.5479L138.17 62.412L142.256 64.4902L142.242 68.6252L138.157 66.5479Z" fill="#FA7564"/>
<path fill-rule="evenodd" clip-rule="evenodd" d="M153.312 70.1115L149.226 68.0343L149.212 72.1692L153.299 74.2465L153.312 70.1115Z" fill="#FFCA00"/>
<path fill-rule="evenodd" clip-rule="evenodd" d="M147.784 67.302L143.698 65.2248L143.684 69.3587L147.77 71.4359L147.784 67.302Z" fill="white"/>
<path fill-rule="evenodd" clip-rule="evenodd" d="M142.255 64.4899L138.169 62.4127L138.157 66.5486L142.242 68.6248L142.255 64.4899Z" fill="white"/>
<path fill-rule="evenodd" clip-rule="evenodd" d="M96.8319 41.3937L92.746 39.3165L92.732 43.4515L96.8179 45.5277L96.8319 41.3937Z" fill="#FFCA00"/>
<path fill-rule="evenodd" clip-rule="evenodd" d="M91.3045 38.5827L87.2186 36.5055L87.2046 40.6415L91.2905 42.7176L91.3045 38.5827Z" fill="white"/>
<path fill-rule="evenodd" clip-rule="evenodd" d="M85.7765 35.772L81.6894 33.6948L81.6766 37.8297L85.7625 39.9069L85.7765 35.772Z" fill="white"/>
<path fill-rule="evenodd" clip-rule="evenodd" d="M96.8029 50.4035L76.7541 40.2092L76.732 47.1712L96.7796 57.3634L96.8029 50.4035Z" fill="white"/>
<path fill-rule="evenodd" clip-rule="evenodd" d="M153.283 79.1213L104.387 54.2593L104.364 61.2193L153.26 86.0823L153.283 79.1213Z" fill="white"/>
<path fill-rule="evenodd" clip-rule="evenodd" d="M153.232 95.0851L104.334 70.2231L104.312 77.1851L153.208 102.046L153.232 95.0851Z" fill="white"/>
<path fill-rule="evenodd" clip-rule="evenodd" d="M96.7317 72.4317L76.6841 62.2374L76.6771 64.0243L96.7259 74.2176L96.7317 72.4317Z" fill="#FFCA00"/>
<path fill-rule="evenodd" clip-rule="evenodd" d="M153.254 87.8686L104.358 63.0067L104.351 64.7936L153.249 89.6545L153.254 87.8686Z" fill="#FFCA00"/>
<path fill-rule="evenodd" clip-rule="evenodd" d="M153.242 91.4468L104.346 66.5848L104.341 68.3707L153.238 93.2337L153.242 91.4468Z" fill="#FFCA00"/>
<path fill-rule="evenodd" clip-rule="evenodd" d="M71.5351 66.1291L69.2554 67.1134L69.3997 21.8217L71.6561 22.9715L71.5351 66.1291Z" fill="#172029"/>
<path fill-rule="evenodd" clip-rule="evenodd" d="M159.169 110.797L159.162 112.947L69.2549 67.1131L71.5346 66.1288L159.169 110.797Z" fill="#263442"/>
</svg>
