<svg xmlns="http://www.w3.org/2000/svg" xmlns:xlink="http://www.w3.org/1999/xlink" width="600" height="600"><defs><linearGradient id="A" gradientUnits="userSpaceOnUse"><stop offset="0" stop-color="#00f"/><stop offset="1" stop-color="#0303fe" stop-opacity="0"/></linearGradient><radialGradient id="B" cx="291.682" cy="262.174" fx="291.682" fy="262.174" r="85.074" gradientTransform="matrix(-1.448435,1.2351902e-2,-1.400983e-2,-1.7841549,717.83804,724.92059)" gradientUnits="userSpaceOnUse"><stop offset="0" stop-color="#4db7e8"/><stop offset="1" stop-color="#4db7e8" stop-opacity="0"/></radialGradient><linearGradient id="C" x1="439.135" y1="478.638" x2="516.644" y2="405.165" gradientUnits="userSpaceOnUse"><stop offset="0"/><stop offset="1" stop-opacity="0"/></linearGradient><linearGradient xlink:href="#A" id="D" x1="224.358" y1="351.081" x2="99.246" y2="138.468"/><linearGradient xlink:href="#A" id="E" x1="282.297" y1="144.263" x2="407.409" y2="356.876"/></defs><path d="M438.707 242.062c0 101.562-82.332 183.895-183.895 183.895S70.918 343.625 70.918 242.062 153.25 58.168 254.813 58.168 438.707 140.5 438.707 242.062z" fill="#fff" stroke="#000"/><path d="M 399.95727,298.37476 A 85.073784,88.388351 0 1 1 229.8097,298.37476 A 85.073784,88.388351 0 1 1 399.95727,298.37476 z" transform="matrix(2.145197 0 0 2.064752 -422.12893 -370.74627)" opacity=".813" fill="url(#B)"/><path d="M198.084 124.45h0c-10.751 7.107-21.25 15.589-29.375 24.801s-21.25 20.549-28.125 32.596-15 25.51-15.625 33.304-2.576 10.092 3.049 15.761 7.652 4.702 14.451 3.371c8.377-1.64 12.5-8.088 14.375-12.046 2.252-4.754.625-8.503 5-17.715s3.75-12.755 11.875-25.51 6.572-9.455 14.697-17.25 2.879-3.922 17.178-13.22c14.808-9.629 15.266-9.029 21.875-14.881 5.076-4.495 1.712-11.146-2.5-15.589-2.598-2.74-7.393-3.249-13.125-.709-7.567 3.354-11.982 5.998-13.75 7.086z" fill="#fff" fill-rule="evenodd"/><g fill="none"><path d="M433.99 245.819A183.99 183.99 0 0 1 157.996 405.2a183.99 183.99 0 0 1 0-318.762A183.99 183.99 0 0 1 433.99 245.819z" stroke="#000" stroke-width="30"/><path d="M402.844 402.164l107.554 115.383" stroke="url(#C)" stroke-width="60" stroke-linecap="round"/></g><g stroke="#000" fill-rule="evenodd" stroke-width="8" stroke-linejoin="round"><path d="M284.772 340.171s-22.429 17.62-32.008 24.371c-15.963 11.648-25.542 16.62-36.345 33.236-.913 1.439 2.146-21 3.089-29.665-41.206-6.237-89.409-49.164-99.523-101.885-5.265-59.01 22.923-96.278 58.088-135.383l-9.668 46.554 45.969 1.708c-42.841 17.354-52.113 53.801-48.109 87.939 11.34 27.218 33.845 43.437 53.138 51.824l.083-33.724s12.814 19.524 33.143 35.711l32.144 19.314z" fill="url(#D)"/><path d="M221.883 155.173s22.429-17.62 32.008-24.371c15.963-11.648 25.542-16.62 36.345-33.235.913-1.439-2.146 21-3.089 29.665 41.206 6.237 89.409 49.164 99.523 101.885 5.265 59.01-22.923 96.278-58.088 135.383l9.668-46.554-45.969-1.708c42.841-17.354 52.113-53.801 48.109-87.939-11.34-27.218-33.845-43.437-53.138-51.824l-.083 33.724s-12.814-19.524-33.143-35.711l-32.144-19.314z" fill="url(#E)"/></g></svg>