<svg xmlns="http://www.w3.org/2000/svg" width="600" height="600"><g fill="none"><path d="M60.254 293.417c91.337 206.404 174.23 256.949 257.804-.896 85.75-225.539 165.224-290.438 243.219.896" stroke="#b70000" stroke-width="22.978" stroke-linecap="round"/><path d="M299.766 31.189V568.19c-271.96.123-271.778-.009-269.626-267.409-.262-267.835.477-268.996 269.626-269.592z" stroke-width="7.929" stroke="#0000eb"/></g><g stroke-linecap="round" fill="navy" fill-rule="evenodd" stroke-width="14"><path d="M296.849 141.639L187.593 34.63m108.783 247.517L77.79 63.561m218.055 357.037L36.52 161.273m258.611 400.968L34.207 301.316" stroke="#0000eb"/><path d="M297.654 212.448L129.905 44.699m167.656 307.057L47.122 101.318m248.163 388.898L35.976 230.907M296.262 73.808l-37.515-37.515m-28.855 527.19L32.237 365.829m127.2 196.378l-125.66-125.66" stroke="#0000eb"/></g></svg>