<svg xmlns="http://www.w3.org/2000/svg" width="600" height="600" xmlns:v="https://vecta.io/nano"><defs><linearGradient id="A" x1="448.033" y1="312.256" x2="199.546" y2="38.612" gradientUnits="userSpaceOnUse"><stop offset="0" stop-color="#00f"/><stop offset="1" stop-color="#00f" stop-opacity="0"/></linearGradient><linearGradient id="B" x1="254.136" y1="416.29" x2="232.665" y2="403.556" gradientUnits="userSpaceOnUse"><stop offset="0"/><stop offset="1" stop-opacity="0"/></linearGradient><linearGradient id="C" x1="214.27" y1="484.635" x2="193.78" y2="473.717" gradientUnits="userSpaceOnUse"><stop offset="0"/><stop offset="1" stop-opacity="0"/></linearGradient></defs><g fill-rule="evenodd"><path d="M279.69 350.37l-68.057 122.706" stroke="url(#B)" stroke-width="20"/><path d="M203.041 468.301l-2.02 23.612 19.33-14.09" fill="url(#C)"/><path d="M309.107 196.949l-35.355 39.901s-2.525 4.546-8.586 5.556-5.051 1.515-11.617 1.515-6.061-.505-11.112-1.01-20.203-3.03-22.728-3.536-9.596 0-13.132 0-10.607 1.515-13.132 3.03-4.041 3.536-6.061 6.566-3.536 5.051-2.525 10.607 4.546 13.132 6.566 18.183 6.566 7.071 11.112 13.132 13.637 15.152 25.254 24.244 20.203 16.162 29.294 22.223 26.264 17.173 38.891 22.728 32.325 13.637 39.901 16.162 15.152 4.546 21.213 6.061 19.698 3.536 21.718 3.536h9.091c4.041 0 8.081-.505 11.617-2.02s6.061-1.01 9.091-4.041 3.03-3.536 4.041-7.576 2.02-3.03.505-8.081-2.02-6.566-5.051-12.627-2.02-6.566-7.576-12.627-10.607-11.617-10.607-13.637-2.525-5.556-4.546-10.607-3.03-6.061-3.536-10.102.505-7.576 1.01-11.112 29.294-77.782 29.294-77.782l4.041-14.647 13.132 3.536s11.617 1.515 14.142 1.515 11.112-1.01 13.637-1.515 4.546-2.02 8.081-4.546 4.546-1.515 6.566-8.081 1.515-8.586-.505-13.132-9.091-18.183-12.122-20.708-18.183-17.678-21.718-20.708-26.769-14.647-31.315-17.678-22.223-10.607-28.284-12.122-17.678-3.536-22.223-4.041-12.627-1.01-17.173-.505-7.071 3.03-11.112 4.546-6.061 4.041-7.576 8.081-1.01 5.556 0 11.617 3.03 8.586 3.03 8.586 1.515 4.546 5.051 9.091 7.071 8.081 9.596 10.102 4.041 5.051 4.041 5.051l-32.325 36.871z" fill="url(#A)" stroke="#000"/></g></svg>