<svg xmlns="http://www.w3.org/2000/svg" xmlns:xlink="http://www.w3.org/1999/xlink" width="600" height="600"><g fill="#007f00"><use xlink:href="#B"/><use xlink:href="#B" x="-91.909"/><use xlink:href="#B" x="99.576" y="1.235"/><use xlink:href="#B" x="-184.245" y="1.235"/><use xlink:href="#B" x="30.357" y="-83.828"/><use xlink:href="#B" x="-61.553" y="-83.828"/><use xlink:href="#B" x="129.933" y="-82.593"/><use xlink:href="#B" x="-153.889" y="-82.593"/><use xlink:href="#B" x="60.714" y="-171.149"/><use xlink:href="#B" x="-31.196" y="-171.149"/><use xlink:href="#B" x="160.29" y="-169.914"/><use xlink:href="#B" x="-123.532" y="-169.914"/><use xlink:href="#B" x="91.07" y="-258.47"/><use xlink:href="#B" x="-0.839" y="-258.47"/><use xlink:href="#B" x="-93.175" y="-257.235"/><use xlink:href="#B" x="24.458" y="-344.044"/><use xlink:href="#B" x="-67.878" y="-342.809"/></g><path d="M64.574 517.517l401.384 1.746 77.578-234.02L358.024 56.463l-139.979 1.746-153.47 459.308z" fill="none" stroke="#ff2000" stroke-width="15" stroke-linejoin="round" stroke-dasharray="60, 15"/><defs ><path id="B" d="M357.857 461.014c.003 12.355-6.36 23.774-16.693 29.952a32.4 32.4 0 0 1-33.396 0c-10.332-6.179-16.696-17.597-16.693-29.952-.003-12.355 6.36-23.774 16.693-29.952a32.4 32.4 0 0 1 33.396 0c10.332 6.179 16.696 17.597 16.693 29.952z"/></defs></svg>