<svg xmlns="http://www.w3.org/2000/svg" xmlns:xlink="http://www.w3.org/1999/xlink" width="600" height="600"><style><![CDATA[.B{stroke-width:15.02}.C{stroke:#000}.D{stroke:#006b00}.E{stroke-linecap:round}]]></style><defs><linearGradient id="A" x1="-74.741" y1="-86.036" x2="135.158" y2="-184.31" gradientUnits="userSpaceOnUse"><stop offset="0" stop-color="red"/><stop offset="1" stop-color="red" stop-opacity="0"/></linearGradient><linearGradient id="B" x1="195.893" y1="441.929" x2="195.893" y2="118.319" gradientUnits="userSpaceOnUse"><stop offset="0" stop-color="red"/><stop offset="1" stop-color="red" stop-opacity="0"/></linearGradient><path id="C" d="M537.335 91.602c0 20.603-16.702 37.305-37.305 37.305s-37.305-16.702-37.305-37.305 16.702-37.305 37.305-37.305 37.305 16.702 37.305 37.305z"/></defs><g fill="none" stroke-width="30"><path d="M499.856 77.341v325.319" class="C E"/><path d="M388.571 77.341v325.319" stroke-dasharray="90, 30" class="D"/><path d="M97.143 160.198v325.319" class="C E"/></g><path d="M24.076-195.877l-10.504 72.956-1.034 59.745-57.93-45.574-51.224-30.768 68.433-27.381 52.258-28.977z" transform="matrix(.373236 -.948757 .797177 .397586 404.33899 285.12064)" fill="url(#A)" class="C"/><path d="M260.357 229.286s-29.268-1.794-48.929 2.143c-19.747 3.954-30.158 7.403-45.873 25.974S149.25 276.875 142.857 300c-3.882 14.042-11.429 141.429-11.429 141.429s18.571-55.714 37.143-95.714 24.448-41.851 27.569-46.464c3.363-4.972 15.004-15.666 18.122-17.912 8.099-5.834 8.648-6.076 20.024-8.481 21.108-4.463 25.714-2.5 25.714-2.5l.357-41.071z" fill="url(#B)" fill-rule="evenodd" class="C"/><g fill="#fff" class="B"><g stroke="red"><path d="M538.59 420c0 20.603-16.702 37.305-37.305 37.305S463.98 440.603 463.98 420s16.702-37.305 37.305-37.305S538.59 399.397 538.59 420z"/><use xlink:href="#C"/></g><path d="M427.305 420c0 20.603-16.702 37.305-37.305 37.305S352.695 440.603 352.695 420s16.702-37.305 37.305-37.305 37.305 16.702 37.305 37.305z" stroke-dasharray="235.92727448999997364, 117.96363724999999079" class="D"/><g stroke="red"><use xlink:href="#C" x="-401.459" y="411.255"/><use xlink:href="#C" x="-402.714" y="82.857"/></g><path d="M427.305 93.721c0 20.603-16.702 37.305-37.305 37.305s-37.305-16.702-37.305-37.305S369.397 56.416 390 56.416s37.305 16.702 37.305 37.305z" stroke-dasharray="235.92727449, 117.96363725" class="D"/></g></svg>