<svg xmlns="http://www.w3.org/2000/svg" xmlns:xlink="http://www.w3.org/1999/xlink" width="600" height="600" xmlns:v="https://vecta.io/nano"><defs><linearGradient id="A" x1="123.157" y1="130.179" x2="131.752" y2="121.438" gradientTransform="matrix(0.4496685,-4.9751912,0.4360794,5.1302278,156.70606,278.48729)" gradientUnits="userSpaceOnUse"><stop offset="0" stop-color="red"/><stop offset="1" stop-color="red" stop-opacity="0"/></linearGradient><linearGradient id="B" x1="-74.741" y1="-86.036" x2="91.101" y2="-163.683" gradientUnits="userSpaceOnUse"><stop offset="0" stop-color="red"/><stop offset="1" stop-color="red" stop-opacity="0"/></linearGradient><path id="C" d="M523.019 508.571c0 20.603-16.702 37.305-37.305 37.305s-37.305-16.702-37.305-37.305 16.702-37.305 37.305-37.305 37.305 16.702 37.305 37.305z"/><path id="D" d="M530.464 222.071c0 24.782-19.72 44.872-44.046 44.872s-44.046-20.09-44.046-44.872 19.72-44.872 44.046-44.872 44.046 20.09 44.046 44.872z"/></defs><path d="M485.714 80.796v422.693M120 80.796v422.693" fill="none" stroke="#000" stroke-width="30" stroke-linecap="round"/><path d="M24.076-195.877l-10.504 72.956-1.034 59.745-57.93-45.574-51.224-30.768 68.433-27.381 52.258-28.977z" transform="matrix(.373236 -.948757 .797177 .397586 483.18526 332.58548)" fill="url(#B)" stroke="#000"/><path d="M318.048 299.508l-88.594-1.067" fill="red" fill-rule="evenodd" stroke="url(#A)" stroke-width="42.315" stroke-linecap="square"/><g fill="#fff" stroke="red" stroke-width="15.02"><use xlink:href="#C"/><use xlink:href="#C" x="0.174" y="-416.969"/><path d="M157.305 508.571c0 20.603-16.702 37.305-37.305 37.305s-37.305-16.702-37.305-37.305S99.397 471.266 120 471.266s37.305 16.702 37.305 37.305z"/><use xlink:href="#C" x="-365.541" y="-416.969"/></g><g stroke="#000" fill="#00f" stroke-width="1.194"><use xlink:href="#D"/><use xlink:href="#D" x="-1.551" y="145.194"/><use xlink:href="#D" x="-366.429" y="76.847"/></g></svg>