<svg xmlns="http://www.w3.org/2000/svg" width="600" height="600"><g fill="none"><path d="M505.142 497.381L302.285 74.524 63.714 271.666l441.429 225.714z" stroke="#000" stroke-width="30"/><path d="M73.714 70.238h447.143v450H73.714z" stroke="#ff4064" stroke-width="15" stroke-dasharray="60, 15"/></g><path d="M112.27 270.056c0 20.603-16.702 37.305-37.305 37.305S37.66 290.659 37.66 270.056s16.702-37.305 37.305-37.305 37.305 16.702 37.305 37.305zM336.555 71.485c0 20.603-16.702 37.305-37.305 37.305s-37.305-16.702-37.305-37.305S278.647 34.18 299.25 34.18s37.305 16.702 37.305 37.305zM552.27 514.342c0 20.603-16.702 37.305-37.305 37.305s-37.305-16.702-37.305-37.305 16.702-37.305 37.305-37.305 37.305 16.702 37.305 37.305z" fill="#fff" stroke="red" stroke-width="15.02"/></svg>