<?xml version="1.0" encoding="UTF-8" standalone="no"?>
<!-- Created with Inkscape (http://www.inkscape.org/) -->
<svg
   xmlns:dc="http://purl.org/dc/elements/1.1/"
   xmlns:cc="http://creativecommons.org/ns#"
   xmlns:rdf="http://www.w3.org/1999/02/22-rdf-syntax-ns#"
   xmlns:svg="http://www.w3.org/2000/svg"
   xmlns="http://www.w3.org/2000/svg"
   xmlns:sodipodi="http://sodipodi.sourceforge.net/DTD/sodipodi-0.dtd"
   xmlns:inkscape="http://www.inkscape.org/namespaces/inkscape"
   width="600"
   height="600"
   id="svg2"
   sodipodi:version="0.32"
   inkscape:version="0.46"
   version="1.0"
   sodipodi:docname="SelectPoly.svg"
   inkscape:output_extension="org.inkscape.output.svg.inkscape"
   inkscape:export-filename="D:\Documents and Settings\Маша\Рабочий стол\TELMA.V20\Projects\Interfaces\Telbase\TelBasePanel\images\SelectPoly.png"
   inkscape:export-xdpi="4.7978296"
   inkscape:export-ydpi="4.7978296">
  <defs
     id="defs4">
    <linearGradient
       id="linearGradient3179">
      <stop
         style="stop-color:#f8b611;stop-opacity:0.67588931;"
         offset="0"
         id="stop3181" />
      <stop
         style="stop-color:#ffffff;stop-opacity:1"
         offset="1"
         id="stop3183" />
    </linearGradient>
    <linearGradient
       id="linearGradient5422">
      <stop
         style="stop-color:#f5f000;stop-opacity:0.32941177;"
         offset="0"
         id="stop5424" />
      <stop
         style="stop-color:#1598b5;stop-opacity:0;"
         offset="1"
         id="stop5426" />
    </linearGradient>
    <inkscape:perspective
       sodipodi:type="inkscape:persp3d"
       inkscape:vp_x="0 : 526.18109 : 1"
       inkscape:vp_y="6.1230318e-14 : 1000 : 0"
       inkscape:vp_z="744.09448 : 526.18109 : 1"
       inkscape:persp3d-origin="372.04724 : 350.78739 : 1"
       id="perspective10" />
  </defs>
  <sodipodi:namedview
     id="base"
     pagecolor="#ffffff"
     bordercolor="#666666"
     borderopacity="1.0"
     gridtolerance="10000"
     guidetolerance="10"
     objecttolerance="10"
     inkscape:pageopacity="0.0"
     inkscape:pageshadow="2"
     inkscape:zoom="0.49497475"
     inkscape:cx="230.16032"
     inkscape:cy="362.52317"
     inkscape:document-units="px"
     inkscape:current-layer="layer1"
     showgrid="false"
     showguides="true"
     inkscape:showpageshadow="false"
     inkscape:window-width="1029"
     inkscape:window-height="676"
     inkscape:window-x="135"
     inkscape:window-y="175"
     showborder="true">
    <inkscape:grid
       type="xygrid"
       visible="true"
       enabled="true"
       id="grid2393" />
  </sodipodi:namedview>
  <metadata
     id="metadata7">
    <rdf:RDF>
      <cc:Work
         rdf:about="">
        <dc:format>image/svg+xml</dc:format>
        <dc:type
           rdf:resource="http://purl.org/dc/dcmitype/StillImage" />
      </cc:Work>
    </rdf:RDF>
  </metadata>
  <g
     inkscape:label="Layer 1"
     inkscape:groupmode="layer"
     id="layer1">
    <rect
       ry="90"
       rx="90"
       y="10.602222"
       x="11.58176"
       height="576.74463"
       width="577.10175"
       id="rect2390"
       style="opacity:1;fill:none;fill-opacity:1;stroke:none;stroke-width:1;stroke-linecap:round;stroke-linejoin:miter;stroke-miterlimit:4;stroke-dasharray:none;stroke-dashoffset:0;stroke-opacity:1"
       inkscape:export-filename="P:\TELMA.V20\telma.v20_10_11\Projects\Interfaces\BaseInterface\Telbase\TelBasePanel\images\SelectPoly.png"
       inkscape:export-xdpi="4.9935446"
       inkscape:export-ydpi="4.9935446" />
    <rect
       style="opacity:1;fill:none;fill-opacity:1;stroke:none;stroke-width:23.16965866000000000;stroke-linecap:round;stroke-linejoin:miter;stroke-miterlimit:4;stroke-dasharray:none;stroke-dashoffset:0;stroke-opacity:1"
       id="rect5264"
       width="577.10175"
       height="576.74463"
       x="11.581718"
       y="11.612374"
       rx="90"
       ry="90"
       inkscape:export-filename="D:\Documents and Settings\Маша\Рабочий стол\TELMA.V20\Projects\Interfaces\Telbase\TelBasePanel\images\SelectPoly.png"
       inkscape:export-xdpi="4.8006859"
       inkscape:export-ydpi="4.8006859" />
  </g>
  <g
     inkscape:groupmode="layer"
     id="layer2"
     inkscape:label="Линия">
    <path
       transform="matrix(0.5735839,0,0,0.5762881,38.698586,351.1075)"
       d="M 556.42858,190.71428 A 58.214287,60 0 1 1 440.00001,190.71428 A 58.214287,60 0 1 1 556.42858,190.71428 z"
       sodipodi:ry="60"
       sodipodi:rx="58.214287"
       sodipodi:cy="190.71428"
       sodipodi:cx="498.21429"
       id="path12660"
       style="opacity:1;fill:#007f00;fill-opacity:1;stroke:none;stroke-width:10;stroke-linecap:square;stroke-linejoin:round;stroke-miterlimit:4;stroke-dasharray:none;stroke-dashoffset:0;stroke-opacity:1"
       sodipodi:type="arc" />
    <path
       sodipodi:type="arc"
       style="opacity:1;fill:#007f00;fill-opacity:1;stroke:none;stroke-width:10;stroke-linecap:square;stroke-linejoin:round;stroke-miterlimit:4;stroke-dasharray:none;stroke-dashoffset:0;stroke-opacity:1"
       id="path12662"
       sodipodi:cx="498.21429"
       sodipodi:cy="190.71428"
       sodipodi:rx="58.214287"
       sodipodi:ry="60"
       d="M 556.42858,190.71428 A 58.214287,60 0 1 1 440.00001,190.71428 A 58.214287,60 0 1 1 556.42858,190.71428 z"
       transform="matrix(0.5735839,0,0,0.5762881,-53.210797,351.1075)" />
    <path
       sodipodi:type="arc"
       style="opacity:1;fill:#007f00;fill-opacity:1;stroke:none;stroke-width:10;stroke-linecap:square;stroke-linejoin:round;stroke-miterlimit:4;stroke-dasharray:none;stroke-dashoffset:0;stroke-opacity:1"
       id="path12668"
       sodipodi:cx="498.21429"
       sodipodi:cy="190.71428"
       sodipodi:rx="58.214287"
       sodipodi:ry="60"
       d="M 556.42858,190.71428 A 58.214287,60 0 1 1 440.00001,190.71428 A 58.214287,60 0 1 1 556.42858,190.71428 z"
       transform="matrix(0.5735839,0,0,0.5762881,138.27466,352.34241)" />
    <path
       sodipodi:type="arc"
       style="opacity:1;fill:#007f00;fill-opacity:1;stroke:none;stroke-width:10;stroke-linecap:square;stroke-linejoin:round;stroke-miterlimit:4;stroke-dasharray:none;stroke-dashoffset:0;stroke-opacity:1"
       id="path12676"
       sodipodi:cx="498.21429"
       sodipodi:cy="190.71428"
       sodipodi:rx="58.214287"
       sodipodi:ry="60"
       d="M 556.42858,190.71428 A 58.214287,60 0 1 1 440.00001,190.71428 A 58.214287,60 0 1 1 556.42858,190.71428 z"
       transform="matrix(0.5735839,0,0,0.5762881,-145.54693,352.3424)" />
    <path
       sodipodi:type="arc"
       style="opacity:1;fill:#007f00;fill-opacity:1;stroke:none;stroke-width:10;stroke-linecap:square;stroke-linejoin:round;stroke-miterlimit:4;stroke-dasharray:none;stroke-dashoffset:0;stroke-opacity:1"
       id="path3861"
       sodipodi:cx="498.21429"
       sodipodi:cy="190.71428"
       sodipodi:rx="58.214287"
       sodipodi:ry="60"
       d="M 556.42858,190.71428 A 58.214287,60 0 1 1 440.00001,190.71428 A 58.214287,60 0 1 1 556.42858,190.71428 z"
       transform="matrix(0.5735839,0,0,0.5762881,69.055385,267.2795)" />
    <path
       transform="matrix(0.5735839,0,0,0.5762881,-22.853998,267.2795)"
       d="M 556.42858,190.71428 A 58.214287,60 0 1 1 440.00001,190.71428 A 58.214287,60 0 1 1 556.42858,190.71428 z"
       sodipodi:ry="60"
       sodipodi:rx="58.214287"
       sodipodi:cy="190.71428"
       sodipodi:cx="498.21429"
       id="path3863"
       style="opacity:1;fill:#007f00;fill-opacity:1;stroke:none;stroke-width:10;stroke-linecap:square;stroke-linejoin:round;stroke-miterlimit:4;stroke-dasharray:none;stroke-dashoffset:0;stroke-opacity:1"
       sodipodi:type="arc" />
    <path
       transform="matrix(0.5735839,0,0,0.5762881,168.63146,268.51441)"
       d="M 556.42858,190.71428 A 58.214287,60 0 1 1 440.00001,190.71428 A 58.214287,60 0 1 1 556.42858,190.71428 z"
       sodipodi:ry="60"
       sodipodi:rx="58.214287"
       sodipodi:cy="190.71428"
       sodipodi:cx="498.21429"
       id="path3865"
       style="opacity:1;fill:#007f00;fill-opacity:1;stroke:none;stroke-width:10;stroke-linecap:square;stroke-linejoin:round;stroke-miterlimit:4;stroke-dasharray:none;stroke-dashoffset:0;stroke-opacity:1"
       sodipodi:type="arc" />
    <path
       transform="matrix(0.5735839,0,0,0.5762881,-115.19014,268.5144)"
       d="M 556.42858,190.71428 A 58.214287,60 0 1 1 440.00001,190.71428 A 58.214287,60 0 1 1 556.42858,190.71428 z"
       sodipodi:ry="60"
       sodipodi:rx="58.214287"
       sodipodi:cy="190.71428"
       sodipodi:cx="498.21429"
       id="path3867"
       style="opacity:1;fill:#007f00;fill-opacity:1;stroke:none;stroke-width:10;stroke-linecap:square;stroke-linejoin:round;stroke-miterlimit:4;stroke-dasharray:none;stroke-dashoffset:0;stroke-opacity:1"
       sodipodi:type="arc" />
    <path
       transform="matrix(0.5735839,0,0,0.5762881,99.412184,179.95868)"
       d="M 556.42858,190.71428 A 58.214287,60 0 1 1 440.00001,190.71428 A 58.214287,60 0 1 1 556.42858,190.71428 z"
       sodipodi:ry="60"
       sodipodi:rx="58.214287"
       sodipodi:cy="190.71428"
       sodipodi:cx="498.21429"
       id="path3869"
       style="opacity:1;fill:#007f00;fill-opacity:1;stroke:none;stroke-width:10;stroke-linecap:square;stroke-linejoin:round;stroke-miterlimit:4;stroke-dasharray:none;stroke-dashoffset:0;stroke-opacity:1"
       sodipodi:type="arc" />
    <path
       sodipodi:type="arc"
       style="opacity:1;fill:#007f00;fill-opacity:1;stroke:none;stroke-width:10;stroke-linecap:square;stroke-linejoin:round;stroke-miterlimit:4;stroke-dasharray:none;stroke-dashoffset:0;stroke-opacity:1"
       id="path3871"
       sodipodi:cx="498.21429"
       sodipodi:cy="190.71428"
       sodipodi:rx="58.214287"
       sodipodi:ry="60"
       d="M 556.42858,190.71428 A 58.214287,60 0 1 1 440.00001,190.71428 A 58.214287,60 0 1 1 556.42858,190.71428 z"
       transform="matrix(0.5735839,0,0,0.5762881,7.5028006,179.95868)" />
    <path
       sodipodi:type="arc"
       style="opacity:1;fill:#007f00;fill-opacity:1;stroke:none;stroke-width:10;stroke-linecap:square;stroke-linejoin:round;stroke-miterlimit:4;stroke-dasharray:none;stroke-dashoffset:0;stroke-opacity:1"
       id="path3873"
       sodipodi:cx="498.21429"
       sodipodi:cy="190.71428"
       sodipodi:rx="58.214287"
       sodipodi:ry="60"
       d="M 556.42858,190.71428 A 58.214287,60 0 1 1 440.00001,190.71428 A 58.214287,60 0 1 1 556.42858,190.71428 z"
       transform="matrix(0.5735839,0,0,0.5762881,198.98826,181.19359)" />
    <path
       sodipodi:type="arc"
       style="opacity:1;fill:#007f00;fill-opacity:1;stroke:none;stroke-width:10;stroke-linecap:square;stroke-linejoin:round;stroke-miterlimit:4;stroke-dasharray:none;stroke-dashoffset:0;stroke-opacity:1"
       id="path3875"
       sodipodi:cx="498.21429"
       sodipodi:cy="190.71428"
       sodipodi:rx="58.214287"
       sodipodi:ry="60"
       d="M 556.42858,190.71428 A 58.214287,60 0 1 1 440.00001,190.71428 A 58.214287,60 0 1 1 556.42858,190.71428 z"
       transform="matrix(0.5735839,0,0,0.5762881,-84.833345,181.19358)" />
    <path
       sodipodi:type="arc"
       style="opacity:1;fill:#007f00;fill-opacity:1;stroke:none;stroke-width:10;stroke-linecap:square;stroke-linejoin:round;stroke-miterlimit:4;stroke-dasharray:none;stroke-dashoffset:0;stroke-opacity:1"
       id="path3877"
       sodipodi:cx="498.21429"
       sodipodi:cy="190.71428"
       sodipodi:rx="58.214287"
       sodipodi:ry="60"
       d="M 556.42858,190.71428 A 58.214287,60 0 1 1 440.00001,190.71428 A 58.214287,60 0 1 1 556.42858,190.71428 z"
       transform="matrix(0.5735839,0,0,0.5762881,129.76899,92.637847)" />
    <path
       transform="matrix(0.5735839,0,0,0.5762881,37.8596,92.637847)"
       d="M 556.42858,190.71428 A 58.214287,60 0 1 1 440.00001,190.71428 A 58.214287,60 0 1 1 556.42858,190.71428 z"
       sodipodi:ry="60"
       sodipodi:rx="58.214287"
       sodipodi:cy="190.71428"
       sodipodi:cx="498.21429"
       id="path3879"
       style="opacity:1;fill:#007f00;fill-opacity:1;stroke:none;stroke-width:10;stroke-linecap:square;stroke-linejoin:round;stroke-miterlimit:4;stroke-dasharray:none;stroke-dashoffset:0;stroke-opacity:1"
       sodipodi:type="arc" />
    <path
       transform="matrix(0.5735839,0,0,0.5762881,-54.476549,93.872749)"
       d="M 556.42858,190.71428 A 58.214287,60 0 1 1 440.00001,190.71428 A 58.214287,60 0 1 1 556.42858,190.71428 z"
       sodipodi:ry="60"
       sodipodi:rx="58.214287"
       sodipodi:cy="190.71428"
       sodipodi:cx="498.21429"
       id="path3883"
       style="opacity:1;fill:#007f00;fill-opacity:1;stroke:none;stroke-width:10;stroke-linecap:square;stroke-linejoin:round;stroke-miterlimit:4;stroke-dasharray:none;stroke-dashoffset:0;stroke-opacity:1"
       sodipodi:type="arc" />
    <path
       sodipodi:type="arc"
       style="opacity:1;fill:#007f00;fill-opacity:1;stroke:none;stroke-width:10;stroke-linecap:square;stroke-linejoin:round;stroke-miterlimit:4;stroke-dasharray:none;stroke-dashoffset:0;stroke-opacity:1"
       id="path3887"
       sodipodi:cx="498.21429"
       sodipodi:cy="190.71428"
       sodipodi:rx="58.214287"
       sodipodi:ry="60"
       d="M 556.42858,190.71428 A 58.214287,60 0 1 1 440.00001,190.71428 A 58.214287,60 0 1 1 556.42858,190.71428 z"
       transform="matrix(0.5735839,0,0,0.5762881,63.156934,7.0634349)" />
    <path
       sodipodi:type="arc"
       style="opacity:1;fill:#007f00;fill-opacity:1;stroke:none;stroke-width:10;stroke-linecap:square;stroke-linejoin:round;stroke-miterlimit:4;stroke-dasharray:none;stroke-dashoffset:0;stroke-opacity:1"
       id="path3891"
       sodipodi:cx="498.21429"
       sodipodi:cy="190.71428"
       sodipodi:rx="58.214287"
       sodipodi:ry="60"
       d="M 556.42858,190.71428 A 58.214287,60 0 1 1 440.00001,190.71428 A 58.214287,60 0 1 1 556.42858,190.71428 z"
       transform="matrix(0.5735839,0,0,0.5762881,-29.179217,8.2983368)" />
    <path
       style="fill:none;fill-rule:evenodd;stroke:#ff2000;stroke-width:15;stroke-linecap:butt;stroke-linejoin:round;stroke-opacity:1;stroke-miterlimit:4;stroke-dasharray:60, 15;stroke-dashoffset:0"
       d="M 64.574497,517.51665 L 465.95885,519.26307 L 543.53734,285.24324 L 358.02356,56.46267 L 218.04499,58.209087 L 64.574497,517.51665 z"
       id="path3893"
       sodipodi:nodetypes="cccccc" />
  </g>
</svg>
