<svg xmlns="http://www.w3.org/2000/svg" width="600" height="600"><defs><radialGradient id="A" cx="547.296" cy="412.641" fx="547.296" fy="412.641" r="208.648" gradientTransform="matrix(1.7475794,0.1118931,-0.6926541,0.6699015,-166.66486,64.892956)" gradientUnits="userSpaceOnUse"><stop offset="0" stop-color="#ffec69"/><stop offset="1" stop-color="#ffec69" stop-opacity="0"/></radialGradient><linearGradient id="B" x1="272.127" y1="372.009" x2="69.372" y2="124.507" gradientUnits="userSpaceOnUse"><stop offset="0" stop-color="#ffc35d"/><stop offset="1" stop-color="#ffc35d" stop-opacity="0"/></linearGradient></defs><g fill-rule="evenodd" stroke="#000" stroke-width="8"><path d="M192.232 165.267h0-82.905s-7.165 1.04-11.259 5.2-4.094 6.24-6.141 12.479-3.071 16.639-3.071 16.639v247.503h386.892V229.743H235.22l-.662-43.425-4.456-10.399s-1.506-3.58-6.865-8.319c-4.021-3.556-31.005-2.332-31.005-2.332z" fill="#fff"/><path d="M191.732 164.645h0-82.905s-7.165 1.04-11.259 5.2-4.094 6.24-6.141 12.479-3.071 16.639-3.071 16.639v247.503h386.892V229.121H234.72l-.662-43.425-4.456-10.399s-1.506-3.58-6.865-8.319c-4.021-3.556-31.005-2.332-31.005-2.332z" fill="url(#B)"/></g><g transform="matrix(1 0 -.444984 .895539 0 0)" stroke-width="8.454" stroke-linejoin="bevel"><path d="M310.377 306.441h385.712v191.443H310.377z" fill="#fff" stroke="#000"/><path d="M311.104 306.839h385.712v191.443H311.104z" fill="url(#A)" stroke="#000"/></g></svg>