<?xml version="1.0" standalone="no"?>
<!DOCTYPE svg PUBLIC "-//W3C//DTD SVG 20010904//EN"
 "http://www.w3.org/TR/2001/REC-SVG-20010904/DTD/svg10.dtd">
<svg version="1.0" xmlns="http://www.w3.org/2000/svg"
 width="364.000000pt" height="364.000000pt" viewBox="0 0 364.000000 364.000000"
 preserveAspectRatio="xMidYMid meet">
<metadata>
Created by potrace 1.11, written by Peter Selinger 2001-2013
</metadata>
<g transform="translate(0.000000,364.000000) scale(0.100000,-0.100000)"
fill="#000000" stroke="none">
<path d="M1718 3595 c-2 -2 -32 -5 -68 -9 -78 -7 -92 -10 -230 -41 -206 -47
-432 -151 -622 -285 -104 -74 -290 -251 -370 -355 -206 -264 -336 -601 -367
-945 -8 -91 -6 -292 3 -344 3 -17 8 -53 11 -81 24 -190 123 -460 243 -660 136
-228 377 -463 616 -603 190 -112 448 -202 646 -227 30 -4 64 -9 75 -11 11 -2
77 -6 147 -8 111 -2 173 2 348 27 58 8 201 45 280 72 117 40 346 158 450 232
95 69 284 247 357 338 86 106 188 279 251 425 43 98 103 310 116 410 3 25 9
64 12 86 9 67 11 266 3 345 -52 536 -316 997 -747 1306 -216 154 -510 273
-762 308 -25 3 -54 9 -64 12 -18 5 -323 12 -328 8z m328 -77 c5 -3 34 -9 64
-12 30 -4 98 -17 150 -31 424 -107 766 -351 1017 -725 122 -181 230 -458 259
-665 3 -27 8 -59 11 -70 2 -11 6 -81 8 -155 16 -552 -224 -1062 -660 -1405
-132 -104 -314 -205 -464 -259 -92 -33 -247 -74 -306 -81 -27 -3 -61 -8 -75
-11 -45 -10 -304 -12 -390 -3 -312 33 -629 161 -875 354 -338 266 -555 624
-635 1046 -34 178 -33 475 2 629 5 25 11 52 13 60 35 166 127 389 222 537 240
378 602 640 1031 747 87 22 191 40 277 49 47 5 341 0 351 -5z"/>
<path d="M1812 3473 c-39 -5 -33 -23 9 -23 19 0 29 5 29 15 0 8 -1 14 -2 13
-2 0 -18 -3 -36 -5z"/>
<path d="M1655 3461 c-11 -11 -3 -18 18 -16 12 1 28 3 35 4 6 0 12 6 12 11 0
10 -56 11 -65 1z"/>
<path d="M1920 3460 c0 -5 16 -10 36 -10 21 0 33 4 29 10 -3 6 -19 10 -36 10
-16 0 -29 -4 -29 -10z"/>
<path d="M2050 3453 c0 -11 60 -27 68 -18 8 8 -2 14 -36 21 -19 4 -32 2 -32
-3z"/>
<path d="M1525 3439 c-4 -6 -5 -12 -4 -13 8 -7 69 7 69 15 0 13 -57 11 -65 -2z"/>
<path d="M2184 3428 c-3 -4 1 -10 8 -13 30 -10 51 -9 55 1 5 13 -55 25 -63 12z"/>
<path d="M1421 3421 c-37 -10 -37 -28 -1 -23 30 4 47 17 33 25 -5 2 -19 1 -32
-2z"/>
<path d="M2310 3392 c0 -12 58 -27 67 -18 9 9 2 13 -34 21 -20 4 -33 3 -33 -3z"/>
<path d="M1288 3378 c-16 -5 -28 -14 -28 -19 0 -11 0 -11 39 2 17 6 31 15 31
20 0 11 -7 10 -42 -3z"/>
<path d="M2440 3350 c0 -9 40 -30 56 -30 14 0 0 19 -21 28 -32 15 -35 15 -35
2z"/>
<path d="M1154 3326 c-10 -8 -16 -17 -13 -21 8 -7 59 15 59 27 0 13 -24 10
-46 -6z"/>
<path d="M2560 3292 c0 -12 51 -34 59 -27 7 8 -28 35 -46 35 -7 0 -13 -4 -13
-8z"/>
<path d="M1048 3274 c-24 -12 -38 -34 -23 -34 16 0 55 26 55 37 0 16 2 16 -32
-3z"/>
<path d="M2680 3231 c0 -14 48 -42 55 -32 3 5 -5 17 -17 25 -25 18 -38 20 -38
7z"/>
<path d="M932 3204 c-21 -15 -30 -34 -14 -34 4 0 18 9 31 19 29 22 13 36 -17
15z"/>
<path d="M2790 3162 c0 -16 38 -44 50 -37 7 4 2 14 -14 26 -26 21 -36 24 -36
11z"/>
<path d="M822 3124 c-12 -8 -20 -20 -17 -25 4 -5 17 -1 30 8 41 30 29 46 -13
17z"/>
<path d="M2895 3080 c-5 -9 45 -54 52 -46 6 6 -20 45 -34 50 -7 3 -15 1 -18
-4z"/>
<path d="M720 3042 c-13 -10 -21 -23 -19 -29 2 -7 16 -2 33 12 15 12 24 25 18
29 -5 3 -20 -2 -32 -12z"/>
<path d="M2996 2992 c-3 -5 5 -19 18 -31 13 -13 26 -18 30 -13 3 5 -5 19 -18
31 -13 13 -26 18 -30 13z"/>
<path d="M626 2951 c-17 -18 -22 -41 -8 -41 4 0 15 11 25 25 20 28 7 42 -17
16z"/>
<path d="M3087 2893 c-5 -8 26 -53 37 -53 3 0 6 6 6 13 0 18 -36 51 -43 40z"/>
<path d="M535 2844 c-9 -14 -14 -29 -10 -32 7 -7 45 34 45 49 0 17 -18 9 -35
-17z"/>
<path d="M3176 2765 c9 -14 23 -25 30 -25 12 0 11 5 -2 25 -9 14 -23 25 -30
25 -12 0 -11 -5 2 -25z"/>
<path d="M455 2734 c-9 -14 -14 -29 -10 -32 6 -7 44 36 45 51 0 16 -19 6 -35
-19z"/>
<path d="M3240 2672 c0 -4 7 -18 16 -30 21 -30 38 -17 18 14 -16 23 -34 32
-34 16z"/>
<path d="M387 2620 c-11 -17 -13 -31 -8 -35 6 -3 17 8 26 24 20 39 4 49 -18
11z"/>
<path d="M3310 2554 c0 -23 20 -55 30 -49 6 4 4 18 -5 36 -17 32 -25 37 -25
13z"/>
<path d="M325 2501 c-9 -18 -11 -32 -5 -36 5 -3 16 8 25 24 9 18 11 32 5 36
-5 3 -16 -8 -25 -24z"/>
<path d="M3366 2442 c-7 -12 13 -62 26 -62 9 0 3 32 -12 59 -5 9 -10 10 -14 3z"/>
<path d="M280 2385 c-12 -32 -13 -45 -2 -45 12 0 31 59 21 66 -5 3 -14 -7 -19
-21z"/>
<path d="M3411 2303 c1 -27 15 -58 21 -47 8 13 -2 64 -13 64 -5 0 -9 -8 -8
-17z"/>
<path d="M235 2249 c-6 -28 -1 -48 10 -37 3 2 8 19 11 36 8 42 -12 43 -21 1z"/>
<path d="M3445 2158 c8 -37 12 -44 21 -35 9 9 -6 67 -18 67 -6 0 -7 -13 -3
-32z"/>
<path d="M1410 1866 c0 -297 1 -315 20 -338 11 -14 31 -28 44 -30 27 -5 86 16
86 31 0 15 -30 29 -51 24 -44 -12 -46 1 -47 305 0 158 -1 295 -1 305 -1 11 -9
17 -26 17 l-25 0 0 -314z"/>
<path d="M206 2125 c-8 -33 4 -57 15 -29 11 27 11 54 0 54 -5 0 -12 -11 -15
-25z"/>
<path d="M900 2142 c-67 -6 -121 -92 -63 -100 14 -2 23 3 28 17 6 20 41 38 52
27 4 -3 7 -135 7 -293 l1 -288 28 -3 27 -3 0 295 0 296 78 0 c125 0 182 -46
182 -147 0 -96 -55 -145 -162 -144 -54 0 -58 -2 -58 -23 0 -30 13 -35 81 -32
152 7 231 134 179 292 -14 43 -70 91 -115 100 -39 7 -210 11 -265 6z"/>
<path d="M2197 2082 c-3 -4 -4 -120 -3 -257 1 -225 3 -254 19 -279 20 -31 73
-57 103 -51 10 2 27 4 36 4 10 1 33 15 53 32 28 25 33 34 24 45 -16 19 -29 18
-54 -6 -48 -45 -124 -25 -126 33 -4 96 -3 301 1 307 3 5 36 8 73 7 58 -2 67 0
67 16 0 9 1 20 3 25 1 4 -32 9 -73 12 l-74 5 -1 54 c0 48 -3 54 -22 57 -12 2
-24 0 -26 -4z"/>
<path d="M3468 2025 c2 -19 8 -35 13 -35 5 0 9 16 7 35 -1 19 -7 35 -13 35 -7
0 -9 -14 -7 -35z"/>
<path d="M189 2008 c-1 -7 -3 -23 -4 -35 -1 -13 1 -23 5 -23 8 0 20 35 20 58
0 6 -4 12 -10 12 -5 0 -11 -6 -11 -12z"/>
<path d="M1771 1966 c-164 -54 -209 -297 -77 -414 50 -44 78 -54 153 -55 153
-1 256 130 228 292 -10 58 -62 131 -112 159 -53 29 -134 37 -192 18z m179 -66
c107 -76 95 -281 -20 -337 -68 -34 -165 -18 -212 34 -87 96 -47 287 68 323 46
15 130 4 164 -20z"/>
<path d="M2620 1967 c-39 -14 -80 -67 -80 -104 0 -33 24 -77 52 -95 13 -8 50
-25 83 -38 73 -28 115 -65 115 -100 0 -80 -108 -111 -213 -60 -36 17 -38 17
-47 0 -15 -28 -14 -29 38 -52 56 -25 154 -28 198 -5 61 31 87 84 73 147 -10
46 -52 80 -140 115 -74 29 -99 53 -99 96 0 51 62 70 143 46 26 -8 47 -11 47
-7 0 5 2 15 6 23 11 30 -117 55 -176 34z"/>
<path d="M3480 1895 c0 -19 4 -35 9 -35 13 0 18 20 13 47 -7 36 -22 27 -22
-12z"/>
<path d="M180 1850 c0 -25 4 -39 10 -35 6 3 10 19 10 35 0 16 -4 32 -10 35 -6
4 -10 -10 -10 -35z"/>
<path d="M3480 1781 c0 -31 15 -50 22 -29 6 18 -3 58 -13 58 -5 0 -9 -13 -9
-29z"/>
<path d="M187 1753 c-11 -10 -8 -61 3 -68 6 -4 10 10 10 34 0 42 -2 46 -13 34z"/>
<path d="M3482 1668 c-14 -14 -16 -58 -3 -58 10 0 26 58 19 66 -2 2 -10 -2
-16 -8z"/>
<path d="M190 1591 c0 -17 5 -33 11 -36 15 -10 17 -4 12 33 -6 40 -23 42 -23
3z"/>
<path d="M3460 1540 c0 -8 -3 -25 -6 -37 -4 -14 -2 -23 5 -23 16 0 26 49 12
63 -8 8 -11 7 -11 -3z"/>
<path d="M214 1458 c7 -34 13 -44 21 -36 9 8 -7 68 -17 68 -6 0 -8 -13 -4 -32z"/>
<path d="M3431 1397 c-14 -35 -14 -47 -1 -47 12 0 24 44 17 62 -3 8 -9 1 -16
-15z"/>
<path d="M246 1333 c9 -37 14 -44 24 -38 11 7 -8 65 -21 65 -5 0 -6 -12 -3
-27z"/>
<path d="M3390 1265 c-12 -32 -13 -45 -2 -45 12 0 31 59 21 66 -5 3 -14 -7
-19 -21z"/>
<path d="M291 1200 c10 -27 29 -42 29 -22 -1 24 -14 52 -26 52 -10 0 -11 -6
-3 -30z"/>
<path d="M3340 1141 c-12 -24 -13 -41 -2 -41 8 0 32 43 32 55 0 13 -21 3 -30
-14z"/>
<path d="M340 1102 c0 -19 19 -52 30 -52 16 0 12 16 -10 41 -11 14 -19 18 -20
11z"/>
<path d="M3275 1010 c-18 -35 -4 -41 19 -8 18 26 20 38 6 38 -5 0 -16 -13 -25
-30z"/>
<path d="M400 981 c0 -5 9 -19 20 -32 21 -26 27 -11 10 22 -11 19 -30 26 -30
10z"/>
<path d="M3218 913 c-25 -30 -30 -43 -15 -43 14 0 44 46 35 55 -3 3 -12 -3
-20 -12z"/>
<path d="M470 871 c0 -15 38 -56 45 -49 8 8 -23 58 -36 58 -5 0 -9 -4 -9 -9z"/>
<path d="M3138 802 c-25 -29 -30 -42 -16 -42 17 1 51 47 39 54 -4 3 -15 -2
-23 -12z"/>
<path d="M550 762 c0 -5 11 -19 25 -32 19 -18 25 -20 25 -8 0 8 -8 22 -18 31
-20 19 -32 22 -32 9z"/>
<path d="M3042 689 c-7 -12 -11 -23 -8 -26 7 -7 25 6 36 28 15 27 -11 26 -28
-2z"/>
<path d="M640 662 c0 -5 11 -19 25 -32 19 -18 25 -20 25 -8 0 8 -8 22 -18 31
-20 19 -32 22 -32 9z"/>
<path d="M2951 599 c-14 -12 -20 -23 -15 -28 5 -5 19 2 31 15 28 29 16 39 -16
13z"/>
<path d="M740 572 c0 -14 39 -46 47 -39 3 4 -2 16 -12 27 -19 21 -35 26 -35
12z"/>
<path d="M2842 510 c-15 -12 -19 -21 -11 -26 6 -3 23 5 37 20 31 31 10 36 -26
6z"/>
<path d="M840 492 c0 -12 34 -42 48 -42 21 0 13 15 -18 33 -16 10 -30 14 -30
9z"/>
<path d="M2736 435 c-11 -8 -16 -18 -13 -22 8 -8 57 17 57 29 0 13 -23 9 -44
-7z"/>
<path d="M950 412 c0 -4 14 -16 30 -25 24 -15 30 -15 30 -4 0 8 -11 19 -25 25
-31 14 -35 15 -35 4z"/>
<path d="M2621 366 c-16 -9 -20 -16 -12 -20 11 -7 61 18 61 29 0 9 -25 4 -49
-9z"/>
<path d="M1070 346 c0 -11 39 -36 55 -36 16 0 0 21 -25 34 -23 11 -30 11 -30
2z"/>
<path d="M2505 306 c-18 -7 -25 -15 -18 -19 13 -8 63 12 63 25 0 11 -9 10 -45
-6z"/>
<path d="M1186 291 c-3 -5 6 -13 20 -20 30 -13 44 -14 44 -2 0 12 -58 32 -64
22z"/>
<path d="M2383 260 c-37 -15 -27 -29 12 -18 19 6 32 15 29 20 -6 10 -12 9 -41
-2z"/>
<path d="M1310 241 c0 -11 59 -26 67 -17 3 3 -6 10 -21 16 -34 12 -46 13 -46
1z"/>
<path d="M2261 221 c-14 -4 -26 -12 -28 -18 -3 -9 4 -9 29 -2 18 5 34 9 35 9
2 0 3 5 3 10 0 11 -4 11 -39 1z"/>
<path d="M1440 201 c0 -8 52 -23 59 -16 1 2 0 8 -4 14 -8 13 -55 15 -55 2z"/>
<path d="M2128 193 c-16 -2 -28 -9 -28 -14 0 -14 63 -5 68 9 2 7 0 11 -5 11
-4 -1 -20 -4 -35 -6z"/>
<path d="M1570 182 c0 -5 7 -13 16 -16 24 -9 54 -7 54 4 0 6 -6 10 -12 10 -7
0 -23 3 -35 6 -13 4 -23 2 -23 -4z"/>
<path d="M1988 172 c-29 -6 -20 -23 10 -18 15 2 31 5 36 5 13 1 -2 15 -17 16
-7 1 -20 0 -29 -3z"/>
<path d="M1700 160 c0 -5 16 -10 35 -10 19 0 35 5 35 10 0 6 -16 10 -35 10
-19 0 -35 -4 -35 -10z"/>
<path d="M1835 161 c-3 -5 3 -11 12 -13 27 -6 64 3 57 13 -7 12 -61 12 -69 0z"/>
</g>
</svg>
