<?xml version="1.0" encoding="UTF-8" standalone="no"?>
<!-- Created with Inkscape (http://www.inkscape.org/) -->
<svg
   xmlns:dc="http://purl.org/dc/elements/1.1/"
   xmlns:cc="http://creativecommons.org/ns#"
   xmlns:rdf="http://www.w3.org/1999/02/22-rdf-syntax-ns#"
   xmlns:svg="http://www.w3.org/2000/svg"
   xmlns="http://www.w3.org/2000/svg"
   xmlns:xlink="http://www.w3.org/1999/xlink"
   xmlns:sodipodi="http://sodipodi.sourceforge.net/DTD/sodipodi-0.dtd"
   xmlns:inkscape="http://www.inkscape.org/namespaces/inkscape"
   width="600"
   height="600"
   id="svg2"
   sodipodi:version="0.32"
   inkscape:version="0.46"
   version="1.0"
   sodipodi:docname="Delete.svg"
   inkscape:output_extension="org.inkscape.output.svg.inkscape"
   inkscape:export-filename="D:\Documents and Settings\Маша\Рабочий стол\TELMA.V20\Projects\Interfaces\CurveEditor\SelectionPanel\images\Delete.png"
   inkscape:export-xdpi="4.7978296"
   inkscape:export-ydpi="4.7978296">
  <defs
     id="defs4">
    <linearGradient
       id="linearGradient4475">
      <stop
         style="stop-color:#0a0a0a;stop-opacity:1;"
         offset="0"
         id="stop4477" />
      <stop
         style="stop-color:#ffffff;stop-opacity:0;"
         offset="1"
         id="stop4479" />
    </linearGradient>
    <linearGradient
       id="linearGradient4467">
      <stop
         style="stop-color:#0a0a0a;stop-opacity:1;"
         offset="0"
         id="stop4469" />
      <stop
         style="stop-color:#ffffff;stop-opacity:0;"
         offset="1"
         id="stop4471" />
    </linearGradient>
    <linearGradient
       id="linearGradient4441">
      <stop
         style="stop-color:#0a0a0a;stop-opacity:1;"
         offset="0"
         id="stop4443" />
      <stop
         style="stop-color:#ffffff;stop-opacity:0;"
         offset="1"
         id="stop4445" />
    </linearGradient>
    <linearGradient
       id="linearGradient4433">
      <stop
         style="stop-color:#462644;stop-opacity:1;"
         offset="0"
         id="stop4435" />
      <stop
         style="stop-color:#ffffff;stop-opacity:0;"
         offset="1"
         id="stop4437" />
    </linearGradient>
    <linearGradient
       id="linearGradient4370">
      <stop
         style="stop-color:#b0640d;stop-opacity:1;"
         offset="0"
         id="stop4372" />
      <stop
         style="stop-color:#ffffff;stop-opacity:0;"
         offset="1"
         id="stop4374" />
    </linearGradient>
    <linearGradient
       id="linearGradient4362">
      <stop
         style="stop-color:#1e241a;stop-opacity:1;"
         offset="0"
         id="stop4364" />
      <stop
         style="stop-color:#ffffff;stop-opacity:0;"
         offset="1"
         id="stop4366" />
    </linearGradient>
    <linearGradient
       id="linearGradient4326">
      <stop
         style="stop-color:#595b52;stop-opacity:1;"
         offset="0"
         id="stop4328" />
      <stop
         style="stop-color:#595b52;stop-opacity:0;"
         offset="1"
         id="stop4330" />
    </linearGradient>
    <linearGradient
       inkscape:collect="always"
       id="linearGradient3267">
      <stop
         style="stop-color:#ff0000;stop-opacity:1;"
         offset="0"
         id="stop3269" />
      <stop
         style="stop-color:#ff0000;stop-opacity:0;"
         offset="1"
         id="stop3271" />
    </linearGradient>
    <linearGradient
       inkscape:collect="always"
       xlink:href="#linearGradient3267"
       id="linearGradient3273"
       x1="123.15675"
       y1="130.17917"
       x2="131.75237"
       y2="121.43824"
       gradientUnits="userSpaceOnUse"
       gradientTransform="matrix(0.4886094,-3.0688775,0.4738435,3.1645097,142.81868,283.077)" />
    <linearGradient
       id="linearGradient3253">
      <stop
         style="stop-color:#ff0000;stop-opacity:1;"
         offset="0"
         id="stop3255" />
      <stop
         style="stop-color:#ff0000;stop-opacity:0;"
         offset="1"
         id="stop3257" />
    </linearGradient>
    <linearGradient
       id="linearGradient4618">
      <stop
         style="stop-color:#b8b8dc;stop-opacity:1;"
         offset="0"
         id="stop4620" />
      <stop
         style="stop-color:#ffffff;stop-opacity:0;"
         offset="1"
         id="stop4622" />
    </linearGradient>
    <linearGradient
       id="linearGradient3176">
      <stop
         id="stop3178"
         offset="0"
         style="stop-color:#ff0000;stop-opacity:1;" />
      <stop
         id="stop3180"
         offset="1"
         style="stop-color:#00d63b;stop-opacity:0;" />
    </linearGradient>
    <linearGradient
       id="linearGradient3170">
      <stop
         style="stop-color:#ff0000;stop-opacity:1;"
         offset="0"
         id="stop3172" />
      <stop
         style="stop-color:#00d63b;stop-opacity:0;"
         offset="1"
         id="stop3174" />
    </linearGradient>
    <linearGradient
       id="linearGradient3164">
      <stop
         id="stop3166"
         offset="0"
         style="stop-color:#ff0000;stop-opacity:1;" />
      <stop
         id="stop3168"
         offset="1"
         style="stop-color:#00d63b;stop-opacity:0;" />
    </linearGradient>
    <linearGradient
       id="linearGradient5422">
      <stop
         style="stop-color:#ff0000;stop-opacity:1;"
         offset="0"
         id="stop5424" />
      <stop
         style="stop-color:#00d63b;stop-opacity:0;"
         offset="1"
         id="stop5426" />
    </linearGradient>
    <inkscape:perspective
       sodipodi:type="inkscape:persp3d"
       inkscape:vp_x="0 : 526.18109 : 1"
       inkscape:vp_y="6.1230318e-14 : 1000 : 0"
       inkscape:vp_z="744.09448 : 526.18109 : 1"
       inkscape:persp3d-origin="372.04724 : 350.78739 : 1"
       id="perspective10" />
    <linearGradient
       inkscape:collect="always"
       xlink:href="#linearGradient4433"
       id="linearGradient4439"
       x1="412.50568"
       y1="775.65881"
       x2="-67.538414"
       y2="713.43341"
       gradientUnits="userSpaceOnUse"
       gradientTransform="translate(7.5,-406)" />
    <linearGradient
       inkscape:collect="always"
       xlink:href="#linearGradient4441"
       id="linearGradient4447"
       x1="201.59903"
       y1="125.96117"
       x2="492.72522"
       y2="457.96115"
       gradientUnits="userSpaceOnUse" />
    <linearGradient
       inkscape:collect="always"
       xlink:href="#linearGradient4441"
       id="linearGradient4463"
       x1="306.34811"
       y1="359.16351"
       x2="260.11462"
       y2="362.61142"
       gradientUnits="userSpaceOnUse" />
    <linearGradient
       inkscape:collect="always"
       xlink:href="#linearGradient4467"
       id="linearGradient4473"
       x1="288.01007"
       y1="373"
       x2="328.61414"
       y2="375.12311"
       gradientUnits="userSpaceOnUse" />
    <linearGradient
       inkscape:collect="always"
       xlink:href="#linearGradient4475"
       id="linearGradient4481"
       x1="289.34909"
       y1="372.3519"
       x2="331.46402"
       y2="372.87421"
       gradientUnits="userSpaceOnUse" />
  </defs>
  <sodipodi:namedview
     id="base"
     pagecolor="#ffffff"
     bordercolor="#666666"
     borderopacity="1.0"
     gridtolerance="10000"
     guidetolerance="10"
     objecttolerance="10"
     inkscape:pageopacity="0.0"
     inkscape:pageshadow="2"
     inkscape:zoom="0.70710678"
     inkscape:cx="-158.57962"
     inkscape:cy="336.57638"
     inkscape:document-units="px"
     inkscape:current-layer="layer1"
     showgrid="false"
     showguides="true"
     inkscape:showpageshadow="false"
     inkscape:window-width="1029"
     inkscape:window-height="676"
     inkscape:window-x="81"
     inkscape:window-y="105"
     showborder="true">
    <inkscape:grid
       type="xygrid"
       visible="true"
       enabled="true"
       id="grid2393" />
  </sodipodi:namedview>
  <metadata
     id="metadata7">
    <rdf:RDF>
      <cc:Work
         rdf:about="">
        <dc:format>image/svg+xml</dc:format>
        <dc:type
           rdf:resource="http://purl.org/dc/dcmitype/StillImage" />
      </cc:Work>
    </rdf:RDF>
  </metadata>
  <g
     inkscape:label="Layer 1"
     inkscape:groupmode="layer"
     id="layer1">
    <rect
       ry="90"
       rx="90"
       y="10.602222"
       x="11.58176"
       height="576.74463"
       width="577.10175"
       id="rect2390"
       style="opacity:1;fill:none;fill-opacity:1;stroke:none;stroke-width:1;stroke-linecap:round;stroke-linejoin:miter;stroke-miterlimit:4;stroke-dasharray:none;stroke-dashoffset:0;stroke-opacity:1"
       inkscape:export-filename="P:\TELMA.V20\telma.v20_10_11\Projects\Interfaces\BaseInterface\CurveEditor\SelectionPanel\images\Delete.png"
       inkscape:export-xdpi="4.9935446"
       inkscape:export-ydpi="4.9935446" />
    <rect
       style="opacity:1;fill:none;fill-opacity:0;stroke:none;stroke-width:23.16965866000000000;stroke-linecap:round;stroke-linejoin:miter;stroke-miterlimit:4;stroke-dasharray:none;stroke-dashoffset:0;stroke-opacity:1"
       id="rect5264"
       width="577.10175"
       height="576.74463"
       x="11.581718"
       y="11.612374"
       rx="90"
       ry="90" />
  </g>
  <g
     inkscape:groupmode="layer"
     id="layer8"
     inkscape:label="Корзина">
    <path
       sodipodi:type="arc"
       style="opacity:1;fill:url(#linearGradient4447);fill-opacity:1;stroke:#000000;stroke-width:8;stroke-linecap:round;stroke-linejoin:round;stroke-miterlimit:4;stroke-dasharray:none;stroke-dashoffset:0;stroke-opacity:1"
       id="path4415"
       sodipodi:cx="344.16214"
       sodipodi:cy="135.96117"
       sodipodi:rx="185.06311"
       sodipodi:ry="53.033009"
       d="M 529.22525,135.96117 A 185.06311,53.033009 0 1 1 159.09903,135.96117 A 185.06311,53.033009 0 1 1 529.22525,135.96117 z"
       transform="translate(-45.299028,16.572815)" />
    <path
       style="fill:#ffffff;fill-rule:evenodd;stroke:#000000;stroke-width:1px;stroke-linecap:butt;stroke-linejoin:miter;stroke-opacity:1;fill-opacity:1"
       d="M 173.25398,478.12345 C 173.25398,478.12345 173.25398,483.98283 175.59773,485.93595 C 177.94148,487.88908 183.0196,491.4047 185.75398,492.9672 C 188.48835,494.5297 204.8946,499.60783 207.23835,499.99845 C 209.5821,500.38908 242.00398,507.42033 247.47273,507.42033 C 252.94148,507.42033 268.17585,509.76408 283.0196,509.76408 C 297.86335,509.76408 324.42585,510.1547 335.75398,508.98283 C 347.0821,507.81095 369.73835,505.07658 377.16023,503.51408 C 384.5821,501.95158 398.25398,498.43595 402.16023,496.48283 C 406.06648,494.5297 410.36335,492.57658 413.48835,490.23283 C 416.61335,487.88908 421.30085,484.37345 421.69148,482.42033 C 422.0821,480.4672 483.0196,158.20158 483.0196,158.20158 C 483.0196,158.20158 482.23835,164.06095 478.3321,167.57658 C 474.42585,171.0922 468.56648,176.17033 462.31648,178.9047 C 456.06648,181.63908 440.44148,187.49845 435.36335,188.67033 C 430.28523,189.8422 390.05085,198.82658 386.1446,199.2172 C 382.23835,199.60783 343.17585,205.4672 336.53523,205.07658 C 329.8946,204.68595 268.56648,204.68595 261.1446,204.68595 C 253.72273,204.68595 229.50398,202.73283 222.0821,201.56095 C 214.66023,200.38908 182.62898,193.74845 177.94148,192.57658 C 173.25398,191.4047 155.28523,187.10783 149.03523,184.37345 C 142.78523,181.63908 133.0196,177.73283 128.33211,173.43595 C 123.64461,169.13908 119.34774,165.62345 117.00399,161.7172 C 114.66024,157.81095 112.70711,153.12345 112.70711,153.12345 L 173.25398,478.12345 z"
       id="path4429" />
    <path
       id="path4431"
       d="M 172.75398,478.12345 C 172.75398,478.12345 172.75398,483.98283 175.09773,485.93595 C 177.44148,487.88908 182.5196,491.4047 185.25398,492.9672 C 187.98835,494.5297 204.3946,499.60783 206.73835,499.99845 C 209.0821,500.38908 241.50398,507.42033 246.97273,507.42033 C 252.44148,507.42033 267.67585,509.76408 282.5196,509.76408 C 297.36335,509.76408 323.92585,510.1547 335.25398,508.98283 C 346.5821,507.81095 369.23835,505.07658 376.66023,503.51408 C 384.0821,501.95158 397.75398,498.43595 401.66023,496.48283 C 405.56648,494.5297 409.86335,492.57658 412.98835,490.23283 C 416.11335,487.88908 420.80085,484.37345 421.19148,482.42033 C 421.5821,480.4672 482.5196,158.20158 482.5196,158.20158 C 482.5196,158.20158 481.73835,164.06095 477.8321,167.57658 C 473.92585,171.0922 468.06648,176.17033 461.81648,178.9047 C 455.56648,181.63908 439.94148,187.49845 434.86335,188.67033 C 429.78523,189.8422 389.55085,198.82658 385.6446,199.2172 C 381.73835,199.60783 342.67585,205.4672 336.03523,205.07658 C 329.3946,204.68595 268.06648,204.68595 260.6446,204.68595 C 253.22273,204.68595 229.00398,202.73283 221.5821,201.56095 C 214.16023,200.38908 182.12898,193.74845 177.44148,192.57658 C 172.75398,191.4047 154.78523,187.10783 148.53523,184.37345 C 142.28523,181.63908 132.5196,177.73283 127.83211,173.43595 C 123.14461,169.13908 118.84774,165.62345 116.50399,161.7172 C 114.16024,157.81095 112.20711,153.12345 112.20711,153.12345 L 172.75398,478.12345 z"
       style="fill:url(#linearGradient4439);fill-opacity:1;fill-rule:evenodd;stroke:#000000;stroke-width:8;stroke-linecap:butt;stroke-linejoin:round;stroke-opacity:1;stroke-miterlimit:4;stroke-dasharray:none" />
  </g>
  <g
     inkscape:groupmode="layer"
     id="layer4"
     inkscape:label="Полоска">
    <path
       sodipodi:type="arc"
       style="opacity:1;fill:url(#linearGradient4473);fill-opacity:1;stroke:#000000;stroke-width:2.53220735;stroke-linecap:round;stroke-linejoin:round;stroke-miterlimit:4;stroke-dasharray:none;stroke-dashoffset:0;stroke-opacity:1"
       id="path4449"
       sodipodi:cx="299"
       sodipodi:cy="373"
       sodipodi:rx="12"
       sodipodi:ry="110"
       d="M 311,373 A 12,110 0 1 1 287,373 A 12,110 0 1 1 311,373 z"
       transform="matrix(1.4047816,0,0,0.9991603,-119.07994,-13.686787)" />
    <path
       transform="matrix(1.0261029,0.2318275,-0.1180795,1.0191417,139.30488,-101.06286)"
       d="M 311,373 A 12,110 0 1 1 287,373 A 12,110 0 1 1 311,373 z"
       sodipodi:ry="110"
       sodipodi:rx="12"
       sodipodi:cy="373"
       sodipodi:cx="299"
       id="path4453"
       style="opacity:1;fill:url(#linearGradient4481);fill-opacity:1;stroke:#000000;stroke-width:2.8959926;stroke-linecap:round;stroke-linejoin:round;stroke-miterlimit:4;stroke-dasharray:none;stroke-dashoffset:0;stroke-opacity:1"
       sodipodi:type="arc" />
    <path
       sodipodi:type="arc"
       style="opacity:1;fill:url(#linearGradient4463);fill-opacity:1;stroke:#000000;stroke-width:2.8959926;stroke-linecap:round;stroke-linejoin:round;stroke-miterlimit:4;stroke-dasharray:none;stroke-dashoffset:0;stroke-opacity:1"
       id="path4455"
       sodipodi:cx="299"
       sodipodi:cy="373"
       sodipodi:rx="12"
       sodipodi:ry="110"
       d="M 311,373 A 12,110 0 1 1 287,373 A 12,110 0 1 1 311,373 z"
       transform="matrix(-1.0261029,0.2318275,0.1180795,1.0191417,462.59457,-98.234433)" />
  </g>
</svg>
