<?xml version="1.0" standalone="no"?>
<!DOCTYPE svg PUBLIC "-//W3C//DTD SVG 20010904//EN"
 "http://www.w3.org/TR/2001/REC-SVG-20010904/DTD/svg10.dtd">
<svg version="1.0" xmlns="http://www.w3.org/2000/svg"
 width="600.000000pt" height="600.000000pt" viewBox="0 0 600.000000 600.000000"
 preserveAspectRatio="xMidYMid meet">
<metadata>
Created by potrace 1.11, written by Peter Selinger 2001-2013
</metadata>
<g transform="translate(0.000000,600.000000) scale(0.100000,-0.100000)"
fill="#000000" stroke="none">
<path d="M0 3000 l0 -3000 3000 0 3000 0 0 3000 0 3000 -3000 0 -3000 0 0
-3000z m3372 1850 c84 -6 185 -15 223 -21 320 -46 606 -270 752 -587 90 -195
132 -493 102 -737 -55 -454 -272 -745 -675 -905 -201 -80 -455 -106 -1128
-115 -209 -2 -383 -8 -388 -13 -12 -12 9 -619 23 -662 7 -21 13 -181 16 -409
l6 -374 -24 -18 c-22 -17 -51 -19 -391 -19 l-368 0 0 83 c0 45 -5 912 -11
1926 -9 1546 -9 1845 2 1852 20 12 1676 11 1861 -1z"/>
<path d="M2252 4262 c-11 -7 -11 -60 -3 -293 6 -156 11 -415 11 -576 0 -268 1
-293 18 -302 25 -13 690 5 847 23 158 19 211 34 293 83 114 69 203 177 247
298 26 74 32 252 11 334 -41 161 -150 299 -286 364 -124 60 -194 67 -690 73
-260 3 -440 2 -448 -4z"/>
</g>
</svg>
