<svg xmlns="http://www.w3.org/2000/svg" xmlns:xlink="http://www.w3.org/1999/xlink" width="600" height="600"><defs><linearGradient id="A" x1="262.355" y1="307.9" x2="354.271" y2="95.421" gradientUnits="userSpaceOnUse"><stop offset="0" stop-color="#b6b6b8"/><stop offset="1" stop-color="#b6b6b8" stop-opacity="0"/></linearGradient><linearGradient id="B" x1="329.665" y1="420.033" x2="211.965" y2="514.455" gradientUnits="userSpaceOnUse"><stop offset="0" stop-color="#d5d5d6"/><stop offset="1" stop-color="#d5d5d6" stop-opacity="0"/></linearGradient><linearGradient id="C" x1="427.602" y1="437.893" x2="381.6" y2="165.586" gradientUnits="userSpaceOnUse"><stop offset="0" stop-color="#b7b9b8"/><stop offset="1" stop-color="#b7b9b8" stop-opacity="0"/></linearGradient><linearGradient id="D" x1="423.093" y1="201.972" x2="434.256" y2="307.959" gradientUnits="userSpaceOnUse"><stop offset="0" stop-color="#f2f4f3"/><stop offset="1" stop-color="#f2f4f3" stop-opacity="0"/></linearGradient><path id="E" d="M223.465 420.596l-30.507 93.296h238.337l-33.685-93.296H223.465z"/></defs><g fill="#fff"><path d="M86.139 308.139H525.95v129.371H86.139z"/><path d="M525.315 308.139H86.139l1.271-78.369s0-13.061 5.085-19.281 6.991-10.574 13.347-11.818 22.245-1.866 22.245-1.866l353.51.81s14.972.471 22.162 3.11 9.896 5.269 14.799 9.418c5.502 4.656 7.236 16.091 7.236 16.091l-.479 81.905z" fill-rule="evenodd"/></g><g stroke="#000" stroke-width="8"><path d="M85.548 307.397h439.811v129.371H85.548z" fill="url(#C)" stroke-linejoin="round"/><path d="M524.723 307.397H85.548l1.271-78.369s0-13.061 5.085-19.281 6.991-10.574 13.347-11.818 22.245-1.866 22.245-1.866l353.51.81s14.972.471 22.162 3.11 9.896 5.269 14.799 9.418c5.502 4.656 7.236 16.091 7.236 16.091l-.479 81.905z" fill="url(#D)" fill-rule="evenodd"/></g><path d="M222.83 96.547h167.154v210.228H222.83z" fill="#fff"/><g stroke="#000" stroke-width="8" stroke-linejoin="round"><path d="M222.83 96.547h167.154v210.228H222.83z" fill="url(#A)"/><path d="M210.754 400.071h200.839v35.453H210.754z"/></g><g fill-rule="evenodd"><use xlink:href="#E" fill="#fff"/><use xlink:href="#E" fill="url(#B)" stroke="#000" stroke-width="8"/></g></svg>