<svg xmlns="http://www.w3.org/2000/svg" xmlns:xlink="http://www.w3.org/1999/xlink" width="600" height="600"><defs><linearGradient id="A" gradientUnits="userSpaceOnUse"><stop offset="0"/><stop offset="1" stop-opacity="0"/></linearGradient><linearGradient xlink:href="#A" id="B" x1="122.003" y1="424.536" x2="410.584" y2="489.848"/><linearGradient xlink:href="#A" id="C" x1="107.213" y1="373.45" x2="421.266" y2="485.698"/><linearGradient xlink:href="#A" id="D" x1="133.344" y1="394.007" x2="425.505" y2="497.986"/><linearGradient xlink:href="#A" id="E" x1="463.571" y1="427.857" x2="421.429" y2="428.571"/><linearGradient xlink:href="#A" id="F" x1="313.571" y1="435" x2="269.286" y2="435.714"/><linearGradient xlink:href="#A" id="G" x1="163.571" y1="433.009" x2="116.429" y2="432.857"/><path id="H" d="M428.222 490c-144.3-.121-264.315-73.849-275.899-169.492"/></defs><g stroke-linejoin="round" stroke-linecap="round" fill="none"><use xlink:href="#H" transform="matrix(1.564332 0 0 -1.143191 -89.942562 678.57225)" stroke="url(#D)" stroke-width="22.434"/><use xlink:href="#H" transform="matrix(1.027486 0 0 -1.145419 142.15525 679.47492)" stroke="url(#C)" stroke-width="27.654"/><use xlink:href="#H" transform="matrix(.494729 0 0 -1.14834 372.5614 679.6488)" stroke="url(#B)" stroke-width="39.802"/><g stroke-width="30"><path d="M298.571 521.74V313.974" stroke="url(#F)"/><path d="M448.571 520.312V312.545" stroke="url(#E)"/><path d="M148.571 521.74V313.974" stroke="url(#G)"/></g></g></svg>