<svg xmlns="http://www.w3.org/2000/svg" xmlns:xlink="http://www.w3.org/1999/xlink" width="569" height="600" fill="none"><g stroke="#000"><g stroke-linejoin="round"><path d="M515.131 53.022H240.84v371.686h274.291V53.022z" fill="#979696" stroke-width="10"/><path d="M515.256 52.141L350.919 196.253v371.831l164.337-144.112V52.141z" fill="#49bbff" stroke-width="11.533"/></g><path d="M393.226 316.891v42.203" stroke-width="12" stroke-linecap="round"/></g><path fill-rule="evenodd" d="M160.105 291.777l-92.306.525z" fill="#fff"/><path d="M160.105 291.777l-92.306.525" stroke="url(#A)" stroke-width="66.599" stroke-linecap="square"/><path fill-rule="evenodd" d="M449.891 211.109l.524 92.307z" fill="#fff"/><g stroke-linecap="round" stroke="#ff3b3b" stroke-width="50"><path d="M449.891 211.109l.524 92.307"/><path d="M449.891 211.109l.524 92.307"/></g><path fill-rule="evenodd" d="M450 369v20z" fill="#fff"/><g stroke-linecap="round" stroke="#ff3b3b" stroke-width="50"><path d="M450 369v20"/><path d="M450 369v20"/></g><g stroke="#000" stroke-width="1.265"><use xlink:href="#C" fill="#fff"/><use xlink:href="#C" fill="url(#B)"/></g><defs><linearGradient id="A" x1="111.195" y1="374.531" x2="141.098" y2="171.556" gradientUnits="userSpaceOnUse"><stop stop-color="red"/><stop offset="1" stop-color="red" stop-opacity="0"/></linearGradient><linearGradient id="B" x1="257.398" y1="381.235" x2="246.711" y2="140.83" gradientUnits="userSpaceOnUse"><stop stop-color="red"/><stop offset="1" stop-color="red" stop-opacity="0"/></linearGradient><path id="C" d="M187.409 205.357l74.902 49.876 65.24 31.656-80.031 47.15-60.275 46.542 5.129-97.026-4.965-78.198z"/></defs></svg>