<svg xmlns="http://www.w3.org/2000/svg" xmlns:xlink="http://www.w3.org/1999/xlink" width="600" height="600"><defs><linearGradient id="A" gradientUnits="userSpaceOnUse"><stop offset="0"/><stop offset="1" stop-opacity="0"/></linearGradient><linearGradient xlink:href="#A" id="B" x1="120.266" y1="336.54" x2="5.688" y2="332.12"/><linearGradient xlink:href="#A" id="C" x1="321.255" y1="268.449" x2="109.891" y2="269.554"/><linearGradient xlink:href="#A" id="D" x1="575.75" y1="343.958" x2="250.965" y2="345.063"/><linearGradient xlink:href="#A" id="E" x1="374.513" y1="281.202" x2="306.012" y2="281.202"/><linearGradient xlink:href="#A" id="F" x1="167.432" y1="259.294" x2="100.035" y2="259.294"/></defs><g fill="none" stroke-linejoin="bevel"><path d="M142.432 13.101v569.726" stroke="url(#F)" stroke-width="50"/><path d="M561.645 38.355L380.828 177.756l189.909 122.228-189.909 126.269 178.797 128.289" stroke="url(#D)" stroke-width="30"/><path d="M349.513 16.132v567.706" stroke="url(#E)" stroke-width="50"/><g stroke-width="30"><path d="M331.33 26.233l-158.594 84.853 144.128 85.634-143.118 102.254 143.576 96.975-144.586 82.833 156.574 95.964" stroke="url(#C)"/><path d="M35.355 42.396l71.626 71.721-73.647 86.873 72.313 94.173-75.343 87.654 75.667 87.102-70.616 85.634" stroke="url(#B)"/></g></g></svg>