<svg xmlns="http://www.w3.org/2000/svg" width="36" height="33" fill="none"><path d="M25 32.5H13.5l-1-3c-4.225-1.267-5.5-13-4.5-15s2.198-1.296 3.5 0c0 0 0-7 .25-9s3.25-2 3.75 0v-3c0-2 4-2 4 0v2c0-1.5 3.438-2 3.75.5.245 1.964.259 3.002.254 3.357.127-2.085 3.007-2.791 3.496.143.5 3 .305 14.847-2 24z" fill="url(#A)"/><path d="M23.5 8.5c0-2.194 3-3 3.5 0s.305 14.847-2 24H13.5l-1-3c-4.225-1.267-5.5-13-4.5-15s2.198-1.296 3.5 0m12-6v6m0-6s.063-1-.25-3.5-3.75-2-3.75-.5m0 0v9m0-9s0 0 0-2-4-2-4 0v3m0 8v-8m0 0c-.5-2-3.5-2-3.75 0s-.25 9-.25 9m0 6v-6" stroke="#967130" stroke-linecap="round" stroke-linejoin="round"/><defs><linearGradient id="A" x1="13.5" y1="1.5" x2="21.5" y2="33" gradientUnits="userSpaceOnUse"><stop stop-color="#f9e39f"/><stop offset="1" stop-color="#c4a064"/></linearGradient></defs></svg>